G75*
G70*
%OFA0B0*%
%FSLAX24Y24*%
%IPPOS*%
%LPD*%
%AMOC8*
5,1,8,0,0,1.08239X$1,22.5*
%
%ADD10C,0.0210*%
%ADD11R,0.0357X0.0651*%
%ADD12R,0.0651X0.0357*%
%ADD13C,0.0370*%
%ADD14C,0.0460*%
%ADD15C,0.2360*%
%ADD16R,0.1536X0.0462*%
%ADD17C,0.0476*%
%ADD18OC8,0.0660*%
%ADD19C,0.0760*%
%ADD20R,0.0660X0.0660*%
%ADD21R,0.1871X0.0454*%
%ADD22R,0.1399X0.0690*%
D10*
X003350Y005925D03*
X003350Y006275D03*
X003350Y006625D03*
X003350Y006975D03*
X003350Y007325D03*
X003350Y007675D03*
X003350Y008025D03*
X003350Y008375D03*
X003350Y008725D03*
X003350Y009075D03*
X003350Y009425D03*
X003350Y009775D03*
X003350Y010125D03*
X003350Y010475D03*
X003350Y010825D03*
X003350Y011200D03*
D11*
X009447Y009482D03*
X009841Y009482D03*
X010235Y009482D03*
X010628Y009482D03*
X011022Y009482D03*
X011416Y009482D03*
X011809Y009482D03*
X012991Y009482D03*
X013384Y009482D03*
X013778Y009482D03*
X014172Y009482D03*
X014565Y009482D03*
X014959Y009482D03*
X015353Y009482D03*
D12*
X016053Y010182D03*
X016053Y010576D03*
X016053Y010970D03*
X016053Y011363D03*
X016053Y011757D03*
X016053Y012151D03*
X016053Y012544D03*
X016053Y012938D03*
X016053Y013332D03*
X008747Y013332D03*
X008747Y012938D03*
X008747Y012544D03*
X008747Y012151D03*
X008747Y011757D03*
X008747Y011363D03*
X008747Y010970D03*
X008747Y010576D03*
X008747Y010182D03*
D13*
X008050Y014600D03*
X008050Y015100D03*
X008050Y015600D03*
X007550Y015600D03*
X007550Y015100D03*
X007550Y014600D03*
D14*
X007800Y014100D03*
X007400Y016100D03*
X008200Y016100D03*
D15*
X005300Y015000D03*
X005300Y002300D03*
X018000Y002300D03*
X018000Y015000D03*
D16*
X007023Y011300D03*
X007023Y010300D03*
X007023Y009300D03*
X007023Y008300D03*
X007023Y007300D03*
X004577Y007300D03*
X004577Y008300D03*
X004577Y009300D03*
X004577Y010300D03*
X004577Y011300D03*
D17*
X017500Y010350D03*
X018500Y011350D03*
X017500Y012350D03*
D18*
X001000Y001000D03*
X001000Y002000D03*
X001000Y003000D03*
X001000Y004000D03*
X001000Y005000D03*
X001000Y006000D03*
X001000Y007000D03*
X001000Y008000D03*
X001000Y009000D03*
X001000Y010000D03*
X001000Y011000D03*
X001000Y012000D03*
X001000Y013000D03*
X001000Y014000D03*
X001000Y015000D03*
X001000Y016000D03*
X001000Y017000D03*
X001000Y018000D03*
X001000Y019000D03*
X001000Y020000D03*
X001000Y021000D03*
X001000Y022000D03*
X001000Y023000D03*
X002000Y023000D03*
X002000Y022000D03*
X002000Y021000D03*
X002000Y020000D03*
X002000Y019000D03*
X002000Y018000D03*
X002000Y017000D03*
X002000Y016000D03*
X002000Y015000D03*
X002000Y014000D03*
X002000Y013000D03*
X002000Y012000D03*
X002000Y011000D03*
X002000Y010000D03*
X002000Y009000D03*
X002000Y008000D03*
X002000Y007000D03*
X002000Y006000D03*
X002000Y005000D03*
X002000Y004000D03*
X002000Y003000D03*
X002000Y002000D03*
X002000Y001000D03*
X006000Y018400D03*
X006000Y019400D03*
X005000Y019400D03*
X007000Y019400D03*
X007000Y018400D03*
X008000Y018400D03*
X008000Y019400D03*
X009000Y019400D03*
X009000Y018400D03*
X007000Y021300D03*
D19*
X007000Y022300D03*
X007000Y023300D03*
X008913Y007812D03*
X008913Y006788D03*
D20*
X005000Y018400D03*
D21*
X016593Y005794D03*
X016593Y005006D03*
D22*
X018641Y004061D03*
X018641Y006739D03*
M02*
