G75*
G70*
%OFA0B0*%
%FSLAX24Y24*%
%IPPOS*%
%LPD*%
%AMOC8*
5,1,8,0,0,1.08239X$1,22.5*
%
%ADD10C,0.0210*%
%ADD11R,0.0178X0.0296*%
%ADD12R,0.0296X0.0178*%
%ADD13C,0.0237*%
%ADD14R,0.0690X0.1044*%
%ADD15C,0.0151*%
%ADD16R,0.0275X0.0271*%
%ADD17R,0.0271X0.0275*%
%ADD18R,0.0375X0.0178*%
%ADD19R,0.0178X0.0375*%
%ADD20R,0.0454X0.0690*%
%ADD21R,0.0336X0.0454*%
%ADD22C,0.0460*%
%ADD23R,0.1536X0.0462*%
%ADD24C,0.2360*%
%ADD25C,0.0476*%
%ADD26R,0.0460X0.0810*%
%ADD27OC8,0.0660*%
%ADD28R,0.0926X0.0296*%
%ADD29R,0.0414X0.0336*%
%ADD30C,0.0760*%
%ADD31R,0.0660X0.0660*%
%ADD32R,0.0532X0.0277*%
%ADD33R,0.0532X0.0257*%
%ADD34R,0.0257X0.0170*%
%ADD35R,0.0454X0.1162*%
%ADD36R,0.0572X0.0257*%
%ADD37R,0.0336X0.0414*%
D10*
X003350Y005925D03*
X003350Y006275D03*
X003350Y006625D03*
X003350Y006975D03*
X003350Y007325D03*
X003350Y007675D03*
X003350Y008025D03*
X003350Y008375D03*
X003350Y008725D03*
X003350Y009075D03*
X003350Y009425D03*
X003350Y009775D03*
X003350Y010125D03*
X003350Y010475D03*
X003350Y010825D03*
X003350Y011200D03*
D11*
X010056Y011028D03*
X010253Y011028D03*
X010450Y011028D03*
X010647Y011028D03*
X010844Y011028D03*
X010844Y011972D03*
X010647Y011972D03*
X010450Y011972D03*
X010253Y011972D03*
X010056Y011972D03*
D12*
X009978Y011697D03*
X009978Y011500D03*
X009978Y011303D03*
X010922Y011303D03*
X010922Y011500D03*
X010922Y011697D03*
D13*
X011000Y001844D02*
X011158Y001844D01*
X011158Y001844D01*
X011000Y001844D01*
X011000Y001844D01*
X011000Y001450D02*
X011158Y001450D01*
X011158Y001450D01*
X011000Y001450D01*
X011000Y001450D01*
X011000Y001056D02*
X011158Y001056D01*
X011158Y001056D01*
X011000Y001056D01*
X011000Y001056D01*
X012142Y001056D02*
X012300Y001056D01*
X012300Y001056D01*
X012142Y001056D01*
X012142Y001056D01*
X012142Y001450D02*
X012300Y001450D01*
X012300Y001450D01*
X012142Y001450D01*
X012142Y001450D01*
X012142Y001844D02*
X012300Y001844D01*
X012300Y001844D01*
X012142Y001844D01*
X012142Y001844D01*
D14*
X011650Y001450D03*
D15*
X013156Y010236D02*
X013156Y010382D01*
X013156Y010236D02*
X013156Y010236D01*
X013156Y010382D01*
X013156Y010382D01*
X013314Y010382D02*
X013314Y010236D01*
X013314Y010236D01*
X013314Y010382D01*
X013314Y010382D01*
X013471Y010382D02*
X013471Y010236D01*
X013471Y010236D01*
X013471Y010382D01*
X013471Y010382D01*
X013629Y010382D02*
X013629Y010236D01*
X013629Y010236D01*
X013629Y010382D01*
X013629Y010382D01*
X013786Y010382D02*
X013786Y010236D01*
X013786Y010236D01*
X013786Y010382D01*
X013786Y010382D01*
X013944Y010382D02*
X013944Y010236D01*
X013944Y010236D01*
X013944Y010382D01*
X013944Y010382D01*
X014068Y010506D02*
X014214Y010506D01*
X014214Y010506D01*
X014068Y010506D01*
X014068Y010506D01*
X014068Y010664D02*
X014214Y010664D01*
X014214Y010664D01*
X014068Y010664D01*
X014068Y010664D01*
X014068Y010821D02*
X014214Y010821D01*
X014214Y010821D01*
X014068Y010821D01*
X014068Y010821D01*
X014068Y010979D02*
X014214Y010979D01*
X014214Y010979D01*
X014068Y010979D01*
X014068Y010979D01*
X014068Y011136D02*
X014214Y011136D01*
X014214Y011136D01*
X014068Y011136D01*
X014068Y011136D01*
X014068Y011294D02*
X014214Y011294D01*
X014214Y011294D01*
X014068Y011294D01*
X014068Y011294D01*
X013944Y011418D02*
X013944Y011564D01*
X013944Y011564D01*
X013944Y011418D01*
X013944Y011418D01*
X013786Y011418D02*
X013786Y011564D01*
X013786Y011564D01*
X013786Y011418D01*
X013786Y011418D01*
X013629Y011418D02*
X013629Y011564D01*
X013629Y011564D01*
X013629Y011418D01*
X013629Y011418D01*
X013471Y011418D02*
X013471Y011564D01*
X013471Y011564D01*
X013471Y011418D01*
X013471Y011418D01*
X013314Y011418D02*
X013314Y011564D01*
X013314Y011564D01*
X013314Y011418D01*
X013314Y011418D01*
X013156Y011418D02*
X013156Y011564D01*
X013156Y011564D01*
X013156Y011418D01*
X013156Y011418D01*
X013032Y011294D02*
X012886Y011294D01*
X012886Y011294D01*
X013032Y011294D01*
X013032Y011294D01*
X013032Y011136D02*
X012886Y011136D01*
X012886Y011136D01*
X013032Y011136D01*
X013032Y011136D01*
X013032Y010979D02*
X012886Y010979D01*
X012886Y010979D01*
X013032Y010979D01*
X013032Y010979D01*
X013032Y010821D02*
X012886Y010821D01*
X012886Y010821D01*
X013032Y010821D01*
X013032Y010821D01*
X013032Y010664D02*
X012886Y010664D01*
X012886Y010664D01*
X013032Y010664D01*
X013032Y010664D01*
X013032Y010506D02*
X012886Y010506D01*
X012886Y010506D01*
X013032Y010506D01*
X013032Y010506D01*
D16*
X012600Y011430D03*
X012600Y011770D03*
X012000Y010820D03*
X012000Y010480D03*
X011550Y010480D03*
X011550Y010820D03*
X013550Y011980D03*
X013550Y012320D03*
X014050Y012320D03*
X014050Y011980D03*
X015810Y008030D03*
X015810Y007690D03*
X013600Y004570D03*
X013600Y004230D03*
X013100Y004230D03*
X013100Y004570D03*
D17*
X013030Y005000D03*
X012670Y004600D03*
X012330Y004600D03*
X012330Y004200D03*
X012670Y004200D03*
X013370Y005000D03*
X012670Y006500D03*
X012330Y006500D03*
X012330Y006900D03*
X012670Y006900D03*
X012930Y007200D03*
X013270Y007200D03*
X013330Y006600D03*
X013670Y006600D03*
X016230Y008050D03*
X016570Y008050D03*
X017730Y008700D03*
X018070Y008700D03*
X018630Y008500D03*
X018970Y008500D03*
X019030Y008000D03*
X019370Y008000D03*
X019370Y007400D03*
X019030Y007400D03*
X019030Y006800D03*
X019370Y006800D03*
X014870Y010500D03*
X014530Y010500D03*
X010020Y010500D03*
X009680Y010500D03*
X009470Y011400D03*
X009130Y011400D03*
X009130Y011800D03*
X009470Y011800D03*
D18*
X014626Y007545D03*
X014626Y007348D03*
X014626Y007152D03*
X014626Y006955D03*
X015374Y006955D03*
X015374Y007152D03*
X015374Y007348D03*
X015374Y007545D03*
D19*
X015000Y007624D03*
X015000Y006876D03*
D20*
X014649Y008700D03*
X015751Y008700D03*
X015751Y001600D03*
X014649Y001600D03*
X008651Y001600D03*
X007549Y001600D03*
D21*
X006956Y004200D03*
X006444Y004200D03*
X006444Y004800D03*
X006956Y004800D03*
X015794Y003300D03*
X016306Y003300D03*
D22*
X007800Y014100D03*
X007400Y016100D03*
X008200Y016100D03*
D23*
X007023Y011300D03*
X007023Y010300D03*
X007023Y009300D03*
X007023Y008300D03*
X007023Y007300D03*
X004577Y007300D03*
X004577Y008300D03*
X004577Y009300D03*
X004577Y010300D03*
X004577Y011300D03*
D24*
X005300Y015000D03*
X005300Y002300D03*
X018000Y002300D03*
X018000Y015000D03*
D25*
X017500Y012350D03*
X018500Y011350D03*
X017500Y010350D03*
D26*
X015800Y013300D03*
X014800Y013300D03*
X013800Y013300D03*
X012800Y013300D03*
X011800Y013300D03*
X010800Y013300D03*
X009800Y013300D03*
X008800Y013300D03*
X008800Y016100D03*
X009800Y016100D03*
X010800Y016100D03*
X011800Y016100D03*
X012800Y016100D03*
X013800Y016100D03*
X014800Y016100D03*
X015800Y016100D03*
D27*
X001000Y001000D03*
X001000Y002000D03*
X001000Y003000D03*
X001000Y004000D03*
X001000Y005000D03*
X001000Y006000D03*
X001000Y007000D03*
X001000Y008000D03*
X001000Y009000D03*
X001000Y010000D03*
X001000Y011000D03*
X001000Y012000D03*
X001000Y013000D03*
X001000Y014000D03*
X001000Y015000D03*
X001000Y016000D03*
X001000Y017000D03*
X001000Y018000D03*
X001000Y019000D03*
X001000Y020000D03*
X001000Y021000D03*
X001000Y022000D03*
X001000Y023000D03*
X002000Y023000D03*
X002000Y022000D03*
X002000Y021000D03*
X002000Y020000D03*
X002000Y019000D03*
X002000Y018000D03*
X002000Y017000D03*
X002000Y016000D03*
X002000Y015000D03*
X002000Y014000D03*
X002000Y013000D03*
X002000Y012000D03*
X002000Y011000D03*
X002000Y010000D03*
X002000Y009000D03*
X002000Y008000D03*
X002000Y007000D03*
X002000Y006000D03*
X002000Y005000D03*
X002000Y004000D03*
X002000Y003000D03*
X002000Y002000D03*
X002000Y001000D03*
X006000Y018400D03*
X006000Y019400D03*
X005000Y019400D03*
X007000Y019400D03*
X007000Y018400D03*
X008000Y018400D03*
X008000Y019400D03*
X009000Y019400D03*
X009000Y018400D03*
X007000Y021300D03*
D28*
X005224Y021248D03*
X005224Y021744D03*
X005224Y022252D03*
X005224Y022752D03*
X003176Y022752D03*
X003176Y022252D03*
X003176Y021748D03*
X003176Y021248D03*
D29*
X006100Y021244D03*
X006100Y021756D03*
X006100Y022244D03*
X006100Y022756D03*
D30*
X007000Y022300D03*
X007000Y023300D03*
X008913Y007812D03*
X008913Y006788D03*
D31*
X005000Y018400D03*
D32*
X012488Y006174D03*
X012488Y005426D03*
X013512Y005426D03*
X013512Y005800D03*
X013512Y006174D03*
D33*
X017434Y007426D03*
X017434Y007800D03*
X017434Y008174D03*
X018477Y008174D03*
X018477Y007800D03*
X018477Y007426D03*
D34*
X005349Y004992D03*
X005349Y004795D03*
X005349Y004598D03*
X005349Y004402D03*
X005349Y004205D03*
X005349Y004008D03*
X004601Y004008D03*
X004601Y004205D03*
X004601Y004402D03*
X004601Y004598D03*
X004601Y004795D03*
X004601Y004992D03*
D35*
X004975Y004500D03*
D36*
X007575Y003604D03*
X007575Y002896D03*
D37*
X018344Y005374D03*
X018856Y005374D03*
X018600Y004626D03*
M02*
