G75*
G70*
%OFA0B0*%
%FSLAX24Y24*%
%IPPOS*%
%LPD*%
%AMOC8*
5,1,8,0,0,1.08239X$1,22.5*
%
%ADD10R,0.0118X0.0236*%
%ADD11R,0.0236X0.0118*%
%ADD12C,0.0177*%
%ADD13R,0.0630X0.0984*%
%ADD14C,0.0091*%
%ADD15R,0.0215X0.0211*%
%ADD16R,0.0211X0.0215*%
%ADD17R,0.0315X0.0118*%
%ADD18R,0.0118X0.0315*%
%ADD19R,0.0394X0.0630*%
%ADD20R,0.0276X0.0394*%
%ADD21R,0.1476X0.0402*%
%ADD22C,0.2300*%
%ADD23C,0.0416*%
%ADD24R,0.0400X0.0750*%
%ADD25OC8,0.0600*%
%ADD26R,0.0866X0.0236*%
%ADD27R,0.0354X0.0276*%
%ADD28C,0.0700*%
%ADD29R,0.0600X0.0600*%
%ADD30R,0.0472X0.0217*%
%ADD31R,0.0472X0.0197*%
%ADD32R,0.0197X0.0110*%
%ADD33R,0.0394X0.1102*%
%ADD34R,0.0512X0.0197*%
%ADD35R,0.0276X0.0354*%
%ADD36C,0.0100*%
%ADD37C,0.0240*%
%ADD38C,0.0260*%
%ADD39C,0.0080*%
%ADD40C,0.0160*%
%ADD41C,0.0240*%
D10*
X010056Y011028D03*
X010253Y011028D03*
X010450Y011028D03*
X010647Y011028D03*
X010844Y011028D03*
X010844Y011972D03*
X010647Y011972D03*
X010450Y011972D03*
X010253Y011972D03*
X010056Y011972D03*
D11*
X009978Y011697D03*
X009978Y011500D03*
X009978Y011303D03*
X010922Y011303D03*
X010922Y011500D03*
X010922Y011697D03*
D12*
X011000Y001844D02*
X011158Y001844D01*
X011158Y001844D01*
X011000Y001844D01*
X011000Y001844D01*
X011000Y001450D02*
X011158Y001450D01*
X011158Y001450D01*
X011000Y001450D01*
X011000Y001450D01*
X011000Y001056D02*
X011158Y001056D01*
X011158Y001056D01*
X011000Y001056D01*
X011000Y001056D01*
X012142Y001056D02*
X012300Y001056D01*
X012300Y001056D01*
X012142Y001056D01*
X012142Y001056D01*
X012142Y001450D02*
X012300Y001450D01*
X012300Y001450D01*
X012142Y001450D01*
X012142Y001450D01*
X012142Y001844D02*
X012300Y001844D01*
X012300Y001844D01*
X012142Y001844D01*
X012142Y001844D01*
D13*
X011650Y001450D03*
D14*
X013156Y010236D02*
X013156Y010382D01*
X013156Y010236D02*
X013156Y010236D01*
X013156Y010382D01*
X013156Y010382D01*
X013156Y010326D02*
X013156Y010326D01*
X013314Y010382D02*
X013314Y010236D01*
X013314Y010236D01*
X013314Y010382D01*
X013314Y010382D01*
X013314Y010326D02*
X013314Y010326D01*
X013471Y010382D02*
X013471Y010236D01*
X013471Y010236D01*
X013471Y010382D01*
X013471Y010382D01*
X013471Y010326D02*
X013471Y010326D01*
X013629Y010382D02*
X013629Y010236D01*
X013629Y010236D01*
X013629Y010382D01*
X013629Y010382D01*
X013629Y010326D02*
X013629Y010326D01*
X013786Y010382D02*
X013786Y010236D01*
X013786Y010236D01*
X013786Y010382D01*
X013786Y010382D01*
X013786Y010326D02*
X013786Y010326D01*
X013944Y010382D02*
X013944Y010236D01*
X013944Y010236D01*
X013944Y010382D01*
X013944Y010382D01*
X013944Y010326D02*
X013944Y010326D01*
X014068Y010506D02*
X014214Y010506D01*
X014214Y010506D01*
X014068Y010506D01*
X014068Y010506D01*
X014068Y010664D02*
X014214Y010664D01*
X014214Y010664D01*
X014068Y010664D01*
X014068Y010664D01*
X014068Y010821D02*
X014214Y010821D01*
X014214Y010821D01*
X014068Y010821D01*
X014068Y010821D01*
X014068Y010979D02*
X014214Y010979D01*
X014214Y010979D01*
X014068Y010979D01*
X014068Y010979D01*
X014068Y011136D02*
X014214Y011136D01*
X014214Y011136D01*
X014068Y011136D01*
X014068Y011136D01*
X014068Y011294D02*
X014214Y011294D01*
X014214Y011294D01*
X014068Y011294D01*
X014068Y011294D01*
X013944Y011418D02*
X013944Y011564D01*
X013944Y011564D01*
X013944Y011418D01*
X013944Y011418D01*
X013944Y011508D02*
X013944Y011508D01*
X013786Y011564D02*
X013786Y011418D01*
X013786Y011564D02*
X013786Y011564D01*
X013786Y011418D01*
X013786Y011418D01*
X013786Y011508D02*
X013786Y011508D01*
X013629Y011564D02*
X013629Y011418D01*
X013629Y011564D02*
X013629Y011564D01*
X013629Y011418D01*
X013629Y011418D01*
X013629Y011508D02*
X013629Y011508D01*
X013471Y011564D02*
X013471Y011418D01*
X013471Y011564D02*
X013471Y011564D01*
X013471Y011418D01*
X013471Y011418D01*
X013471Y011508D02*
X013471Y011508D01*
X013314Y011564D02*
X013314Y011418D01*
X013314Y011564D02*
X013314Y011564D01*
X013314Y011418D01*
X013314Y011418D01*
X013314Y011508D02*
X013314Y011508D01*
X013156Y011564D02*
X013156Y011418D01*
X013156Y011564D02*
X013156Y011564D01*
X013156Y011418D01*
X013156Y011418D01*
X013156Y011508D02*
X013156Y011508D01*
X013032Y011294D02*
X012886Y011294D01*
X012886Y011294D01*
X013032Y011294D01*
X013032Y011294D01*
X013032Y011136D02*
X012886Y011136D01*
X012886Y011136D01*
X013032Y011136D01*
X013032Y011136D01*
X013032Y010979D02*
X012886Y010979D01*
X012886Y010979D01*
X013032Y010979D01*
X013032Y010979D01*
X013032Y010821D02*
X012886Y010821D01*
X012886Y010821D01*
X013032Y010821D01*
X013032Y010821D01*
X013032Y010664D02*
X012886Y010664D01*
X012886Y010664D01*
X013032Y010664D01*
X013032Y010664D01*
X013032Y010506D02*
X012886Y010506D01*
X012886Y010506D01*
X013032Y010506D01*
X013032Y010506D01*
D15*
X012600Y011430D03*
X012600Y011770D03*
X012000Y010820D03*
X012000Y010480D03*
X011550Y010480D03*
X011550Y010820D03*
X013550Y011980D03*
X013550Y012320D03*
X014050Y012320D03*
X014050Y011980D03*
X015810Y008030D03*
X015810Y007690D03*
X013600Y004570D03*
X013600Y004230D03*
X013100Y004230D03*
X013100Y004570D03*
D16*
X013030Y005000D03*
X012670Y004600D03*
X012330Y004600D03*
X012330Y004200D03*
X012670Y004200D03*
X013370Y005000D03*
X012670Y006500D03*
X012330Y006500D03*
X012330Y006900D03*
X012670Y006900D03*
X012930Y007200D03*
X013270Y007200D03*
X013330Y006600D03*
X013670Y006600D03*
X016230Y008050D03*
X016570Y008050D03*
X017730Y008700D03*
X018070Y008700D03*
X018630Y008500D03*
X018970Y008500D03*
X019030Y008000D03*
X019370Y008000D03*
X019370Y007400D03*
X019030Y007400D03*
X019030Y006800D03*
X019370Y006800D03*
X014870Y010500D03*
X014530Y010500D03*
X010020Y010500D03*
X009680Y010500D03*
X009470Y011400D03*
X009130Y011400D03*
X009130Y011800D03*
X009470Y011800D03*
D17*
X014626Y007545D03*
X014626Y007348D03*
X014626Y007152D03*
X014626Y006955D03*
X015374Y006955D03*
X015374Y007152D03*
X015374Y007348D03*
X015374Y007545D03*
D18*
X015000Y007624D03*
X015000Y006876D03*
D19*
X014649Y008700D03*
X015751Y008700D03*
X015751Y001600D03*
X014649Y001600D03*
X008651Y001600D03*
X007549Y001600D03*
D20*
X006956Y004200D03*
X006444Y004200D03*
X006444Y004800D03*
X006956Y004800D03*
X015794Y003300D03*
X016306Y003300D03*
D21*
X007023Y007300D03*
X007023Y008300D03*
X007023Y009300D03*
X007023Y010300D03*
X007023Y011300D03*
X004577Y011300D03*
X004577Y010300D03*
X004577Y009300D03*
X004577Y008300D03*
X004577Y007300D03*
D22*
X005300Y002300D03*
X005300Y015000D03*
X018000Y015000D03*
X018000Y002300D03*
D23*
X017500Y010350D03*
X018500Y011350D03*
X017500Y012350D03*
D24*
X015800Y013300D03*
X014800Y013300D03*
X013800Y013300D03*
X012800Y013300D03*
X011800Y013300D03*
X010800Y013300D03*
X009800Y013300D03*
X008800Y013300D03*
X008800Y016100D03*
X009800Y016100D03*
X010800Y016100D03*
X011800Y016100D03*
X012800Y016100D03*
X013800Y016100D03*
X014800Y016100D03*
X015800Y016100D03*
D25*
X009000Y018400D03*
X009000Y019400D03*
X008000Y019400D03*
X008000Y018400D03*
X007000Y018400D03*
X007000Y019400D03*
X006000Y019400D03*
X006000Y018400D03*
X005000Y019400D03*
X007000Y021300D03*
X002000Y021000D03*
X002000Y020000D03*
X002000Y019000D03*
X002000Y018000D03*
X002000Y017000D03*
X002000Y016000D03*
X002000Y015000D03*
X002000Y014000D03*
X002000Y013000D03*
X002000Y012000D03*
X002000Y011000D03*
X002000Y010000D03*
X002000Y009000D03*
X002000Y008000D03*
X002000Y007000D03*
X002000Y006000D03*
X002000Y005000D03*
X002000Y004000D03*
X002000Y003000D03*
X002000Y002000D03*
X002000Y001000D03*
X001000Y001000D03*
X001000Y002000D03*
X001000Y003000D03*
X001000Y004000D03*
X001000Y005000D03*
X001000Y006000D03*
X001000Y007000D03*
X001000Y008000D03*
X001000Y009000D03*
X001000Y010000D03*
X001000Y011000D03*
X001000Y012000D03*
X001000Y013000D03*
X001000Y014000D03*
X001000Y015000D03*
X001000Y016000D03*
X001000Y017000D03*
X001000Y018000D03*
X001000Y019000D03*
X001000Y020000D03*
X001000Y021000D03*
X001000Y022000D03*
X001000Y023000D03*
X002000Y023000D03*
X002000Y022000D03*
D26*
X003176Y021748D03*
X003176Y021248D03*
X003176Y022252D03*
X003176Y022752D03*
X005224Y022752D03*
X005224Y022252D03*
X005224Y021744D03*
X005224Y021248D03*
D27*
X006100Y021244D03*
X006100Y021756D03*
X006100Y022244D03*
X006100Y022756D03*
D28*
X007000Y022300D03*
X007000Y023300D03*
X008913Y007812D03*
X008913Y006788D03*
D29*
X005000Y018400D03*
D30*
X012488Y006174D03*
X012488Y005426D03*
X013512Y005426D03*
X013512Y005800D03*
X013512Y006174D03*
D31*
X017434Y007426D03*
X017434Y007800D03*
X017434Y008174D03*
X018477Y008174D03*
X018477Y007800D03*
X018477Y007426D03*
D32*
X005349Y004992D03*
X005349Y004795D03*
X005349Y004598D03*
X005349Y004402D03*
X005349Y004205D03*
X005349Y004008D03*
X004601Y004008D03*
X004601Y004205D03*
X004601Y004402D03*
X004601Y004598D03*
X004601Y004795D03*
X004601Y004992D03*
D33*
X004975Y004500D03*
D34*
X007575Y003604D03*
X007575Y002896D03*
D35*
X018344Y005374D03*
X018856Y005374D03*
X018600Y004626D03*
D36*
X000450Y006638D02*
X000450Y000450D01*
X002850Y000450D01*
X002850Y005614D01*
X002949Y005820D01*
X002949Y005820D01*
X002949Y005820D01*
X003025Y005880D01*
X003025Y005990D01*
X003071Y006100D01*
X003025Y006210D01*
X003025Y006340D01*
X003071Y006450D01*
X003025Y006560D01*
X003025Y006690D01*
X003071Y006800D01*
X003025Y006910D01*
X003025Y007040D01*
X003071Y007150D01*
X003025Y007260D01*
X003025Y007350D01*
X002230Y007350D01*
X002410Y007170D01*
X002410Y006830D01*
X002299Y006719D01*
X002336Y006703D01*
X002403Y006636D01*
X002440Y006548D01*
X002440Y006452D01*
X002403Y006364D01*
X002336Y006297D01*
X002299Y006281D01*
X002410Y006170D01*
X002410Y005830D01*
X002170Y005590D01*
X001830Y005590D01*
X001590Y005830D01*
X001590Y006170D01*
X001770Y006350D01*
X001230Y006350D01*
X001410Y006170D01*
X001410Y005830D01*
X001170Y005590D01*
X000830Y005590D01*
X000590Y005830D01*
X000590Y006170D01*
X000770Y006350D01*
X000738Y006350D01*
X000450Y006638D01*
X000450Y006603D02*
X000485Y006603D01*
X000450Y006504D02*
X000584Y006504D01*
X000682Y006406D02*
X000450Y006406D01*
X000450Y006307D02*
X000727Y006307D01*
X000629Y006209D02*
X000450Y006209D01*
X000450Y006110D02*
X000590Y006110D01*
X000590Y006012D02*
X000450Y006012D01*
X000450Y005913D02*
X000590Y005913D01*
X000606Y005815D02*
X000450Y005815D01*
X000450Y005716D02*
X000704Y005716D01*
X000803Y005618D02*
X000450Y005618D01*
X000450Y005519D02*
X002850Y005519D01*
X002850Y005421D02*
X000450Y005421D01*
X000450Y005322D02*
X000742Y005322D01*
X000830Y005410D02*
X000590Y005170D01*
X000590Y004830D01*
X000830Y004590D01*
X001170Y004590D01*
X001410Y004830D01*
X001410Y005170D01*
X001170Y005410D01*
X000830Y005410D01*
X000644Y005224D02*
X000450Y005224D01*
X000450Y005125D02*
X000590Y005125D01*
X000590Y005027D02*
X000450Y005027D01*
X000450Y004928D02*
X000590Y004928D01*
X000591Y004830D02*
X000450Y004830D01*
X000450Y004731D02*
X000689Y004731D01*
X000788Y004633D02*
X000450Y004633D01*
X000450Y004534D02*
X002850Y004534D01*
X002850Y004436D02*
X000450Y004436D01*
X000450Y004337D02*
X000757Y004337D01*
X000830Y004410D02*
X000590Y004170D01*
X000590Y003830D01*
X000830Y003590D01*
X001170Y003590D01*
X001410Y003830D01*
X001410Y004170D01*
X001170Y004410D01*
X000830Y004410D01*
X000659Y004239D02*
X000450Y004239D01*
X000450Y004140D02*
X000590Y004140D01*
X000590Y004042D02*
X000450Y004042D01*
X000450Y003943D02*
X000590Y003943D01*
X000590Y003845D02*
X000450Y003845D01*
X000450Y003746D02*
X000674Y003746D01*
X000773Y003648D02*
X000450Y003648D01*
X000450Y003549D02*
X002850Y003549D01*
X002850Y003451D02*
X000450Y003451D01*
X000450Y003352D02*
X000772Y003352D01*
X000830Y003410D02*
X000590Y003170D01*
X000590Y002830D01*
X000830Y002590D01*
X001170Y002590D01*
X001410Y002830D01*
X001410Y003170D01*
X001170Y003410D01*
X000830Y003410D01*
X000674Y003254D02*
X000450Y003254D01*
X000450Y003155D02*
X000590Y003155D01*
X000590Y003057D02*
X000450Y003057D01*
X000450Y002958D02*
X000590Y002958D01*
X000590Y002860D02*
X000450Y002860D01*
X000450Y002761D02*
X000659Y002761D01*
X000758Y002663D02*
X000450Y002663D01*
X000450Y002564D02*
X002850Y002564D01*
X002850Y002466D02*
X000450Y002466D01*
X000450Y002367D02*
X000731Y002367D01*
X000814Y002450D02*
X000550Y002186D01*
X000550Y002050D01*
X000950Y002050D01*
X000950Y002450D01*
X000814Y002450D01*
X000950Y002367D02*
X001050Y002367D01*
X001050Y002450D02*
X001050Y002050D01*
X000950Y002050D01*
X000950Y001950D01*
X000550Y001950D01*
X000550Y001814D01*
X000814Y001550D01*
X000950Y001550D01*
X000950Y001950D01*
X001050Y001950D01*
X001050Y002050D01*
X001450Y002050D01*
X001450Y002186D01*
X001186Y002450D01*
X001050Y002450D01*
X001050Y002269D02*
X000950Y002269D01*
X000950Y002170D02*
X001050Y002170D01*
X001050Y002072D02*
X000950Y002072D01*
X000950Y001973D02*
X000450Y001973D01*
X000450Y001875D02*
X000550Y001875D01*
X000588Y001776D02*
X000450Y001776D01*
X000450Y001678D02*
X000686Y001678D01*
X000785Y001579D02*
X000450Y001579D01*
X000450Y001481D02*
X002850Y001481D01*
X002850Y001579D02*
X002215Y001579D01*
X002186Y001550D02*
X002450Y001814D01*
X002450Y001950D01*
X002050Y001950D01*
X002050Y002050D01*
X001950Y002050D01*
X001950Y002450D01*
X001814Y002450D01*
X001550Y002186D01*
X001550Y002050D01*
X001950Y002050D01*
X001950Y001950D01*
X001550Y001950D01*
X001550Y001814D01*
X001814Y001550D01*
X001950Y001550D01*
X001950Y001950D01*
X002050Y001950D01*
X002050Y001550D01*
X002186Y001550D01*
X002186Y001450D02*
X002050Y001450D01*
X002050Y001050D01*
X001950Y001050D01*
X001950Y001450D01*
X001814Y001450D01*
X001550Y001186D01*
X001550Y001050D01*
X001950Y001050D01*
X001950Y000950D01*
X001550Y000950D01*
X001550Y000814D01*
X001814Y000550D01*
X001950Y000550D01*
X001950Y000950D01*
X002050Y000950D01*
X002050Y001050D01*
X002450Y001050D01*
X002450Y001186D01*
X002186Y001450D01*
X002254Y001382D02*
X002850Y001382D01*
X002850Y001284D02*
X002353Y001284D01*
X002450Y001185D02*
X002850Y001185D01*
X002850Y001087D02*
X002450Y001087D01*
X002450Y000950D02*
X002050Y000950D01*
X002050Y000550D01*
X002186Y000550D01*
X002450Y000814D01*
X002450Y000950D01*
X002450Y000890D02*
X002850Y000890D01*
X002850Y000988D02*
X002050Y000988D01*
X002050Y000890D02*
X001950Y000890D01*
X001950Y000988D02*
X001050Y000988D01*
X001050Y000950D02*
X001050Y001050D01*
X000950Y001050D01*
X000950Y001450D01*
X000814Y001450D01*
X000550Y001186D01*
X000550Y001050D01*
X000950Y001050D01*
X000950Y000950D01*
X000550Y000950D01*
X000550Y000814D01*
X000814Y000550D01*
X000950Y000550D01*
X000950Y000950D01*
X001050Y000950D01*
X001450Y000950D01*
X001450Y000814D01*
X001186Y000550D01*
X001050Y000550D01*
X001050Y000950D01*
X001050Y000890D02*
X000950Y000890D01*
X000950Y000988D02*
X000450Y000988D01*
X000450Y000890D02*
X000550Y000890D01*
X000573Y000791D02*
X000450Y000791D01*
X000450Y000693D02*
X000671Y000693D01*
X000770Y000594D02*
X000450Y000594D01*
X000450Y000496D02*
X002850Y000496D01*
X002850Y000594D02*
X002230Y000594D01*
X002329Y000693D02*
X002850Y000693D01*
X002850Y000791D02*
X002427Y000791D01*
X002050Y000791D02*
X001950Y000791D01*
X001950Y000693D02*
X002050Y000693D01*
X002050Y000594D02*
X001950Y000594D01*
X001770Y000594D02*
X001230Y000594D01*
X001329Y000693D02*
X001671Y000693D01*
X001573Y000791D02*
X001427Y000791D01*
X001450Y000890D02*
X001550Y000890D01*
X001450Y001050D02*
X001450Y001186D01*
X001186Y001450D01*
X001050Y001450D01*
X001050Y001050D01*
X001450Y001050D01*
X001450Y001087D02*
X001550Y001087D01*
X001550Y001185D02*
X001450Y001185D01*
X001353Y001284D02*
X001647Y001284D01*
X001746Y001382D02*
X001254Y001382D01*
X001186Y001550D02*
X001450Y001814D01*
X001450Y001950D01*
X001050Y001950D01*
X001050Y001550D01*
X001186Y001550D01*
X001215Y001579D02*
X001785Y001579D01*
X001686Y001678D02*
X001314Y001678D01*
X001412Y001776D02*
X001588Y001776D01*
X001550Y001875D02*
X001450Y001875D01*
X001450Y002072D02*
X001550Y002072D01*
X001550Y002170D02*
X001450Y002170D01*
X001368Y002269D02*
X001632Y002269D01*
X001731Y002367D02*
X001269Y002367D01*
X001242Y002663D02*
X001758Y002663D01*
X001830Y002590D02*
X002170Y002590D01*
X002410Y002830D01*
X002410Y003170D01*
X002170Y003410D01*
X001830Y003410D01*
X001590Y003170D01*
X001590Y002830D01*
X001830Y002590D01*
X001659Y002761D02*
X001341Y002761D01*
X001410Y002860D02*
X001590Y002860D01*
X001590Y002958D02*
X001410Y002958D01*
X001410Y003057D02*
X001590Y003057D01*
X001590Y003155D02*
X001410Y003155D01*
X001326Y003254D02*
X001674Y003254D01*
X001772Y003352D02*
X001228Y003352D01*
X001227Y003648D02*
X001773Y003648D01*
X001830Y003590D02*
X002170Y003590D01*
X002410Y003830D01*
X002410Y004170D01*
X002170Y004410D01*
X001830Y004410D01*
X001590Y004170D01*
X001590Y003830D01*
X001830Y003590D01*
X001674Y003746D02*
X001326Y003746D01*
X001410Y003845D02*
X001590Y003845D01*
X001590Y003943D02*
X001410Y003943D01*
X001410Y004042D02*
X001590Y004042D01*
X001590Y004140D02*
X001410Y004140D01*
X001341Y004239D02*
X001659Y004239D01*
X001757Y004337D02*
X001243Y004337D01*
X001212Y004633D02*
X001788Y004633D01*
X001830Y004590D02*
X002170Y004590D01*
X002410Y004830D01*
X002410Y005170D01*
X002170Y005410D01*
X001830Y005410D01*
X001590Y005170D01*
X001590Y004830D01*
X001830Y004590D01*
X001689Y004731D02*
X001311Y004731D01*
X001409Y004830D02*
X001591Y004830D01*
X001590Y004928D02*
X001410Y004928D01*
X001410Y005027D02*
X001590Y005027D01*
X001590Y005125D02*
X001410Y005125D01*
X001356Y005224D02*
X001644Y005224D01*
X001742Y005322D02*
X001258Y005322D01*
X001197Y005618D02*
X001803Y005618D01*
X001704Y005716D02*
X001296Y005716D01*
X001394Y005815D02*
X001606Y005815D01*
X001590Y005913D02*
X001410Y005913D01*
X001410Y006012D02*
X001590Y006012D01*
X001590Y006110D02*
X001410Y006110D01*
X001371Y006209D02*
X001629Y006209D01*
X001727Y006307D02*
X001273Y006307D01*
X002197Y005618D02*
X002852Y005618D01*
X002899Y005716D02*
X002296Y005716D01*
X002394Y005815D02*
X002947Y005815D01*
X003025Y005913D02*
X002410Y005913D01*
X002410Y006012D02*
X003034Y006012D01*
X003067Y006110D02*
X002410Y006110D01*
X002371Y006209D02*
X003026Y006209D01*
X003025Y006307D02*
X002346Y006307D01*
X002421Y006406D02*
X003052Y006406D01*
X003048Y006504D02*
X002440Y006504D01*
X002417Y006603D02*
X003025Y006603D01*
X003030Y006701D02*
X002338Y006701D01*
X002379Y006800D02*
X003071Y006800D01*
X003030Y006898D02*
X002410Y006898D01*
X002410Y006997D02*
X003025Y006997D01*
X003048Y007095D02*
X002410Y007095D01*
X002386Y007194D02*
X003053Y007194D01*
X003025Y007292D02*
X002288Y007292D01*
X003629Y007150D02*
X003675Y007040D01*
X003675Y006910D01*
X003629Y006800D01*
X003675Y006690D01*
X003675Y006560D01*
X003629Y006450D01*
X003675Y006340D01*
X003675Y006210D01*
X003629Y006100D01*
X003675Y005990D01*
X003675Y005880D01*
X003751Y005820D01*
X003850Y005614D01*
X003850Y005376D01*
X003960Y005486D01*
X003960Y005548D01*
X003997Y005636D01*
X004064Y005703D01*
X004152Y005740D01*
X004248Y005740D01*
X004336Y005703D01*
X004403Y005636D01*
X004440Y005548D01*
X004440Y005452D01*
X004403Y005364D01*
X004336Y005297D01*
X004248Y005260D01*
X004186Y005260D01*
X004060Y005134D01*
X004060Y004999D01*
X004064Y005003D01*
X004152Y005040D01*
X004248Y005040D01*
X004336Y005003D01*
X004379Y004960D01*
X004393Y004960D01*
X004393Y005093D01*
X004440Y005140D01*
X004440Y005266D01*
X004534Y005360D01*
X004540Y005366D01*
X004540Y005366D01*
X004634Y005460D01*
X005921Y005460D01*
X005964Y005503D01*
X006052Y005540D01*
X006148Y005540D01*
X006236Y005503D01*
X006303Y005436D01*
X006340Y005348D01*
X006340Y005252D01*
X006303Y005164D01*
X006286Y005147D01*
X006287Y005147D01*
X006425Y005147D01*
X006425Y004819D01*
X006463Y004819D01*
X006463Y005147D01*
X006602Y005147D01*
X006640Y005137D01*
X006674Y005117D01*
X006702Y005089D01*
X006721Y005056D01*
X006773Y005107D01*
X007139Y005107D01*
X007204Y005042D01*
X007204Y004990D01*
X008051Y004990D01*
X008064Y005003D01*
X008152Y005040D01*
X008248Y005040D01*
X008336Y005003D01*
X008403Y004936D01*
X008440Y004848D01*
X008440Y004752D01*
X008403Y004664D01*
X008336Y004597D01*
X008248Y004560D01*
X008152Y004560D01*
X008064Y004597D01*
X008051Y004610D01*
X007204Y004610D01*
X007204Y004558D01*
X007146Y004500D01*
X007204Y004442D01*
X007204Y004360D01*
X007466Y004360D01*
X007566Y004260D01*
X007660Y004166D01*
X007666Y004160D01*
X007760Y004066D01*
X007760Y003813D01*
X007876Y003813D01*
X007941Y003748D01*
X007941Y003460D01*
X007876Y003396D01*
X007274Y003396D01*
X007209Y003460D01*
X007209Y003640D01*
X004134Y003640D01*
X004034Y003740D01*
X003940Y003834D01*
X003850Y003924D01*
X003850Y002300D01*
X003862Y002111D01*
X003960Y001745D01*
X004150Y001417D01*
X004417Y001150D01*
X004745Y000960D01*
X005111Y000862D01*
X005300Y000850D01*
X009650Y000850D01*
X009650Y002821D01*
X009771Y003029D01*
X009771Y003029D01*
X009771Y003029D01*
X009979Y003150D01*
X011121Y003150D01*
X011190Y003110D01*
X011190Y009416D01*
X011390Y009616D01*
X011390Y009851D01*
X011336Y009797D01*
X011248Y009760D01*
X011152Y009760D01*
X011064Y009797D01*
X010997Y009864D01*
X010960Y009952D01*
X010960Y010048D01*
X010997Y010136D01*
X011040Y010179D01*
X011040Y010196D01*
X011134Y010289D01*
X011134Y010289D01*
X011134Y010290D01*
X010784Y010290D01*
X010690Y010384D01*
X010487Y010587D01*
X010487Y010799D01*
X010216Y010799D01*
X010216Y010673D01*
X010236Y010653D01*
X010236Y010347D01*
X010172Y010283D01*
X009887Y010283D01*
X009877Y010272D01*
X009843Y010253D01*
X009805Y010243D01*
X009682Y010243D01*
X009682Y010497D01*
X009677Y010497D01*
X009677Y010243D01*
X009554Y010243D01*
X009516Y010253D01*
X009482Y010272D01*
X009454Y010300D01*
X009434Y010335D01*
X009424Y010373D01*
X009424Y010497D01*
X009677Y010497D01*
X009677Y010503D01*
X009677Y010757D01*
X009554Y010757D01*
X009516Y010747D01*
X009482Y010728D01*
X009454Y010700D01*
X009434Y010665D01*
X009424Y010627D01*
X009424Y010503D01*
X009677Y010503D01*
X009682Y010503D01*
X009682Y010757D01*
X009805Y010757D01*
X009843Y010747D01*
X009877Y010728D01*
X009887Y010717D01*
X009896Y010717D01*
X009896Y010855D01*
X009887Y010864D01*
X009887Y010868D01*
X009706Y010868D01*
X009696Y010878D01*
X009579Y010760D01*
X009230Y010760D01*
X009230Y008972D01*
X009240Y008948D01*
X009240Y008852D01*
X009230Y008828D01*
X009230Y008805D01*
X009213Y008788D01*
X009203Y008764D01*
X009136Y008697D01*
X009112Y008687D01*
X009095Y008670D01*
X009095Y008670D01*
X007872Y007446D01*
X007872Y007054D01*
X007807Y006989D01*
X006240Y006989D01*
X006175Y007054D01*
X006175Y007070D01*
X005872Y007070D01*
X005848Y007060D01*
X005752Y007060D01*
X005728Y007070D01*
X005705Y007070D01*
X005688Y007087D01*
X005664Y007097D01*
X005597Y007164D01*
X005587Y007188D01*
X005570Y007205D01*
X005570Y007228D01*
X005560Y007252D01*
X005560Y007348D01*
X005570Y007372D01*
X005570Y007395D01*
X005587Y007412D01*
X005597Y007436D01*
X005664Y007503D01*
X005688Y007513D01*
X005705Y007530D01*
X005728Y007530D01*
X005752Y007540D01*
X005848Y007540D01*
X005872Y007530D01*
X006175Y007530D01*
X006175Y007546D01*
X006240Y007611D01*
X007386Y007611D01*
X007764Y007989D01*
X006240Y007989D01*
X006175Y008054D01*
X006175Y008140D01*
X005979Y008140D01*
X005936Y008097D01*
X005848Y008060D01*
X005752Y008060D01*
X005664Y008097D01*
X005597Y008164D01*
X005560Y008252D01*
X005560Y008348D01*
X005597Y008436D01*
X005664Y008503D01*
X005752Y008540D01*
X005848Y008540D01*
X005936Y008503D01*
X005979Y008460D01*
X006175Y008460D01*
X006175Y008546D01*
X006240Y008611D01*
X007807Y008611D01*
X007872Y008546D01*
X007872Y008097D01*
X008770Y008995D01*
X008770Y009631D01*
X008736Y009597D01*
X008648Y009560D01*
X008552Y009560D01*
X008464Y009597D01*
X008397Y009664D01*
X008360Y009752D01*
X008360Y009814D01*
X007934Y010240D01*
X007872Y010302D01*
X007872Y010054D01*
X007807Y009989D01*
X006240Y009989D01*
X006175Y010054D01*
X006175Y010140D01*
X005979Y010140D01*
X005936Y010097D01*
X005848Y010060D01*
X005752Y010060D01*
X005664Y010097D01*
X005597Y010164D01*
X005560Y010252D01*
X005560Y010348D01*
X005597Y010436D01*
X005664Y010503D01*
X005752Y010540D01*
X005848Y010540D01*
X005936Y010503D01*
X005979Y010460D01*
X006175Y010460D01*
X006175Y010546D01*
X006240Y010611D01*
X007807Y010611D01*
X007840Y010578D01*
X007840Y010971D01*
X007820Y010959D01*
X007781Y010949D01*
X007073Y010949D01*
X007073Y011250D01*
X006973Y011250D01*
X006135Y011250D01*
X006135Y011079D01*
X006145Y011041D01*
X006165Y011007D01*
X006193Y010979D01*
X006227Y010959D01*
X006265Y010949D01*
X006973Y010949D01*
X006973Y011250D01*
X006973Y011350D01*
X006135Y011350D01*
X006135Y011521D01*
X006145Y011559D01*
X006165Y011593D01*
X006193Y011621D01*
X006227Y011641D01*
X006265Y011651D01*
X006973Y011651D01*
X006973Y011350D01*
X007073Y011350D01*
X007073Y011651D01*
X007781Y011651D01*
X007820Y011641D01*
X007840Y011629D01*
X007840Y012634D01*
X006634Y013840D01*
X006540Y013934D01*
X006540Y014609D01*
X006525Y014562D01*
X006477Y014444D01*
X006416Y014331D01*
X006345Y014225D01*
X006264Y014126D01*
X006174Y014036D01*
X006075Y013955D01*
X005969Y013884D01*
X005856Y013823D01*
X005738Y013775D01*
X005616Y013737D01*
X005491Y013713D01*
X005364Y013700D01*
X005350Y013700D01*
X005350Y014950D01*
X005350Y015050D01*
X005250Y015050D01*
X005250Y016300D01*
X005236Y016300D01*
X005109Y016287D01*
X004984Y016263D01*
X004862Y016225D01*
X004744Y016177D01*
X004631Y016116D01*
X004525Y016045D01*
X004426Y015964D01*
X004336Y015874D01*
X004255Y015775D01*
X004184Y015669D01*
X004123Y015556D01*
X004075Y015438D01*
X004037Y015316D01*
X004013Y015191D01*
X004000Y015064D01*
X004000Y015050D01*
X005250Y015050D01*
X005250Y014950D01*
X005350Y014950D01*
X006540Y014950D01*
X006540Y014966D01*
X006634Y015060D01*
X006634Y015060D01*
X006960Y015386D01*
X006960Y015448D01*
X006997Y015536D01*
X007064Y015603D01*
X007152Y015640D01*
X007248Y015640D01*
X007336Y015603D01*
X007403Y015536D01*
X007440Y015448D01*
X007440Y015352D01*
X007403Y015264D01*
X007336Y015197D01*
X007248Y015160D01*
X007186Y015160D01*
X006860Y014834D01*
X006860Y014066D01*
X006970Y013956D01*
X006970Y014228D01*
X006960Y014252D01*
X006960Y014348D01*
X006970Y014372D01*
X006970Y014395D01*
X006987Y014412D01*
X006997Y014436D01*
X007064Y014503D01*
X007088Y014513D01*
X007105Y014530D01*
X007705Y015130D01*
X015405Y015130D01*
X015570Y015295D01*
X015570Y015328D01*
X015560Y015352D01*
X015560Y015448D01*
X015570Y015472D01*
X015570Y015615D01*
X015554Y015615D01*
X015490Y015679D01*
X015490Y016450D01*
X015110Y016450D01*
X015110Y015679D01*
X015046Y015615D01*
X014554Y015615D01*
X014490Y015679D01*
X014490Y016450D01*
X014110Y016450D01*
X014110Y015679D01*
X014046Y015615D01*
X013960Y015615D01*
X013960Y015579D01*
X014003Y015536D01*
X014040Y015448D01*
X014040Y015352D01*
X014003Y015264D01*
X013936Y015197D01*
X013848Y015160D01*
X013752Y015160D01*
X013664Y015197D01*
X013597Y015264D01*
X013560Y015352D01*
X013560Y015448D01*
X013597Y015536D01*
X013640Y015579D01*
X013640Y015615D01*
X013554Y015615D01*
X013490Y015679D01*
X013490Y016450D01*
X013110Y016450D01*
X013110Y015679D01*
X013046Y015615D01*
X012960Y015615D01*
X012960Y015579D01*
X013003Y015536D01*
X013040Y015448D01*
X013040Y015352D01*
X013003Y015264D01*
X012936Y015197D01*
X012848Y015160D01*
X012752Y015160D01*
X012664Y015197D01*
X012597Y015264D01*
X012560Y015352D01*
X012560Y015448D01*
X012597Y015536D01*
X012640Y015579D01*
X012640Y015615D01*
X012554Y015615D01*
X012490Y015679D01*
X012490Y016450D01*
X012110Y016450D01*
X012110Y015679D01*
X012046Y015615D01*
X011960Y015615D01*
X011960Y015579D01*
X012003Y015536D01*
X012040Y015448D01*
X012040Y015352D01*
X012003Y015264D01*
X011936Y015197D01*
X011848Y015160D01*
X011752Y015160D01*
X011664Y015197D01*
X011597Y015264D01*
X011560Y015352D01*
X011560Y015448D01*
X011597Y015536D01*
X011640Y015579D01*
X011640Y015615D01*
X011554Y015615D01*
X011490Y015679D01*
X011490Y016450D01*
X011110Y016450D01*
X011110Y015679D01*
X011046Y015615D01*
X010960Y015615D01*
X010960Y015579D01*
X011003Y015536D01*
X011040Y015448D01*
X011040Y015352D01*
X011003Y015264D01*
X010936Y015197D01*
X010848Y015160D01*
X010752Y015160D01*
X010664Y015197D01*
X010597Y015264D01*
X010560Y015352D01*
X010560Y015448D01*
X010597Y015536D01*
X010640Y015579D01*
X010640Y015615D01*
X010554Y015615D01*
X010490Y015679D01*
X010490Y016450D01*
X010110Y016450D01*
X010110Y015679D01*
X010046Y015615D01*
X009960Y015615D01*
X009960Y015579D01*
X010003Y015536D01*
X010040Y015448D01*
X010040Y015352D01*
X010003Y015264D01*
X009936Y015197D01*
X009848Y015160D01*
X009752Y015160D01*
X009664Y015197D01*
X009597Y015264D01*
X009560Y015352D01*
X009560Y015448D01*
X009597Y015536D01*
X009640Y015579D01*
X009640Y015615D01*
X009554Y015615D01*
X009490Y015679D01*
X009490Y016450D01*
X009110Y016450D01*
X009110Y015679D01*
X009046Y015615D01*
X008960Y015615D01*
X008960Y015579D01*
X009003Y015536D01*
X009040Y015448D01*
X009040Y015352D01*
X009003Y015264D01*
X008936Y015197D01*
X008848Y015160D01*
X008752Y015160D01*
X008664Y015197D01*
X008597Y015264D01*
X008560Y015352D01*
X008560Y015448D01*
X008597Y015536D01*
X008640Y015579D01*
X008640Y015615D01*
X008554Y015615D01*
X008490Y015679D01*
X008490Y015754D01*
X008455Y015719D01*
X008290Y015650D01*
X008110Y015650D01*
X007945Y015719D01*
X007819Y015845D01*
X007800Y015890D01*
X007781Y015845D01*
X007655Y015719D01*
X007490Y015650D01*
X007310Y015650D01*
X007145Y015719D01*
X007019Y015845D01*
X006950Y016010D01*
X006950Y016190D01*
X007019Y016355D01*
X007114Y016450D01*
X005300Y016450D01*
X005111Y016438D01*
X004745Y016340D01*
X004417Y016150D01*
X004150Y015883D01*
X003960Y015555D01*
X003862Y015189D01*
X003850Y015000D01*
X003850Y011611D01*
X004661Y011611D01*
X004910Y011860D01*
X005621Y011860D01*
X005664Y011903D01*
X005752Y011940D01*
X005848Y011940D01*
X005936Y011903D01*
X006003Y011836D01*
X006040Y011748D01*
X006040Y011652D01*
X006003Y011564D01*
X005936Y011497D01*
X005848Y011460D01*
X005752Y011460D01*
X005664Y011497D01*
X005621Y011540D01*
X005425Y011540D01*
X005425Y011054D01*
X005360Y010989D01*
X003793Y010989D01*
X003728Y011054D01*
X003728Y011262D01*
X003675Y011220D01*
X003675Y011135D01*
X003626Y011016D01*
X003622Y011012D01*
X003626Y011009D01*
X003675Y010890D01*
X003675Y010800D01*
X004289Y010800D01*
X004478Y010611D01*
X004661Y010611D01*
X004760Y010710D01*
X004760Y010748D01*
X004797Y010836D01*
X004864Y010903D01*
X004952Y010940D01*
X005048Y010940D01*
X005136Y010903D01*
X005203Y010836D01*
X005240Y010748D01*
X005240Y010652D01*
X005223Y010611D01*
X005360Y010611D01*
X005425Y010546D01*
X005425Y010054D01*
X005360Y009989D01*
X003793Y009989D01*
X003728Y010054D01*
X003728Y010500D01*
X003675Y010500D01*
X003675Y010410D01*
X003629Y010300D01*
X003675Y010190D01*
X003675Y010060D01*
X003629Y009950D01*
X003675Y009840D01*
X003675Y009750D01*
X004339Y009750D01*
X004478Y009611D01*
X004661Y009611D01*
X004817Y009766D01*
X004817Y009766D01*
X004910Y009860D01*
X005621Y009860D01*
X005664Y009903D01*
X005752Y009940D01*
X005848Y009940D01*
X005936Y009903D01*
X006003Y009836D01*
X006040Y009748D01*
X006040Y009652D01*
X006003Y009564D01*
X005936Y009497D01*
X005848Y009460D01*
X005752Y009460D01*
X005664Y009497D01*
X005621Y009540D01*
X005425Y009540D01*
X005425Y009054D01*
X005360Y008989D01*
X003793Y008989D01*
X003728Y009054D01*
X003728Y009450D01*
X003675Y009450D01*
X003675Y009360D01*
X003629Y009250D01*
X003675Y009140D01*
X003675Y009010D01*
X003629Y008900D01*
X003675Y008790D01*
X003675Y008700D01*
X004389Y008700D01*
X004478Y008611D01*
X005360Y008611D01*
X005425Y008546D01*
X005425Y008054D01*
X005360Y007989D01*
X005237Y007989D01*
X005266Y007960D01*
X005635Y007960D01*
X005705Y008030D01*
X005895Y008030D01*
X006030Y007895D01*
X006030Y007705D01*
X005895Y007570D01*
X005705Y007570D01*
X005635Y007640D01*
X005134Y007640D01*
X005040Y007734D01*
X004785Y007989D01*
X003793Y007989D01*
X003728Y008054D01*
X003728Y008400D01*
X003675Y008400D01*
X003675Y008310D01*
X003629Y008200D01*
X003675Y008090D01*
X003675Y007960D01*
X003629Y007850D01*
X003675Y007740D01*
X003675Y007650D01*
X003862Y007650D01*
X003901Y007611D01*
X005360Y007611D01*
X005425Y007546D01*
X005425Y007054D01*
X005360Y006989D01*
X005237Y006989D01*
X005266Y006960D01*
X005635Y006960D01*
X005705Y007030D01*
X005895Y007030D01*
X006030Y006895D01*
X006030Y006705D01*
X005895Y006570D01*
X005705Y006570D01*
X005635Y006640D01*
X005134Y006640D01*
X005040Y006734D01*
X004785Y006989D01*
X003793Y006989D01*
X003728Y007054D01*
X003728Y007350D01*
X003675Y007350D01*
X003675Y007260D01*
X003629Y007150D01*
X003647Y007194D02*
X003728Y007194D01*
X003728Y007292D02*
X003675Y007292D01*
X003652Y007095D02*
X003728Y007095D01*
X003675Y006997D02*
X003786Y006997D01*
X003670Y006898D02*
X004876Y006898D01*
X004974Y006800D02*
X003629Y006800D01*
X003670Y006701D02*
X005073Y006701D01*
X005200Y006800D02*
X005800Y006800D01*
X006030Y006800D02*
X008413Y006800D01*
X008413Y006797D02*
X008904Y006797D01*
X008904Y007288D01*
X008873Y007288D01*
X008796Y007276D01*
X008721Y007252D01*
X008651Y007216D01*
X008587Y007170D01*
X008531Y007114D01*
X008485Y007050D01*
X008449Y006980D01*
X008425Y006905D01*
X008413Y006828D01*
X008413Y006797D01*
X008413Y006779D02*
X008413Y006749D01*
X008425Y006671D01*
X008449Y006596D01*
X008485Y006526D01*
X008531Y006462D01*
X008587Y006407D01*
X008651Y006361D01*
X008721Y006325D01*
X008796Y006301D01*
X008873Y006288D01*
X008904Y006288D01*
X008904Y006779D01*
X008922Y006779D01*
X008922Y006797D01*
X009413Y006797D01*
X009413Y006828D01*
X009400Y006905D01*
X009376Y006980D01*
X009340Y007050D01*
X009294Y007114D01*
X009238Y007170D01*
X009175Y007216D01*
X009105Y007252D01*
X009030Y007276D01*
X008952Y007288D01*
X008922Y007288D01*
X008922Y006797D01*
X008904Y006797D01*
X008904Y006779D01*
X008413Y006779D01*
X008420Y006701D02*
X006026Y006701D01*
X005928Y006603D02*
X008447Y006603D01*
X008501Y006504D02*
X003652Y006504D01*
X003648Y006406D02*
X008589Y006406D01*
X008775Y006307D02*
X003675Y006307D01*
X003674Y006209D02*
X011190Y006209D01*
X011190Y006307D02*
X009050Y006307D01*
X009030Y006301D02*
X009105Y006325D01*
X009175Y006361D01*
X009238Y006407D01*
X009294Y006462D01*
X009340Y006526D01*
X009376Y006596D01*
X009400Y006671D01*
X009413Y006749D01*
X009413Y006779D01*
X008922Y006779D01*
X008922Y006288D01*
X008952Y006288D01*
X009030Y006301D01*
X008922Y006307D02*
X008904Y006307D01*
X008904Y006406D02*
X008922Y006406D01*
X008922Y006504D02*
X008904Y006504D01*
X008904Y006603D02*
X008922Y006603D01*
X008922Y006701D02*
X008904Y006701D01*
X008904Y006800D02*
X008922Y006800D01*
X008922Y006898D02*
X008904Y006898D01*
X008904Y006997D02*
X008922Y006997D01*
X008922Y007095D02*
X008904Y007095D01*
X008904Y007194D02*
X008922Y007194D01*
X009004Y007352D02*
X008821Y007352D01*
X008652Y007422D01*
X008523Y007551D01*
X008453Y007720D01*
X008453Y007903D01*
X008523Y008072D01*
X008652Y008202D01*
X008821Y008272D01*
X009004Y008272D01*
X009173Y008202D01*
X009303Y008072D01*
X009373Y007903D01*
X009373Y007720D01*
X009303Y007551D01*
X009173Y007422D01*
X009004Y007352D01*
X009098Y007391D02*
X011190Y007391D01*
X011190Y007489D02*
X009240Y007489D01*
X009318Y007588D02*
X011190Y007588D01*
X011190Y007686D02*
X009358Y007686D01*
X009373Y007785D02*
X011190Y007785D01*
X011190Y007883D02*
X009373Y007883D01*
X009340Y007982D02*
X011190Y007982D01*
X011190Y008080D02*
X009295Y008080D01*
X009196Y008179D02*
X011190Y008179D01*
X011190Y008277D02*
X008702Y008277D01*
X008629Y008179D02*
X008604Y008179D01*
X008530Y008080D02*
X008505Y008080D01*
X008485Y007982D02*
X008407Y007982D01*
X008453Y007883D02*
X008308Y007883D01*
X008210Y007785D02*
X008453Y007785D01*
X008467Y007686D02*
X008111Y007686D01*
X008013Y007588D02*
X008508Y007588D01*
X008585Y007489D02*
X007914Y007489D01*
X007872Y007391D02*
X008728Y007391D01*
X008620Y007194D02*
X007872Y007194D01*
X007872Y007292D02*
X011190Y007292D01*
X011190Y007194D02*
X009205Y007194D01*
X009308Y007095D02*
X011190Y007095D01*
X011190Y006997D02*
X009368Y006997D01*
X009401Y006898D02*
X011190Y006898D01*
X011190Y006800D02*
X009413Y006800D01*
X009405Y006701D02*
X011190Y006701D01*
X011190Y006603D02*
X009378Y006603D01*
X009324Y006504D02*
X011190Y006504D01*
X011190Y006406D02*
X009237Y006406D01*
X008517Y007095D02*
X007872Y007095D01*
X007814Y006997D02*
X008458Y006997D01*
X008424Y006898D02*
X006027Y006898D01*
X005929Y006997D02*
X006232Y006997D01*
X005671Y006997D02*
X005368Y006997D01*
X005425Y007095D02*
X005668Y007095D01*
X005581Y007194D02*
X005425Y007194D01*
X005425Y007292D02*
X005560Y007292D01*
X005570Y007391D02*
X005425Y007391D01*
X005425Y007489D02*
X005650Y007489D01*
X005687Y007588D02*
X005384Y007588D01*
X005200Y007800D02*
X005800Y007800D01*
X006030Y007785D02*
X007559Y007785D01*
X007658Y007883D02*
X006030Y007883D01*
X005944Y007982D02*
X007756Y007982D01*
X007872Y008179D02*
X007953Y008179D01*
X007872Y008277D02*
X008052Y008277D01*
X008150Y008376D02*
X007872Y008376D01*
X007872Y008474D02*
X008249Y008474D01*
X008347Y008573D02*
X007845Y008573D01*
X007807Y008989D02*
X007872Y009054D01*
X007872Y009546D01*
X007807Y009611D01*
X006240Y009611D01*
X006175Y009546D01*
X006175Y009054D01*
X006240Y008989D01*
X007807Y008989D01*
X007872Y009065D02*
X008770Y009065D01*
X008770Y009164D02*
X007872Y009164D01*
X007872Y009262D02*
X008770Y009262D01*
X008770Y009361D02*
X007872Y009361D01*
X007872Y009459D02*
X008770Y009459D01*
X008770Y009558D02*
X007860Y009558D01*
X007868Y010050D02*
X008124Y010050D01*
X008222Y009952D02*
X003630Y009952D01*
X003671Y010050D02*
X003732Y010050D01*
X003728Y010149D02*
X003675Y010149D01*
X003651Y010247D02*
X003728Y010247D01*
X003728Y010346D02*
X003648Y010346D01*
X003675Y010444D02*
X003728Y010444D01*
X003675Y010838D02*
X004799Y010838D01*
X004760Y010740D02*
X004349Y010740D01*
X004448Y010641D02*
X004691Y010641D01*
X004944Y010937D02*
X003656Y010937D01*
X003633Y011035D02*
X003747Y011035D01*
X003728Y011134D02*
X003674Y011134D01*
X003691Y011232D02*
X003728Y011232D01*
X003850Y011626D02*
X004676Y011626D01*
X004775Y011725D02*
X003850Y011725D01*
X003850Y011823D02*
X004873Y011823D01*
X004977Y011700D02*
X004577Y011300D01*
X004977Y011700D02*
X005800Y011700D01*
X005708Y011922D02*
X003850Y011922D01*
X003850Y012020D02*
X007840Y012020D01*
X007840Y011922D02*
X005892Y011922D01*
X006009Y011823D02*
X007840Y011823D01*
X007840Y011725D02*
X006040Y011725D01*
X006029Y011626D02*
X006202Y011626D01*
X006137Y011528D02*
X005967Y011528D01*
X006135Y011429D02*
X005425Y011429D01*
X005425Y011331D02*
X006973Y011331D01*
X007023Y011300D02*
X005800Y011300D01*
X005633Y011528D02*
X005425Y011528D01*
X005425Y011232D02*
X006135Y011232D01*
X006135Y011134D02*
X005425Y011134D01*
X005406Y011035D02*
X006149Y011035D01*
X006175Y010543D02*
X005425Y010543D01*
X005425Y010444D02*
X005605Y010444D01*
X005560Y010346D02*
X005425Y010346D01*
X005425Y010247D02*
X005562Y010247D01*
X005612Y010149D02*
X005425Y010149D01*
X005421Y010050D02*
X006179Y010050D01*
X005986Y009853D02*
X008321Y009853D01*
X008360Y009755D02*
X006037Y009755D01*
X006040Y009656D02*
X008405Y009656D01*
X008600Y009800D02*
X008000Y010400D01*
X008000Y012700D01*
X006700Y014000D01*
X006700Y014900D01*
X007200Y015400D01*
X007373Y015566D02*
X008627Y015566D01*
X008568Y015468D02*
X007432Y015468D01*
X007440Y015369D02*
X008560Y015369D01*
X008594Y015271D02*
X007406Y015271D01*
X007277Y015172D02*
X008723Y015172D01*
X008877Y015172D02*
X009723Y015172D01*
X009877Y015172D02*
X010723Y015172D01*
X010877Y015172D02*
X011723Y015172D01*
X011877Y015172D02*
X012723Y015172D01*
X012877Y015172D02*
X013723Y015172D01*
X013877Y015172D02*
X015447Y015172D01*
X015545Y015271D02*
X014006Y015271D01*
X014040Y015369D02*
X015560Y015369D01*
X015568Y015468D02*
X014032Y015468D01*
X013973Y015566D02*
X015570Y015566D01*
X015505Y015665D02*
X015095Y015665D01*
X015110Y015763D02*
X015490Y015763D01*
X015490Y015862D02*
X015110Y015862D01*
X015110Y015960D02*
X015490Y015960D01*
X015490Y016059D02*
X015110Y016059D01*
X015110Y016157D02*
X015490Y016157D01*
X015490Y016256D02*
X015110Y016256D01*
X015110Y016354D02*
X015490Y016354D01*
X016110Y016354D02*
X018501Y016354D01*
X018555Y016340D02*
X018883Y016150D01*
X019150Y015883D01*
X019340Y015555D01*
X019438Y015189D01*
X019450Y015000D01*
X019450Y008257D01*
X019373Y008257D01*
X019373Y008003D01*
X019368Y008003D01*
X019368Y008257D01*
X019245Y008257D01*
X019207Y008247D01*
X019173Y008228D01*
X019163Y008217D01*
X019081Y008217D01*
X019081Y008218D01*
X019130Y008268D01*
X019130Y008291D01*
X019186Y008347D01*
X019186Y008653D01*
X019122Y008717D01*
X018819Y008717D01*
X018800Y008698D01*
X018781Y008717D01*
X018824Y008760D01*
X018860Y008848D01*
X018860Y008943D01*
X018824Y009031D01*
X018756Y009099D01*
X018668Y009135D01*
X018573Y009135D01*
X018485Y009099D01*
X018417Y009031D01*
X018380Y008943D01*
X018380Y008848D01*
X018417Y008760D01*
X018460Y008716D01*
X018460Y008700D01*
X018414Y008653D01*
X018414Y008382D01*
X018290Y008382D01*
X018290Y008749D01*
X018286Y008753D01*
X018286Y008853D01*
X018260Y008879D01*
X018260Y009858D01*
X018149Y009970D01*
X017818Y010301D01*
X017818Y010413D01*
X017770Y010530D01*
X017680Y010620D01*
X017563Y010668D01*
X017437Y010668D01*
X017320Y010620D01*
X017230Y010530D01*
X017182Y010413D01*
X017182Y010301D01*
X016380Y009499D01*
X016380Y008339D01*
X016058Y008662D01*
X016058Y009061D01*
X015994Y009125D01*
X015509Y009125D01*
X015444Y009061D01*
X015444Y008339D01*
X015509Y008275D01*
X015643Y008275D01*
X015610Y008256D01*
X015582Y008228D01*
X015563Y008194D01*
X015553Y008156D01*
X015553Y008033D01*
X015807Y008033D01*
X015807Y008028D01*
X015553Y008028D01*
X015553Y007905D01*
X015563Y007867D01*
X015582Y007833D01*
X015593Y007823D01*
X015593Y007699D01*
X015577Y007714D01*
X015534Y007714D01*
X015534Y007938D01*
X015540Y007952D01*
X015540Y008048D01*
X015503Y008136D01*
X015436Y008203D01*
X015348Y008240D01*
X015252Y008240D01*
X015164Y008203D01*
X015097Y008136D01*
X015060Y008048D01*
X015060Y007952D01*
X015085Y007891D01*
X014895Y007891D01*
X014831Y007827D01*
X014831Y007712D01*
X014829Y007714D01*
X014816Y007714D01*
X014816Y008275D01*
X014891Y008275D01*
X014956Y008339D01*
X014956Y009061D01*
X014891Y009125D01*
X014406Y009125D01*
X014342Y009061D01*
X014342Y008339D01*
X014406Y008275D01*
X014436Y008275D01*
X014436Y007714D01*
X014423Y007714D01*
X014359Y007650D01*
X014359Y007508D01*
X014357Y007508D01*
X014327Y007538D01*
X014170Y007538D01*
X014009Y007378D01*
X014040Y007452D01*
X014040Y007548D01*
X014031Y007569D01*
X014052Y007560D01*
X014148Y007560D01*
X014236Y007597D01*
X014303Y007664D01*
X014340Y007752D01*
X014340Y007848D01*
X014303Y007936D01*
X014236Y008003D01*
X014148Y008040D01*
X014052Y008040D01*
X013964Y008003D01*
X013921Y007960D01*
X013366Y007960D01*
X011710Y009616D01*
X011710Y009871D01*
X011753Y009914D01*
X011790Y010002D01*
X011790Y010064D01*
X011990Y010264D01*
X012153Y010264D01*
X012217Y010328D01*
X012217Y010631D01*
X012198Y010650D01*
X012217Y010669D01*
X012217Y010769D01*
X012379Y010930D01*
X012490Y011042D01*
X012499Y011051D01*
X012499Y011051D01*
X012610Y011162D01*
X012610Y011171D01*
X012653Y011214D01*
X012745Y011214D01*
X012731Y011201D01*
X012731Y011072D01*
X012746Y011057D01*
X012731Y011043D01*
X012731Y010914D01*
X012746Y010900D01*
X012731Y010886D01*
X012731Y010757D01*
X012746Y010743D01*
X012731Y010728D01*
X012731Y010627D01*
X012730Y010626D01*
X012705Y010582D01*
X012691Y010532D01*
X012691Y010506D01*
X012691Y010481D01*
X012705Y010431D01*
X012730Y010386D01*
X012767Y010350D01*
X012811Y010324D01*
X012861Y010311D01*
X012959Y010311D01*
X012959Y010506D01*
X012691Y010506D01*
X012959Y010506D01*
X012959Y010506D01*
X012959Y010506D01*
X012959Y010311D01*
X013001Y010311D01*
X013001Y010210D01*
X012384Y010210D01*
X012264Y010090D01*
X012202Y010090D01*
X012114Y010053D01*
X012047Y009986D01*
X012010Y009898D01*
X012010Y009802D01*
X012047Y009714D01*
X012114Y009647D01*
X012202Y009610D01*
X012298Y009610D01*
X012386Y009647D01*
X012453Y009714D01*
X012490Y009802D01*
X012490Y009864D01*
X012516Y009890D01*
X013564Y009890D01*
X013334Y009660D01*
X013240Y009566D01*
X013240Y009129D01*
X013197Y009086D01*
X013160Y008998D01*
X013160Y008902D01*
X013197Y008814D01*
X013264Y008747D01*
X013352Y008710D01*
X013448Y008710D01*
X013536Y008747D01*
X013603Y008814D01*
X013640Y008902D01*
X013640Y008998D01*
X013603Y009086D01*
X013560Y009129D01*
X013560Y009434D01*
X014104Y009977D01*
X014104Y010110D01*
X014094Y010120D01*
X014094Y010167D01*
X014099Y010172D01*
X014099Y010340D01*
X014213Y010340D01*
X014219Y010346D01*
X014315Y010346D01*
X014378Y010283D01*
X014663Y010283D01*
X014673Y010272D01*
X014707Y010253D01*
X014745Y010243D01*
X014868Y010243D01*
X014868Y010497D01*
X014873Y010497D01*
X014873Y010243D01*
X014996Y010243D01*
X015034Y010253D01*
X015068Y010272D01*
X015096Y010300D01*
X015116Y010335D01*
X015126Y010373D01*
X015126Y010497D01*
X014873Y010497D01*
X014873Y010503D01*
X014868Y010503D01*
X014868Y010757D01*
X014745Y010757D01*
X014707Y010747D01*
X014689Y010737D01*
X014689Y011563D01*
X014886Y011760D01*
X014948Y011760D01*
X015036Y011797D01*
X015103Y011864D01*
X015140Y011952D01*
X015140Y012048D01*
X015103Y012136D01*
X015036Y012203D01*
X014948Y012240D01*
X014852Y012240D01*
X014764Y012203D01*
X014721Y012160D01*
X014298Y012160D01*
X014307Y012195D01*
X014307Y012318D01*
X014053Y012318D01*
X014053Y012323D01*
X014307Y012323D01*
X014307Y012446D01*
X014298Y012481D01*
X014336Y012497D01*
X014403Y012564D01*
X014440Y012652D01*
X014440Y012748D01*
X014403Y012836D01*
X014336Y012903D01*
X014248Y012940D01*
X014152Y012940D01*
X014110Y012922D01*
X014110Y013721D01*
X014046Y013785D01*
X013554Y013785D01*
X013490Y013721D01*
X013490Y012879D01*
X013509Y012860D01*
X013423Y012860D01*
X013316Y012966D01*
X013316Y013010D01*
X013223Y013104D01*
X013208Y013104D01*
X013110Y013202D01*
X013490Y013202D01*
X013490Y013104D02*
X013223Y013104D01*
X013316Y013005D02*
X013490Y013005D01*
X013490Y012907D02*
X013376Y012907D01*
X013356Y012700D02*
X013156Y012900D01*
X013156Y012944D01*
X013006Y012815D02*
X013006Y011633D01*
X013001Y011628D01*
X013001Y011478D01*
X012890Y011589D01*
X012837Y011589D01*
X012847Y011607D01*
X012857Y011645D01*
X012857Y011768D01*
X012603Y011768D01*
X012603Y011773D01*
X012857Y011773D01*
X012857Y011896D01*
X012847Y011934D01*
X012828Y011968D01*
X012800Y011996D01*
X012765Y012016D01*
X012727Y012026D01*
X012603Y012026D01*
X012603Y011773D01*
X012597Y011773D01*
X012597Y012026D01*
X012490Y012026D01*
X012490Y014670D01*
X015595Y014670D01*
X015730Y014805D01*
X016030Y015105D01*
X016030Y015328D01*
X016040Y015352D01*
X016040Y015448D01*
X016030Y015472D01*
X016030Y015615D01*
X016046Y015615D01*
X016110Y015679D01*
X016110Y016450D01*
X018000Y016450D01*
X018189Y016438D01*
X018555Y016340D01*
X018438Y016225D02*
X018316Y016263D01*
X018191Y016287D01*
X018064Y016300D01*
X018050Y016300D01*
X018050Y015050D01*
X019300Y015050D01*
X019300Y015064D01*
X019287Y015191D01*
X019263Y015316D01*
X019225Y015438D01*
X019177Y015556D01*
X019116Y015669D01*
X019045Y015775D01*
X018964Y015874D01*
X018874Y015964D01*
X018775Y016045D01*
X018669Y016116D01*
X018556Y016177D01*
X018438Y016225D01*
X018339Y016256D02*
X018701Y016256D01*
X018593Y016157D02*
X018871Y016157D01*
X018975Y016059D02*
X018756Y016059D01*
X018878Y015960D02*
X019073Y015960D01*
X019163Y015862D02*
X018975Y015862D01*
X019054Y015763D02*
X019219Y015763D01*
X019276Y015665D02*
X019119Y015665D01*
X019171Y015566D02*
X019333Y015566D01*
X019363Y015468D02*
X019213Y015468D01*
X019247Y015369D02*
X019389Y015369D01*
X019416Y015271D02*
X019272Y015271D01*
X019289Y015172D02*
X019439Y015172D01*
X019445Y015074D02*
X019299Y015074D01*
X019300Y014950D02*
X018050Y014950D01*
X018050Y015050D01*
X017950Y015050D01*
X017950Y016300D01*
X017936Y016300D01*
X017809Y016287D01*
X017684Y016263D01*
X017562Y016225D01*
X017444Y016177D01*
X017331Y016116D01*
X017225Y016045D01*
X017126Y015964D01*
X017036Y015874D01*
X016955Y015775D01*
X016884Y015669D01*
X016823Y015556D01*
X016775Y015438D01*
X016737Y015316D01*
X016713Y015191D01*
X016700Y015064D01*
X016700Y015050D01*
X017950Y015050D01*
X017950Y014950D01*
X018050Y014950D01*
X018050Y013700D01*
X018064Y013700D01*
X018191Y013713D01*
X018316Y013737D01*
X018438Y013775D01*
X018556Y013823D01*
X018669Y013884D01*
X018775Y013955D01*
X018874Y014036D01*
X018964Y014126D01*
X019045Y014225D01*
X019116Y014331D01*
X019177Y014444D01*
X019225Y014562D01*
X019263Y014684D01*
X019287Y014809D01*
X019300Y014936D01*
X019300Y014950D01*
X019294Y014877D02*
X019450Y014877D01*
X019450Y014975D02*
X018050Y014975D01*
X018050Y014877D02*
X017950Y014877D01*
X017950Y014950D02*
X017950Y013700D01*
X017936Y013700D01*
X017809Y013713D01*
X017684Y013737D01*
X017562Y013775D01*
X017444Y013823D01*
X017331Y013884D01*
X017225Y013955D01*
X017126Y014036D01*
X017036Y014126D01*
X016955Y014225D01*
X016884Y014331D01*
X016823Y014444D01*
X016775Y014562D01*
X016737Y014684D01*
X016713Y014809D01*
X016700Y014936D01*
X016700Y014950D01*
X017950Y014950D01*
X017950Y014975D02*
X015900Y014975D01*
X015802Y014877D02*
X016706Y014877D01*
X016719Y014778D02*
X015703Y014778D01*
X015605Y014680D02*
X016739Y014680D01*
X016769Y014581D02*
X012490Y014581D01*
X012490Y014483D02*
X016807Y014483D01*
X016855Y014384D02*
X012490Y014384D01*
X012490Y014286D02*
X016914Y014286D01*
X016985Y014187D02*
X012490Y014187D01*
X012490Y014089D02*
X017073Y014089D01*
X017181Y013990D02*
X012490Y013990D01*
X012490Y013892D02*
X017319Y013892D01*
X017517Y013793D02*
X016094Y013793D01*
X016092Y013795D02*
X016058Y013815D01*
X016020Y013825D01*
X015850Y013825D01*
X015850Y013350D01*
X015750Y013350D01*
X015750Y013825D01*
X015580Y013825D01*
X015542Y013815D01*
X015508Y013795D01*
X015480Y013767D01*
X015460Y013733D01*
X015450Y013695D01*
X015450Y013350D01*
X015750Y013350D01*
X015750Y013250D01*
X015476Y013250D01*
X015466Y013260D01*
X015266Y013460D01*
X015110Y013460D01*
X015110Y013721D01*
X015046Y013785D01*
X014554Y013785D01*
X014490Y013721D01*
X014490Y012879D01*
X014554Y012815D01*
X015046Y012815D01*
X015110Y012879D01*
X015110Y013140D01*
X015134Y013140D01*
X015240Y013034D01*
X015240Y011979D01*
X015197Y011936D01*
X015160Y011848D01*
X015160Y011752D01*
X015197Y011664D01*
X015264Y011597D01*
X015352Y011560D01*
X015448Y011560D01*
X015536Y011597D01*
X015603Y011664D01*
X015640Y011752D01*
X015640Y011848D01*
X015603Y011936D01*
X015560Y011979D01*
X015560Y012780D01*
X015580Y012775D01*
X015750Y012775D01*
X015750Y013250D01*
X015850Y013250D01*
X015850Y013350D01*
X016150Y013350D01*
X016150Y013695D01*
X016140Y013733D01*
X016120Y013767D01*
X016092Y013795D01*
X016150Y013695D02*
X019450Y013695D01*
X019450Y013793D02*
X018483Y013793D01*
X018681Y013892D02*
X019450Y013892D01*
X019450Y013990D02*
X018819Y013990D01*
X018927Y014089D02*
X019450Y014089D01*
X019450Y014187D02*
X019015Y014187D01*
X019086Y014286D02*
X019450Y014286D01*
X019450Y014384D02*
X019145Y014384D01*
X019193Y014483D02*
X019450Y014483D01*
X019450Y014581D02*
X019231Y014581D01*
X019261Y014680D02*
X019450Y014680D01*
X019450Y014778D02*
X019281Y014778D01*
X019450Y013596D02*
X016150Y013596D01*
X016150Y013498D02*
X019450Y013498D01*
X019450Y013399D02*
X016150Y013399D01*
X016150Y013250D02*
X015850Y013250D01*
X015850Y012775D01*
X016020Y012775D01*
X016058Y012785D01*
X016092Y012805D01*
X016120Y012833D01*
X016140Y012867D01*
X016150Y012905D01*
X016150Y013250D01*
X016150Y013202D02*
X019450Y013202D01*
X019450Y013104D02*
X016150Y013104D01*
X016150Y013005D02*
X019450Y013005D01*
X019450Y012907D02*
X016150Y012907D01*
X016095Y012808D02*
X019450Y012808D01*
X019450Y012710D02*
X015560Y012710D01*
X015560Y012611D02*
X017259Y012611D01*
X017257Y012613D02*
X017500Y012370D01*
X017480Y012350D01*
X017237Y012593D01*
X017222Y012578D01*
X017183Y012520D01*
X017156Y012454D01*
X017142Y012385D01*
X017142Y012315D01*
X017156Y012246D01*
X017183Y012180D01*
X017222Y012122D01*
X017237Y012107D01*
X017480Y012350D01*
X017500Y012330D01*
X017520Y012350D01*
X017500Y012370D01*
X017743Y012613D01*
X017728Y012628D01*
X017670Y012667D01*
X017604Y012694D01*
X017535Y012708D01*
X017465Y012708D01*
X017396Y012694D01*
X017330Y012667D01*
X017272Y012628D01*
X017257Y012613D01*
X017318Y012513D02*
X017357Y012513D01*
X017416Y012414D02*
X017456Y012414D01*
X017544Y012414D02*
X017584Y012414D01*
X017520Y012350D02*
X017763Y012593D01*
X017778Y012578D01*
X017817Y012520D01*
X017844Y012454D01*
X017858Y012385D01*
X017858Y012315D01*
X017844Y012246D01*
X017817Y012180D01*
X017778Y012122D01*
X017763Y012107D01*
X017520Y012350D01*
X017500Y012330D02*
X017743Y012087D01*
X017728Y012072D01*
X017670Y012033D01*
X017604Y012006D01*
X017535Y011992D01*
X017465Y011992D01*
X017396Y012006D01*
X017330Y012033D01*
X017272Y012072D01*
X017257Y012087D01*
X017500Y012330D01*
X017515Y012316D02*
X017554Y012316D01*
X017485Y012316D02*
X017446Y012316D01*
X017387Y012217D02*
X017347Y012217D01*
X017288Y012119D02*
X017249Y012119D01*
X017225Y012119D02*
X015560Y012119D01*
X015560Y012217D02*
X017168Y012217D01*
X017142Y012316D02*
X015560Y012316D01*
X015560Y012414D02*
X017148Y012414D01*
X017180Y012513D02*
X015560Y012513D01*
X015750Y012808D02*
X015850Y012808D01*
X015850Y012907D02*
X015750Y012907D01*
X015750Y013005D02*
X015850Y013005D01*
X015850Y013104D02*
X015750Y013104D01*
X015750Y013202D02*
X015850Y013202D01*
X015850Y013301D02*
X019450Y013301D01*
X019450Y012611D02*
X017741Y012611D01*
X017682Y012513D02*
X017643Y012513D01*
X017820Y012513D02*
X019450Y012513D01*
X019450Y012414D02*
X017852Y012414D01*
X017858Y012316D02*
X019450Y012316D01*
X019450Y012217D02*
X017832Y012217D01*
X017775Y012119D02*
X019450Y012119D01*
X019450Y012020D02*
X017639Y012020D01*
X017712Y012119D02*
X017751Y012119D01*
X017653Y012217D02*
X017613Y012217D01*
X017361Y012020D02*
X015560Y012020D01*
X015609Y011922D02*
X019450Y011922D01*
X019450Y011823D02*
X015640Y011823D01*
X015629Y011725D02*
X019450Y011725D01*
X019450Y011626D02*
X018664Y011626D01*
X018680Y011620D02*
X018563Y011668D01*
X018437Y011668D01*
X018320Y011620D01*
X018230Y011530D01*
X018182Y011413D01*
X018182Y011287D01*
X018190Y011267D01*
X018084Y011160D01*
X016879Y011160D01*
X016836Y011203D01*
X016748Y011240D01*
X016652Y011240D01*
X016564Y011203D01*
X016497Y011136D01*
X016460Y011048D01*
X016460Y010952D01*
X016497Y010864D01*
X016564Y010797D01*
X016652Y010760D01*
X016748Y010760D01*
X016836Y010797D01*
X016879Y010840D01*
X018216Y010840D01*
X018417Y011040D01*
X018437Y011032D01*
X018563Y011032D01*
X018680Y011080D01*
X018770Y011170D01*
X018818Y011287D01*
X018818Y011413D01*
X018770Y011530D01*
X018680Y011620D01*
X018771Y011528D02*
X019450Y011528D01*
X019450Y011429D02*
X018811Y011429D01*
X018818Y011331D02*
X019450Y011331D01*
X019450Y011232D02*
X018795Y011232D01*
X018733Y011134D02*
X019450Y011134D01*
X019450Y011035D02*
X018570Y011035D01*
X018430Y011035D02*
X018411Y011035D01*
X018313Y010937D02*
X019450Y010937D01*
X019450Y010838D02*
X016877Y010838D01*
X016700Y011000D02*
X018150Y011000D01*
X018500Y011350D01*
X018336Y011626D02*
X015565Y011626D01*
X015400Y011800D02*
X015400Y013100D01*
X015200Y013300D01*
X014800Y013300D01*
X014490Y013301D02*
X014110Y013301D01*
X014110Y013399D02*
X014490Y013399D01*
X014490Y013498D02*
X014110Y013498D01*
X014110Y013596D02*
X014490Y013596D01*
X014490Y013695D02*
X014110Y013695D01*
X014110Y013202D02*
X014490Y013202D01*
X014490Y013104D02*
X014110Y013104D01*
X014110Y013005D02*
X014490Y013005D01*
X014490Y012907D02*
X014329Y012907D01*
X014415Y012808D02*
X015240Y012808D01*
X015240Y012710D02*
X014440Y012710D01*
X014423Y012611D02*
X015240Y012611D01*
X015240Y012513D02*
X014352Y012513D01*
X014307Y012414D02*
X015240Y012414D01*
X015240Y012316D02*
X014307Y012316D01*
X014307Y012217D02*
X014797Y012217D01*
X015003Y012217D02*
X015240Y012217D01*
X015240Y012119D02*
X015111Y012119D01*
X015140Y012020D02*
X015240Y012020D01*
X015191Y011922D02*
X015127Y011922D01*
X015160Y011823D02*
X015062Y011823D01*
X015171Y011725D02*
X014851Y011725D01*
X014752Y011626D02*
X015235Y011626D01*
X014900Y012000D02*
X014530Y011630D01*
X014530Y010500D01*
X014523Y010506D01*
X014141Y010506D01*
X014147Y010500D01*
X014219Y010346D02*
X014315Y010346D01*
X014099Y010247D02*
X014728Y010247D01*
X014868Y010247D02*
X014873Y010247D01*
X014868Y010346D02*
X014873Y010346D01*
X014868Y010444D02*
X014873Y010444D01*
X014873Y010503D02*
X015126Y010503D01*
X015126Y010627D01*
X015116Y010665D01*
X015096Y010700D01*
X015068Y010728D01*
X015034Y010747D01*
X014996Y010757D01*
X014873Y010757D01*
X014873Y010503D01*
X014868Y010543D02*
X014873Y010543D01*
X014868Y010641D02*
X014873Y010641D01*
X014868Y010740D02*
X014873Y010740D01*
X015047Y010740D02*
X019450Y010740D01*
X019450Y010641D02*
X017628Y010641D01*
X017757Y010543D02*
X019450Y010543D01*
X019450Y010444D02*
X017805Y010444D01*
X017818Y010346D02*
X019450Y010346D01*
X019450Y010247D02*
X017872Y010247D01*
X017970Y010149D02*
X019450Y010149D01*
X019450Y010050D02*
X018069Y010050D01*
X018149Y009970D02*
X018149Y009970D01*
X018167Y009952D02*
X019450Y009952D01*
X019450Y009853D02*
X018260Y009853D01*
X018260Y009755D02*
X019450Y009755D01*
X019450Y009656D02*
X018260Y009656D01*
X018260Y009558D02*
X019450Y009558D01*
X019450Y009459D02*
X018260Y009459D01*
X018260Y009361D02*
X019450Y009361D01*
X019450Y009262D02*
X018260Y009262D01*
X018260Y009164D02*
X019450Y009164D01*
X019450Y009065D02*
X018790Y009065D01*
X018851Y008967D02*
X019450Y008967D01*
X019450Y008868D02*
X018860Y008868D01*
X018828Y008770D02*
X019450Y008770D01*
X019450Y008671D02*
X019168Y008671D01*
X019186Y008573D02*
X019450Y008573D01*
X019450Y008474D02*
X019186Y008474D01*
X019186Y008376D02*
X019450Y008376D01*
X019450Y008277D02*
X019130Y008277D01*
X018970Y008334D02*
X018833Y008196D01*
X018970Y008334D02*
X018970Y008500D01*
X018620Y008509D02*
X018620Y008895D01*
X018451Y009065D02*
X018260Y009065D01*
X018260Y008967D02*
X018390Y008967D01*
X018380Y008868D02*
X018271Y008868D01*
X018286Y008770D02*
X018413Y008770D01*
X018432Y008671D02*
X018290Y008671D01*
X018290Y008573D02*
X018414Y008573D01*
X018414Y008474D02*
X018290Y008474D01*
X017910Y008474D02*
X017730Y008474D01*
X017738Y008483D02*
X017881Y008483D01*
X017900Y008502D01*
X017910Y008492D01*
X017910Y007521D01*
X018021Y007410D01*
X018131Y007300D01*
X018131Y007282D01*
X018195Y007217D01*
X018287Y007217D01*
X018287Y007144D01*
X018371Y007060D01*
X018293Y007004D01*
X018278Y007004D01*
X018240Y006966D01*
X018197Y006935D01*
X018195Y006921D01*
X018184Y006910D01*
X018184Y006857D01*
X018175Y006804D01*
X018184Y006793D01*
X018184Y005661D01*
X018161Y005661D01*
X018096Y005597D01*
X018096Y005151D01*
X018161Y005087D01*
X018527Y005087D01*
X018592Y005151D01*
X018592Y005597D01*
X018527Y005661D01*
X018504Y005661D01*
X018504Y006762D01*
X018710Y006910D01*
X018774Y006910D01*
X018774Y006803D01*
X019027Y006803D01*
X019027Y006797D01*
X019032Y006797D01*
X019032Y006543D01*
X019155Y006543D01*
X019193Y006553D01*
X019227Y006572D01*
X019237Y006583D01*
X019450Y006583D01*
X019450Y005689D01*
X019436Y005703D01*
X019348Y005740D01*
X019252Y005740D01*
X019164Y005703D01*
X019097Y005636D01*
X019087Y005613D01*
X019039Y005661D01*
X018673Y005661D01*
X018608Y005597D01*
X018608Y005151D01*
X018673Y005087D01*
X019039Y005087D01*
X019104Y005151D01*
X019104Y005214D01*
X019240Y005214D01*
X019286Y005260D01*
X019348Y005260D01*
X019436Y005297D01*
X019450Y005311D01*
X019450Y002300D01*
X019438Y002111D01*
X019340Y001745D01*
X019340Y001745D01*
X019150Y001417D01*
X018883Y001150D01*
X018555Y000960D01*
X018189Y000862D01*
X018000Y000850D01*
X015519Y000850D01*
X015830Y001161D01*
X015844Y001175D01*
X015994Y001175D01*
X016058Y001239D01*
X016058Y001961D01*
X015994Y002025D01*
X015984Y002025D01*
X015984Y003000D01*
X016029Y003044D01*
X016048Y003011D01*
X016076Y002983D01*
X016110Y002963D01*
X016148Y002953D01*
X016287Y002953D01*
X016287Y003281D01*
X016325Y003281D01*
X016325Y003319D01*
X016594Y003319D01*
X016594Y003517D01*
X016583Y003555D01*
X016564Y003589D01*
X016536Y003617D01*
X016502Y003637D01*
X016463Y003647D01*
X016325Y003647D01*
X016325Y003319D01*
X016287Y003319D01*
X016287Y003647D01*
X016148Y003647D01*
X016110Y003637D01*
X016076Y003617D01*
X016048Y003589D01*
X016029Y003556D01*
X015984Y003600D01*
X015984Y006315D01*
X016391Y006722D01*
X016360Y006648D01*
X016360Y006552D01*
X016397Y006464D01*
X016464Y006397D01*
X016552Y006360D01*
X016648Y006360D01*
X016736Y006397D01*
X016803Y006464D01*
X016840Y006552D01*
X016840Y006614D01*
X017443Y007217D01*
X017716Y007217D01*
X017780Y007282D01*
X017780Y007570D01*
X017737Y007613D01*
X017780Y007656D01*
X017780Y007944D01*
X017737Y007987D01*
X017780Y008030D01*
X017780Y008318D01*
X017716Y008382D01*
X017638Y008382D01*
X017738Y008483D01*
X017722Y008376D02*
X017910Y008376D01*
X017910Y008277D02*
X017780Y008277D01*
X017780Y008179D02*
X017910Y008179D01*
X017910Y008080D02*
X017780Y008080D01*
X017742Y007982D02*
X017910Y007982D01*
X017910Y007883D02*
X017780Y007883D01*
X017780Y007785D02*
X017910Y007785D01*
X017910Y007686D02*
X017780Y007686D01*
X017762Y007588D02*
X017910Y007588D01*
X017942Y007489D02*
X017780Y007489D01*
X017780Y007391D02*
X018041Y007391D01*
X018131Y007292D02*
X017780Y007292D01*
X017434Y007426D02*
X017426Y007426D01*
X016600Y006600D01*
X016840Y006603D02*
X018184Y006603D01*
X018184Y006701D02*
X016927Y006701D01*
X017026Y006800D02*
X018179Y006800D01*
X018184Y006898D02*
X017124Y006898D01*
X017223Y006997D02*
X018270Y006997D01*
X018336Y007095D02*
X017321Y007095D01*
X017420Y007194D02*
X018287Y007194D01*
X018344Y006844D02*
X018700Y007100D01*
X018693Y006898D02*
X018774Y006898D01*
X018774Y006797D02*
X018774Y006673D01*
X018784Y006635D01*
X018804Y006600D01*
X018832Y006572D01*
X018866Y006553D01*
X018904Y006543D01*
X019027Y006543D01*
X019027Y006797D01*
X018774Y006797D01*
X018774Y006701D02*
X018504Y006701D01*
X018504Y006603D02*
X018803Y006603D01*
X019027Y006603D02*
X019032Y006603D01*
X019027Y006701D02*
X019032Y006701D01*
X019027Y006800D02*
X018556Y006800D01*
X018344Y006844D02*
X018344Y005374D01*
X018096Y005421D02*
X015984Y005421D01*
X015984Y005519D02*
X018096Y005519D01*
X018117Y005618D02*
X015984Y005618D01*
X015984Y005716D02*
X018184Y005716D01*
X018184Y005815D02*
X015984Y005815D01*
X015984Y005913D02*
X018184Y005913D01*
X018184Y006012D02*
X015984Y006012D01*
X015984Y006110D02*
X018184Y006110D01*
X018184Y006209D02*
X015984Y006209D01*
X015984Y006307D02*
X018184Y006307D01*
X018184Y006406D02*
X016745Y006406D01*
X016820Y006504D02*
X018184Y006504D01*
X018504Y006504D02*
X019450Y006504D01*
X019450Y006406D02*
X018504Y006406D01*
X018504Y006307D02*
X019450Y006307D01*
X019450Y006209D02*
X018504Y006209D01*
X018504Y006110D02*
X019450Y006110D01*
X019450Y006012D02*
X018504Y006012D01*
X018504Y005913D02*
X019450Y005913D01*
X019450Y005815D02*
X018504Y005815D01*
X018504Y005716D02*
X019194Y005716D01*
X019089Y005618D02*
X019083Y005618D01*
X019300Y005500D02*
X019174Y005374D01*
X018856Y005374D01*
X018629Y005618D02*
X018571Y005618D01*
X018592Y005519D02*
X018608Y005519D01*
X018608Y005421D02*
X018592Y005421D01*
X018592Y005322D02*
X018608Y005322D01*
X018608Y005224D02*
X018592Y005224D01*
X018566Y005125D02*
X018634Y005125D01*
X018783Y004913D02*
X018417Y004913D01*
X018352Y004849D01*
X018352Y004760D01*
X018166Y004760D01*
X018083Y004843D01*
X018103Y004864D01*
X018140Y004952D01*
X018140Y005048D01*
X018103Y005136D01*
X018036Y005203D01*
X017948Y005240D01*
X017852Y005240D01*
X017764Y005203D01*
X017697Y005136D01*
X017660Y005048D01*
X017660Y004952D01*
X017697Y004864D01*
X017740Y004821D01*
X017740Y004734D01*
X017940Y004534D01*
X018034Y004440D01*
X018352Y004440D01*
X018352Y004403D01*
X018417Y004339D01*
X018783Y004339D01*
X018848Y004403D01*
X018848Y004849D01*
X018783Y004913D01*
X018848Y004830D02*
X019450Y004830D01*
X019450Y004928D02*
X018130Y004928D01*
X018140Y005027D02*
X019450Y005027D01*
X019450Y005125D02*
X019077Y005125D01*
X019250Y005224D02*
X019450Y005224D01*
X019450Y005716D02*
X019406Y005716D01*
X019450Y004731D02*
X018848Y004731D01*
X018848Y004633D02*
X019450Y004633D01*
X019450Y004534D02*
X018848Y004534D01*
X018848Y004436D02*
X019450Y004436D01*
X019450Y004337D02*
X015984Y004337D01*
X015984Y004239D02*
X019450Y004239D01*
X019450Y004140D02*
X015984Y004140D01*
X015984Y004042D02*
X019450Y004042D01*
X019450Y003943D02*
X015984Y003943D01*
X015984Y003845D02*
X019450Y003845D01*
X019450Y003746D02*
X015984Y003746D01*
X015984Y003648D02*
X019450Y003648D01*
X019450Y003549D02*
X018361Y003549D01*
X018316Y003563D02*
X018191Y003587D01*
X018064Y003600D01*
X018050Y003600D01*
X018050Y002350D01*
X019300Y002350D01*
X019300Y002364D01*
X019287Y002491D01*
X019263Y002616D01*
X019225Y002738D01*
X019177Y002856D01*
X019116Y002969D01*
X019045Y003075D01*
X018964Y003174D01*
X018874Y003264D01*
X018775Y003345D01*
X018669Y003416D01*
X018556Y003477D01*
X018438Y003525D01*
X018316Y003563D01*
X018050Y003549D02*
X017950Y003549D01*
X017950Y003600D02*
X017936Y003600D01*
X017809Y003587D01*
X017684Y003563D01*
X017562Y003525D01*
X017444Y003477D01*
X017331Y003416D01*
X017225Y003345D01*
X017126Y003264D01*
X017036Y003174D01*
X016955Y003075D01*
X016884Y002969D01*
X016823Y002856D01*
X016775Y002738D01*
X016737Y002616D01*
X016713Y002491D01*
X016700Y002364D01*
X016700Y002350D01*
X017950Y002350D01*
X017950Y003600D01*
X017950Y003451D02*
X018050Y003451D01*
X018050Y003352D02*
X017950Y003352D01*
X017950Y003254D02*
X018050Y003254D01*
X018050Y003155D02*
X017950Y003155D01*
X017950Y003057D02*
X018050Y003057D01*
X018050Y002958D02*
X017950Y002958D01*
X017950Y002860D02*
X018050Y002860D01*
X018050Y002761D02*
X017950Y002761D01*
X017950Y002663D02*
X018050Y002663D01*
X018050Y002564D02*
X017950Y002564D01*
X017950Y002466D02*
X018050Y002466D01*
X018050Y002367D02*
X017950Y002367D01*
X017950Y002350D02*
X018050Y002350D01*
X018050Y002250D01*
X019300Y002250D01*
X019300Y002236D01*
X019287Y002109D01*
X019263Y001984D01*
X019225Y001862D01*
X019177Y001744D01*
X019116Y001631D01*
X019045Y001525D01*
X018964Y001426D01*
X018874Y001336D01*
X018775Y001255D01*
X018669Y001184D01*
X018556Y001123D01*
X018438Y001075D01*
X018316Y001037D01*
X018191Y001013D01*
X018064Y001000D01*
X018050Y001000D01*
X018050Y002250D01*
X017950Y002250D01*
X017950Y001000D01*
X017936Y001000D01*
X017809Y001013D01*
X017684Y001037D01*
X017562Y001075D01*
X017444Y001123D01*
X017331Y001184D01*
X017225Y001255D01*
X017126Y001336D01*
X017036Y001426D01*
X016955Y001525D01*
X016884Y001631D01*
X016823Y001744D01*
X016775Y001862D01*
X016737Y001984D01*
X016713Y002109D01*
X016700Y002236D01*
X016700Y002250D01*
X017950Y002250D01*
X017950Y002350D01*
X017950Y002269D02*
X015984Y002269D01*
X015984Y002367D02*
X016700Y002367D01*
X016710Y002466D02*
X015984Y002466D01*
X015984Y002564D02*
X016727Y002564D01*
X016751Y002663D02*
X015984Y002663D01*
X015984Y002761D02*
X016784Y002761D01*
X016825Y002860D02*
X015984Y002860D01*
X015984Y002958D02*
X016130Y002958D01*
X016287Y002958D02*
X016325Y002958D01*
X016325Y002953D02*
X016463Y002953D01*
X016502Y002963D01*
X016536Y002983D01*
X016564Y003011D01*
X016583Y003045D01*
X016594Y003083D01*
X016594Y003281D01*
X016325Y003281D01*
X016325Y002953D01*
X016325Y003057D02*
X016287Y003057D01*
X016287Y003155D02*
X016325Y003155D01*
X016325Y003254D02*
X016287Y003254D01*
X016287Y003352D02*
X016325Y003352D01*
X016325Y003451D02*
X016287Y003451D01*
X016287Y003549D02*
X016325Y003549D01*
X016585Y003549D02*
X017639Y003549D01*
X017395Y003451D02*
X016594Y003451D01*
X016594Y003352D02*
X017235Y003352D01*
X017115Y003254D02*
X016594Y003254D01*
X016594Y003155D02*
X017020Y003155D01*
X016942Y003057D02*
X016586Y003057D01*
X016482Y002958D02*
X016878Y002958D01*
X016707Y002170D02*
X015984Y002170D01*
X015984Y002072D02*
X016720Y002072D01*
X016741Y001973D02*
X016046Y001973D01*
X016058Y001875D02*
X016771Y001875D01*
X016810Y001776D02*
X016058Y001776D01*
X016058Y001678D02*
X016859Y001678D01*
X016918Y001579D02*
X016058Y001579D01*
X016058Y001481D02*
X016991Y001481D01*
X017080Y001382D02*
X016058Y001382D01*
X016058Y001284D02*
X017189Y001284D01*
X017329Y001185D02*
X016004Y001185D01*
X015755Y001087D02*
X017533Y001087D01*
X017950Y001087D02*
X018050Y001087D01*
X018050Y001185D02*
X017950Y001185D01*
X017950Y001284D02*
X018050Y001284D01*
X018050Y001382D02*
X017950Y001382D01*
X017950Y001481D02*
X018050Y001481D01*
X018050Y001579D02*
X017950Y001579D01*
X017950Y001678D02*
X018050Y001678D01*
X018050Y001776D02*
X017950Y001776D01*
X017950Y001875D02*
X018050Y001875D01*
X018050Y001973D02*
X017950Y001973D01*
X017950Y002072D02*
X018050Y002072D01*
X018050Y002170D02*
X017950Y002170D01*
X018050Y002269D02*
X019448Y002269D01*
X019450Y002367D02*
X019300Y002367D01*
X019290Y002466D02*
X019450Y002466D01*
X019450Y002564D02*
X019273Y002564D01*
X019249Y002663D02*
X019450Y002663D01*
X019450Y002761D02*
X019216Y002761D01*
X019175Y002860D02*
X019450Y002860D01*
X019450Y002958D02*
X019122Y002958D01*
X019058Y003057D02*
X019450Y003057D01*
X019450Y003155D02*
X018980Y003155D01*
X018885Y003254D02*
X019450Y003254D01*
X019450Y003352D02*
X018765Y003352D01*
X018605Y003451D02*
X019450Y003451D01*
X019441Y002170D02*
X019293Y002170D01*
X019280Y002072D02*
X019427Y002072D01*
X019401Y001973D02*
X019259Y001973D01*
X019229Y001875D02*
X019374Y001875D01*
X019348Y001776D02*
X019190Y001776D01*
X019141Y001678D02*
X019301Y001678D01*
X019244Y001579D02*
X019082Y001579D01*
X019009Y001481D02*
X019187Y001481D01*
X019115Y001382D02*
X018920Y001382D01*
X019017Y001284D02*
X018811Y001284D01*
X018918Y001185D02*
X018671Y001185D01*
X018773Y001087D02*
X018467Y001087D01*
X018603Y000988D02*
X015657Y000988D01*
X015558Y000890D02*
X018290Y000890D01*
X015604Y002025D02*
X015509Y002025D01*
X015444Y001961D01*
X015444Y001313D01*
X015321Y001190D01*
X014906Y001190D01*
X014956Y001239D01*
X014956Y001961D01*
X014891Y002025D01*
X014839Y002025D01*
X014839Y006665D01*
X014895Y006609D01*
X015060Y006609D01*
X015060Y006552D01*
X015097Y006464D01*
X015164Y006397D01*
X015252Y006360D01*
X015348Y006360D01*
X015436Y006397D01*
X015503Y006464D01*
X015540Y006552D01*
X015540Y006648D01*
X015534Y006662D01*
X015534Y006786D01*
X015577Y006786D01*
X015626Y006835D01*
X015664Y006797D01*
X015752Y006760D01*
X015848Y006760D01*
X015922Y006791D01*
X015604Y006473D01*
X015604Y003600D01*
X015546Y003542D01*
X015546Y003058D01*
X015604Y003000D01*
X015604Y002025D01*
X015604Y002072D02*
X014839Y002072D01*
X014839Y002170D02*
X015604Y002170D01*
X015604Y002269D02*
X014839Y002269D01*
X014839Y002367D02*
X015604Y002367D01*
X015604Y002466D02*
X014839Y002466D01*
X014839Y002564D02*
X015604Y002564D01*
X015604Y002663D02*
X014839Y002663D01*
X014839Y002761D02*
X015604Y002761D01*
X015604Y002860D02*
X014839Y002860D01*
X014839Y002958D02*
X015604Y002958D01*
X015547Y003057D02*
X014839Y003057D01*
X014839Y003155D02*
X015546Y003155D01*
X015546Y003254D02*
X014839Y003254D01*
X014839Y003352D02*
X015546Y003352D01*
X015546Y003451D02*
X014839Y003451D01*
X014839Y003549D02*
X015553Y003549D01*
X015604Y003648D02*
X014839Y003648D01*
X014839Y003746D02*
X015604Y003746D01*
X015604Y003845D02*
X014839Y003845D01*
X014839Y003943D02*
X015604Y003943D01*
X015604Y004042D02*
X014839Y004042D01*
X014839Y004140D02*
X015604Y004140D01*
X015604Y004239D02*
X014839Y004239D01*
X014839Y004337D02*
X015604Y004337D01*
X015604Y004436D02*
X014839Y004436D01*
X014839Y004534D02*
X015604Y004534D01*
X015604Y004633D02*
X014839Y004633D01*
X014839Y004731D02*
X015604Y004731D01*
X015604Y004830D02*
X014839Y004830D01*
X014839Y004928D02*
X015604Y004928D01*
X015604Y005027D02*
X014839Y005027D01*
X014839Y005125D02*
X015604Y005125D01*
X015604Y005224D02*
X014839Y005224D01*
X014839Y005322D02*
X015604Y005322D01*
X015604Y005421D02*
X014839Y005421D01*
X014839Y005519D02*
X015604Y005519D01*
X015604Y005618D02*
X014839Y005618D01*
X014839Y005716D02*
X015604Y005716D01*
X015604Y005815D02*
X014839Y005815D01*
X014839Y005913D02*
X015604Y005913D01*
X015604Y006012D02*
X014839Y006012D01*
X014839Y006110D02*
X015604Y006110D01*
X015604Y006209D02*
X014839Y006209D01*
X014839Y006307D02*
X015604Y006307D01*
X015604Y006406D02*
X015445Y006406D01*
X015520Y006504D02*
X015635Y006504D01*
X015540Y006603D02*
X015734Y006603D01*
X015832Y006701D02*
X015534Y006701D01*
X015591Y006800D02*
X015661Y006800D01*
X015800Y007000D02*
X015648Y007152D01*
X015374Y007152D01*
X015374Y007348D02*
X015376Y007350D01*
X015800Y007350D01*
X015800Y007680D01*
X015810Y007690D01*
X015593Y007785D02*
X015534Y007785D01*
X015534Y007883D02*
X015558Y007883D01*
X015553Y007982D02*
X015540Y007982D01*
X015527Y008080D02*
X015553Y008080D01*
X015559Y008179D02*
X015461Y008179D01*
X015507Y008277D02*
X014893Y008277D01*
X014956Y008376D02*
X015444Y008376D01*
X015444Y008474D02*
X014956Y008474D01*
X014956Y008573D02*
X015444Y008573D01*
X015444Y008671D02*
X014956Y008671D01*
X014956Y008770D02*
X015444Y008770D01*
X015444Y008868D02*
X014956Y008868D01*
X014956Y008967D02*
X015444Y008967D01*
X015449Y009065D02*
X014951Y009065D01*
X014346Y009065D02*
X013612Y009065D01*
X013640Y008967D02*
X014342Y008967D01*
X014342Y008868D02*
X013626Y008868D01*
X013559Y008770D02*
X014342Y008770D01*
X014342Y008671D02*
X012655Y008671D01*
X012557Y008770D02*
X013241Y008770D01*
X013174Y008868D02*
X012458Y008868D01*
X012360Y008967D02*
X013160Y008967D01*
X013188Y009065D02*
X012261Y009065D01*
X012163Y009164D02*
X013240Y009164D01*
X013240Y009262D02*
X012064Y009262D01*
X011966Y009361D02*
X013240Y009361D01*
X013240Y009459D02*
X011867Y009459D01*
X011769Y009558D02*
X013240Y009558D01*
X013330Y009656D02*
X012395Y009656D01*
X012470Y009755D02*
X013428Y009755D01*
X013527Y009853D02*
X012490Y009853D01*
X012450Y010050D02*
X012250Y009850D01*
X012010Y009853D02*
X011710Y009853D01*
X011710Y009755D02*
X012030Y009755D01*
X012105Y009656D02*
X011710Y009656D01*
X011550Y009550D02*
X013300Y007800D01*
X014100Y007800D01*
X014325Y007883D02*
X014436Y007883D01*
X014436Y007785D02*
X014340Y007785D01*
X014313Y007686D02*
X014395Y007686D01*
X014359Y007588D02*
X014214Y007588D01*
X014120Y007489D02*
X014040Y007489D01*
X014022Y007391D02*
X014014Y007391D01*
X013922Y007291D02*
X013810Y007179D01*
X013810Y006854D01*
X013796Y006857D01*
X013673Y006857D01*
X013673Y006603D01*
X013668Y006603D01*
X013668Y006857D01*
X013545Y006857D01*
X013507Y006847D01*
X013473Y006828D01*
X013463Y006817D01*
X013309Y006817D01*
X013184Y006943D01*
X013268Y006943D01*
X013268Y007197D01*
X013273Y007197D01*
X013273Y006943D01*
X013396Y006943D01*
X013434Y006953D01*
X013468Y006972D01*
X013496Y007000D01*
X013516Y007035D01*
X013526Y007073D01*
X013526Y007197D01*
X013273Y007197D01*
X013273Y007203D01*
X013526Y007203D01*
X013526Y007327D01*
X013523Y007340D01*
X013621Y007340D01*
X013664Y007297D01*
X013752Y007260D01*
X013848Y007260D01*
X013922Y007291D01*
X013825Y007194D02*
X013526Y007194D01*
X013526Y007292D02*
X013675Y007292D01*
X013810Y007095D02*
X013526Y007095D01*
X013492Y006997D02*
X013810Y006997D01*
X013810Y006898D02*
X013228Y006898D01*
X013268Y006997D02*
X013273Y006997D01*
X013268Y007095D02*
X013273Y007095D01*
X013268Y007194D02*
X013273Y007194D01*
X012930Y007200D02*
X012930Y006970D01*
X013300Y006600D01*
X013330Y006600D01*
X013330Y006356D01*
X013512Y006174D01*
X013508Y005804D02*
X013127Y005804D01*
X013135Y005796D01*
X013508Y005796D01*
X013508Y005804D01*
X013126Y005805D02*
X012834Y006096D01*
X012834Y006253D01*
X012868Y006272D01*
X012896Y006300D01*
X012916Y006335D01*
X012926Y006373D01*
X012926Y006497D01*
X012673Y006497D01*
X012673Y006503D01*
X012926Y006503D01*
X012926Y006627D01*
X012916Y006665D01*
X012896Y006700D01*
X012868Y006728D01*
X012867Y006728D01*
X012886Y006747D01*
X012886Y006788D01*
X013114Y006560D01*
X013114Y006447D01*
X013170Y006391D01*
X013170Y006332D01*
X013166Y006328D01*
X013166Y006020D01*
X013171Y006015D01*
X013156Y006000D01*
X013136Y005966D01*
X013126Y005928D01*
X013126Y005805D01*
X013126Y005815D02*
X013116Y005815D01*
X013126Y005913D02*
X013018Y005913D01*
X012919Y006012D02*
X013167Y006012D01*
X013166Y006110D02*
X012834Y006110D01*
X012834Y006209D02*
X013166Y006209D01*
X013166Y006307D02*
X012900Y006307D01*
X012926Y006406D02*
X013155Y006406D01*
X013114Y006504D02*
X012926Y006504D01*
X012926Y006603D02*
X013071Y006603D01*
X012973Y006701D02*
X012895Y006701D01*
X012670Y006900D02*
X012670Y006941D01*
X012930Y007200D01*
X012900Y007500D02*
X011950Y008450D01*
X011950Y003400D01*
X012100Y003250D01*
X012100Y003000D01*
X011950Y002850D01*
X011950Y002450D01*
X012150Y002250D01*
X012550Y002250D01*
X012700Y002100D01*
X012700Y001250D01*
X012506Y001056D01*
X012221Y001056D01*
X012221Y001450D02*
X012350Y001450D01*
X012500Y001600D01*
X012500Y001950D01*
X012400Y002050D01*
X012100Y002050D01*
X011750Y002400D01*
X011750Y003050D01*
X011710Y003057D02*
X011930Y003057D01*
X011940Y003066D02*
X011790Y002916D01*
X011790Y002900D01*
X011710Y002900D01*
X011710Y007986D01*
X011736Y007997D01*
X011790Y008051D01*
X011790Y003334D01*
X011884Y003240D01*
X011940Y003184D01*
X011940Y003066D01*
X011940Y003155D02*
X011710Y003155D01*
X011710Y003254D02*
X011870Y003254D01*
X011790Y003352D02*
X011710Y003352D01*
X011710Y003451D02*
X011790Y003451D01*
X011790Y003549D02*
X011710Y003549D01*
X011710Y003648D02*
X011790Y003648D01*
X011790Y003746D02*
X011710Y003746D01*
X011710Y003845D02*
X011790Y003845D01*
X011790Y003943D02*
X011710Y003943D01*
X011710Y004042D02*
X011790Y004042D01*
X011790Y004140D02*
X011710Y004140D01*
X011710Y004239D02*
X011790Y004239D01*
X011790Y004337D02*
X011710Y004337D01*
X011710Y004436D02*
X011790Y004436D01*
X011790Y004534D02*
X011710Y004534D01*
X011710Y004633D02*
X011790Y004633D01*
X011790Y004731D02*
X011710Y004731D01*
X011710Y004830D02*
X011790Y004830D01*
X011790Y004928D02*
X011710Y004928D01*
X011710Y005027D02*
X011790Y005027D01*
X011790Y005125D02*
X011710Y005125D01*
X011710Y005224D02*
X011790Y005224D01*
X011790Y005322D02*
X011710Y005322D01*
X011710Y005421D02*
X011790Y005421D01*
X011790Y005519D02*
X011710Y005519D01*
X011710Y005618D02*
X011790Y005618D01*
X011790Y005716D02*
X011710Y005716D01*
X011710Y005815D02*
X011790Y005815D01*
X011790Y005913D02*
X011710Y005913D01*
X011710Y006012D02*
X011790Y006012D01*
X011790Y006110D02*
X011710Y006110D01*
X011710Y006209D02*
X011790Y006209D01*
X011790Y006307D02*
X011710Y006307D01*
X011710Y006406D02*
X011790Y006406D01*
X011790Y006504D02*
X011710Y006504D01*
X011710Y006603D02*
X011790Y006603D01*
X011790Y006701D02*
X011710Y006701D01*
X011710Y006800D02*
X011790Y006800D01*
X011790Y006898D02*
X011710Y006898D01*
X011710Y006997D02*
X011790Y006997D01*
X011790Y007095D02*
X011710Y007095D01*
X011710Y007194D02*
X011790Y007194D01*
X011790Y007292D02*
X011710Y007292D01*
X011710Y007391D02*
X011790Y007391D01*
X011790Y007489D02*
X011710Y007489D01*
X011710Y007588D02*
X011790Y007588D01*
X011790Y007686D02*
X011710Y007686D01*
X011710Y007785D02*
X011790Y007785D01*
X011790Y007883D02*
X011710Y007883D01*
X011710Y007982D02*
X011790Y007982D01*
X011600Y008200D02*
X011550Y008150D01*
X011550Y002400D01*
X011200Y002050D01*
X010900Y002050D01*
X010800Y001950D01*
X010800Y001600D01*
X010950Y001450D01*
X011079Y001450D01*
X011079Y001056D02*
X010744Y001056D01*
X010550Y001250D01*
X010550Y002100D01*
X010700Y002250D01*
X011150Y002250D01*
X011350Y002450D01*
X011350Y009350D01*
X011550Y009550D01*
X011550Y010050D01*
X012000Y010500D01*
X012000Y010480D01*
X011973Y010247D02*
X013001Y010247D01*
X012959Y010346D02*
X012959Y010346D01*
X012959Y010444D02*
X012959Y010444D01*
X012775Y010346D02*
X012217Y010346D01*
X012217Y010444D02*
X012701Y010444D01*
X012694Y010543D02*
X012217Y010543D01*
X012207Y010641D02*
X012731Y010641D01*
X012743Y010740D02*
X012217Y010740D01*
X012286Y010838D02*
X012731Y010838D01*
X012731Y010937D02*
X012385Y010937D01*
X012379Y010930D02*
X012379Y010930D01*
X012483Y011035D02*
X012731Y011035D01*
X012731Y011134D02*
X012582Y011134D01*
X012490Y011042D02*
X012490Y011042D01*
X012600Y011430D02*
X012824Y011430D01*
X012959Y011294D01*
X013173Y011215D02*
X013188Y011229D01*
X013188Y011262D01*
X013193Y011262D01*
X013194Y011261D01*
X013238Y011236D01*
X013284Y011224D01*
X013247Y011186D01*
X013210Y011098D01*
X013210Y011002D01*
X013247Y010914D01*
X013314Y010847D01*
X013402Y010810D01*
X013498Y010810D01*
X013586Y010847D01*
X013653Y010914D01*
X013690Y011002D01*
X013690Y011064D01*
X013789Y011162D01*
X013789Y011262D01*
X013851Y011262D01*
X013865Y011277D01*
X013879Y011262D01*
X013912Y011262D01*
X013912Y011229D01*
X013927Y011215D01*
X013912Y011201D01*
X013912Y011072D01*
X013927Y011057D01*
X013912Y011043D01*
X013912Y010914D01*
X013927Y010900D01*
X013912Y010886D01*
X013912Y010863D01*
X013848Y010890D01*
X013752Y010890D01*
X013664Y010853D01*
X013597Y010786D01*
X013560Y010698D01*
X013560Y010636D01*
X013469Y010545D01*
X013469Y010538D01*
X013435Y010538D01*
X013434Y010539D01*
X013389Y010564D01*
X013339Y010578D01*
X013314Y010578D01*
X013314Y010309D01*
X013314Y010309D01*
X013314Y010578D01*
X013288Y010578D01*
X013238Y010564D01*
X013222Y010555D01*
X013214Y010582D01*
X013189Y010626D01*
X013188Y010627D01*
X013188Y010728D01*
X013173Y010743D01*
X013188Y010757D01*
X013188Y010886D01*
X013173Y010900D01*
X013188Y010914D01*
X013188Y011043D01*
X013173Y011057D01*
X013188Y011072D01*
X013188Y011201D01*
X013173Y011215D01*
X013188Y011232D02*
X013252Y011232D01*
X013225Y011134D02*
X013188Y011134D01*
X013188Y011035D02*
X013210Y011035D01*
X013188Y010937D02*
X013237Y010937D01*
X013188Y010838D02*
X013335Y010838D01*
X013176Y010740D02*
X013577Y010740D01*
X013565Y010838D02*
X013649Y010838D01*
X013663Y010937D02*
X013912Y010937D01*
X013912Y011035D02*
X013690Y011035D01*
X013760Y011134D02*
X013912Y011134D01*
X013912Y011232D02*
X013789Y011232D01*
X013629Y011229D02*
X013450Y011050D01*
X013560Y010641D02*
X013188Y010641D01*
X013314Y010543D02*
X013314Y010543D01*
X013314Y010444D02*
X013314Y010444D01*
X013314Y010346D02*
X013314Y010346D01*
X013427Y010543D02*
X013469Y010543D01*
X013629Y010479D02*
X013800Y010650D01*
X013786Y010136D02*
X013700Y010050D01*
X012450Y010050D01*
X012322Y010149D02*
X011875Y010149D01*
X011790Y010050D02*
X012111Y010050D01*
X012032Y009952D02*
X011769Y009952D01*
X011390Y009755D02*
X009230Y009755D01*
X009230Y009853D02*
X011008Y009853D01*
X010960Y009952D02*
X009230Y009952D01*
X009230Y010050D02*
X010961Y010050D01*
X011009Y010149D02*
X009230Y010149D01*
X009230Y010247D02*
X009537Y010247D01*
X009677Y010247D02*
X009682Y010247D01*
X009677Y010346D02*
X009682Y010346D01*
X009677Y010444D02*
X009682Y010444D01*
X009677Y010543D02*
X009682Y010543D01*
X009677Y010641D02*
X009682Y010641D01*
X009677Y010740D02*
X009682Y010740D01*
X009657Y010838D02*
X009896Y010838D01*
X009896Y010740D02*
X009856Y010740D01*
X010056Y010536D02*
X010020Y010500D01*
X010056Y010536D02*
X010056Y011028D01*
X009772Y011028D01*
X009675Y011125D01*
X009470Y011330D01*
X009470Y011400D01*
X009470Y011800D01*
X009686Y011823D02*
X009771Y011823D01*
X009749Y011801D02*
X009749Y011726D01*
X009686Y011662D01*
X009686Y011953D01*
X009622Y012017D01*
X009337Y012017D01*
X009327Y012028D01*
X009293Y012047D01*
X009255Y012057D01*
X009132Y012057D01*
X009132Y011803D01*
X009127Y011803D01*
X009127Y012057D01*
X009004Y012057D01*
X008966Y012047D01*
X008932Y012028D01*
X008904Y012000D01*
X008884Y011965D01*
X008874Y011927D01*
X008874Y011803D01*
X009127Y011803D01*
X009127Y011797D01*
X009132Y011797D01*
X009132Y011403D01*
X009127Y011403D01*
X009127Y011657D01*
X009127Y011797D01*
X008874Y011797D01*
X008874Y011673D01*
X008884Y011635D01*
X008904Y011600D01*
X008904Y011600D01*
X008904Y011600D01*
X008884Y011565D01*
X008874Y011527D01*
X008874Y011403D01*
X009127Y011403D01*
X009127Y011397D01*
X008874Y011397D01*
X008874Y011273D01*
X008884Y011235D01*
X008904Y011200D01*
X008924Y011180D01*
X008745Y011180D01*
X008530Y011395D01*
X008530Y012839D01*
X008554Y012815D01*
X009046Y012815D01*
X009110Y012879D01*
X009110Y013434D01*
X009536Y013860D01*
X009598Y013860D01*
X009686Y013897D01*
X009753Y013964D01*
X009790Y014052D01*
X009790Y014148D01*
X009753Y014236D01*
X009686Y014303D01*
X009598Y014340D01*
X009502Y014340D01*
X009414Y014303D01*
X009347Y014236D01*
X009310Y014148D01*
X009310Y014086D01*
X009009Y013785D01*
X008554Y013785D01*
X008490Y013721D01*
X008490Y012985D01*
X008395Y013080D01*
X007825Y013650D01*
X007890Y013650D01*
X008055Y013719D01*
X008181Y013845D01*
X008250Y014010D01*
X008250Y014190D01*
X008181Y014355D01*
X008055Y014481D01*
X007890Y014550D01*
X007775Y014550D01*
X007895Y014670D01*
X012110Y014670D01*
X012110Y014279D01*
X012086Y014303D01*
X011998Y014340D01*
X011902Y014340D01*
X011814Y014303D01*
X011747Y014236D01*
X011710Y014148D01*
X011710Y014052D01*
X011747Y013964D01*
X011790Y013921D01*
X011790Y013785D01*
X011554Y013785D01*
X011490Y013721D01*
X011490Y012879D01*
X011554Y012815D01*
X011640Y012815D01*
X011640Y012266D01*
X011360Y011986D01*
X011360Y012366D01*
X011266Y012460D01*
X010960Y012766D01*
X010911Y012815D01*
X011046Y012815D01*
X011110Y012879D01*
X011110Y013684D01*
X011186Y013760D01*
X011248Y013760D01*
X011336Y013797D01*
X011403Y013864D01*
X011440Y013952D01*
X011440Y014048D01*
X011403Y014136D01*
X011336Y014203D01*
X011248Y014240D01*
X011152Y014240D01*
X011064Y014203D01*
X010997Y014136D01*
X010960Y014048D01*
X010960Y013986D01*
X010759Y013785D01*
X010558Y013785D01*
X010586Y013797D01*
X010653Y013864D01*
X010690Y013952D01*
X010690Y014048D01*
X010653Y014136D01*
X010586Y014203D01*
X010498Y014240D01*
X010402Y014240D01*
X010314Y014203D01*
X010247Y014136D01*
X010210Y014048D01*
X010210Y013986D01*
X010009Y013785D01*
X009554Y013785D01*
X009490Y013721D01*
X009490Y012879D01*
X009554Y012815D01*
X009688Y012815D01*
X009660Y012748D01*
X009660Y012652D01*
X009665Y012640D01*
X009602Y012640D01*
X009514Y012603D01*
X009447Y012536D01*
X009410Y012448D01*
X009410Y012352D01*
X009447Y012264D01*
X009514Y012197D01*
X009602Y012160D01*
X009698Y012160D01*
X009786Y012197D01*
X009829Y012240D01*
X009975Y012240D01*
X009939Y012230D01*
X009905Y012211D01*
X009877Y012183D01*
X009857Y012148D01*
X009847Y012110D01*
X009847Y011972D01*
X009847Y011866D01*
X009814Y011866D01*
X009749Y011801D01*
X009748Y011725D02*
X009686Y011725D01*
X009686Y011922D02*
X009847Y011922D01*
X009847Y011972D02*
X010056Y011972D01*
X010056Y011972D01*
X009847Y011972D01*
X009847Y012020D02*
X009335Y012020D01*
X009132Y012020D02*
X009127Y012020D01*
X009127Y011922D02*
X009132Y011922D01*
X009127Y011823D02*
X009132Y011823D01*
X009127Y011725D02*
X009132Y011725D01*
X009127Y011626D02*
X009132Y011626D01*
X009127Y011528D02*
X009132Y011528D01*
X009127Y011429D02*
X009132Y011429D01*
X009470Y011400D02*
X009570Y011500D01*
X009750Y011500D01*
X009947Y011697D01*
X009978Y011697D01*
X009978Y011500D02*
X009750Y011500D01*
X009978Y011303D02*
X010246Y011303D01*
X009978Y011303D01*
X009978Y011303D01*
X010246Y011303D02*
X010246Y011382D01*
X010235Y011420D01*
X010216Y011454D01*
X010206Y011464D01*
X010206Y011704D01*
X010253Y011704D01*
X010253Y011793D01*
X010253Y011793D01*
X010253Y011704D01*
X010332Y011704D01*
X010370Y011715D01*
X010404Y011734D01*
X010414Y011744D01*
X010486Y011744D01*
X010496Y011734D01*
X010530Y011715D01*
X010568Y011704D01*
X010647Y011704D01*
X010694Y011704D01*
X010694Y011267D01*
X010693Y011266D01*
X010683Y011256D01*
X010246Y011256D01*
X010246Y011303D01*
X010246Y011331D02*
X010694Y011331D01*
X010694Y011429D02*
X010230Y011429D01*
X010206Y011528D02*
X010694Y011528D01*
X010694Y011626D02*
X010206Y011626D01*
X010253Y011725D02*
X010253Y011725D01*
X010253Y011747D02*
X010300Y011700D01*
X010253Y011747D02*
X010253Y011972D01*
X010056Y011972D01*
X010056Y011972D01*
X010253Y011972D01*
X010253Y011972D01*
X010450Y011972D02*
X010450Y012250D01*
X010300Y012400D01*
X009650Y012400D01*
X009425Y012316D02*
X008530Y012316D01*
X008530Y012414D02*
X009410Y012414D01*
X009437Y012513D02*
X008530Y012513D01*
X008530Y012611D02*
X009532Y012611D01*
X009660Y012710D02*
X008530Y012710D01*
X008530Y012808D02*
X009685Y012808D01*
X009490Y012907D02*
X009110Y012907D01*
X009110Y013005D02*
X009490Y013005D01*
X009490Y013104D02*
X009110Y013104D01*
X009110Y013202D02*
X009490Y013202D01*
X009490Y013301D02*
X009110Y013301D01*
X009110Y013399D02*
X009490Y013399D01*
X009490Y013498D02*
X009174Y013498D01*
X009272Y013596D02*
X009490Y013596D01*
X009490Y013695D02*
X009371Y013695D01*
X009469Y013793D02*
X010017Y013793D01*
X010115Y013892D02*
X009674Y013892D01*
X009764Y013990D02*
X010210Y013990D01*
X010227Y014089D02*
X009790Y014089D01*
X009774Y014187D02*
X010298Y014187D01*
X010450Y014000D02*
X009800Y013350D01*
X009800Y013300D01*
X009900Y012700D02*
X010800Y012700D01*
X011200Y012300D01*
X011200Y011900D01*
X010997Y011697D01*
X010922Y011697D01*
X010922Y011500D02*
X011100Y011500D01*
X011800Y012200D01*
X011800Y013300D01*
X011950Y013450D01*
X011950Y014100D01*
X011726Y014187D02*
X011352Y014187D01*
X011423Y014089D02*
X011710Y014089D01*
X011736Y013990D02*
X011440Y013990D01*
X011415Y013892D02*
X011790Y013892D01*
X011790Y013793D02*
X011327Y013793D01*
X011490Y013695D02*
X011121Y013695D01*
X011110Y013596D02*
X011490Y013596D01*
X011490Y013498D02*
X011110Y013498D01*
X011110Y013399D02*
X011490Y013399D01*
X011490Y013301D02*
X011110Y013301D01*
X011110Y013202D02*
X011490Y013202D01*
X011490Y013104D02*
X011110Y013104D01*
X011110Y013005D02*
X011490Y013005D01*
X011490Y012907D02*
X011110Y012907D01*
X010918Y012808D02*
X011640Y012808D01*
X011640Y012710D02*
X011017Y012710D01*
X011115Y012611D02*
X011640Y012611D01*
X011640Y012513D02*
X011214Y012513D01*
X011266Y012460D02*
X011266Y012460D01*
X011312Y012414D02*
X011640Y012414D01*
X011640Y012316D02*
X011360Y012316D01*
X011360Y012217D02*
X011591Y012217D01*
X011492Y012119D02*
X011360Y012119D01*
X011360Y012020D02*
X011394Y012020D01*
X011040Y012020D02*
X011013Y012020D01*
X011040Y011966D02*
X011013Y011939D01*
X011013Y012136D01*
X010948Y012201D01*
X010808Y012201D01*
X010798Y012211D01*
X010764Y012230D01*
X010726Y012241D01*
X010647Y012241D01*
X010647Y011972D01*
X010647Y011704D01*
X010647Y011972D01*
X010647Y011972D01*
X010647Y011972D01*
X010647Y012241D01*
X010610Y012241D01*
X010610Y012316D01*
X010460Y012466D01*
X010386Y012540D01*
X010734Y012540D01*
X011040Y012234D01*
X011040Y011966D01*
X011040Y012119D02*
X011013Y012119D01*
X011040Y012217D02*
X010787Y012217D01*
X010647Y012217D02*
X010647Y012217D01*
X010647Y012119D02*
X010647Y012119D01*
X010647Y012020D02*
X010647Y012020D01*
X010647Y011922D02*
X010647Y011922D01*
X010647Y011823D02*
X010647Y011823D01*
X010647Y011725D02*
X010647Y011725D01*
X010513Y011725D02*
X010387Y011725D01*
X010610Y012316D02*
X010958Y012316D01*
X010860Y012414D02*
X010512Y012414D01*
X010414Y012513D02*
X010761Y012513D01*
X010800Y013300D02*
X010800Y013600D01*
X011200Y014000D01*
X010977Y014089D02*
X010673Y014089D01*
X010690Y013990D02*
X010960Y013990D01*
X010865Y013892D02*
X010665Y013892D01*
X010577Y013793D02*
X010767Y013793D01*
X010602Y014187D02*
X011048Y014187D01*
X011796Y014286D02*
X009704Y014286D01*
X009550Y014100D02*
X008800Y013350D01*
X008800Y013300D01*
X008490Y013301D02*
X008175Y013301D01*
X008076Y013399D02*
X008490Y013399D01*
X008490Y013498D02*
X007978Y013498D01*
X007879Y013596D02*
X008490Y013596D01*
X008490Y013695D02*
X007997Y013695D01*
X008129Y013793D02*
X009017Y013793D01*
X009115Y013892D02*
X008201Y013892D01*
X008242Y013990D02*
X009214Y013990D01*
X009310Y014089D02*
X008250Y014089D01*
X008250Y014187D02*
X009326Y014187D01*
X009396Y014286D02*
X008210Y014286D01*
X008152Y014384D02*
X012110Y014384D01*
X012104Y014286D02*
X012110Y014286D01*
X012110Y014483D02*
X008052Y014483D01*
X007806Y014581D02*
X012110Y014581D01*
X012006Y015271D02*
X012594Y015271D01*
X012560Y015369D02*
X012040Y015369D01*
X012032Y015468D02*
X012568Y015468D01*
X012627Y015566D02*
X011973Y015566D01*
X012095Y015665D02*
X012505Y015665D01*
X012490Y015763D02*
X012110Y015763D01*
X012110Y015862D02*
X012490Y015862D01*
X012490Y015960D02*
X012110Y015960D01*
X012110Y016059D02*
X012490Y016059D01*
X012490Y016157D02*
X012110Y016157D01*
X012110Y016256D02*
X012490Y016256D01*
X012490Y016354D02*
X012110Y016354D01*
X011800Y016100D02*
X011800Y015400D01*
X011627Y015566D02*
X010973Y015566D01*
X011032Y015468D02*
X011568Y015468D01*
X011560Y015369D02*
X011040Y015369D01*
X011006Y015271D02*
X011594Y015271D01*
X011505Y015665D02*
X011095Y015665D01*
X011110Y015763D02*
X011490Y015763D01*
X011490Y015862D02*
X011110Y015862D01*
X011110Y015960D02*
X011490Y015960D01*
X011490Y016059D02*
X011110Y016059D01*
X011110Y016157D02*
X011490Y016157D01*
X011490Y016256D02*
X011110Y016256D01*
X011110Y016354D02*
X011490Y016354D01*
X010800Y016100D02*
X010800Y015400D01*
X010627Y015566D02*
X009973Y015566D01*
X010032Y015468D02*
X010568Y015468D01*
X010560Y015369D02*
X010040Y015369D01*
X010006Y015271D02*
X010594Y015271D01*
X010505Y015665D02*
X010095Y015665D01*
X010110Y015763D02*
X010490Y015763D01*
X010490Y015862D02*
X010110Y015862D01*
X010110Y015960D02*
X010490Y015960D01*
X010490Y016059D02*
X010110Y016059D01*
X010110Y016157D02*
X010490Y016157D01*
X010490Y016256D02*
X010110Y016256D01*
X010110Y016354D02*
X010490Y016354D01*
X009800Y016100D02*
X009800Y015400D01*
X009627Y015566D02*
X008973Y015566D01*
X009032Y015468D02*
X009568Y015468D01*
X009560Y015369D02*
X009040Y015369D01*
X009006Y015271D02*
X009594Y015271D01*
X009505Y015665D02*
X009095Y015665D01*
X009110Y015763D02*
X009490Y015763D01*
X009490Y015862D02*
X009110Y015862D01*
X009110Y015960D02*
X009490Y015960D01*
X009490Y016059D02*
X009110Y016059D01*
X009110Y016157D02*
X009490Y016157D01*
X009490Y016256D02*
X009110Y016256D01*
X009110Y016354D02*
X009490Y016354D01*
X008800Y016100D02*
X008800Y015400D01*
X008505Y015665D02*
X008325Y015665D01*
X008075Y015665D02*
X007525Y015665D01*
X007699Y015763D02*
X007901Y015763D01*
X007812Y015862D02*
X007788Y015862D01*
X007275Y015665D02*
X006419Y015665D01*
X006416Y015669D02*
X006345Y015775D01*
X006264Y015874D01*
X006174Y015964D01*
X006075Y016045D01*
X005969Y016116D01*
X005856Y016177D01*
X005738Y016225D01*
X005616Y016263D01*
X005491Y016287D01*
X005364Y016300D01*
X005350Y016300D01*
X005350Y015050D01*
X006600Y015050D01*
X006600Y015064D01*
X006587Y015191D01*
X006563Y015316D01*
X006525Y015438D01*
X006477Y015556D01*
X006416Y015669D01*
X006354Y015763D02*
X007101Y015763D01*
X007012Y015862D02*
X006275Y015862D01*
X006178Y015960D02*
X006971Y015960D01*
X006950Y016059D02*
X006056Y016059D01*
X005893Y016157D02*
X006950Y016157D01*
X006977Y016256D02*
X005639Y016256D01*
X005350Y016256D02*
X005250Y016256D01*
X005250Y016157D02*
X005350Y016157D01*
X005350Y016059D02*
X005250Y016059D01*
X005250Y015960D02*
X005350Y015960D01*
X005350Y015862D02*
X005250Y015862D01*
X005250Y015763D02*
X005350Y015763D01*
X005350Y015665D02*
X005250Y015665D01*
X005250Y015566D02*
X005350Y015566D01*
X005350Y015468D02*
X005250Y015468D01*
X005250Y015369D02*
X005350Y015369D01*
X005350Y015271D02*
X005250Y015271D01*
X005250Y015172D02*
X005350Y015172D01*
X005350Y015074D02*
X005250Y015074D01*
X005250Y014975D02*
X003850Y014975D01*
X003850Y014877D02*
X004006Y014877D01*
X004000Y014936D02*
X004013Y014809D01*
X004037Y014684D01*
X004075Y014562D01*
X004123Y014444D01*
X004184Y014331D01*
X004255Y014225D01*
X004336Y014126D01*
X004426Y014036D01*
X004525Y013955D01*
X004631Y013884D01*
X004744Y013823D01*
X004862Y013775D01*
X004984Y013737D01*
X005109Y013713D01*
X005236Y013700D01*
X005250Y013700D01*
X005250Y014950D01*
X004000Y014950D01*
X004000Y014936D01*
X004001Y015074D02*
X003855Y015074D01*
X003861Y015172D02*
X004011Y015172D01*
X004028Y015271D02*
X003884Y015271D01*
X003911Y015369D02*
X004053Y015369D01*
X004087Y015468D02*
X003937Y015468D01*
X003967Y015566D02*
X004129Y015566D01*
X004181Y015665D02*
X004024Y015665D01*
X004081Y015763D02*
X004246Y015763D01*
X004325Y015862D02*
X004137Y015862D01*
X004227Y015960D02*
X004422Y015960D01*
X004325Y016059D02*
X004544Y016059D01*
X004429Y016157D02*
X004707Y016157D01*
X004599Y016256D02*
X004961Y016256D01*
X004799Y016354D02*
X007018Y016354D01*
X007027Y015566D02*
X006471Y015566D01*
X006513Y015468D02*
X006968Y015468D01*
X006943Y015369D02*
X006547Y015369D01*
X006572Y015271D02*
X006844Y015271D01*
X006746Y015172D02*
X006589Y015172D01*
X006599Y015074D02*
X006647Y015074D01*
X006549Y014975D02*
X005350Y014975D01*
X005350Y014877D02*
X005250Y014877D01*
X005250Y014778D02*
X005350Y014778D01*
X005350Y014680D02*
X005250Y014680D01*
X005250Y014581D02*
X005350Y014581D01*
X005350Y014483D02*
X005250Y014483D01*
X005250Y014384D02*
X005350Y014384D01*
X005350Y014286D02*
X005250Y014286D01*
X005250Y014187D02*
X005350Y014187D01*
X005350Y014089D02*
X005250Y014089D01*
X005250Y013990D02*
X005350Y013990D01*
X005350Y013892D02*
X005250Y013892D01*
X005250Y013793D02*
X005350Y013793D01*
X005783Y013793D02*
X006681Y013793D01*
X006779Y013695D02*
X003850Y013695D01*
X003850Y013793D02*
X004817Y013793D01*
X004619Y013892D02*
X003850Y013892D01*
X003850Y013990D02*
X004481Y013990D01*
X004373Y014089D02*
X003850Y014089D01*
X003850Y014187D02*
X004285Y014187D01*
X004214Y014286D02*
X003850Y014286D01*
X003850Y014384D02*
X004155Y014384D01*
X004107Y014483D02*
X003850Y014483D01*
X003850Y014581D02*
X004069Y014581D01*
X004039Y014680D02*
X003850Y014680D01*
X003850Y014778D02*
X004019Y014778D01*
X003850Y013596D02*
X006878Y013596D01*
X006976Y013498D02*
X003850Y013498D01*
X003850Y013399D02*
X007075Y013399D01*
X007173Y013301D02*
X003850Y013301D01*
X003850Y013202D02*
X007272Y013202D01*
X007370Y013104D02*
X003850Y013104D01*
X003850Y013005D02*
X007469Y013005D01*
X007567Y012907D02*
X003850Y012907D01*
X003850Y012808D02*
X007666Y012808D01*
X007764Y012710D02*
X003850Y012710D01*
X003850Y012611D02*
X007840Y012611D01*
X007840Y012513D02*
X003850Y012513D01*
X003850Y012414D02*
X007840Y012414D01*
X007840Y012316D02*
X003850Y012316D01*
X003850Y012217D02*
X007840Y012217D01*
X007840Y012119D02*
X003850Y012119D01*
X005056Y010937D02*
X007840Y010937D01*
X007840Y010838D02*
X005201Y010838D01*
X005240Y010740D02*
X007840Y010740D01*
X007840Y010641D02*
X005235Y010641D01*
X005000Y010700D02*
X004977Y010700D01*
X004577Y010300D01*
X004500Y010300D01*
X004903Y009853D02*
X003669Y009853D01*
X003675Y009755D02*
X004805Y009755D01*
X004706Y009656D02*
X004433Y009656D01*
X004577Y009300D02*
X004977Y009700D01*
X005800Y009700D01*
X005997Y009558D02*
X006186Y009558D01*
X006175Y009459D02*
X005425Y009459D01*
X005425Y009361D02*
X006175Y009361D01*
X006175Y009262D02*
X005425Y009262D01*
X005425Y009164D02*
X006175Y009164D01*
X006175Y009065D02*
X005425Y009065D01*
X005399Y008573D02*
X006201Y008573D01*
X006175Y008474D02*
X005965Y008474D01*
X005800Y008300D02*
X007023Y008300D01*
X007461Y007686D02*
X006011Y007686D01*
X005913Y007588D02*
X006216Y007588D01*
X006175Y008080D02*
X005896Y008080D01*
X005704Y008080D02*
X005425Y008080D01*
X005425Y008179D02*
X005591Y008179D01*
X005560Y008277D02*
X005425Y008277D01*
X005425Y008376D02*
X005572Y008376D01*
X005635Y008474D02*
X005425Y008474D01*
X005245Y007982D02*
X005656Y007982D01*
X005200Y007800D02*
X004700Y008300D01*
X004577Y008300D01*
X004792Y007982D02*
X003675Y007982D01*
X003675Y008080D02*
X003728Y008080D01*
X003728Y008179D02*
X003638Y008179D01*
X003661Y008277D02*
X003728Y008277D01*
X003728Y008376D02*
X003675Y008376D01*
X003675Y008770D02*
X008544Y008770D01*
X008643Y008868D02*
X003643Y008868D01*
X003657Y008967D02*
X008741Y008967D01*
X009096Y008671D02*
X011190Y008671D01*
X011190Y008573D02*
X008998Y008573D01*
X008899Y008474D02*
X011190Y008474D01*
X011190Y008376D02*
X008801Y008376D01*
X008446Y008671D02*
X004418Y008671D01*
X003728Y009065D02*
X003675Y009065D01*
X003665Y009164D02*
X003728Y009164D01*
X003728Y009262D02*
X003634Y009262D01*
X003675Y009361D02*
X003728Y009361D01*
X003643Y007883D02*
X004891Y007883D01*
X004989Y007785D02*
X003656Y007785D01*
X003675Y007686D02*
X005088Y007686D01*
X004700Y007300D02*
X005200Y006800D01*
X005672Y006603D02*
X003675Y006603D01*
X003633Y006110D02*
X011190Y006110D01*
X011190Y006012D02*
X003666Y006012D01*
X003675Y005913D02*
X011190Y005913D01*
X011190Y005815D02*
X003753Y005815D01*
X003801Y005716D02*
X004094Y005716D01*
X003989Y005618D02*
X003848Y005618D01*
X003850Y005519D02*
X003960Y005519D01*
X003894Y005421D02*
X003850Y005421D01*
X003900Y005200D02*
X004200Y005500D01*
X004361Y005322D02*
X004496Y005322D01*
X004440Y005224D02*
X004150Y005224D01*
X004060Y005125D02*
X004425Y005125D01*
X004393Y005027D02*
X004280Y005027D01*
X004120Y005027D02*
X004060Y005027D01*
X003900Y005200D02*
X003900Y004100D01*
X004100Y003900D01*
X004405Y004205D01*
X004601Y004205D01*
X004600Y004400D02*
X005000Y004400D01*
X005023Y004436D02*
X004927Y004436D01*
X004927Y004452D02*
X004927Y003960D01*
X005023Y003960D01*
X005023Y004452D01*
X004927Y004452D01*
X004927Y004337D02*
X005023Y004337D01*
X005023Y004239D02*
X004927Y004239D01*
X004927Y004140D02*
X005023Y004140D01*
X005023Y004042D02*
X004927Y004042D01*
X004600Y004400D02*
X004601Y004402D01*
X004601Y004598D01*
X004601Y004402D01*
X004601Y004402D01*
X004600Y004400D02*
X004200Y004400D01*
X004398Y004598D01*
X004601Y004598D01*
X004601Y004598D01*
X004601Y004534D02*
X004601Y004534D01*
X004601Y004436D02*
X004601Y004436D01*
X004452Y004402D02*
X004353Y004402D01*
X004452Y004402D01*
X004452Y004402D01*
X004353Y004402D02*
X004353Y004365D01*
X004338Y004365D01*
X004100Y004126D01*
X004060Y004166D01*
X004060Y004601D01*
X004064Y004597D01*
X004152Y004560D01*
X004248Y004560D01*
X004336Y004597D01*
X004353Y004613D01*
X004353Y004598D01*
X004353Y004524D01*
X004359Y004500D01*
X004353Y004476D01*
X004353Y004402D01*
X004353Y004436D02*
X004060Y004436D01*
X004060Y004534D02*
X004353Y004534D01*
X004353Y004598D02*
X004452Y004598D01*
X004452Y004598D01*
X004353Y004598D01*
X004200Y004800D02*
X004600Y004800D01*
X004601Y004795D01*
X004601Y004992D02*
X004600Y004993D01*
X004600Y005200D01*
X004700Y005300D01*
X005500Y005300D01*
X005349Y005149D01*
X005349Y004992D01*
X005349Y004795D02*
X005795Y004795D01*
X005800Y004800D01*
X005598Y004598D01*
X005349Y004598D01*
X005349Y004795D01*
X005349Y004795D01*
X005349Y004598D01*
X005349Y004598D01*
X005349Y004633D02*
X005349Y004633D01*
X005349Y004731D02*
X005349Y004731D01*
X005498Y004795D02*
X005597Y004795D01*
X005498Y004795D01*
X005498Y004795D01*
X005597Y004795D02*
X005597Y004720D01*
X005591Y004697D01*
X005597Y004673D01*
X005597Y004598D01*
X005498Y004598D01*
X005498Y004598D01*
X005597Y004598D01*
X005597Y004562D01*
X005835Y004562D01*
X005940Y004666D01*
X005940Y005121D01*
X005921Y005140D01*
X005566Y005140D01*
X005538Y005112D01*
X005557Y005093D01*
X005557Y004953D01*
X005567Y004942D01*
X005587Y004908D01*
X005597Y004870D01*
X005597Y004795D01*
X005597Y004830D02*
X005940Y004830D01*
X005940Y004928D02*
X005576Y004928D01*
X005557Y005027D02*
X005940Y005027D01*
X005936Y005125D02*
X005551Y005125D01*
X005500Y005300D02*
X006100Y005300D01*
X006100Y004600D01*
X005902Y004402D01*
X005705Y004205D01*
X005349Y004205D01*
X005349Y004402D02*
X005902Y004402D01*
X005968Y004242D02*
X005771Y004045D01*
X005557Y004045D01*
X005557Y003960D01*
X006163Y003960D01*
X006156Y003983D01*
X006156Y004181D01*
X006425Y004181D01*
X006425Y004219D01*
X006156Y004219D01*
X006156Y004417D01*
X006161Y004435D01*
X005968Y004242D01*
X005968Y004242D01*
X005965Y004239D02*
X006156Y004239D01*
X006156Y004337D02*
X006063Y004337D01*
X006156Y004140D02*
X005866Y004140D01*
X006156Y004042D02*
X005557Y004042D01*
X005491Y003587D02*
X005364Y003600D01*
X005350Y003600D01*
X005350Y002350D01*
X006600Y002350D01*
X006600Y002364D01*
X006587Y002491D01*
X006563Y002616D01*
X006525Y002738D01*
X006477Y002856D01*
X006416Y002969D01*
X006345Y003075D01*
X006264Y003174D01*
X006174Y003264D01*
X006075Y003345D01*
X005969Y003416D01*
X005856Y003477D01*
X005738Y003525D01*
X005616Y003563D01*
X005491Y003587D01*
X005350Y003549D02*
X005250Y003549D01*
X005250Y003600D02*
X005236Y003600D01*
X005109Y003587D01*
X004984Y003563D01*
X004862Y003525D01*
X004744Y003477D01*
X004631Y003416D01*
X004525Y003345D01*
X004426Y003264D01*
X004336Y003174D01*
X004255Y003075D01*
X004184Y002969D01*
X004123Y002856D01*
X004075Y002738D01*
X004037Y002616D01*
X004013Y002491D01*
X004000Y002364D01*
X004000Y002350D01*
X005250Y002350D01*
X005250Y003600D01*
X005250Y003451D02*
X005350Y003451D01*
X005350Y003352D02*
X005250Y003352D01*
X005250Y003254D02*
X005350Y003254D01*
X005350Y003155D02*
X005250Y003155D01*
X005250Y003057D02*
X005350Y003057D01*
X005350Y002958D02*
X005250Y002958D01*
X005250Y002860D02*
X005350Y002860D01*
X005350Y002761D02*
X005250Y002761D01*
X005250Y002663D02*
X005350Y002663D01*
X005350Y002564D02*
X005250Y002564D01*
X005250Y002466D02*
X005350Y002466D01*
X005350Y002367D02*
X005250Y002367D01*
X005250Y002350D02*
X005350Y002350D01*
X005350Y002250D01*
X006600Y002250D01*
X006600Y002236D01*
X006587Y002109D01*
X006563Y001984D01*
X006525Y001862D01*
X006477Y001744D01*
X006416Y001631D01*
X006345Y001525D01*
X006264Y001426D01*
X006174Y001336D01*
X006075Y001255D01*
X005969Y001184D01*
X005856Y001123D01*
X005738Y001075D01*
X005616Y001037D01*
X005491Y001013D01*
X005364Y001000D01*
X005350Y001000D01*
X005350Y002250D01*
X005250Y002250D01*
X005250Y001000D01*
X005236Y001000D01*
X005109Y001013D01*
X004984Y001037D01*
X004862Y001075D01*
X004744Y001123D01*
X004631Y001184D01*
X004525Y001255D01*
X004426Y001336D01*
X004336Y001426D01*
X004255Y001525D01*
X004184Y001631D01*
X004123Y001744D01*
X004075Y001862D01*
X004037Y001984D01*
X004013Y002109D01*
X004000Y002236D01*
X004000Y002250D01*
X005250Y002250D01*
X005250Y002350D01*
X005250Y002269D02*
X003852Y002269D01*
X003850Y002367D02*
X004000Y002367D01*
X004010Y002466D02*
X003850Y002466D01*
X003850Y002564D02*
X004027Y002564D01*
X004051Y002663D02*
X003850Y002663D01*
X003850Y002761D02*
X004084Y002761D01*
X004125Y002860D02*
X003850Y002860D01*
X003850Y002958D02*
X004178Y002958D01*
X004242Y003057D02*
X003850Y003057D01*
X003850Y003155D02*
X004320Y003155D01*
X004415Y003254D02*
X003850Y003254D01*
X003850Y003352D02*
X004535Y003352D01*
X004695Y003451D02*
X003850Y003451D01*
X003850Y003549D02*
X004939Y003549D01*
X004200Y003800D02*
X004100Y003900D01*
X004200Y003800D02*
X007200Y003800D01*
X007500Y004100D01*
X007600Y004000D01*
X007600Y003629D01*
X007575Y003604D01*
X007760Y003845D02*
X011190Y003845D01*
X011190Y003943D02*
X007760Y003943D01*
X007760Y004042D02*
X011190Y004042D01*
X011190Y004140D02*
X007686Y004140D01*
X007588Y004239D02*
X011190Y004239D01*
X011190Y004337D02*
X007489Y004337D01*
X007400Y004200D02*
X007500Y004100D01*
X007400Y004200D02*
X006956Y004200D01*
X007204Y004436D02*
X011190Y004436D01*
X011190Y004534D02*
X007180Y004534D01*
X007204Y005027D02*
X008120Y005027D01*
X008280Y005027D02*
X011190Y005027D01*
X011190Y005125D02*
X006660Y005125D01*
X006463Y005125D02*
X006425Y005125D01*
X006425Y005027D02*
X006463Y005027D01*
X006463Y004928D02*
X006425Y004928D01*
X006425Y004830D02*
X006463Y004830D01*
X006463Y004781D02*
X006463Y004219D01*
X006425Y004219D01*
X006425Y004547D01*
X006425Y004781D01*
X006463Y004781D01*
X006463Y004731D02*
X006425Y004731D01*
X006425Y004633D02*
X006463Y004633D01*
X006463Y004534D02*
X006425Y004534D01*
X006425Y004436D02*
X006463Y004436D01*
X006463Y004337D02*
X006425Y004337D01*
X006425Y004239D02*
X006463Y004239D01*
X005906Y004633D02*
X005597Y004633D01*
X005597Y004731D02*
X005940Y004731D01*
X006328Y005224D02*
X011190Y005224D01*
X011190Y005322D02*
X006340Y005322D01*
X006310Y005421D02*
X011190Y005421D01*
X011190Y005519D02*
X006198Y005519D01*
X006002Y005519D02*
X004440Y005519D01*
X004427Y005421D02*
X004594Y005421D01*
X004411Y005618D02*
X011190Y005618D01*
X011190Y005716D02*
X004306Y005716D01*
X004311Y004337D02*
X004060Y004337D01*
X004060Y004239D02*
X004212Y004239D01*
X004114Y004140D02*
X004086Y004140D01*
X003929Y003845D02*
X003850Y003845D01*
X003850Y003746D02*
X004028Y003746D01*
X004126Y003648D02*
X003850Y003648D01*
X002850Y003648D02*
X002227Y003648D01*
X002326Y003746D02*
X002850Y003746D01*
X002850Y003845D02*
X002410Y003845D01*
X002410Y003943D02*
X002850Y003943D01*
X002850Y004042D02*
X002410Y004042D01*
X002410Y004140D02*
X002850Y004140D01*
X002850Y004239D02*
X002341Y004239D01*
X002243Y004337D02*
X002850Y004337D01*
X002850Y004633D02*
X002212Y004633D01*
X002311Y004731D02*
X002850Y004731D01*
X002850Y004830D02*
X002409Y004830D01*
X002410Y004928D02*
X002850Y004928D01*
X002850Y005027D02*
X002410Y005027D01*
X002410Y005125D02*
X002850Y005125D01*
X002850Y005224D02*
X002356Y005224D01*
X002258Y005322D02*
X002850Y005322D01*
X002850Y003352D02*
X002228Y003352D01*
X002326Y003254D02*
X002850Y003254D01*
X002850Y003155D02*
X002410Y003155D01*
X002410Y003057D02*
X002850Y003057D01*
X002850Y002958D02*
X002410Y002958D01*
X002410Y002860D02*
X002850Y002860D01*
X002850Y002761D02*
X002341Y002761D01*
X002242Y002663D02*
X002850Y002663D01*
X002850Y002367D02*
X002269Y002367D01*
X002186Y002450D02*
X002050Y002450D01*
X002050Y002050D01*
X002450Y002050D01*
X002450Y002186D01*
X002186Y002450D01*
X002050Y002367D02*
X001950Y002367D01*
X001950Y002269D02*
X002050Y002269D01*
X002050Y002170D02*
X001950Y002170D01*
X001950Y002072D02*
X002050Y002072D01*
X002050Y001973D02*
X002850Y001973D01*
X002850Y001875D02*
X002450Y001875D01*
X002412Y001776D02*
X002850Y001776D01*
X002850Y001678D02*
X002314Y001678D01*
X002050Y001678D02*
X001950Y001678D01*
X001950Y001776D02*
X002050Y001776D01*
X002050Y001875D02*
X001950Y001875D01*
X001950Y001973D02*
X001050Y001973D01*
X001050Y001875D02*
X000950Y001875D01*
X000950Y001776D02*
X001050Y001776D01*
X001050Y001678D02*
X000950Y001678D01*
X000950Y001579D02*
X001050Y001579D01*
X001050Y001382D02*
X000950Y001382D01*
X000950Y001284D02*
X001050Y001284D01*
X001050Y001185D02*
X000950Y001185D01*
X000950Y001087D02*
X001050Y001087D01*
X001050Y000791D02*
X000950Y000791D01*
X000950Y000693D02*
X001050Y000693D01*
X001050Y000594D02*
X000950Y000594D01*
X000550Y001087D02*
X000450Y001087D01*
X000450Y001185D02*
X000550Y001185D01*
X000647Y001284D02*
X000450Y001284D01*
X000450Y001382D02*
X000746Y001382D01*
X000550Y002072D02*
X000450Y002072D01*
X000450Y002170D02*
X000550Y002170D01*
X000632Y002269D02*
X000450Y002269D01*
X001950Y001579D02*
X002050Y001579D01*
X002050Y001382D02*
X001950Y001382D01*
X001950Y001284D02*
X002050Y001284D01*
X002050Y001185D02*
X001950Y001185D01*
X001950Y001087D02*
X002050Y001087D01*
X002450Y002072D02*
X002850Y002072D01*
X002850Y002170D02*
X002450Y002170D01*
X002368Y002269D02*
X002850Y002269D01*
X003859Y002170D02*
X004007Y002170D01*
X004020Y002072D02*
X003873Y002072D01*
X003899Y001973D02*
X004041Y001973D01*
X004071Y001875D02*
X003926Y001875D01*
X003952Y001776D02*
X004110Y001776D01*
X004159Y001678D02*
X003999Y001678D01*
X004056Y001579D02*
X004218Y001579D01*
X004291Y001481D02*
X004113Y001481D01*
X004185Y001382D02*
X004380Y001382D01*
X004283Y001284D02*
X004489Y001284D01*
X004382Y001185D02*
X004629Y001185D01*
X004527Y001087D02*
X004833Y001087D01*
X004697Y000988D02*
X009650Y000988D01*
X009650Y000890D02*
X005010Y000890D01*
X005250Y001087D02*
X005350Y001087D01*
X005350Y001185D02*
X005250Y001185D01*
X005250Y001284D02*
X005350Y001284D01*
X005350Y001382D02*
X005250Y001382D01*
X005250Y001481D02*
X005350Y001481D01*
X005350Y001579D02*
X005250Y001579D01*
X005250Y001678D02*
X005350Y001678D01*
X005350Y001776D02*
X005250Y001776D01*
X005250Y001875D02*
X005350Y001875D01*
X005350Y001973D02*
X005250Y001973D01*
X005250Y002072D02*
X005350Y002072D01*
X005350Y002170D02*
X005250Y002170D01*
X005350Y002269D02*
X007800Y002269D01*
X007898Y002367D02*
X006600Y002367D01*
X006590Y002466D02*
X007997Y002466D01*
X008060Y002529D02*
X007556Y002025D01*
X007306Y002025D01*
X007242Y001961D01*
X007242Y001239D01*
X007306Y001175D01*
X007791Y001175D01*
X007856Y001239D01*
X007856Y001787D01*
X008329Y002260D01*
X008348Y002260D01*
X008436Y002297D01*
X008461Y002322D01*
X008461Y002025D01*
X008409Y002025D01*
X008344Y001961D01*
X008344Y001239D01*
X008409Y001175D01*
X008894Y001175D01*
X008958Y001239D01*
X008958Y001961D01*
X008894Y002025D01*
X008841Y002025D01*
X008841Y002172D01*
X008929Y002260D01*
X008948Y002260D01*
X009036Y002297D01*
X009103Y002364D01*
X009140Y002452D01*
X009140Y002548D01*
X009103Y002636D01*
X009036Y002703D01*
X008948Y002740D01*
X008852Y002740D01*
X008764Y002703D01*
X008697Y002636D01*
X008660Y002548D01*
X008660Y002529D01*
X008572Y002441D01*
X008509Y002378D01*
X008540Y002452D01*
X008540Y002548D01*
X008503Y002636D01*
X008436Y002703D01*
X008348Y002740D01*
X008252Y002740D01*
X008164Y002703D01*
X008097Y002636D01*
X008060Y002548D01*
X008060Y002529D01*
X008067Y002564D02*
X006573Y002564D01*
X006549Y002663D02*
X006846Y002663D01*
X006852Y002660D02*
X006948Y002660D01*
X007036Y002697D01*
X007075Y002736D01*
X007225Y002736D01*
X007274Y002687D01*
X007876Y002687D01*
X007941Y002752D01*
X007941Y003040D01*
X007876Y003104D01*
X007274Y003104D01*
X007225Y003056D01*
X007084Y003056D01*
X007036Y003103D01*
X006948Y003140D01*
X006852Y003140D01*
X006764Y003103D01*
X006697Y003036D01*
X006660Y002948D01*
X006660Y002852D01*
X006697Y002764D01*
X006764Y002697D01*
X006852Y002660D01*
X006954Y002663D02*
X008123Y002663D01*
X007941Y002761D02*
X009650Y002761D01*
X009650Y002663D02*
X009077Y002663D01*
X009133Y002564D02*
X009650Y002564D01*
X009650Y002466D02*
X009140Y002466D01*
X009105Y002367D02*
X009650Y002367D01*
X009650Y002269D02*
X008968Y002269D01*
X008841Y002170D02*
X009650Y002170D01*
X009650Y002072D02*
X008841Y002072D01*
X008946Y001973D02*
X009650Y001973D01*
X009650Y001875D02*
X008958Y001875D01*
X008958Y001776D02*
X009650Y001776D01*
X009650Y001678D02*
X008958Y001678D01*
X008958Y001579D02*
X009650Y001579D01*
X009650Y001481D02*
X008958Y001481D01*
X008958Y001382D02*
X009650Y001382D01*
X009650Y001284D02*
X008958Y001284D01*
X008904Y001185D02*
X009650Y001185D01*
X009650Y001087D02*
X005767Y001087D01*
X005971Y001185D02*
X007296Y001185D01*
X007242Y001284D02*
X006111Y001284D01*
X006220Y001382D02*
X007242Y001382D01*
X007242Y001481D02*
X006309Y001481D01*
X006382Y001579D02*
X007242Y001579D01*
X007242Y001678D02*
X006441Y001678D01*
X006490Y001776D02*
X007242Y001776D01*
X007242Y001875D02*
X006529Y001875D01*
X006559Y001973D02*
X007254Y001973D01*
X007603Y002072D02*
X006580Y002072D01*
X006593Y002170D02*
X007701Y002170D01*
X007943Y001875D02*
X008344Y001875D01*
X008357Y001973D02*
X008042Y001973D01*
X008140Y002072D02*
X008461Y002072D01*
X008461Y002170D02*
X008239Y002170D01*
X008368Y002269D02*
X008461Y002269D01*
X008540Y002466D02*
X008597Y002466D01*
X008533Y002564D02*
X008667Y002564D01*
X008723Y002663D02*
X008477Y002663D01*
X007941Y002860D02*
X009672Y002860D01*
X009729Y002958D02*
X007941Y002958D01*
X007924Y003057D02*
X009817Y003057D01*
X011190Y003155D02*
X006280Y003155D01*
X006358Y003057D02*
X006717Y003057D01*
X006664Y002958D02*
X006422Y002958D01*
X006475Y002860D02*
X006660Y002860D01*
X006700Y002761D02*
X006516Y002761D01*
X006904Y002896D02*
X007575Y002896D01*
X007226Y003057D02*
X007083Y003057D01*
X007219Y003451D02*
X005905Y003451D01*
X006065Y003352D02*
X011190Y003352D01*
X011190Y003254D02*
X006185Y003254D01*
X005661Y003549D02*
X007209Y003549D01*
X007931Y003451D02*
X011190Y003451D01*
X011190Y003549D02*
X007941Y003549D01*
X007941Y003648D02*
X011190Y003648D01*
X011190Y003746D02*
X007941Y003746D01*
X008372Y004633D02*
X011190Y004633D01*
X011190Y004731D02*
X008431Y004731D01*
X008440Y004830D02*
X011190Y004830D01*
X011190Y004928D02*
X008407Y004928D01*
X008344Y001776D02*
X007856Y001776D01*
X007856Y001678D02*
X008344Y001678D01*
X008344Y001579D02*
X007856Y001579D01*
X007856Y001481D02*
X008344Y001481D01*
X008344Y001382D02*
X007856Y001382D01*
X007856Y001284D02*
X008344Y001284D01*
X008399Y001185D02*
X007801Y001185D01*
X011710Y002958D02*
X011832Y002958D01*
X012260Y003150D02*
X012260Y003316D01*
X012110Y003466D01*
X012110Y004851D01*
X012110Y004851D01*
X012110Y004551D01*
X012114Y004547D01*
X012114Y004447D01*
X012140Y004421D01*
X012140Y004379D01*
X012114Y004353D01*
X012114Y004047D01*
X012178Y003983D01*
X012481Y003983D01*
X012500Y004002D01*
X012519Y003983D01*
X012743Y003983D01*
X012697Y003936D01*
X012660Y003848D01*
X012660Y003752D01*
X012697Y003664D01*
X012764Y003597D01*
X012780Y003590D01*
X012749Y003590D01*
X012736Y003603D01*
X012648Y003640D01*
X012552Y003640D01*
X012464Y003603D01*
X012397Y003536D01*
X012360Y003448D01*
X012360Y003352D01*
X012224Y003352D01*
X012260Y003254D02*
X012407Y003254D01*
X012397Y003264D02*
X012464Y003197D01*
X012552Y003160D01*
X012648Y003160D01*
X012736Y003197D01*
X012749Y003210D01*
X013421Y003210D01*
X013910Y002721D01*
X013910Y001321D01*
X014310Y000921D01*
X014381Y000850D01*
X013650Y000850D01*
X013650Y002821D01*
X013529Y003029D01*
X013321Y003150D01*
X012260Y003150D01*
X012260Y003155D02*
X013476Y003155D01*
X013483Y003057D02*
X013575Y003057D01*
X013529Y003029D02*
X013529Y003029D01*
X013529Y003029D01*
X013571Y002958D02*
X013673Y002958D01*
X013628Y002860D02*
X013772Y002860D01*
X013870Y002761D02*
X013650Y002761D01*
X013650Y002663D02*
X013910Y002663D01*
X013910Y002564D02*
X013650Y002564D01*
X013650Y002466D02*
X013910Y002466D01*
X013910Y002367D02*
X013650Y002367D01*
X013650Y002269D02*
X013910Y002269D01*
X013910Y002170D02*
X013650Y002170D01*
X013650Y002072D02*
X013910Y002072D01*
X013910Y001973D02*
X013650Y001973D01*
X013650Y001875D02*
X013910Y001875D01*
X013910Y001776D02*
X013650Y001776D01*
X013650Y001678D02*
X013910Y001678D01*
X013910Y001579D02*
X013650Y001579D01*
X013650Y001481D02*
X013910Y001481D01*
X013910Y001382D02*
X013650Y001382D01*
X013650Y001284D02*
X013948Y001284D01*
X014046Y001185D02*
X013650Y001185D01*
X013650Y001087D02*
X014145Y001087D01*
X014243Y000988D02*
X013650Y000988D01*
X013650Y000890D02*
X014342Y000890D01*
X014342Y001427D02*
X014290Y001479D01*
X014290Y002879D01*
X014179Y002990D01*
X013579Y003590D01*
X013020Y003590D01*
X013036Y003597D01*
X013049Y003610D01*
X013679Y003610D01*
X014079Y004010D01*
X014190Y004121D01*
X014190Y007021D01*
X014319Y007150D01*
X014319Y007073D01*
X014329Y007035D01*
X014348Y007000D01*
X014359Y006990D01*
X014359Y006850D01*
X014423Y006786D01*
X014459Y006786D01*
X014459Y002025D01*
X014406Y002025D01*
X014342Y001961D01*
X014342Y001427D01*
X014342Y001481D02*
X014290Y001481D01*
X014290Y001579D02*
X014342Y001579D01*
X014342Y001678D02*
X014290Y001678D01*
X014290Y001776D02*
X014342Y001776D01*
X014342Y001875D02*
X014290Y001875D01*
X014290Y001973D02*
X014354Y001973D01*
X014290Y002072D02*
X014459Y002072D01*
X014459Y002170D02*
X014290Y002170D01*
X014290Y002269D02*
X014459Y002269D01*
X014459Y002367D02*
X014290Y002367D01*
X014290Y002466D02*
X014459Y002466D01*
X014459Y002564D02*
X014290Y002564D01*
X014290Y002663D02*
X014459Y002663D01*
X014459Y002761D02*
X014290Y002761D01*
X014290Y002860D02*
X014459Y002860D01*
X014459Y002958D02*
X014211Y002958D01*
X014112Y003057D02*
X014459Y003057D01*
X014459Y003155D02*
X014014Y003155D01*
X013915Y003254D02*
X014459Y003254D01*
X014459Y003352D02*
X013817Y003352D01*
X013718Y003451D02*
X014459Y003451D01*
X014459Y003549D02*
X013620Y003549D01*
X013716Y003648D02*
X014459Y003648D01*
X014459Y003746D02*
X013815Y003746D01*
X013913Y003845D02*
X014459Y003845D01*
X014459Y003943D02*
X014012Y003943D01*
X014110Y004042D02*
X014459Y004042D01*
X014459Y004140D02*
X014190Y004140D01*
X014190Y004239D02*
X014459Y004239D01*
X014459Y004337D02*
X014190Y004337D01*
X014190Y004436D02*
X014459Y004436D01*
X014459Y004534D02*
X014190Y004534D01*
X014190Y004633D02*
X014459Y004633D01*
X014459Y004731D02*
X014190Y004731D01*
X014190Y004830D02*
X014459Y004830D01*
X014459Y004928D02*
X014190Y004928D01*
X014190Y005027D02*
X014459Y005027D01*
X014459Y005125D02*
X014190Y005125D01*
X014190Y005224D02*
X014459Y005224D01*
X014459Y005322D02*
X014190Y005322D01*
X014190Y005421D02*
X014459Y005421D01*
X014459Y005519D02*
X014190Y005519D01*
X014190Y005618D02*
X014459Y005618D01*
X014459Y005716D02*
X014190Y005716D01*
X014190Y005815D02*
X014459Y005815D01*
X014459Y005913D02*
X014190Y005913D01*
X014190Y006012D02*
X014459Y006012D01*
X014459Y006110D02*
X014190Y006110D01*
X014190Y006209D02*
X014459Y006209D01*
X014459Y006307D02*
X014190Y006307D01*
X014190Y006406D02*
X014459Y006406D01*
X014459Y006504D02*
X014190Y006504D01*
X014190Y006603D02*
X014459Y006603D01*
X014459Y006701D02*
X014190Y006701D01*
X014190Y006800D02*
X014409Y006800D01*
X014359Y006898D02*
X014190Y006898D01*
X014190Y006997D02*
X014352Y006997D01*
X014319Y007095D02*
X014264Y007095D01*
X014300Y007100D02*
X014352Y007152D01*
X014626Y007152D01*
X014933Y007152D01*
X014933Y007230D01*
X014923Y007269D01*
X014903Y007303D01*
X014893Y007313D01*
X014893Y007358D01*
X014895Y007357D01*
X015105Y007357D01*
X015107Y007358D01*
X015107Y007142D01*
X015105Y007143D01*
X014933Y007143D01*
X014933Y007152D01*
X014626Y007152D01*
X014626Y007152D01*
X014320Y007152D01*
X014320Y007152D01*
X014626Y007152D01*
X014626Y007152D01*
X014626Y007348D02*
X014248Y007348D01*
X014626Y007545D02*
X014626Y007776D01*
X014816Y007785D02*
X014831Y007785D01*
X014816Y007883D02*
X014887Y007883D01*
X014816Y007982D02*
X015060Y007982D01*
X015073Y008080D02*
X014816Y008080D01*
X014816Y008179D02*
X015139Y008179D01*
X015300Y008000D02*
X015374Y007926D01*
X015374Y007545D01*
X015107Y007292D02*
X014910Y007292D01*
X014933Y007194D02*
X015107Y007194D01*
X015374Y006955D02*
X015374Y006674D01*
X015300Y006600D01*
X015060Y006603D02*
X014839Y006603D01*
X014839Y006504D02*
X015080Y006504D01*
X015155Y006406D02*
X014839Y006406D01*
X014649Y006751D02*
X014649Y006932D01*
X014626Y006955D01*
X013673Y006800D02*
X013668Y006800D01*
X013668Y006701D02*
X013673Y006701D01*
X013800Y007500D02*
X012900Y007500D01*
X013345Y007982D02*
X013942Y007982D01*
X014258Y007982D02*
X014436Y007982D01*
X014436Y008080D02*
X013246Y008080D01*
X013148Y008179D02*
X014436Y008179D01*
X014404Y008277D02*
X013049Y008277D01*
X012951Y008376D02*
X014342Y008376D01*
X014342Y008474D02*
X012852Y008474D01*
X012754Y008573D02*
X014342Y008573D01*
X013684Y009558D02*
X016439Y009558D01*
X016380Y009459D02*
X013585Y009459D01*
X013560Y009361D02*
X016380Y009361D01*
X016380Y009262D02*
X013560Y009262D01*
X013560Y009164D02*
X016380Y009164D01*
X016380Y009065D02*
X016054Y009065D01*
X016058Y008967D02*
X016380Y008967D01*
X016380Y008868D02*
X016058Y008868D01*
X016058Y008770D02*
X016380Y008770D01*
X016380Y008671D02*
X016058Y008671D01*
X016147Y008573D02*
X016380Y008573D01*
X016380Y008474D02*
X016246Y008474D01*
X016344Y008376D02*
X016380Y008376D01*
X016570Y008050D02*
X016570Y007530D01*
X016600Y007500D01*
X016600Y007100D02*
X016600Y007000D01*
X016600Y007100D02*
X017300Y007800D01*
X017434Y007800D01*
X017434Y008174D02*
X017430Y008178D01*
X017430Y008400D01*
X017730Y008700D01*
X017400Y008207D02*
X017434Y008174D01*
X018477Y007800D02*
X018861Y007800D01*
X018861Y007800D01*
X018477Y007800D01*
X018477Y007800D01*
X018863Y007798D02*
X018878Y007783D01*
X019163Y007783D01*
X019173Y007772D01*
X019207Y007753D01*
X019245Y007743D01*
X019368Y007743D01*
X019368Y007997D01*
X019373Y007997D01*
X019373Y007743D01*
X019450Y007743D01*
X019450Y007617D01*
X019237Y007617D01*
X019227Y007628D01*
X019193Y007647D01*
X019155Y007657D01*
X019032Y007657D01*
X019032Y007403D01*
X019027Y007403D01*
X019027Y007657D01*
X018904Y007657D01*
X018866Y007647D01*
X018850Y007638D01*
X018853Y007643D01*
X018863Y007681D01*
X018863Y007798D01*
X018863Y007785D02*
X018876Y007785D01*
X018863Y007686D02*
X019450Y007686D01*
X019373Y007785D02*
X019368Y007785D01*
X019368Y007883D02*
X019373Y007883D01*
X019368Y007982D02*
X019373Y007982D01*
X019368Y008080D02*
X019373Y008080D01*
X019368Y008179D02*
X019373Y008179D01*
X019032Y007588D02*
X019027Y007588D01*
X019027Y007489D02*
X019032Y007489D01*
X018096Y005322D02*
X015984Y005322D01*
X015984Y005224D02*
X017812Y005224D01*
X017692Y005125D02*
X015984Y005125D01*
X015984Y005027D02*
X017660Y005027D01*
X017670Y004928D02*
X015984Y004928D01*
X015984Y004830D02*
X017731Y004830D01*
X017743Y004731D02*
X015984Y004731D01*
X015984Y004633D02*
X017841Y004633D01*
X017940Y004534D02*
X015984Y004534D01*
X015984Y004436D02*
X018352Y004436D01*
X018100Y004600D02*
X018674Y004600D01*
X018600Y004626D01*
X018352Y004830D02*
X018097Y004830D01*
X017900Y004800D02*
X018100Y004600D01*
X017900Y004800D02*
X017900Y005000D01*
X017988Y005224D02*
X018096Y005224D01*
X018108Y005125D02*
X018123Y005125D01*
X016455Y006406D02*
X016074Y006406D01*
X016173Y006504D02*
X016380Y006504D01*
X016360Y006603D02*
X016271Y006603D01*
X016370Y006701D02*
X016382Y006701D01*
X016537Y009656D02*
X013782Y009656D01*
X013881Y009755D02*
X016636Y009755D01*
X016734Y009853D02*
X013979Y009853D01*
X014078Y009952D02*
X016833Y009952D01*
X016931Y010050D02*
X014104Y010050D01*
X014094Y010149D02*
X017030Y010149D01*
X017128Y010247D02*
X015013Y010247D01*
X015119Y010346D02*
X017182Y010346D01*
X017195Y010444D02*
X015126Y010444D01*
X015126Y010543D02*
X017243Y010543D01*
X017372Y010641D02*
X015122Y010641D01*
X014694Y010740D02*
X014689Y010740D01*
X014689Y010838D02*
X016523Y010838D01*
X016467Y010937D02*
X014689Y010937D01*
X014689Y011035D02*
X016460Y011035D01*
X016496Y011134D02*
X014689Y011134D01*
X014689Y011232D02*
X016633Y011232D01*
X016767Y011232D02*
X018156Y011232D01*
X018182Y011331D02*
X014689Y011331D01*
X014689Y011429D02*
X018189Y011429D01*
X018229Y011528D02*
X014689Y011528D01*
X014900Y012000D02*
X014070Y012000D01*
X014050Y011980D01*
X014047Y012318D02*
X013793Y012318D01*
X013553Y012318D01*
X013553Y012323D01*
X014047Y012323D01*
X014047Y012318D01*
X014200Y012700D02*
X013356Y012700D01*
X013006Y012710D02*
X012490Y012710D01*
X012490Y012808D02*
X013006Y012808D01*
X013006Y012815D02*
X012554Y012815D01*
X012490Y012879D01*
X012490Y013721D01*
X012554Y013785D01*
X013046Y013785D01*
X013110Y013721D01*
X013110Y013202D01*
X013110Y013301D02*
X013490Y013301D01*
X013490Y013399D02*
X013110Y013399D01*
X013110Y013498D02*
X013490Y013498D01*
X013490Y013596D02*
X013110Y013596D01*
X013110Y013695D02*
X013490Y013695D01*
X013006Y012611D02*
X012490Y012611D01*
X012490Y012513D02*
X013006Y012513D01*
X013006Y012414D02*
X012490Y012414D01*
X012490Y012316D02*
X013006Y012316D01*
X013006Y012217D02*
X012490Y012217D01*
X012490Y012119D02*
X013006Y012119D01*
X013006Y012020D02*
X012750Y012020D01*
X012851Y011922D02*
X013006Y011922D01*
X013006Y011823D02*
X012857Y011823D01*
X012857Y011725D02*
X013006Y011725D01*
X013001Y011626D02*
X012852Y011626D01*
X012952Y011528D02*
X013001Y011528D01*
X013314Y011528D02*
X013314Y011528D01*
X013314Y011491D02*
X013314Y011759D01*
X013314Y011491D01*
X013314Y011491D01*
X013314Y011626D02*
X013314Y011626D01*
X013314Y011725D02*
X013314Y011725D01*
X013314Y011759D02*
X013306Y011759D01*
X013306Y012151D01*
X013322Y012123D01*
X013333Y012113D01*
X013333Y011985D01*
X013325Y011978D01*
X013324Y011973D01*
X013321Y011970D01*
X013321Y011912D01*
X013318Y011854D01*
X013321Y011850D01*
X013321Y011759D01*
X013314Y011759D01*
X013306Y011823D02*
X013321Y011823D01*
X013321Y011922D02*
X013306Y011922D01*
X013306Y012020D02*
X013333Y012020D01*
X013327Y012119D02*
X013306Y012119D01*
X013306Y012318D02*
X013306Y012323D01*
X013547Y012323D01*
X013547Y012318D01*
X013306Y012318D01*
X013420Y012320D02*
X013550Y012320D01*
X012603Y012020D02*
X012597Y012020D01*
X012597Y011922D02*
X012603Y011922D01*
X012597Y011823D02*
X012603Y011823D01*
X012000Y011550D02*
X011400Y011550D01*
X011153Y011303D01*
X010922Y011303D01*
X011053Y011134D02*
X011053Y011028D01*
X010844Y011028D01*
X010844Y011028D01*
X010844Y010806D01*
X010950Y010700D01*
X010923Y010759D02*
X010961Y010770D01*
X010995Y010789D01*
X011023Y010817D01*
X011043Y010852D01*
X011053Y010890D01*
X011053Y011028D01*
X010844Y011028D01*
X010844Y010759D01*
X010923Y010759D01*
X010844Y010759D02*
X010844Y011028D01*
X010844Y011028D01*
X010844Y010937D02*
X010844Y010937D01*
X010844Y010838D02*
X010844Y010838D01*
X010844Y010759D02*
X010807Y010759D01*
X010807Y010719D01*
X010916Y010610D01*
X011034Y010610D01*
X011140Y010716D01*
X011140Y011066D01*
X011217Y011143D01*
X011095Y011143D01*
X011086Y011134D01*
X011053Y011134D01*
X011207Y011134D01*
X011140Y011035D02*
X011053Y011035D01*
X011053Y010937D02*
X011140Y010937D01*
X011140Y010838D02*
X011035Y010838D01*
X011140Y010740D02*
X010807Y010740D01*
X010885Y010641D02*
X011065Y010641D01*
X011100Y010450D02*
X010850Y010450D01*
X010647Y010653D01*
X010647Y011028D01*
X010487Y010740D02*
X010216Y010740D01*
X010236Y010641D02*
X010487Y010641D01*
X010531Y010543D02*
X010236Y010543D01*
X010236Y010444D02*
X010630Y010444D01*
X010728Y010346D02*
X010235Y010346D01*
X009822Y010247D02*
X011091Y010247D01*
X011200Y010130D02*
X011200Y010000D01*
X011200Y010130D02*
X011550Y010480D01*
X011300Y010650D02*
X011300Y011000D01*
X011500Y011200D01*
X011700Y011200D01*
X011300Y010650D02*
X011100Y010450D01*
X011390Y009656D02*
X009230Y009656D01*
X009230Y009558D02*
X011331Y009558D01*
X011233Y009459D02*
X009230Y009459D01*
X009230Y009361D02*
X011190Y009361D01*
X011190Y009262D02*
X009230Y009262D01*
X009230Y009164D02*
X011190Y009164D01*
X011190Y009065D02*
X009230Y009065D01*
X009232Y008967D02*
X011190Y008967D01*
X011190Y008868D02*
X009240Y008868D01*
X009206Y008770D02*
X011190Y008770D01*
X011600Y008800D02*
X011950Y008450D01*
X012300Y007400D02*
X012330Y007370D01*
X012330Y006900D02*
X012330Y006500D01*
X012225Y006500D01*
X012125Y006400D01*
X012125Y005789D01*
X012488Y005426D01*
X012675Y005000D02*
X012675Y004605D01*
X012670Y004600D01*
X013030Y004641D02*
X013030Y005000D01*
X013030Y004641D02*
X013100Y004570D01*
X013180Y004570D01*
X013520Y004230D01*
X013600Y004230D01*
X013541Y004230D01*
X013100Y004230D02*
X013070Y004200D01*
X012670Y004200D01*
X012704Y003943D02*
X012110Y003943D01*
X012110Y003845D02*
X012660Y003845D01*
X012663Y003746D02*
X012110Y003746D01*
X012110Y003648D02*
X012713Y003648D01*
X012410Y003549D02*
X012110Y003549D01*
X012126Y003451D02*
X012361Y003451D01*
X012360Y003352D02*
X012397Y003264D01*
X012119Y004042D02*
X012110Y004042D01*
X012110Y004140D02*
X012114Y004140D01*
X012110Y004239D02*
X012114Y004239D01*
X012110Y004337D02*
X012114Y004337D01*
X012110Y004436D02*
X012125Y004436D01*
X012114Y004534D02*
X012110Y004534D01*
X012110Y004633D02*
X012110Y004633D01*
X012110Y004731D02*
X012110Y004731D01*
X012110Y004830D02*
X012110Y004830D01*
X013370Y005000D02*
X013700Y005000D01*
X014943Y001973D02*
X015457Y001973D01*
X015444Y001875D02*
X014956Y001875D01*
X014956Y001776D02*
X015444Y001776D01*
X015444Y001678D02*
X014956Y001678D01*
X014956Y001579D02*
X015444Y001579D01*
X015444Y001481D02*
X014956Y001481D01*
X014956Y001382D02*
X015444Y001382D01*
X015415Y001284D02*
X014956Y001284D01*
X013400Y008950D02*
X013400Y009500D01*
X013944Y010044D01*
X015110Y012907D02*
X015240Y012907D01*
X015240Y013005D02*
X015110Y013005D01*
X015110Y013104D02*
X015170Y013104D01*
X015426Y013301D02*
X015750Y013301D01*
X015750Y013399D02*
X015850Y013399D01*
X015850Y013498D02*
X015750Y013498D01*
X015750Y013596D02*
X015850Y013596D01*
X015850Y013695D02*
X015750Y013695D01*
X015750Y013793D02*
X015850Y013793D01*
X015506Y013793D02*
X012490Y013793D01*
X012490Y013695D02*
X012490Y013695D01*
X012490Y013596D02*
X012490Y013596D01*
X012490Y013498D02*
X012490Y013498D01*
X012490Y013399D02*
X012490Y013399D01*
X012490Y013301D02*
X012490Y013301D01*
X012490Y013202D02*
X012490Y013202D01*
X012490Y013104D02*
X012490Y013104D01*
X012490Y013005D02*
X012490Y013005D01*
X012490Y012907D02*
X012490Y012907D01*
X013006Y015271D02*
X013594Y015271D01*
X013560Y015369D02*
X013040Y015369D01*
X013032Y015468D02*
X013568Y015468D01*
X013627Y015566D02*
X012973Y015566D01*
X013095Y015665D02*
X013505Y015665D01*
X013490Y015763D02*
X013110Y015763D01*
X013110Y015862D02*
X013490Y015862D01*
X013490Y015960D02*
X013110Y015960D01*
X013110Y016059D02*
X013490Y016059D01*
X013490Y016157D02*
X013110Y016157D01*
X013110Y016256D02*
X013490Y016256D01*
X013490Y016354D02*
X013110Y016354D01*
X012800Y016100D02*
X012800Y015400D01*
X013800Y015400D02*
X013800Y016100D01*
X014110Y016059D02*
X014490Y016059D01*
X014490Y016157D02*
X014110Y016157D01*
X014110Y016256D02*
X014490Y016256D01*
X014490Y016354D02*
X014110Y016354D01*
X014110Y015960D02*
X014490Y015960D01*
X014490Y015862D02*
X014110Y015862D01*
X014110Y015763D02*
X014490Y015763D01*
X014505Y015665D02*
X014095Y015665D01*
X015110Y013695D02*
X015450Y013695D01*
X015450Y013596D02*
X015110Y013596D01*
X015110Y013498D02*
X015450Y013498D01*
X015450Y013399D02*
X015327Y013399D01*
X015999Y015074D02*
X016701Y015074D01*
X016711Y015172D02*
X016030Y015172D01*
X016030Y015271D02*
X016728Y015271D01*
X016753Y015369D02*
X016040Y015369D01*
X016032Y015468D02*
X016787Y015468D01*
X016829Y015566D02*
X016030Y015566D01*
X016095Y015665D02*
X016881Y015665D01*
X016946Y015763D02*
X016110Y015763D01*
X016110Y015862D02*
X017025Y015862D01*
X017122Y015960D02*
X016110Y015960D01*
X016110Y016059D02*
X017244Y016059D01*
X017407Y016157D02*
X016110Y016157D01*
X016110Y016256D02*
X017661Y016256D01*
X017950Y016256D02*
X018050Y016256D01*
X018050Y016157D02*
X017950Y016157D01*
X017950Y016059D02*
X018050Y016059D01*
X018050Y015960D02*
X017950Y015960D01*
X017950Y015862D02*
X018050Y015862D01*
X018050Y015763D02*
X017950Y015763D01*
X017950Y015665D02*
X018050Y015665D01*
X018050Y015566D02*
X017950Y015566D01*
X017950Y015468D02*
X018050Y015468D01*
X018050Y015369D02*
X017950Y015369D01*
X017950Y015271D02*
X018050Y015271D01*
X018050Y015172D02*
X017950Y015172D01*
X017950Y015074D02*
X018050Y015074D01*
X018050Y014778D02*
X017950Y014778D01*
X017950Y014680D02*
X018050Y014680D01*
X018050Y014581D02*
X017950Y014581D01*
X017950Y014483D02*
X018050Y014483D01*
X018050Y014384D02*
X017950Y014384D01*
X017950Y014286D02*
X018050Y014286D01*
X018050Y014187D02*
X017950Y014187D01*
X017950Y014089D02*
X018050Y014089D01*
X018050Y013990D02*
X017950Y013990D01*
X017950Y013892D02*
X018050Y013892D01*
X018050Y013793D02*
X017950Y013793D01*
X010950Y017450D02*
X005103Y017450D01*
X004817Y017457D01*
X004253Y017322D01*
X003744Y017045D01*
X003324Y016646D01*
X003022Y016152D01*
X002950Y015909D01*
X002950Y016938D01*
X003537Y017525D01*
X007937Y017525D01*
X008462Y018050D01*
X008462Y018050D01*
X008550Y018138D01*
X008550Y018662D01*
X008462Y018750D01*
X008196Y019016D01*
X008410Y019230D01*
X008410Y019570D01*
X008330Y019650D01*
X008670Y019650D01*
X008590Y019570D01*
X008590Y019230D01*
X008830Y018990D01*
X009170Y018990D01*
X009410Y019230D01*
X009410Y019570D01*
X009170Y019810D01*
X009102Y019810D01*
X009050Y019862D01*
X008962Y019950D01*
X004738Y019950D01*
X002930Y018142D01*
X002930Y018295D01*
X002795Y018430D01*
X002605Y018430D01*
X002470Y018295D01*
X002470Y018105D01*
X002605Y017970D01*
X002758Y017970D01*
X002538Y017750D01*
X002330Y017750D01*
X002410Y017830D01*
X002410Y018170D01*
X002170Y018410D01*
X001830Y018410D01*
X001590Y018170D01*
X001590Y017830D01*
X001670Y017750D01*
X001538Y017750D01*
X001184Y017396D01*
X001170Y017410D01*
X000830Y017410D01*
X000650Y017230D01*
X000650Y017770D01*
X000830Y017590D01*
X001170Y017590D01*
X001410Y017830D01*
X001410Y018170D01*
X001170Y018410D01*
X000830Y018410D01*
X000650Y018230D01*
X000650Y018770D01*
X000830Y018590D01*
X001170Y018590D01*
X001410Y018830D01*
X001410Y019170D01*
X001170Y019410D01*
X000830Y019410D01*
X000650Y019230D01*
X000650Y019770D01*
X000830Y019590D01*
X001170Y019590D01*
X001390Y019810D01*
X001610Y019810D01*
X001830Y019590D01*
X002170Y019590D01*
X002410Y019830D01*
X002410Y020170D01*
X002310Y020270D01*
X002395Y020270D01*
X002530Y020405D01*
X002530Y020418D01*
X002662Y020550D01*
X002750Y020638D01*
X002750Y020725D01*
X002805Y020670D01*
X002995Y020670D01*
X003130Y020805D01*
X003130Y020861D01*
X003289Y021020D01*
X003655Y021020D01*
X003719Y021084D01*
X003719Y021312D01*
X004421Y020610D01*
X005879Y020610D01*
X005990Y020721D01*
X006265Y020996D01*
X006323Y020996D01*
X006387Y021061D01*
X006387Y021118D01*
X006590Y021321D01*
X006590Y021130D01*
X006830Y020890D01*
X007170Y020890D01*
X007410Y021130D01*
X007410Y021470D01*
X007170Y021710D01*
X006979Y021710D01*
X007079Y021810D01*
X007121Y021852D01*
X007261Y021910D01*
X007390Y022039D01*
X007460Y022208D01*
X007460Y022391D01*
X007390Y022561D01*
X007261Y022690D01*
X007091Y022760D01*
X006908Y022760D01*
X006739Y022690D01*
X006610Y022561D01*
X006540Y022391D01*
X006540Y022208D01*
X006610Y022039D01*
X006690Y021959D01*
X006387Y021656D01*
X006387Y021939D01*
X006326Y022000D01*
X006387Y022061D01*
X006387Y022427D01*
X006336Y022479D01*
X006369Y022498D01*
X006397Y022526D01*
X006417Y022560D01*
X006427Y022598D01*
X006427Y022737D01*
X006119Y022737D01*
X006119Y022775D01*
X006081Y022775D01*
X006081Y023044D01*
X005903Y023044D01*
X005865Y023033D01*
X005831Y023014D01*
X005803Y022986D01*
X005783Y022952D01*
X005783Y022951D01*
X005777Y022962D01*
X005749Y022990D01*
X005715Y023010D01*
X005676Y023020D01*
X005233Y023020D01*
X005233Y022761D01*
X005807Y022761D01*
X005807Y022775D01*
X006081Y022775D01*
X006081Y022737D01*
X005807Y022737D01*
X005807Y022743D01*
X005233Y022743D01*
X005233Y022761D01*
X005215Y022761D01*
X005215Y023020D01*
X004771Y023020D01*
X004733Y023010D01*
X004698Y022990D01*
X004671Y022962D01*
X004651Y022928D01*
X004641Y022890D01*
X004641Y022761D01*
X005215Y022761D01*
X005215Y022743D01*
X005233Y022743D01*
X005233Y022484D01*
X005676Y022484D01*
X005715Y022494D01*
X005749Y022514D01*
X005777Y022542D01*
X005785Y022556D01*
X005803Y022526D01*
X005831Y022498D01*
X005864Y022479D01*
X005827Y022442D01*
X005740Y022442D01*
X005702Y022480D01*
X004745Y022480D01*
X004681Y022416D01*
X004681Y022349D01*
X004610Y022279D01*
X004521Y022190D01*
X004335Y022190D01*
X004295Y022230D01*
X004105Y022230D01*
X003970Y022095D01*
X003970Y021905D01*
X004105Y021770D01*
X004295Y021770D01*
X004335Y021810D01*
X004641Y021810D01*
X004641Y021753D01*
X005215Y021753D01*
X005215Y021735D01*
X005233Y021735D01*
X005233Y021753D01*
X005807Y021753D01*
X005807Y021882D01*
X005796Y021920D01*
X005777Y021954D01*
X005749Y021982D01*
X005715Y022002D01*
X005676Y022012D01*
X005253Y022012D01*
X005264Y022024D01*
X005702Y022024D01*
X005740Y022062D01*
X005813Y022062D01*
X005813Y022061D01*
X005874Y022000D01*
X005813Y021939D01*
X005813Y021573D01*
X005877Y021508D01*
X006239Y021508D01*
X006223Y021492D01*
X005877Y021492D01*
X005813Y021427D01*
X005813Y021082D01*
X005799Y021082D01*
X005796Y021072D02*
X005807Y021110D01*
X005807Y021239D01*
X005233Y021239D01*
X005233Y021257D01*
X005807Y021257D01*
X005807Y021386D01*
X005796Y021424D01*
X005777Y021458D01*
X005749Y021486D01*
X005732Y021496D01*
X005749Y021506D01*
X005777Y021534D01*
X005796Y021568D01*
X005807Y021606D01*
X005807Y021735D01*
X005233Y021735D01*
X005233Y021257D01*
X005215Y021257D01*
X005215Y021476D01*
X005215Y021735D01*
X004641Y021735D01*
X004641Y021606D01*
X004651Y021568D01*
X004671Y021534D01*
X004698Y021506D01*
X004716Y021496D01*
X004698Y021486D01*
X004671Y021458D01*
X004651Y021424D01*
X004641Y021386D01*
X004641Y021257D01*
X005215Y021257D01*
X005215Y021239D01*
X004641Y021239D01*
X004641Y021110D01*
X004651Y021072D01*
X004671Y021038D01*
X004698Y021010D01*
X004733Y020990D01*
X004579Y020990D01*
X003790Y021779D01*
X003719Y021849D01*
X003719Y021912D01*
X003655Y021976D01*
X002788Y021976D01*
X002836Y022024D01*
X003655Y022024D01*
X003719Y022088D01*
X003719Y022416D01*
X003655Y022480D01*
X002792Y022480D01*
X002836Y022524D01*
X003655Y022524D01*
X003719Y022588D01*
X003719Y022916D01*
X003655Y022980D01*
X002698Y022980D01*
X002633Y022916D01*
X002633Y022745D01*
X002250Y022362D01*
X002250Y022330D01*
X002170Y022410D01*
X001830Y022410D01*
X001610Y022190D01*
X001390Y022190D01*
X001170Y022410D01*
X000830Y022410D01*
X000590Y022170D01*
X000590Y021830D01*
X000604Y021816D01*
X000450Y021662D01*
X000450Y023650D01*
X006643Y023650D01*
X006619Y023626D01*
X006572Y023562D01*
X006537Y023492D01*
X006512Y023417D01*
X006502Y023350D01*
X006950Y023350D01*
X006950Y023250D01*
X007050Y023250D01*
X007050Y023350D01*
X007498Y023350D01*
X007488Y023417D01*
X007463Y023492D01*
X007428Y023562D01*
X007381Y023626D01*
X007357Y023650D01*
X010950Y023650D01*
X010950Y017450D01*
X010950Y017536D02*
X007948Y017536D01*
X008047Y017635D02*
X010950Y017635D01*
X010950Y017733D02*
X008145Y017733D01*
X008244Y017832D02*
X010950Y017832D01*
X010950Y017930D02*
X008342Y017930D01*
X008441Y018029D02*
X008735Y018029D01*
X008814Y017950D02*
X008950Y017950D01*
X008950Y018350D01*
X009050Y018350D01*
X009050Y018450D01*
X009450Y018450D01*
X009450Y018586D01*
X009186Y018850D01*
X009050Y018850D01*
X009050Y018450D01*
X008950Y018450D01*
X008950Y018850D01*
X008814Y018850D01*
X008550Y018586D01*
X008550Y018450D01*
X008950Y018450D01*
X008950Y018350D01*
X008550Y018350D01*
X008550Y018214D01*
X008814Y017950D01*
X008950Y018029D02*
X009050Y018029D01*
X009050Y017950D02*
X009186Y017950D01*
X009450Y018214D01*
X009450Y018350D01*
X009050Y018350D01*
X009050Y017950D01*
X009050Y018127D02*
X008950Y018127D01*
X008950Y018226D02*
X009050Y018226D01*
X009050Y018324D02*
X008950Y018324D01*
X008950Y018423D02*
X008550Y018423D01*
X008550Y018521D02*
X008550Y018521D01*
X008550Y018620D02*
X008583Y018620D01*
X008494Y018718D02*
X008682Y018718D01*
X008780Y018817D02*
X008396Y018817D01*
X008297Y018915D02*
X010950Y018915D01*
X010950Y018817D02*
X009220Y018817D01*
X009318Y018718D02*
X010950Y018718D01*
X010950Y018620D02*
X009417Y018620D01*
X009450Y018521D02*
X010950Y018521D01*
X010950Y018423D02*
X009050Y018423D01*
X009050Y018521D02*
X008950Y018521D01*
X008950Y018620D02*
X009050Y018620D01*
X009050Y018718D02*
X008950Y018718D01*
X008950Y018817D02*
X009050Y018817D01*
X009193Y019014D02*
X010950Y019014D01*
X010950Y019112D02*
X009292Y019112D01*
X009390Y019211D02*
X010950Y019211D01*
X010950Y019309D02*
X009410Y019309D01*
X009410Y019408D02*
X010950Y019408D01*
X010950Y019506D02*
X009410Y019506D01*
X009375Y019605D02*
X010950Y019605D01*
X010950Y019703D02*
X009277Y019703D01*
X009178Y019802D02*
X010950Y019802D01*
X010950Y019900D02*
X009012Y019900D01*
X008625Y019605D02*
X008375Y019605D01*
X008410Y019506D02*
X008590Y019506D01*
X008590Y019408D02*
X008410Y019408D01*
X008410Y019309D02*
X008590Y019309D01*
X008610Y019211D02*
X008390Y019211D01*
X008292Y019112D02*
X008708Y019112D01*
X008807Y019014D02*
X008199Y019014D01*
X008550Y018324D02*
X008550Y018324D01*
X008550Y018226D02*
X008550Y018226D01*
X008539Y018127D02*
X008637Y018127D01*
X009265Y018029D02*
X010950Y018029D01*
X010950Y018127D02*
X009363Y018127D01*
X009450Y018226D02*
X010950Y018226D01*
X010950Y018324D02*
X009450Y018324D01*
X010950Y019999D02*
X002410Y019999D01*
X002410Y020097D02*
X010950Y020097D01*
X010950Y020196D02*
X002384Y020196D01*
X002419Y020294D02*
X010950Y020294D01*
X010950Y020393D02*
X002518Y020393D01*
X002603Y020491D02*
X010950Y020491D01*
X010950Y020590D02*
X002702Y020590D01*
X002750Y020688D02*
X002787Y020688D01*
X003013Y020688D02*
X004343Y020688D01*
X004245Y020787D02*
X003112Y020787D01*
X003154Y020885D02*
X004146Y020885D01*
X004048Y020984D02*
X003252Y020984D01*
X003717Y021082D02*
X003949Y021082D01*
X003851Y021181D02*
X003719Y021181D01*
X003719Y021279D02*
X003752Y021279D01*
X003994Y021575D02*
X004649Y021575D01*
X004641Y021673D02*
X003896Y021673D01*
X003797Y021772D02*
X004103Y021772D01*
X004005Y021870D02*
X003719Y021870D01*
X003663Y021969D02*
X003970Y021969D01*
X003970Y022067D02*
X003698Y022067D01*
X003719Y022166D02*
X004040Y022166D01*
X003719Y022264D02*
X004595Y022264D01*
X004681Y022363D02*
X003719Y022363D01*
X003674Y022461D02*
X004726Y022461D01*
X004733Y022494D02*
X004771Y022484D01*
X005215Y022484D01*
X005215Y022743D01*
X004641Y022743D01*
X004641Y022614D01*
X004651Y022576D01*
X004671Y022542D01*
X004698Y022514D01*
X004733Y022494D01*
X004660Y022560D02*
X003691Y022560D01*
X003719Y022658D02*
X004641Y022658D01*
X004641Y022855D02*
X003719Y022855D01*
X003719Y022757D02*
X005215Y022757D01*
X005233Y022757D02*
X006081Y022757D01*
X006119Y022757D02*
X006900Y022757D01*
X006883Y022812D02*
X006950Y022802D01*
X006950Y023250D01*
X006502Y023250D01*
X006512Y023183D01*
X006537Y023108D01*
X006572Y023038D01*
X006619Y022974D01*
X006674Y022919D01*
X006738Y022872D01*
X006808Y022837D01*
X006883Y022812D01*
X006950Y022855D02*
X007050Y022855D01*
X007050Y022802D02*
X007117Y022812D01*
X007192Y022837D01*
X007262Y022872D01*
X007326Y022919D01*
X007381Y022974D01*
X007428Y023038D01*
X007463Y023108D01*
X007488Y023183D01*
X007498Y023250D01*
X007050Y023250D01*
X007050Y022802D01*
X007100Y022757D02*
X010950Y022757D01*
X010950Y022855D02*
X007228Y022855D01*
X007361Y022954D02*
X010950Y022954D01*
X010950Y023052D02*
X007435Y023052D01*
X007477Y023151D02*
X010950Y023151D01*
X010950Y023249D02*
X007498Y023249D01*
X007478Y023446D02*
X010950Y023446D01*
X010950Y023348D02*
X007050Y023348D01*
X007050Y023249D02*
X006950Y023249D01*
X006950Y023151D02*
X007050Y023151D01*
X007050Y023052D02*
X006950Y023052D01*
X006950Y022954D02*
X007050Y022954D01*
X007292Y022658D02*
X010950Y022658D01*
X010950Y022560D02*
X007390Y022560D01*
X007431Y022461D02*
X010950Y022461D01*
X010950Y022363D02*
X007460Y022363D01*
X007460Y022264D02*
X010950Y022264D01*
X010950Y022166D02*
X007442Y022166D01*
X007401Y022067D02*
X010950Y022067D01*
X010950Y021969D02*
X007319Y021969D01*
X007164Y021870D02*
X010950Y021870D01*
X010950Y021772D02*
X007040Y021772D01*
X007207Y021673D02*
X010950Y021673D01*
X010950Y021575D02*
X007305Y021575D01*
X007404Y021476D02*
X010950Y021476D01*
X010950Y021378D02*
X007410Y021378D01*
X007410Y021279D02*
X010950Y021279D01*
X010950Y021181D02*
X007410Y021181D01*
X007362Y021082D02*
X010950Y021082D01*
X010950Y020984D02*
X007263Y020984D01*
X006737Y020984D02*
X006252Y020984D01*
X006154Y020885D02*
X010950Y020885D01*
X010950Y020787D02*
X006055Y020787D01*
X005957Y020688D02*
X010950Y020688D01*
X010950Y023545D02*
X007437Y023545D01*
X007364Y023643D02*
X010950Y023643D01*
X006950Y023348D02*
X002289Y023348D01*
X002190Y023446D02*
X006522Y023446D01*
X006563Y023545D02*
X000450Y023545D01*
X000450Y023643D02*
X006636Y023643D01*
X006502Y023249D02*
X002387Y023249D01*
X002450Y023186D02*
X002186Y023450D01*
X002050Y023450D01*
X002050Y023050D01*
X001950Y023050D01*
X001950Y023450D01*
X001814Y023450D01*
X001550Y023186D01*
X001550Y023050D01*
X001950Y023050D01*
X001950Y022950D01*
X001550Y022950D01*
X001550Y022814D01*
X001814Y022550D01*
X001950Y022550D01*
X001950Y022950D01*
X002050Y022950D01*
X002050Y023050D01*
X002450Y023050D01*
X002450Y023186D01*
X002450Y023151D02*
X006523Y023151D01*
X006565Y023052D02*
X002450Y023052D01*
X002450Y022950D02*
X002050Y022950D01*
X002050Y022550D01*
X002186Y022550D01*
X002450Y022814D01*
X002450Y022950D01*
X002450Y022855D02*
X002633Y022855D01*
X002633Y022757D02*
X002393Y022757D01*
X002294Y022658D02*
X002546Y022658D01*
X002447Y022560D02*
X002196Y022560D01*
X002050Y022560D02*
X001950Y022560D01*
X001950Y022658D02*
X002050Y022658D01*
X002050Y022757D02*
X001950Y022757D01*
X001950Y022855D02*
X002050Y022855D01*
X002050Y022954D02*
X002671Y022954D01*
X002349Y022461D02*
X000450Y022461D01*
X000450Y022363D02*
X000783Y022363D01*
X000684Y022264D02*
X000450Y022264D01*
X000450Y022166D02*
X000590Y022166D01*
X000590Y022067D02*
X000450Y022067D01*
X000450Y021969D02*
X000590Y021969D01*
X000590Y021870D02*
X000450Y021870D01*
X000450Y021772D02*
X000559Y021772D01*
X000461Y021673D02*
X000450Y021673D01*
X000450Y022560D02*
X000804Y022560D01*
X000814Y022550D02*
X000550Y022814D01*
X000550Y022950D01*
X000950Y022950D01*
X000950Y023050D01*
X000950Y023450D01*
X000814Y023450D01*
X000550Y023186D01*
X000550Y023050D01*
X000950Y023050D01*
X001050Y023050D01*
X001050Y023450D01*
X001186Y023450D01*
X001450Y023186D01*
X001450Y023050D01*
X001050Y023050D01*
X001050Y022950D01*
X001450Y022950D01*
X001450Y022814D01*
X001186Y022550D01*
X001050Y022550D01*
X001050Y022950D01*
X000950Y022950D01*
X000950Y022550D01*
X000814Y022550D01*
X000950Y022560D02*
X001050Y022560D01*
X001050Y022658D02*
X000950Y022658D01*
X000950Y022757D02*
X001050Y022757D01*
X001050Y022855D02*
X000950Y022855D01*
X000950Y022954D02*
X000450Y022954D01*
X000450Y023052D02*
X000550Y023052D01*
X000550Y023151D02*
X000450Y023151D01*
X000450Y023249D02*
X000613Y023249D01*
X000711Y023348D02*
X000450Y023348D01*
X000450Y023446D02*
X000810Y023446D01*
X000950Y023446D02*
X001050Y023446D01*
X001050Y023348D02*
X000950Y023348D01*
X000950Y023249D02*
X001050Y023249D01*
X001050Y023151D02*
X000950Y023151D01*
X000950Y023052D02*
X001050Y023052D01*
X001050Y022954D02*
X001950Y022954D01*
X001950Y023052D02*
X002050Y023052D01*
X002050Y023151D02*
X001950Y023151D01*
X001950Y023249D02*
X002050Y023249D01*
X002050Y023348D02*
X001950Y023348D01*
X001950Y023446D02*
X002050Y023446D01*
X001810Y023446D02*
X001190Y023446D01*
X001289Y023348D02*
X001711Y023348D01*
X001613Y023249D02*
X001387Y023249D01*
X001450Y023151D02*
X001550Y023151D01*
X001550Y023052D02*
X001450Y023052D01*
X001450Y022855D02*
X001550Y022855D01*
X001607Y022757D02*
X001393Y022757D01*
X001294Y022658D02*
X001706Y022658D01*
X001804Y022560D02*
X001196Y022560D01*
X001217Y022363D02*
X001783Y022363D01*
X001684Y022264D02*
X001316Y022264D01*
X000706Y022658D02*
X000450Y022658D01*
X000450Y022757D02*
X000607Y022757D01*
X000550Y022855D02*
X000450Y022855D01*
X002217Y022363D02*
X002250Y022363D01*
X003682Y022954D02*
X004666Y022954D01*
X005215Y022954D02*
X005233Y022954D01*
X005233Y022855D02*
X005215Y022855D01*
X005215Y022658D02*
X005233Y022658D01*
X005233Y022560D02*
X005215Y022560D01*
X005721Y022461D02*
X005846Y022461D01*
X006119Y022775D02*
X006427Y022775D01*
X006427Y022913D01*
X006417Y022952D01*
X006397Y022986D01*
X006369Y023014D01*
X006335Y023033D01*
X006297Y023044D01*
X006119Y023044D01*
X006119Y022775D01*
X006119Y022855D02*
X006081Y022855D01*
X006081Y022954D02*
X006119Y022954D01*
X006416Y022954D02*
X006639Y022954D01*
X006772Y022855D02*
X006427Y022855D01*
X006427Y022658D02*
X006708Y022658D01*
X006610Y022560D02*
X006417Y022560D01*
X006354Y022461D02*
X006569Y022461D01*
X006540Y022363D02*
X006387Y022363D01*
X006387Y022264D02*
X006540Y022264D01*
X006558Y022166D02*
X006387Y022166D01*
X006387Y022067D02*
X006599Y022067D01*
X006681Y021969D02*
X006358Y021969D01*
X006387Y021870D02*
X006601Y021870D01*
X006503Y021772D02*
X006387Y021772D01*
X006387Y021673D02*
X006404Y021673D01*
X006548Y021279D02*
X006590Y021279D01*
X006590Y021181D02*
X006449Y021181D01*
X006387Y021082D02*
X006638Y021082D01*
X005813Y021082D02*
X005787Y021056D01*
X005796Y021072D01*
X005807Y021181D02*
X005813Y021181D01*
X005807Y021279D02*
X005813Y021279D01*
X005807Y021378D02*
X005813Y021378D01*
X005861Y021476D02*
X005759Y021476D01*
X005798Y021575D02*
X005813Y021575D01*
X005807Y021673D02*
X005813Y021673D01*
X005807Y021772D02*
X005813Y021772D01*
X005807Y021870D02*
X005813Y021870D01*
X005842Y021969D02*
X005762Y021969D01*
X005233Y021673D02*
X005215Y021673D01*
X005215Y021575D02*
X005233Y021575D01*
X005233Y021476D02*
X005215Y021476D01*
X005215Y021378D02*
X005233Y021378D01*
X005233Y021279D02*
X005215Y021279D01*
X004733Y020990D02*
X004733Y020990D01*
X004648Y021082D02*
X004487Y021082D01*
X004388Y021181D02*
X004641Y021181D01*
X004641Y021279D02*
X004290Y021279D01*
X004191Y021378D02*
X004641Y021378D01*
X004688Y021476D02*
X004093Y021476D01*
X004297Y021772D02*
X004641Y021772D01*
X005782Y022954D02*
X005784Y022954D01*
X004688Y019900D02*
X002410Y019900D01*
X002381Y019802D02*
X004589Y019802D01*
X004491Y019703D02*
X002283Y019703D01*
X002184Y019605D02*
X004392Y019605D01*
X004294Y019506D02*
X000650Y019506D01*
X000650Y019408D02*
X000828Y019408D01*
X000729Y019309D02*
X000650Y019309D01*
X000650Y019605D02*
X000816Y019605D01*
X000717Y019703D02*
X000650Y019703D01*
X001184Y019605D02*
X001816Y019605D01*
X001717Y019703D02*
X001283Y019703D01*
X001381Y019802D02*
X001619Y019802D01*
X001830Y019410D02*
X001590Y019170D01*
X001590Y018830D01*
X001830Y018590D01*
X002170Y018590D01*
X002410Y018830D01*
X002410Y019170D01*
X002170Y019410D01*
X001830Y019410D01*
X001828Y019408D02*
X001172Y019408D01*
X001271Y019309D02*
X001729Y019309D01*
X001631Y019211D02*
X001369Y019211D01*
X001410Y019112D02*
X001590Y019112D01*
X001590Y019014D02*
X001410Y019014D01*
X001410Y018915D02*
X001590Y018915D01*
X001604Y018817D02*
X001396Y018817D01*
X001298Y018718D02*
X001702Y018718D01*
X001801Y018620D02*
X001199Y018620D01*
X001256Y018324D02*
X001744Y018324D01*
X001646Y018226D02*
X001354Y018226D01*
X001410Y018127D02*
X001590Y018127D01*
X001590Y018029D02*
X001410Y018029D01*
X001410Y017930D02*
X001590Y017930D01*
X001590Y017832D02*
X001410Y017832D01*
X001313Y017733D02*
X001521Y017733D01*
X001422Y017635D02*
X001214Y017635D01*
X001324Y017536D02*
X000650Y017536D01*
X000650Y017438D02*
X001225Y017438D01*
X000759Y017339D02*
X000650Y017339D01*
X000650Y017241D02*
X000661Y017241D01*
X000650Y017635D02*
X000786Y017635D01*
X000687Y017733D02*
X000650Y017733D01*
X000650Y018324D02*
X000744Y018324D01*
X000650Y018423D02*
X002597Y018423D01*
X002499Y018324D02*
X002256Y018324D01*
X002354Y018226D02*
X002470Y018226D01*
X002470Y018127D02*
X002410Y018127D01*
X002410Y018029D02*
X002546Y018029D01*
X002410Y017930D02*
X002718Y017930D01*
X002619Y017832D02*
X002410Y017832D01*
X002930Y018226D02*
X003013Y018226D01*
X003112Y018324D02*
X002901Y018324D01*
X002803Y018423D02*
X003210Y018423D01*
X003309Y018521D02*
X000650Y018521D01*
X000650Y018620D02*
X000801Y018620D01*
X000702Y018718D02*
X000650Y018718D01*
X002199Y018620D02*
X003407Y018620D01*
X003506Y018718D02*
X002298Y018718D01*
X002396Y018817D02*
X003604Y018817D01*
X003703Y018915D02*
X002410Y018915D01*
X002410Y019014D02*
X003801Y019014D01*
X003900Y019112D02*
X002410Y019112D01*
X002369Y019211D02*
X003998Y019211D01*
X004097Y019309D02*
X002271Y019309D01*
X002172Y019408D02*
X004195Y019408D01*
X004735Y017438D02*
X003450Y017438D01*
X003351Y017339D02*
X004325Y017339D01*
X004253Y017322D02*
X004253Y017322D01*
X004104Y017241D02*
X003253Y017241D01*
X003154Y017142D02*
X003923Y017142D01*
X003744Y017045D02*
X003744Y017045D01*
X003743Y017044D02*
X003056Y017044D01*
X002957Y016945D02*
X003639Y016945D01*
X003535Y016847D02*
X002950Y016847D01*
X002950Y016748D02*
X003432Y016748D01*
X003328Y016650D02*
X002950Y016650D01*
X002950Y016551D02*
X003266Y016551D01*
X003324Y016646D02*
X003324Y016646D01*
X003206Y016453D02*
X002950Y016453D01*
X002950Y016354D02*
X003146Y016354D01*
X003085Y016256D02*
X002950Y016256D01*
X002950Y016157D02*
X003025Y016157D01*
X003022Y016152D02*
X003022Y016152D01*
X002994Y016059D02*
X002950Y016059D01*
X002950Y015960D02*
X002965Y015960D01*
X004817Y017457D02*
X004817Y017457D01*
X007001Y014975D02*
X007550Y014975D01*
X007648Y015074D02*
X007100Y015074D01*
X006903Y014877D02*
X007451Y014877D01*
X007353Y014778D02*
X006860Y014778D01*
X006860Y014680D02*
X007254Y014680D01*
X007156Y014581D02*
X006860Y014581D01*
X006860Y014483D02*
X007043Y014483D01*
X006970Y014384D02*
X006860Y014384D01*
X006860Y014286D02*
X006960Y014286D01*
X006970Y014187D02*
X006860Y014187D01*
X006860Y014089D02*
X006970Y014089D01*
X006970Y013990D02*
X006936Y013990D01*
X006582Y013892D02*
X005981Y013892D01*
X006119Y013990D02*
X006540Y013990D01*
X006540Y014089D02*
X006227Y014089D01*
X006315Y014187D02*
X006540Y014187D01*
X006540Y014286D02*
X006386Y014286D01*
X006445Y014384D02*
X006540Y014384D01*
X006540Y014483D02*
X006493Y014483D01*
X006531Y014581D02*
X006540Y014581D01*
X008273Y013202D02*
X008490Y013202D01*
X008490Y013104D02*
X008372Y013104D01*
X008470Y013005D02*
X008490Y013005D01*
X008530Y012217D02*
X009494Y012217D01*
X009806Y012217D02*
X009916Y012217D01*
X009849Y012119D02*
X008530Y012119D01*
X008530Y012020D02*
X008924Y012020D01*
X008874Y011922D02*
X008530Y011922D01*
X008530Y011823D02*
X008874Y011823D01*
X008874Y011725D02*
X008530Y011725D01*
X008530Y011626D02*
X008889Y011626D01*
X008874Y011528D02*
X008530Y011528D01*
X008530Y011429D02*
X008874Y011429D01*
X008874Y011331D02*
X008595Y011331D01*
X008693Y011232D02*
X008886Y011232D01*
X009230Y010740D02*
X009503Y010740D01*
X009428Y010641D02*
X009230Y010641D01*
X009230Y010543D02*
X009424Y010543D01*
X009424Y010444D02*
X009230Y010444D01*
X009230Y010346D02*
X009431Y010346D01*
X008025Y010149D02*
X007872Y010149D01*
X007872Y010247D02*
X007927Y010247D01*
X007073Y011035D02*
X006973Y011035D01*
X006973Y011134D02*
X007073Y011134D01*
X007073Y011232D02*
X006973Y011232D01*
X006973Y011429D02*
X007073Y011429D01*
X007073Y011528D02*
X006973Y011528D01*
X006973Y011626D02*
X007073Y011626D01*
X007023Y010300D02*
X005800Y010300D01*
X004700Y007300D02*
X004577Y007300D01*
D37*
X005800Y007300D02*
X007023Y007300D01*
X007400Y007300D01*
X009000Y008900D01*
X009000Y010950D01*
X008650Y010950D01*
X008300Y011300D01*
X008300Y012850D01*
X007200Y013950D01*
X007200Y014300D01*
X007800Y014900D01*
X012300Y014900D01*
X015500Y014900D01*
X015800Y015200D01*
X015800Y015400D01*
X015800Y016100D01*
D38*
X015800Y015400D03*
X015100Y014300D03*
X015000Y012600D03*
X014900Y012000D03*
X015400Y011800D03*
X014850Y010975D03*
X013800Y010650D03*
X013450Y011050D03*
X012500Y010500D03*
X012250Y009850D03*
X011550Y010050D03*
X011200Y010000D03*
X010950Y010700D03*
X010600Y011400D03*
X011700Y011200D03*
X012000Y011550D03*
X009900Y012700D03*
X009650Y012400D03*
X010450Y014000D03*
X010600Y014500D03*
X011200Y014000D03*
X011950Y014100D03*
X012900Y014300D03*
X012800Y015400D03*
X011800Y015400D03*
X010800Y015400D03*
X009800Y015400D03*
X008800Y015400D03*
X008600Y014100D03*
X008200Y013400D03*
X007200Y014300D03*
X007200Y015400D03*
X009550Y014100D03*
X006400Y012400D03*
X005800Y011700D03*
X005800Y011300D03*
X005800Y010300D03*
X005800Y009700D03*
X005800Y008900D03*
X005800Y008300D03*
X005800Y007300D03*
X005800Y006100D03*
X006100Y005300D03*
X005800Y004800D03*
X004200Y004800D03*
X004200Y004400D03*
X004200Y005500D03*
X002500Y005500D03*
X002200Y006500D03*
X001400Y008500D03*
X002600Y008700D03*
X002800Y010650D03*
X005000Y010700D03*
X005000Y012400D03*
X008600Y009800D03*
X008600Y009200D03*
X009000Y008900D03*
X010200Y008800D03*
X010200Y007100D03*
X011600Y008200D03*
X011600Y008800D03*
X012300Y007400D03*
X013000Y006100D03*
X013650Y007050D03*
X013800Y007500D03*
X014100Y007800D03*
X013400Y008950D03*
X015300Y008000D03*
X015800Y007350D03*
X015800Y007000D03*
X015300Y006600D03*
X014350Y006200D03*
X013700Y005000D03*
X012900Y003800D03*
X012600Y003400D03*
X011825Y003100D03*
X012300Y005000D03*
X012675Y005000D03*
X015150Y004200D03*
X016650Y004200D03*
X017900Y005000D03*
X019300Y005500D03*
X017550Y006600D03*
X016600Y006600D03*
X016600Y007000D03*
X016600Y007500D03*
X016200Y009400D03*
X016700Y011000D03*
X016900Y012000D03*
X018375Y010725D03*
X018950Y010000D03*
X018950Y009300D03*
X018620Y008895D03*
X014200Y012700D03*
X013800Y015400D03*
X010100Y018900D03*
X008300Y023500D03*
X003100Y023400D03*
X002900Y019800D03*
X003300Y016900D03*
X007250Y007850D03*
X008200Y004800D03*
X006900Y002900D03*
X008300Y002500D03*
X008900Y002500D03*
X009400Y001200D03*
X013900Y001000D03*
D39*
X006904Y002896D02*
X006900Y002900D01*
X004975Y004500D02*
X004877Y004598D01*
X004601Y004598D01*
X004000Y006100D02*
X002900Y006100D01*
X002900Y006450D02*
X004000Y006450D01*
X004000Y007300D02*
X003800Y007500D01*
X001700Y007500D01*
X001500Y007700D01*
X001500Y008300D01*
X001400Y008400D01*
X001400Y008500D01*
X001300Y009500D02*
X001300Y009700D01*
X001400Y009800D01*
X001400Y015500D01*
X001900Y015000D01*
X002000Y015000D01*
X001700Y014500D02*
X001700Y014300D01*
X001600Y014200D01*
X001600Y009800D01*
X001700Y009700D01*
X001700Y009500D01*
X002400Y009900D02*
X002400Y012600D01*
X002400Y017000D01*
X004400Y019000D01*
X006600Y019000D01*
X007000Y019400D01*
X008000Y019400D02*
X008000Y019000D01*
X008400Y018600D01*
X008400Y018200D01*
X007875Y017675D01*
X003475Y017675D01*
X002800Y017000D01*
X002800Y011000D01*
X003150Y010650D01*
X004227Y010650D01*
X004577Y010300D01*
X004427Y010450D01*
X004277Y009600D02*
X004577Y009300D01*
X004477Y009400D01*
X004600Y009300D02*
X004977Y009677D01*
X004977Y009700D01*
X004277Y009600D02*
X002700Y009600D01*
X002400Y009900D01*
X002800Y010650D02*
X002600Y010850D01*
X002600Y017000D01*
X003600Y018000D01*
X007900Y018000D01*
X008000Y018100D01*
X008000Y018400D01*
X009000Y019400D02*
X009000Y019700D01*
X008900Y019800D01*
X004800Y019800D01*
X002600Y017600D01*
X001600Y017600D01*
X001000Y017000D01*
X001400Y017000D02*
X001400Y015500D01*
X001400Y017000D02*
X001800Y017400D01*
X002600Y017400D01*
X004600Y019400D01*
X005000Y019400D01*
X003228Y022200D02*
X003176Y022252D01*
X003124Y022200D01*
X002800Y022200D01*
X002600Y022000D01*
X002600Y020700D01*
X002400Y020500D01*
X002300Y020500D01*
X002200Y021500D02*
X001500Y021500D01*
X001000Y021950D02*
X001000Y022000D01*
X000500Y021500D01*
X000500Y006800D01*
X000800Y006500D01*
X002200Y006500D01*
X002750Y008550D02*
X002600Y008700D01*
X002750Y008550D02*
X004327Y008550D01*
X004577Y008300D01*
X004577Y007300D02*
X004000Y007300D01*
X002000Y002200D02*
X002000Y002000D01*
X002400Y012600D02*
X002000Y013000D01*
X002200Y021500D02*
X002400Y021700D01*
X002400Y022300D01*
X002900Y022800D01*
X003128Y022800D01*
X003176Y022752D01*
X003224Y022300D02*
X003176Y022252D01*
X012800Y013300D02*
X013156Y012944D01*
X013156Y012900D02*
X013156Y011491D01*
X013314Y011491D02*
X013314Y012214D01*
X013420Y012320D01*
X013550Y011980D02*
X013471Y011908D01*
X013471Y011491D01*
X013629Y011491D02*
X013629Y011229D01*
X013786Y011491D02*
X013786Y011716D01*
X014050Y011980D01*
X013230Y010570D02*
X013100Y010520D01*
X012959Y010506D01*
X013629Y010479D02*
X013629Y010309D01*
X013786Y010309D02*
X013786Y010136D01*
X013944Y010044D02*
X013944Y010309D01*
D40*
X014649Y008700D02*
X014626Y008677D01*
X014626Y007776D01*
X014248Y007348D02*
X014000Y007100D01*
X014000Y004200D01*
X013600Y003800D01*
X012900Y003800D01*
X012600Y003400D02*
X013500Y003400D01*
X014100Y002800D01*
X014100Y001400D01*
X014500Y001000D01*
X015400Y001000D01*
X015751Y001351D01*
X015751Y001600D01*
X015794Y001643D01*
X015794Y003300D01*
X015794Y006394D01*
X016230Y006830D01*
X016230Y008050D01*
X016230Y008222D01*
X015751Y008700D01*
X016570Y008050D02*
X016570Y009421D01*
X017500Y010350D01*
X018070Y009780D01*
X018070Y008700D01*
X018100Y008670D02*
X018100Y007600D01*
X018274Y007426D01*
X018477Y007426D01*
X018477Y007223D01*
X018600Y007100D01*
X018700Y007100D01*
X019370Y007100D01*
X019370Y006800D01*
X019370Y007100D02*
X019370Y007400D01*
X019030Y007470D02*
X018700Y007800D01*
X018477Y007800D01*
X018477Y008174D02*
X018500Y008196D01*
X018833Y008196D01*
X019030Y008000D01*
X014649Y006751D02*
X014649Y001600D01*
X012330Y004200D02*
X012330Y004600D01*
X012300Y004630D01*
X012300Y005000D01*
X013030Y005000D02*
X013030Y005633D01*
X012488Y006174D01*
X013000Y006100D02*
X013300Y005800D01*
X013512Y005800D01*
X013512Y005426D02*
X013370Y005285D01*
X013370Y005000D01*
X013400Y004970D01*
X013400Y004800D01*
X013600Y004600D01*
X013600Y004570D01*
X008900Y002500D02*
X008651Y002251D01*
X008651Y001600D01*
X008300Y002500D02*
X007549Y001749D01*
X007549Y001600D01*
X006956Y004800D02*
X008200Y004800D01*
X009000Y010950D02*
X009500Y010950D01*
X009675Y011125D01*
X011550Y010820D02*
X012000Y010820D01*
X012300Y011120D01*
X012420Y011241D01*
X012420Y011250D01*
X012600Y011430D01*
X012300Y011120D02*
X012300Y014900D01*
X006244Y021244D02*
X007000Y022000D01*
X007000Y022300D01*
X006100Y022244D02*
X006100Y021756D01*
X006100Y022244D02*
X006092Y022252D01*
X005224Y022252D01*
X005172Y022200D01*
X004800Y022200D01*
X004600Y022000D01*
X004200Y022000D01*
X003600Y021700D02*
X003224Y021700D01*
X003176Y021748D01*
X003600Y021700D02*
X004500Y020800D01*
X005800Y020800D01*
X006100Y021100D01*
X006100Y021244D01*
X006244Y021244D01*
X006096Y022752D02*
X005224Y022752D01*
X006096Y022752D02*
X006100Y022756D01*
X003176Y021248D02*
X003176Y021176D01*
X002900Y020900D01*
X002000Y021000D02*
X001000Y021000D01*
X001000Y020000D02*
X002000Y020000D01*
X002000Y022000D02*
X001000Y022000D01*
D41*
X001500Y021500D03*
X002300Y020500D03*
X002900Y020900D03*
X004200Y022000D03*
X002700Y018200D03*
X001700Y014500D03*
X001700Y009500D03*
X001300Y009500D03*
X005800Y007800D03*
X005800Y006800D03*
M02*
