G75*
G70*
%OFA0B0*%
%FSLAX24Y24*%
%IPPOS*%
%LPD*%
%AMOC8*
5,1,8,0,0,1.08239X$1,22.5*
%
%ADD10R,0.0297X0.0591*%
%ADD11R,0.0591X0.0297*%
%ADD12C,0.0310*%
%ADD13C,0.2300*%
%ADD14R,0.1476X0.0402*%
%ADD15C,0.0416*%
%ADD16OC8,0.0600*%
%ADD17C,0.0700*%
%ADD18R,0.0600X0.0600*%
%ADD19R,0.1811X0.0394*%
%ADD20R,0.1339X0.0630*%
%ADD21C,0.0260*%
%ADD22C,0.0100*%
%ADD23C,0.0240*%
%ADD24C,0.0160*%
%ADD25C,0.0080*%
%ADD26C,0.0240*%
D10*
X009447Y009482D03*
X009841Y009482D03*
X010235Y009482D03*
X010628Y009482D03*
X011022Y009482D03*
X011416Y009482D03*
X011809Y009482D03*
X012991Y009482D03*
X013384Y009482D03*
X013778Y009482D03*
X014172Y009482D03*
X014565Y009482D03*
X014959Y009482D03*
X015353Y009482D03*
D11*
X016053Y010182D03*
X016053Y010576D03*
X016053Y010970D03*
X016053Y011363D03*
X016053Y011757D03*
X016053Y012151D03*
X016053Y012544D03*
X016053Y012938D03*
X016053Y013332D03*
X008747Y013332D03*
X008747Y012938D03*
X008747Y012544D03*
X008747Y012151D03*
X008747Y011757D03*
X008747Y011363D03*
X008747Y010970D03*
X008747Y010576D03*
X008747Y010182D03*
D12*
X008050Y014600D03*
X008050Y015100D03*
X008050Y015600D03*
X007550Y015600D03*
X007550Y015100D03*
X007550Y014600D03*
D13*
X005300Y015000D03*
X005300Y002300D03*
X018000Y002300D03*
X018000Y015000D03*
D14*
X007023Y011300D03*
X007023Y010300D03*
X007023Y009300D03*
X007023Y008300D03*
X007023Y007300D03*
X004577Y007300D03*
X004577Y008300D03*
X004577Y009300D03*
X004577Y010300D03*
X004577Y011300D03*
D15*
X017500Y010350D03*
X018500Y011350D03*
X017500Y012350D03*
D16*
X009000Y018400D03*
X009000Y019400D03*
X008000Y019400D03*
X008000Y018400D03*
X007000Y018400D03*
X007000Y019400D03*
X006000Y019400D03*
X006000Y018400D03*
X005000Y019400D03*
X007000Y021300D03*
X002000Y021000D03*
X002000Y020000D03*
X002000Y019000D03*
X002000Y018000D03*
X002000Y017000D03*
X002000Y016000D03*
X002000Y015000D03*
X002000Y014000D03*
X002000Y013000D03*
X002000Y012000D03*
X002000Y011000D03*
X002000Y010000D03*
X002000Y009000D03*
X002000Y008000D03*
X002000Y007000D03*
X002000Y006000D03*
X002000Y005000D03*
X002000Y004000D03*
X002000Y003000D03*
X002000Y002000D03*
X002000Y001000D03*
X001000Y001000D03*
X001000Y002000D03*
X001000Y003000D03*
X001000Y004000D03*
X001000Y005000D03*
X001000Y006000D03*
X001000Y007000D03*
X001000Y008000D03*
X001000Y009000D03*
X001000Y010000D03*
X001000Y011000D03*
X001000Y012000D03*
X001000Y013000D03*
X001000Y014000D03*
X001000Y015000D03*
X001000Y016000D03*
X001000Y017000D03*
X001000Y018000D03*
X001000Y019000D03*
X001000Y020000D03*
X001000Y021000D03*
X001000Y022000D03*
X001000Y023000D03*
X002000Y023000D03*
X002000Y022000D03*
D17*
X007000Y022300D03*
X007000Y023300D03*
X008913Y007812D03*
X008913Y006788D03*
D18*
X005000Y018400D03*
D19*
X016593Y005794D03*
X016593Y005006D03*
D20*
X018641Y004061D03*
X018641Y006739D03*
D21*
X019300Y005500D03*
X017900Y005000D03*
X016650Y004200D03*
X015150Y004200D03*
X013700Y005000D03*
X012900Y003800D03*
X012600Y003400D03*
X011825Y003100D03*
X012300Y005000D03*
X012675Y005000D03*
X013000Y006100D03*
X013650Y007050D03*
X013800Y007500D03*
X014100Y007800D03*
X013400Y008950D03*
X012250Y009850D03*
X012500Y010500D03*
X011700Y011200D03*
X012000Y011550D03*
X010950Y010700D03*
X011200Y010000D03*
X011550Y010050D03*
X011600Y008800D03*
X011600Y008200D03*
X012300Y007400D03*
X010200Y007100D03*
X010200Y008800D03*
X009000Y008900D03*
X008600Y009200D03*
X008600Y009800D03*
X007250Y007850D03*
X005800Y008300D03*
X005800Y008900D03*
X005800Y009700D03*
X005800Y010300D03*
X005000Y010700D03*
X005800Y011300D03*
X005800Y011700D03*
X006400Y012400D03*
X005000Y012400D03*
X007200Y014300D03*
X007200Y015400D03*
X008600Y014100D03*
X008200Y013400D03*
X009550Y014100D03*
X010450Y014000D03*
X010600Y014500D03*
X011200Y014000D03*
X011950Y014100D03*
X012900Y014300D03*
X012800Y015400D03*
X011800Y015400D03*
X010800Y015400D03*
X009800Y015400D03*
X008800Y015400D03*
X009900Y012700D03*
X009650Y012400D03*
X010600Y011400D03*
X013450Y011050D03*
X013800Y010650D03*
X014900Y012000D03*
X015400Y011500D03*
X016700Y011000D03*
X016900Y012000D03*
X018375Y010725D03*
X018950Y010000D03*
X018950Y009300D03*
X018620Y008895D03*
X016600Y007500D03*
X016600Y007000D03*
X016600Y006600D03*
X015800Y007000D03*
X015800Y007350D03*
X015300Y008000D03*
X015300Y006600D03*
X014350Y006200D03*
X016200Y009400D03*
X017550Y006600D03*
X013900Y001000D03*
X009400Y001200D03*
X008900Y002500D03*
X008300Y002500D03*
X006900Y002900D03*
X005800Y004800D03*
X006100Y005300D03*
X005800Y006100D03*
X005800Y007300D03*
X004200Y005500D03*
X004200Y004800D03*
X004200Y004400D03*
X002500Y005500D03*
X002200Y006500D03*
X001400Y008500D03*
X002600Y008700D03*
X002800Y010650D03*
X003300Y016900D03*
X002900Y019800D03*
X003100Y023400D03*
X008300Y023500D03*
X010100Y018900D03*
X013800Y015400D03*
X015100Y014300D03*
X015800Y015400D03*
X014200Y012700D03*
X008200Y004800D03*
D22*
X000450Y000450D02*
X000450Y013638D01*
X000738Y013350D01*
X000770Y013350D01*
X000590Y013170D01*
X000590Y012830D01*
X000830Y012590D01*
X001170Y012590D01*
X001410Y012830D01*
X001410Y012898D01*
X001590Y013078D01*
X001590Y012830D01*
X001830Y012590D01*
X002170Y012590D01*
X002410Y012830D01*
X002410Y013170D01*
X002230Y013350D01*
X002262Y013350D01*
X002450Y013538D01*
X002450Y010862D01*
X002350Y010762D01*
X002350Y010538D01*
X002438Y010450D01*
X002450Y010438D01*
X002450Y008889D01*
X002410Y008849D01*
X002410Y009170D01*
X002170Y009410D01*
X001930Y009410D01*
X001930Y009590D01*
X002170Y009590D01*
X002410Y009830D01*
X002410Y010170D01*
X002170Y010410D01*
X001830Y010410D01*
X001590Y010170D01*
X001590Y009830D01*
X001690Y009730D01*
X001605Y009730D01*
X001500Y009625D01*
X001395Y009730D01*
X001310Y009730D01*
X001410Y009830D01*
X001410Y010170D01*
X001170Y010410D01*
X000830Y010410D01*
X000590Y010170D01*
X000590Y009830D01*
X000830Y009590D01*
X001070Y009590D01*
X001070Y009410D01*
X000830Y009410D01*
X000590Y009170D01*
X000590Y008830D01*
X000830Y008590D01*
X001170Y008590D01*
X001183Y008603D01*
X001160Y008548D01*
X001160Y008452D01*
X001183Y008397D01*
X001170Y008410D01*
X000830Y008410D01*
X000590Y008170D01*
X000590Y007830D01*
X000830Y007590D01*
X001170Y007590D01*
X001410Y007830D01*
X001410Y008170D01*
X001297Y008283D01*
X001352Y008260D01*
X001448Y008260D01*
X001536Y008297D01*
X001603Y008364D01*
X001640Y008452D01*
X001640Y008548D01*
X001750Y008438D01*
X001804Y008384D01*
X001590Y008170D01*
X001590Y007830D01*
X001830Y007590D01*
X002170Y007590D01*
X002410Y007830D01*
X002410Y008170D01*
X002230Y008350D01*
X002338Y008350D01*
X002550Y008138D01*
X002550Y008138D01*
X002638Y008050D01*
X003025Y008050D01*
X003025Y007960D01*
X003071Y007850D01*
X003025Y007740D01*
X003025Y007610D01*
X003071Y007500D01*
X003025Y007390D01*
X003025Y007260D01*
X003071Y007150D01*
X003025Y007040D01*
X003025Y006950D01*
X002438Y006950D01*
X002410Y006922D01*
X002410Y007170D01*
X002170Y007410D01*
X001830Y007410D01*
X001590Y007170D01*
X001590Y006830D01*
X001830Y006590D01*
X001978Y006590D01*
X001960Y006548D01*
X001960Y006452D01*
X001978Y006410D01*
X001830Y006410D01*
X001590Y006170D01*
X001590Y005830D01*
X001830Y005590D01*
X002170Y005590D01*
X002410Y005830D01*
X002410Y006170D01*
X002299Y006281D01*
X002336Y006297D01*
X002403Y006364D01*
X002440Y006452D01*
X002440Y006528D01*
X002562Y006650D01*
X003025Y006650D01*
X003025Y006560D01*
X003071Y006450D01*
X003025Y006340D01*
X003025Y006210D01*
X003071Y006100D01*
X003025Y005990D01*
X003025Y005880D01*
X002949Y005820D01*
X002949Y005820D01*
X002949Y005820D01*
X002850Y005614D01*
X002850Y000450D01*
X000450Y000450D01*
X000450Y000496D02*
X002850Y000496D01*
X002850Y000594D02*
X002230Y000594D01*
X002186Y000550D02*
X002450Y000814D01*
X002450Y000950D01*
X002050Y000950D01*
X002050Y001050D01*
X001950Y001050D01*
X001950Y001450D01*
X001814Y001450D01*
X001550Y001186D01*
X001550Y001050D01*
X001950Y001050D01*
X001950Y000950D01*
X001550Y000950D01*
X001550Y000814D01*
X001814Y000550D01*
X001950Y000550D01*
X001950Y000950D01*
X002050Y000950D01*
X002050Y000550D01*
X002186Y000550D01*
X002050Y000594D02*
X001950Y000594D01*
X001950Y000693D02*
X002050Y000693D01*
X002050Y000791D02*
X001950Y000791D01*
X001950Y000890D02*
X002050Y000890D01*
X002050Y000988D02*
X002850Y000988D01*
X002850Y000890D02*
X002450Y000890D01*
X002427Y000791D02*
X002850Y000791D01*
X002850Y000693D02*
X002329Y000693D01*
X002450Y001050D02*
X002050Y001050D01*
X002050Y001450D01*
X002186Y001450D01*
X002450Y001186D01*
X002450Y001050D01*
X002450Y001087D02*
X002850Y001087D01*
X002850Y001185D02*
X002450Y001185D01*
X002353Y001284D02*
X002850Y001284D01*
X002850Y001382D02*
X002254Y001382D01*
X002186Y001550D02*
X002050Y001550D01*
X002050Y001950D01*
X002050Y002050D01*
X001950Y002050D01*
X001950Y002450D01*
X001814Y002450D01*
X001550Y002186D01*
X001550Y002050D01*
X001950Y002050D01*
X001950Y001950D01*
X001550Y001950D01*
X001550Y001814D01*
X001814Y001550D01*
X001950Y001550D01*
X001950Y001950D01*
X002050Y001950D01*
X002450Y001950D01*
X002450Y001814D01*
X002186Y001550D01*
X002215Y001579D02*
X002850Y001579D01*
X002850Y001481D02*
X000450Y001481D01*
X000450Y001579D02*
X000785Y001579D01*
X000814Y001550D02*
X000550Y001814D01*
X000550Y001950D01*
X000950Y001950D01*
X000950Y002050D01*
X000950Y002450D01*
X000814Y002450D01*
X000550Y002186D01*
X000550Y002050D01*
X000950Y002050D01*
X001050Y002050D01*
X001050Y002450D01*
X001186Y002450D01*
X001450Y002186D01*
X001450Y002050D01*
X001050Y002050D01*
X001050Y001950D01*
X001450Y001950D01*
X001450Y001814D01*
X001186Y001550D01*
X001050Y001550D01*
X001050Y001950D01*
X000950Y001950D01*
X000950Y001550D01*
X000814Y001550D01*
X000814Y001450D02*
X000550Y001186D01*
X000550Y001050D01*
X000950Y001050D01*
X000950Y001450D01*
X000814Y001450D01*
X000746Y001382D02*
X000450Y001382D01*
X000450Y001284D02*
X000647Y001284D01*
X000550Y001185D02*
X000450Y001185D01*
X000450Y001087D02*
X000550Y001087D01*
X000550Y000950D02*
X000550Y000814D01*
X000814Y000550D01*
X000950Y000550D01*
X000950Y000950D01*
X000550Y000950D01*
X000550Y000890D02*
X000450Y000890D01*
X000450Y000988D02*
X000950Y000988D01*
X000950Y000950D02*
X000950Y001050D01*
X001050Y001050D01*
X001050Y001450D01*
X001186Y001450D01*
X001450Y001186D01*
X001450Y001050D01*
X001050Y001050D01*
X001050Y000950D01*
X001450Y000950D01*
X001450Y000814D01*
X001186Y000550D01*
X001050Y000550D01*
X001050Y000950D01*
X000950Y000950D01*
X000950Y000890D02*
X001050Y000890D01*
X001050Y000988D02*
X001950Y000988D01*
X001950Y001087D02*
X002050Y001087D01*
X002050Y001185D02*
X001950Y001185D01*
X001950Y001284D02*
X002050Y001284D01*
X002050Y001382D02*
X001950Y001382D01*
X001950Y001579D02*
X002050Y001579D01*
X002050Y001678D02*
X001950Y001678D01*
X001950Y001776D02*
X002050Y001776D01*
X002050Y001875D02*
X001950Y001875D01*
X001950Y001973D02*
X001050Y001973D01*
X001050Y001875D02*
X000950Y001875D01*
X000950Y001973D02*
X000450Y001973D01*
X000450Y001875D02*
X000550Y001875D01*
X000588Y001776D02*
X000450Y001776D01*
X000450Y001678D02*
X000686Y001678D01*
X000950Y001678D02*
X001050Y001678D01*
X001050Y001776D02*
X000950Y001776D01*
X000950Y001579D02*
X001050Y001579D01*
X001215Y001579D02*
X001785Y001579D01*
X001686Y001678D02*
X001314Y001678D01*
X001412Y001776D02*
X001588Y001776D01*
X001550Y001875D02*
X001450Y001875D01*
X001450Y002072D02*
X001550Y002072D01*
X001550Y002170D02*
X001450Y002170D01*
X001368Y002269D02*
X001632Y002269D01*
X001731Y002367D02*
X001269Y002367D01*
X001050Y002367D02*
X000950Y002367D01*
X000950Y002269D02*
X001050Y002269D01*
X001050Y002170D02*
X000950Y002170D01*
X000950Y002072D02*
X001050Y002072D01*
X000731Y002367D02*
X000450Y002367D01*
X000450Y002269D02*
X000632Y002269D01*
X000550Y002170D02*
X000450Y002170D01*
X000450Y002072D02*
X000550Y002072D01*
X000450Y002466D02*
X002850Y002466D01*
X002850Y002564D02*
X000450Y002564D01*
X000450Y002663D02*
X000758Y002663D01*
X000830Y002590D02*
X000590Y002830D01*
X000590Y003170D01*
X000830Y003410D01*
X001170Y003410D01*
X001410Y003170D01*
X001410Y002830D01*
X001170Y002590D01*
X000830Y002590D01*
X000659Y002761D02*
X000450Y002761D01*
X000450Y002860D02*
X000590Y002860D01*
X000590Y002958D02*
X000450Y002958D01*
X000450Y003057D02*
X000590Y003057D01*
X000590Y003155D02*
X000450Y003155D01*
X000450Y003254D02*
X000674Y003254D01*
X000772Y003352D02*
X000450Y003352D01*
X000450Y003451D02*
X002850Y003451D01*
X002850Y003549D02*
X000450Y003549D01*
X000450Y003648D02*
X000773Y003648D01*
X000830Y003590D02*
X000590Y003830D01*
X000590Y004170D01*
X000830Y004410D01*
X001170Y004410D01*
X001410Y004170D01*
X001410Y003830D01*
X001170Y003590D01*
X000830Y003590D01*
X000674Y003746D02*
X000450Y003746D01*
X000450Y003845D02*
X000590Y003845D01*
X000590Y003943D02*
X000450Y003943D01*
X000450Y004042D02*
X000590Y004042D01*
X000590Y004140D02*
X000450Y004140D01*
X000450Y004239D02*
X000659Y004239D01*
X000757Y004337D02*
X000450Y004337D01*
X000450Y004436D02*
X002850Y004436D01*
X002850Y004534D02*
X000450Y004534D01*
X000450Y004633D02*
X000788Y004633D01*
X000830Y004590D02*
X000590Y004830D01*
X000590Y005170D01*
X000830Y005410D01*
X001170Y005410D01*
X001410Y005170D01*
X001410Y004830D01*
X001170Y004590D01*
X000830Y004590D01*
X000689Y004731D02*
X000450Y004731D01*
X000450Y004830D02*
X000591Y004830D01*
X000590Y004928D02*
X000450Y004928D01*
X000450Y005027D02*
X000590Y005027D01*
X000590Y005125D02*
X000450Y005125D01*
X000450Y005224D02*
X000644Y005224D01*
X000742Y005322D02*
X000450Y005322D01*
X000450Y005421D02*
X002850Y005421D01*
X002850Y005519D02*
X000450Y005519D01*
X000450Y005618D02*
X000803Y005618D01*
X000830Y005590D02*
X000590Y005830D01*
X000590Y006170D01*
X000830Y006410D01*
X001170Y006410D01*
X001410Y006170D01*
X001410Y005830D01*
X001170Y005590D01*
X000830Y005590D01*
X000704Y005716D02*
X000450Y005716D01*
X000450Y005815D02*
X000606Y005815D01*
X000590Y005913D02*
X000450Y005913D01*
X000450Y006012D02*
X000590Y006012D01*
X000590Y006110D02*
X000450Y006110D01*
X000450Y006209D02*
X000629Y006209D01*
X000727Y006307D02*
X000450Y006307D01*
X000450Y006406D02*
X000826Y006406D01*
X000830Y006590D02*
X001170Y006590D01*
X001410Y006830D01*
X001410Y007170D01*
X001170Y007410D01*
X000830Y007410D01*
X000590Y007170D01*
X000590Y006830D01*
X000830Y006590D01*
X000818Y006603D02*
X000450Y006603D01*
X000450Y006701D02*
X000719Y006701D01*
X000621Y006800D02*
X000450Y006800D01*
X000450Y006898D02*
X000590Y006898D01*
X000590Y006997D02*
X000450Y006997D01*
X000450Y007095D02*
X000590Y007095D01*
X000614Y007194D02*
X000450Y007194D01*
X000450Y007292D02*
X000712Y007292D01*
X000811Y007391D02*
X000450Y007391D01*
X000450Y007489D02*
X003066Y007489D01*
X003034Y007588D02*
X000450Y007588D01*
X000450Y007686D02*
X000734Y007686D01*
X000636Y007785D02*
X000450Y007785D01*
X000450Y007883D02*
X000590Y007883D01*
X000590Y007982D02*
X000450Y007982D01*
X000450Y008080D02*
X000590Y008080D01*
X000599Y008179D02*
X000450Y008179D01*
X000450Y008277D02*
X000697Y008277D01*
X000796Y008376D02*
X000450Y008376D01*
X000450Y008474D02*
X001160Y008474D01*
X001170Y008573D02*
X000450Y008573D01*
X000450Y008671D02*
X000749Y008671D01*
X000651Y008770D02*
X000450Y008770D01*
X000450Y008868D02*
X000590Y008868D01*
X000590Y008967D02*
X000450Y008967D01*
X000450Y009065D02*
X000590Y009065D01*
X000590Y009164D02*
X000450Y009164D01*
X000450Y009262D02*
X000682Y009262D01*
X000781Y009361D02*
X000450Y009361D01*
X000450Y009459D02*
X001070Y009459D01*
X001070Y009558D02*
X000450Y009558D01*
X000450Y009656D02*
X000764Y009656D01*
X000666Y009755D02*
X000450Y009755D01*
X000450Y009853D02*
X000590Y009853D01*
X000590Y009952D02*
X000450Y009952D01*
X000450Y010050D02*
X000590Y010050D01*
X000590Y010149D02*
X000450Y010149D01*
X000450Y010247D02*
X000667Y010247D01*
X000766Y010346D02*
X000450Y010346D01*
X000450Y010444D02*
X002444Y010444D01*
X002438Y010450D02*
X002438Y010450D01*
X002450Y010346D02*
X002234Y010346D01*
X002333Y010247D02*
X002450Y010247D01*
X002450Y010149D02*
X002410Y010149D01*
X002410Y010050D02*
X002450Y010050D01*
X002450Y009952D02*
X002410Y009952D01*
X002410Y009853D02*
X002450Y009853D01*
X002450Y009755D02*
X002334Y009755D01*
X002236Y009656D02*
X002450Y009656D01*
X002450Y009558D02*
X001930Y009558D01*
X001930Y009459D02*
X002450Y009459D01*
X002450Y009361D02*
X002219Y009361D01*
X002318Y009262D02*
X002450Y009262D01*
X002450Y009164D02*
X002410Y009164D01*
X002410Y009065D02*
X002450Y009065D01*
X002450Y008967D02*
X002410Y008967D01*
X002410Y008868D02*
X002429Y008868D01*
X002411Y008277D02*
X002303Y008277D01*
X002401Y008179D02*
X002509Y008179D01*
X002410Y008080D02*
X002608Y008080D01*
X002410Y007982D02*
X003025Y007982D01*
X003057Y007883D02*
X002410Y007883D01*
X002364Y007785D02*
X003044Y007785D01*
X003025Y007686D02*
X002266Y007686D01*
X002189Y007391D02*
X003025Y007391D01*
X003025Y007292D02*
X002288Y007292D01*
X002386Y007194D02*
X003053Y007194D01*
X003048Y007095D02*
X002410Y007095D01*
X002410Y006997D02*
X003025Y006997D01*
X003025Y006603D02*
X002515Y006603D01*
X002440Y006504D02*
X003048Y006504D01*
X003052Y006406D02*
X002421Y006406D01*
X002346Y006307D02*
X003025Y006307D01*
X003026Y006209D02*
X002371Y006209D01*
X002410Y006110D02*
X003067Y006110D01*
X003034Y006012D02*
X002410Y006012D01*
X002410Y005913D02*
X003025Y005913D01*
X002947Y005815D02*
X002394Y005815D01*
X002296Y005716D02*
X002899Y005716D01*
X002852Y005618D02*
X002197Y005618D01*
X002170Y005410D02*
X001830Y005410D01*
X001590Y005170D01*
X001590Y004830D01*
X001830Y004590D01*
X002170Y004590D01*
X002410Y004830D01*
X002410Y005170D01*
X002170Y005410D01*
X002258Y005322D02*
X002850Y005322D01*
X002850Y005224D02*
X002356Y005224D01*
X002410Y005125D02*
X002850Y005125D01*
X002850Y005027D02*
X002410Y005027D01*
X002410Y004928D02*
X002850Y004928D01*
X002850Y004830D02*
X002409Y004830D01*
X002311Y004731D02*
X002850Y004731D01*
X002850Y004633D02*
X002212Y004633D01*
X002170Y004410D02*
X001830Y004410D01*
X001590Y004170D01*
X001590Y003830D01*
X001830Y003590D01*
X002170Y003590D01*
X002410Y003830D01*
X002410Y004170D01*
X002170Y004410D01*
X002243Y004337D02*
X002850Y004337D01*
X002850Y004239D02*
X002341Y004239D01*
X002410Y004140D02*
X002850Y004140D01*
X002850Y004042D02*
X002410Y004042D01*
X002410Y003943D02*
X002850Y003943D01*
X002850Y003845D02*
X002410Y003845D01*
X002326Y003746D02*
X002850Y003746D01*
X002850Y003648D02*
X002227Y003648D01*
X002170Y003410D02*
X001830Y003410D01*
X001590Y003170D01*
X001590Y002830D01*
X001830Y002590D01*
X002170Y002590D01*
X002410Y002830D01*
X002410Y003170D01*
X002170Y003410D01*
X002228Y003352D02*
X002850Y003352D01*
X002850Y003254D02*
X002326Y003254D01*
X002410Y003155D02*
X002850Y003155D01*
X002850Y003057D02*
X002410Y003057D01*
X002410Y002958D02*
X002850Y002958D01*
X002850Y002860D02*
X002410Y002860D01*
X002341Y002761D02*
X002850Y002761D01*
X002850Y002663D02*
X002242Y002663D01*
X002186Y002450D02*
X002050Y002450D01*
X002050Y002050D01*
X002450Y002050D01*
X002450Y002186D01*
X002186Y002450D01*
X002269Y002367D02*
X002850Y002367D01*
X002850Y002269D02*
X002368Y002269D01*
X002450Y002170D02*
X002850Y002170D01*
X002850Y002072D02*
X002450Y002072D01*
X002450Y001875D02*
X002850Y001875D01*
X002850Y001973D02*
X002050Y001973D01*
X002050Y002072D02*
X001950Y002072D01*
X001950Y002170D02*
X002050Y002170D01*
X002050Y002269D02*
X001950Y002269D01*
X001950Y002367D02*
X002050Y002367D01*
X001758Y002663D02*
X001242Y002663D01*
X001341Y002761D02*
X001659Y002761D01*
X001590Y002860D02*
X001410Y002860D01*
X001410Y002958D02*
X001590Y002958D01*
X001590Y003057D02*
X001410Y003057D01*
X001410Y003155D02*
X001590Y003155D01*
X001674Y003254D02*
X001326Y003254D01*
X001228Y003352D02*
X001772Y003352D01*
X001773Y003648D02*
X001227Y003648D01*
X001326Y003746D02*
X001674Y003746D01*
X001590Y003845D02*
X001410Y003845D01*
X001410Y003943D02*
X001590Y003943D01*
X001590Y004042D02*
X001410Y004042D01*
X001410Y004140D02*
X001590Y004140D01*
X001659Y004239D02*
X001341Y004239D01*
X001243Y004337D02*
X001757Y004337D01*
X001788Y004633D02*
X001212Y004633D01*
X001311Y004731D02*
X001689Y004731D01*
X001591Y004830D02*
X001409Y004830D01*
X001410Y004928D02*
X001590Y004928D01*
X001590Y005027D02*
X001410Y005027D01*
X001410Y005125D02*
X001590Y005125D01*
X001644Y005224D02*
X001356Y005224D01*
X001258Y005322D02*
X001742Y005322D01*
X001803Y005618D02*
X001197Y005618D01*
X001296Y005716D02*
X001704Y005716D01*
X001606Y005815D02*
X001394Y005815D01*
X001410Y005913D02*
X001590Y005913D01*
X001590Y006012D02*
X001410Y006012D01*
X001410Y006110D02*
X001590Y006110D01*
X001629Y006209D02*
X001371Y006209D01*
X001273Y006307D02*
X001727Y006307D01*
X001826Y006406D02*
X001174Y006406D01*
X001182Y006603D02*
X001818Y006603D01*
X001719Y006701D02*
X001281Y006701D01*
X001379Y006800D02*
X001621Y006800D01*
X001590Y006898D02*
X001410Y006898D01*
X001410Y006997D02*
X001590Y006997D01*
X001590Y007095D02*
X001410Y007095D01*
X001386Y007194D02*
X001614Y007194D01*
X001712Y007292D02*
X001288Y007292D01*
X001189Y007391D02*
X001811Y007391D01*
X001734Y007686D02*
X001266Y007686D01*
X001364Y007785D02*
X001636Y007785D01*
X001590Y007883D02*
X001410Y007883D01*
X001410Y007982D02*
X001590Y007982D01*
X001590Y008080D02*
X001410Y008080D01*
X001401Y008179D02*
X001599Y008179D01*
X001697Y008277D02*
X001489Y008277D01*
X001608Y008376D02*
X001796Y008376D01*
X001714Y008474D02*
X001640Y008474D01*
X001640Y008548D02*
X001640Y008548D01*
X001311Y008277D02*
X001303Y008277D01*
X001469Y009656D02*
X001531Y009656D01*
X001666Y009755D02*
X001334Y009755D01*
X001410Y009853D02*
X001590Y009853D01*
X001590Y009952D02*
X001410Y009952D01*
X001410Y010050D02*
X001590Y010050D01*
X001590Y010149D02*
X001410Y010149D01*
X001333Y010247D02*
X001667Y010247D01*
X001766Y010346D02*
X001234Y010346D01*
X001170Y010590D02*
X000830Y010590D01*
X000590Y010830D01*
X000590Y011170D01*
X000830Y011410D01*
X001170Y011410D01*
X001410Y011170D01*
X001410Y010830D01*
X001170Y010590D01*
X001221Y010641D02*
X001779Y010641D01*
X001830Y010590D02*
X002170Y010590D01*
X002410Y010830D01*
X002410Y011170D01*
X002170Y011410D01*
X001830Y011410D01*
X001590Y011170D01*
X001590Y010830D01*
X001830Y010590D01*
X001681Y010740D02*
X001319Y010740D01*
X001410Y010838D02*
X001590Y010838D01*
X001590Y010937D02*
X001410Y010937D01*
X001410Y011035D02*
X001590Y011035D01*
X001590Y011134D02*
X001410Y011134D01*
X001348Y011232D02*
X001652Y011232D01*
X001751Y011331D02*
X001249Y011331D01*
X001170Y011590D02*
X001410Y011830D01*
X001410Y012170D01*
X001170Y012410D01*
X000830Y012410D01*
X000590Y012170D01*
X000590Y011830D01*
X000830Y011590D01*
X001170Y011590D01*
X001206Y011626D02*
X001794Y011626D01*
X001830Y011590D02*
X002170Y011590D01*
X002410Y011830D01*
X002410Y012170D01*
X002170Y012410D01*
X001830Y012410D01*
X001590Y012170D01*
X001590Y011830D01*
X001830Y011590D01*
X001696Y011725D02*
X001304Y011725D01*
X001403Y011823D02*
X001597Y011823D01*
X001590Y011922D02*
X001410Y011922D01*
X001410Y012020D02*
X001590Y012020D01*
X001590Y012119D02*
X001410Y012119D01*
X001363Y012217D02*
X001637Y012217D01*
X001736Y012316D02*
X001264Y012316D01*
X001191Y012611D02*
X001809Y012611D01*
X001711Y012710D02*
X001289Y012710D01*
X001388Y012808D02*
X001612Y012808D01*
X001590Y012907D02*
X001419Y012907D01*
X001517Y013005D02*
X001590Y013005D01*
X002191Y012611D02*
X002450Y012611D01*
X002450Y012513D02*
X000450Y012513D01*
X000450Y012611D02*
X000809Y012611D01*
X000711Y012710D02*
X000450Y012710D01*
X000450Y012808D02*
X000612Y012808D01*
X000590Y012907D02*
X000450Y012907D01*
X000450Y013005D02*
X000590Y013005D01*
X000590Y013104D02*
X000450Y013104D01*
X000450Y013202D02*
X000622Y013202D01*
X000721Y013301D02*
X000450Y013301D01*
X000450Y013399D02*
X000689Y013399D01*
X000590Y013498D02*
X000450Y013498D01*
X000450Y013596D02*
X000492Y013596D01*
X000450Y012414D02*
X002450Y012414D01*
X002450Y012316D02*
X002264Y012316D01*
X002363Y012217D02*
X002450Y012217D01*
X002450Y012119D02*
X002410Y012119D01*
X002410Y012020D02*
X002450Y012020D01*
X002450Y011922D02*
X002410Y011922D01*
X002403Y011823D02*
X002450Y011823D01*
X002450Y011725D02*
X002304Y011725D01*
X002206Y011626D02*
X002450Y011626D01*
X002450Y011528D02*
X000450Y011528D01*
X000450Y011626D02*
X000794Y011626D01*
X000696Y011725D02*
X000450Y011725D01*
X000450Y011823D02*
X000597Y011823D01*
X000590Y011922D02*
X000450Y011922D01*
X000450Y012020D02*
X000590Y012020D01*
X000590Y012119D02*
X000450Y012119D01*
X000450Y012217D02*
X000637Y012217D01*
X000736Y012316D02*
X000450Y012316D01*
X000450Y011429D02*
X002450Y011429D01*
X002450Y011331D02*
X002249Y011331D01*
X002348Y011232D02*
X002450Y011232D01*
X002450Y011134D02*
X002410Y011134D01*
X002410Y011035D02*
X002450Y011035D01*
X002450Y010937D02*
X002410Y010937D01*
X002410Y010838D02*
X002426Y010838D01*
X002350Y010740D02*
X002319Y010740D01*
X002350Y010641D02*
X002221Y010641D01*
X002350Y010543D02*
X000450Y010543D01*
X000450Y010641D02*
X000779Y010641D01*
X000681Y010740D02*
X000450Y010740D01*
X000450Y010838D02*
X000590Y010838D01*
X000590Y010937D02*
X000450Y010937D01*
X000450Y011035D02*
X000590Y011035D01*
X000590Y011134D02*
X000450Y011134D01*
X000450Y011232D02*
X000652Y011232D01*
X000751Y011331D02*
X000450Y011331D01*
X002289Y012710D02*
X002450Y012710D01*
X002450Y012808D02*
X002388Y012808D01*
X002410Y012907D02*
X002450Y012907D01*
X002450Y013005D02*
X002410Y013005D01*
X002410Y013104D02*
X002450Y013104D01*
X002450Y013202D02*
X002378Y013202D01*
X002450Y013301D02*
X002279Y013301D01*
X002311Y013399D02*
X002450Y013399D01*
X002450Y013498D02*
X002410Y013498D01*
X002750Y013498D02*
X002850Y013498D01*
X002850Y013596D02*
X002750Y013596D01*
X002750Y013695D02*
X002850Y013695D01*
X002850Y013793D02*
X002750Y013793D01*
X002750Y013892D02*
X002850Y013892D01*
X002850Y013990D02*
X002750Y013990D01*
X002750Y014089D02*
X002850Y014089D01*
X002850Y014187D02*
X002750Y014187D01*
X002750Y014286D02*
X002850Y014286D01*
X002850Y014384D02*
X002750Y014384D01*
X002750Y014483D02*
X002850Y014483D01*
X002850Y014581D02*
X002750Y014581D01*
X002750Y014680D02*
X002850Y014680D01*
X002850Y014778D02*
X002750Y014778D01*
X002750Y014877D02*
X002850Y014877D01*
X002850Y014975D02*
X002750Y014975D01*
X002750Y015074D02*
X002850Y015074D01*
X002850Y015172D02*
X002750Y015172D01*
X002750Y015271D02*
X002849Y015271D01*
X002849Y015257D02*
X002850Y015254D01*
X002850Y011486D01*
X002949Y011280D01*
X003025Y011220D01*
X003025Y011135D01*
X003074Y011016D01*
X003078Y011012D01*
X003074Y011009D01*
X003025Y010890D01*
X003025Y010800D01*
X002989Y010800D01*
X002936Y010853D01*
X002848Y010890D01*
X002752Y010890D01*
X002750Y010889D01*
X002750Y016938D01*
X003462Y017650D01*
X006062Y017650D01*
X006150Y017738D01*
X006550Y018138D01*
X006550Y018662D01*
X006462Y018750D01*
X006196Y019016D01*
X006410Y019230D01*
X006410Y019570D01*
X006170Y019810D01*
X005830Y019810D01*
X005590Y019570D01*
X005590Y019230D01*
X005830Y018990D01*
X005850Y018990D01*
X005850Y018938D01*
X005978Y018810D01*
X005830Y018810D01*
X005590Y018570D01*
X005590Y018230D01*
X005604Y018216D01*
X005538Y018150D01*
X005410Y018150D01*
X005410Y018746D01*
X005346Y018810D01*
X004859Y018810D01*
X003090Y020579D01*
X003090Y020765D01*
X003130Y020805D01*
X003130Y020995D01*
X002995Y021130D01*
X002805Y021130D01*
X002765Y021090D01*
X002690Y021090D01*
X002690Y021810D01*
X004065Y021810D01*
X004105Y021770D01*
X004295Y021770D01*
X004430Y021905D01*
X004430Y022095D01*
X004295Y022230D01*
X004105Y022230D01*
X004065Y022190D01*
X002390Y022190D01*
X002170Y022410D01*
X001830Y022410D01*
X001590Y022170D01*
X001590Y021830D01*
X001830Y021590D01*
X002170Y021590D01*
X002310Y021730D01*
X002310Y021270D01*
X002170Y021410D01*
X001830Y021410D01*
X001590Y021170D01*
X001590Y020830D01*
X001804Y020616D01*
X001750Y020562D01*
X001384Y020196D01*
X001170Y020410D01*
X000830Y020410D01*
X000650Y020230D01*
X000650Y020770D01*
X000830Y020590D01*
X001170Y020590D01*
X001410Y020830D01*
X001410Y021170D01*
X001230Y021350D01*
X001325Y021350D01*
X001405Y021270D01*
X001595Y021270D01*
X001730Y021405D01*
X001730Y021595D01*
X001595Y021730D01*
X001405Y021730D01*
X001325Y021650D01*
X001230Y021650D01*
X001410Y021830D01*
X001410Y022170D01*
X001170Y022410D01*
X000830Y022410D01*
X000590Y022170D01*
X000590Y021830D01*
X000770Y021650D01*
X000738Y021650D01*
X000650Y021562D01*
X000450Y021362D01*
X000450Y023650D01*
X006643Y023650D01*
X006619Y023626D01*
X006572Y023562D01*
X006537Y023492D01*
X006512Y023417D01*
X006502Y023350D01*
X006950Y023350D01*
X006950Y023250D01*
X007050Y023250D01*
X007050Y023350D01*
X007498Y023350D01*
X007488Y023417D01*
X007463Y023492D01*
X007428Y023562D01*
X007381Y023626D01*
X007357Y023650D01*
X010950Y023650D01*
X010950Y017450D01*
X005103Y017450D01*
X004817Y017457D01*
X004253Y017322D01*
X003744Y017045D01*
X003324Y016646D01*
X003022Y016152D01*
X002858Y015596D01*
X002851Y015353D01*
X002850Y015350D01*
X002850Y015303D01*
X002849Y015257D01*
X002852Y015369D02*
X002750Y015369D01*
X002750Y015468D02*
X002854Y015468D01*
X002857Y015566D02*
X002750Y015566D01*
X002750Y015665D02*
X002878Y015665D01*
X002858Y015596D02*
X002858Y015596D01*
X002907Y015763D02*
X002750Y015763D01*
X002750Y015862D02*
X002936Y015862D01*
X002965Y015960D02*
X002750Y015960D01*
X002750Y016059D02*
X002994Y016059D01*
X003022Y016152D02*
X003022Y016152D01*
X003025Y016157D02*
X002750Y016157D01*
X002750Y016256D02*
X003085Y016256D01*
X003146Y016354D02*
X002750Y016354D01*
X002750Y016453D02*
X003206Y016453D01*
X003266Y016551D02*
X002750Y016551D01*
X002750Y016650D02*
X003328Y016650D01*
X003324Y016646D02*
X003324Y016646D01*
X003432Y016748D02*
X002750Y016748D01*
X002750Y016847D02*
X003535Y016847D01*
X003639Y016945D02*
X002757Y016945D01*
X002856Y017044D02*
X003743Y017044D01*
X003744Y017045D02*
X003744Y017045D01*
X003923Y017142D02*
X002954Y017142D01*
X003053Y017241D02*
X004104Y017241D01*
X004253Y017322D02*
X004253Y017322D01*
X004325Y017339D02*
X003151Y017339D01*
X003250Y017438D02*
X004735Y017438D01*
X004817Y017457D02*
X004817Y017457D01*
X004590Y018150D02*
X004062Y018150D01*
X002396Y019816D01*
X002410Y019830D01*
X002410Y020170D01*
X002310Y020270D01*
X002395Y020270D01*
X002530Y020405D01*
X002530Y020595D01*
X002395Y020730D01*
X002310Y020730D01*
X002406Y020826D01*
X002421Y020810D01*
X002521Y020710D01*
X002710Y020710D01*
X002710Y020421D01*
X004590Y018541D01*
X004590Y018150D01*
X004590Y018226D02*
X003987Y018226D01*
X003888Y018324D02*
X004590Y018324D01*
X004590Y018423D02*
X003790Y018423D01*
X003691Y018521D02*
X004590Y018521D01*
X004512Y018620D02*
X003593Y018620D01*
X003494Y018718D02*
X004413Y018718D01*
X004315Y018817D02*
X003396Y018817D01*
X003297Y018915D02*
X004216Y018915D01*
X004118Y019014D02*
X003199Y019014D01*
X003100Y019112D02*
X004019Y019112D01*
X003921Y019211D02*
X003002Y019211D01*
X002903Y019309D02*
X003822Y019309D01*
X003724Y019408D02*
X002805Y019408D01*
X002706Y019506D02*
X003625Y019506D01*
X003527Y019605D02*
X002608Y019605D01*
X002509Y019703D02*
X003428Y019703D01*
X003330Y019802D02*
X002411Y019802D01*
X002410Y019900D02*
X003231Y019900D01*
X003133Y019999D02*
X002410Y019999D01*
X002410Y020097D02*
X003034Y020097D01*
X002936Y020196D02*
X002384Y020196D01*
X002419Y020294D02*
X002837Y020294D01*
X002739Y020393D02*
X002518Y020393D01*
X002530Y020491D02*
X002710Y020491D01*
X002710Y020590D02*
X002530Y020590D01*
X002437Y020688D02*
X002710Y020688D01*
X003090Y020688D02*
X007343Y020688D01*
X007245Y020787D02*
X003112Y020787D01*
X003130Y020885D02*
X007146Y020885D01*
X007141Y020890D02*
X007810Y020221D01*
X007810Y019790D01*
X007590Y019570D01*
X007590Y019230D01*
X007830Y018990D01*
X008170Y018990D01*
X008410Y019230D01*
X008410Y019570D01*
X008190Y019790D01*
X008190Y020379D01*
X007410Y021159D01*
X007410Y021470D01*
X007170Y021710D01*
X006830Y021710D01*
X006590Y021470D01*
X006590Y021130D01*
X006830Y020890D01*
X007141Y020890D01*
X007410Y021181D02*
X010950Y021181D01*
X010950Y021279D02*
X007410Y021279D01*
X007410Y021378D02*
X010950Y021378D01*
X010950Y021476D02*
X007404Y021476D01*
X007305Y021575D02*
X010950Y021575D01*
X010950Y021673D02*
X007207Y021673D01*
X007164Y021870D02*
X010950Y021870D01*
X010950Y021772D02*
X004297Y021772D01*
X004395Y021870D02*
X006836Y021870D01*
X006908Y021840D02*
X007091Y021840D01*
X007261Y021910D01*
X007390Y022039D01*
X007460Y022208D01*
X007460Y022391D01*
X007390Y022561D01*
X007261Y022690D01*
X007091Y022760D01*
X006908Y022760D01*
X006739Y022690D01*
X006610Y022561D01*
X006540Y022391D01*
X006540Y022208D01*
X006610Y022039D01*
X006739Y021910D01*
X006908Y021840D01*
X006793Y021673D02*
X002690Y021673D01*
X002690Y021575D02*
X006695Y021575D01*
X006596Y021476D02*
X002690Y021476D01*
X002690Y021378D02*
X006590Y021378D01*
X006590Y021279D02*
X002690Y021279D01*
X002690Y021181D02*
X006590Y021181D01*
X006638Y021082D02*
X003043Y021082D01*
X003130Y020984D02*
X006737Y020984D01*
X007442Y020590D02*
X003090Y020590D01*
X003178Y020491D02*
X007540Y020491D01*
X007639Y020393D02*
X003276Y020393D01*
X003375Y020294D02*
X007737Y020294D01*
X007810Y020196D02*
X003473Y020196D01*
X003572Y020097D02*
X007810Y020097D01*
X007810Y019999D02*
X003670Y019999D01*
X003769Y019900D02*
X007810Y019900D01*
X007810Y019802D02*
X007178Y019802D01*
X007170Y019810D02*
X006830Y019810D01*
X006590Y019570D01*
X006590Y019230D01*
X006830Y018990D01*
X007170Y018990D01*
X007410Y019230D01*
X007410Y019570D01*
X007170Y019810D01*
X007277Y019703D02*
X007723Y019703D01*
X007625Y019605D02*
X007375Y019605D01*
X007410Y019506D02*
X007590Y019506D01*
X007590Y019408D02*
X007410Y019408D01*
X007410Y019309D02*
X007590Y019309D01*
X007610Y019211D02*
X007390Y019211D01*
X007292Y019112D02*
X007708Y019112D01*
X007807Y019014D02*
X007193Y019014D01*
X007170Y018810D02*
X006830Y018810D01*
X006590Y018570D01*
X006590Y018230D01*
X006830Y017990D01*
X007170Y017990D01*
X007410Y018230D01*
X007410Y018570D01*
X007170Y018810D01*
X007262Y018718D02*
X007738Y018718D01*
X007830Y018810D02*
X007590Y018570D01*
X007590Y018230D01*
X007830Y017990D01*
X008170Y017990D01*
X008410Y018230D01*
X008410Y018570D01*
X008170Y018810D01*
X007830Y018810D01*
X007640Y018620D02*
X007360Y018620D01*
X007410Y018521D02*
X007590Y018521D01*
X007590Y018423D02*
X007410Y018423D01*
X007410Y018324D02*
X007590Y018324D01*
X007595Y018226D02*
X007405Y018226D01*
X007307Y018127D02*
X007693Y018127D01*
X007792Y018029D02*
X007208Y018029D01*
X006792Y018029D02*
X006441Y018029D01*
X006539Y018127D02*
X006693Y018127D01*
X006595Y018226D02*
X006550Y018226D01*
X006550Y018324D02*
X006590Y018324D01*
X006590Y018423D02*
X006550Y018423D01*
X006550Y018521D02*
X006590Y018521D01*
X006550Y018620D02*
X006640Y018620D01*
X006738Y018718D02*
X006494Y018718D01*
X006396Y018817D02*
X008780Y018817D01*
X008814Y018850D02*
X008550Y018586D01*
X008550Y018450D01*
X008950Y018450D01*
X008950Y018850D01*
X008814Y018850D01*
X008950Y018817D02*
X009050Y018817D01*
X009050Y018850D02*
X009186Y018850D01*
X009450Y018586D01*
X009450Y018450D01*
X009050Y018450D01*
X009050Y018350D01*
X009450Y018350D01*
X009450Y018214D01*
X009186Y017950D01*
X009050Y017950D01*
X009050Y018350D01*
X008950Y018350D01*
X008950Y017950D01*
X008814Y017950D01*
X008550Y018214D01*
X008550Y018350D01*
X008950Y018350D01*
X008950Y018450D01*
X009050Y018450D01*
X009050Y018850D01*
X009050Y018718D02*
X008950Y018718D01*
X008950Y018620D02*
X009050Y018620D01*
X009050Y018521D02*
X008950Y018521D01*
X008950Y018423D02*
X008410Y018423D01*
X008410Y018521D02*
X008550Y018521D01*
X008583Y018620D02*
X008360Y018620D01*
X008262Y018718D02*
X008682Y018718D01*
X008830Y018990D02*
X009170Y018990D01*
X009410Y019230D01*
X009410Y019570D01*
X009170Y019810D01*
X008830Y019810D01*
X008590Y019570D01*
X008590Y019230D01*
X008830Y018990D01*
X008807Y019014D02*
X008193Y019014D01*
X008292Y019112D02*
X008708Y019112D01*
X008610Y019211D02*
X008390Y019211D01*
X008410Y019309D02*
X008590Y019309D01*
X008590Y019408D02*
X008410Y019408D01*
X008410Y019506D02*
X008590Y019506D01*
X008625Y019605D02*
X008375Y019605D01*
X008277Y019703D02*
X008723Y019703D01*
X008822Y019802D02*
X008190Y019802D01*
X008190Y019900D02*
X010950Y019900D01*
X010950Y019802D02*
X009178Y019802D01*
X009277Y019703D02*
X010950Y019703D01*
X010950Y019605D02*
X009375Y019605D01*
X009410Y019506D02*
X010950Y019506D01*
X010950Y019408D02*
X009410Y019408D01*
X009410Y019309D02*
X010950Y019309D01*
X010950Y019211D02*
X009390Y019211D01*
X009292Y019112D02*
X010950Y019112D01*
X010950Y019014D02*
X009193Y019014D01*
X009220Y018817D02*
X010950Y018817D01*
X010950Y018915D02*
X006297Y018915D01*
X006199Y019014D02*
X006807Y019014D01*
X006708Y019112D02*
X006292Y019112D01*
X006390Y019211D02*
X006610Y019211D01*
X006590Y019309D02*
X006410Y019309D01*
X006410Y019408D02*
X006590Y019408D01*
X006590Y019506D02*
X006410Y019506D01*
X006375Y019605D02*
X006625Y019605D01*
X006723Y019703D02*
X006277Y019703D01*
X006178Y019802D02*
X006822Y019802D01*
X005822Y019802D02*
X005178Y019802D01*
X005170Y019810D02*
X005410Y019570D01*
X005410Y019230D01*
X005170Y018990D01*
X004830Y018990D01*
X004590Y019230D01*
X004590Y019570D01*
X004830Y019810D01*
X005170Y019810D01*
X005277Y019703D02*
X005723Y019703D01*
X005625Y019605D02*
X005375Y019605D01*
X005410Y019506D02*
X005590Y019506D01*
X005590Y019408D02*
X005410Y019408D01*
X005410Y019309D02*
X005590Y019309D01*
X005610Y019211D02*
X005390Y019211D01*
X005292Y019112D02*
X005708Y019112D01*
X005807Y019014D02*
X005193Y019014D01*
X005410Y018718D02*
X005738Y018718D01*
X005640Y018620D02*
X005410Y018620D01*
X005410Y018521D02*
X005590Y018521D01*
X005590Y018423D02*
X005410Y018423D01*
X005410Y018324D02*
X005590Y018324D01*
X005595Y018226D02*
X005410Y018226D01*
X004852Y018817D02*
X005971Y018817D01*
X005873Y018915D02*
X004754Y018915D01*
X004807Y019014D02*
X004655Y019014D01*
X004708Y019112D02*
X004557Y019112D01*
X004610Y019211D02*
X004458Y019211D01*
X004360Y019309D02*
X004590Y019309D01*
X004590Y019408D02*
X004261Y019408D01*
X004163Y019506D02*
X004590Y019506D01*
X004625Y019605D02*
X004064Y019605D01*
X003966Y019703D02*
X004723Y019703D01*
X004822Y019802D02*
X003867Y019802D01*
X002445Y020787D02*
X002366Y020787D01*
X002310Y021279D02*
X002301Y021279D01*
X002310Y021378D02*
X002202Y021378D01*
X002310Y021476D02*
X001730Y021476D01*
X001730Y021575D02*
X002310Y021575D01*
X002310Y021673D02*
X002253Y021673D01*
X002690Y021772D02*
X004103Y021772D01*
X004430Y021969D02*
X006681Y021969D01*
X006599Y022067D02*
X004430Y022067D01*
X004360Y022166D02*
X006558Y022166D01*
X006540Y022264D02*
X002316Y022264D01*
X002217Y022363D02*
X006540Y022363D01*
X006569Y022461D02*
X000450Y022461D01*
X000450Y022363D02*
X000783Y022363D01*
X000684Y022264D02*
X000450Y022264D01*
X000450Y022166D02*
X000590Y022166D01*
X000590Y022067D02*
X000450Y022067D01*
X000450Y021969D02*
X000590Y021969D01*
X000590Y021870D02*
X000450Y021870D01*
X000450Y021772D02*
X000649Y021772D01*
X000747Y021673D02*
X000450Y021673D01*
X000450Y021575D02*
X000662Y021575D01*
X000564Y021476D02*
X000450Y021476D01*
X000450Y021378D02*
X000465Y021378D01*
X000650Y020688D02*
X000732Y020688D01*
X000650Y020590D02*
X001777Y020590D01*
X001750Y020562D02*
X001750Y020562D01*
X001679Y020491D02*
X000650Y020491D01*
X000650Y020393D02*
X000813Y020393D01*
X000714Y020294D02*
X000650Y020294D01*
X001187Y020393D02*
X001580Y020393D01*
X001482Y020294D02*
X001286Y020294D01*
X001268Y020688D02*
X001732Y020688D01*
X001634Y020787D02*
X001366Y020787D01*
X001410Y020885D02*
X001590Y020885D01*
X001590Y020984D02*
X001410Y020984D01*
X001410Y021082D02*
X001590Y021082D01*
X001601Y021181D02*
X001399Y021181D01*
X001396Y021279D02*
X001301Y021279D01*
X001604Y021279D02*
X001699Y021279D01*
X001703Y021378D02*
X001798Y021378D01*
X001747Y021673D02*
X001652Y021673D01*
X001649Y021772D02*
X001351Y021772D01*
X001348Y021673D02*
X001253Y021673D01*
X001410Y021870D02*
X001590Y021870D01*
X001590Y021969D02*
X001410Y021969D01*
X001410Y022067D02*
X001590Y022067D01*
X001590Y022166D02*
X001410Y022166D01*
X001316Y022264D02*
X001684Y022264D01*
X001783Y022363D02*
X001217Y022363D01*
X001186Y022550D02*
X001450Y022814D01*
X001450Y022950D01*
X001050Y022950D01*
X001050Y023050D01*
X000950Y023050D01*
X000950Y023450D01*
X000814Y023450D01*
X000550Y023186D01*
X000550Y023050D01*
X000950Y023050D01*
X000950Y022950D01*
X000550Y022950D01*
X000550Y022814D01*
X000814Y022550D01*
X000950Y022550D01*
X000950Y022950D01*
X001050Y022950D01*
X001050Y022550D01*
X001186Y022550D01*
X001196Y022560D02*
X001804Y022560D01*
X001814Y022550D02*
X001550Y022814D01*
X001550Y022950D01*
X001950Y022950D01*
X001950Y023050D01*
X001950Y023450D01*
X001814Y023450D01*
X001550Y023186D01*
X001550Y023050D01*
X001950Y023050D01*
X002050Y023050D01*
X002050Y023450D01*
X002186Y023450D01*
X002450Y023186D01*
X002450Y023050D01*
X002050Y023050D01*
X002050Y022950D01*
X002450Y022950D01*
X002450Y022814D01*
X002186Y022550D01*
X002050Y022550D01*
X002050Y022950D01*
X001950Y022950D01*
X001950Y022550D01*
X001814Y022550D01*
X001950Y022560D02*
X002050Y022560D01*
X002050Y022658D02*
X001950Y022658D01*
X001950Y022757D02*
X002050Y022757D01*
X002050Y022855D02*
X001950Y022855D01*
X001950Y022954D02*
X001050Y022954D01*
X001050Y023050D02*
X001450Y023050D01*
X001450Y023186D01*
X001186Y023450D01*
X001050Y023450D01*
X001050Y023050D01*
X001050Y023052D02*
X000950Y023052D01*
X000950Y022954D02*
X000450Y022954D01*
X000450Y023052D02*
X000550Y023052D01*
X000550Y023151D02*
X000450Y023151D01*
X000450Y023249D02*
X000613Y023249D01*
X000711Y023348D02*
X000450Y023348D01*
X000450Y023446D02*
X000810Y023446D01*
X000950Y023446D02*
X001050Y023446D01*
X001050Y023348D02*
X000950Y023348D01*
X000950Y023249D02*
X001050Y023249D01*
X001050Y023151D02*
X000950Y023151D01*
X001190Y023446D02*
X001810Y023446D01*
X001711Y023348D02*
X001289Y023348D01*
X001387Y023249D02*
X001613Y023249D01*
X001550Y023151D02*
X001450Y023151D01*
X001450Y023052D02*
X001550Y023052D01*
X001550Y022855D02*
X001450Y022855D01*
X001393Y022757D02*
X001607Y022757D01*
X001706Y022658D02*
X001294Y022658D01*
X001050Y022658D02*
X000950Y022658D01*
X000950Y022560D02*
X001050Y022560D01*
X001050Y022757D02*
X000950Y022757D01*
X000950Y022855D02*
X001050Y022855D01*
X000804Y022560D02*
X000450Y022560D01*
X000450Y022658D02*
X000706Y022658D01*
X000607Y022757D02*
X000450Y022757D01*
X000450Y022855D02*
X000550Y022855D01*
X000450Y023545D02*
X006563Y023545D01*
X006522Y023446D02*
X002190Y023446D01*
X002289Y023348D02*
X006950Y023348D01*
X006950Y023250D02*
X006502Y023250D01*
X006512Y023183D01*
X006537Y023108D01*
X006572Y023038D01*
X006619Y022974D01*
X006674Y022919D01*
X006738Y022872D01*
X006808Y022837D01*
X006883Y022812D01*
X006950Y022802D01*
X006950Y023250D01*
X006950Y023249D02*
X007050Y023249D01*
X007050Y023250D02*
X007050Y022802D01*
X007117Y022812D01*
X007192Y022837D01*
X007262Y022872D01*
X007326Y022919D01*
X007381Y022974D01*
X007428Y023038D01*
X007463Y023108D01*
X007488Y023183D01*
X007498Y023250D01*
X007050Y023250D01*
X007050Y023348D02*
X010950Y023348D01*
X010950Y023446D02*
X007478Y023446D01*
X007437Y023545D02*
X010950Y023545D01*
X010950Y023643D02*
X007364Y023643D01*
X007498Y023249D02*
X010950Y023249D01*
X010950Y023151D02*
X007477Y023151D01*
X007435Y023052D02*
X010950Y023052D01*
X010950Y022954D02*
X007361Y022954D01*
X007228Y022855D02*
X010950Y022855D01*
X010950Y022757D02*
X007100Y022757D01*
X007050Y022855D02*
X006950Y022855D01*
X006950Y022954D02*
X007050Y022954D01*
X007050Y023052D02*
X006950Y023052D01*
X006950Y023151D02*
X007050Y023151D01*
X006772Y022855D02*
X002450Y022855D01*
X002393Y022757D02*
X006900Y022757D01*
X006708Y022658D02*
X002294Y022658D01*
X002196Y022560D02*
X006610Y022560D01*
X006639Y022954D02*
X002050Y022954D01*
X002050Y023052D02*
X001950Y023052D01*
X001950Y023151D02*
X002050Y023151D01*
X002050Y023249D02*
X001950Y023249D01*
X001950Y023348D02*
X002050Y023348D01*
X002050Y023446D02*
X001950Y023446D01*
X002387Y023249D02*
X006502Y023249D01*
X006523Y023151D02*
X002450Y023151D01*
X002450Y023052D02*
X006565Y023052D01*
X006636Y023643D02*
X000450Y023643D01*
X003447Y017635D02*
X010950Y017635D01*
X010950Y017733D02*
X006145Y017733D01*
X006244Y017832D02*
X010950Y017832D01*
X010950Y017930D02*
X006342Y017930D01*
X006824Y016450D02*
X005300Y016450D01*
X005111Y016438D01*
X004745Y016340D01*
X004417Y016150D01*
X004150Y015883D01*
X003960Y015555D01*
X003862Y015189D01*
X003850Y015000D01*
X003850Y011651D01*
X004527Y011651D01*
X004527Y011350D01*
X004627Y011350D01*
X005465Y011350D01*
X005465Y011521D01*
X005455Y011559D01*
X005435Y011593D01*
X005407Y011621D01*
X005373Y011641D01*
X005335Y011651D01*
X004627Y011651D01*
X004627Y011350D01*
X004627Y011250D01*
X005465Y011250D01*
X005465Y011079D01*
X005455Y011041D01*
X005435Y011007D01*
X005407Y010979D01*
X005373Y010959D01*
X005335Y010949D01*
X004627Y010949D01*
X004627Y011250D01*
X004527Y011250D01*
X004527Y010949D01*
X003819Y010949D01*
X003780Y010959D01*
X003746Y010979D01*
X003718Y011007D01*
X003699Y011041D01*
X003688Y011079D01*
X003688Y011230D01*
X003675Y011220D01*
X003675Y011135D01*
X003626Y011016D01*
X003622Y011012D01*
X003626Y011009D01*
X003675Y010890D01*
X003675Y010800D01*
X004012Y010800D01*
X004201Y010611D01*
X004777Y010611D01*
X004760Y010652D01*
X004760Y010748D01*
X004797Y010836D01*
X004864Y010903D01*
X004952Y010940D01*
X005048Y010940D01*
X005136Y010903D01*
X005179Y010860D01*
X006690Y010860D01*
X006939Y010611D01*
X007235Y010611D01*
X007613Y010989D01*
X006240Y010989D01*
X006175Y011054D01*
X006175Y011540D01*
X005979Y011540D01*
X005936Y011497D01*
X005848Y011460D01*
X005752Y011460D01*
X005664Y011497D01*
X005597Y011564D01*
X005560Y011652D01*
X005560Y011748D01*
X005597Y011836D01*
X005664Y011903D01*
X005752Y011940D01*
X005848Y011940D01*
X005936Y011903D01*
X005979Y011860D01*
X006690Y011860D01*
X006939Y011611D01*
X007685Y011611D01*
X008342Y012268D01*
X008342Y012345D01*
X008344Y012348D01*
X008342Y012350D01*
X008342Y012384D01*
X008089Y012384D01*
X007996Y012478D01*
X007996Y012478D01*
X006540Y013934D01*
X006540Y014609D01*
X006525Y014562D01*
X006477Y014444D01*
X006416Y014331D01*
X006345Y014225D01*
X006264Y014126D01*
X006174Y014036D01*
X006075Y013955D01*
X005969Y013884D01*
X005856Y013823D01*
X005738Y013775D01*
X005616Y013737D01*
X005491Y013713D01*
X005364Y013700D01*
X005350Y013700D01*
X005350Y014950D01*
X005350Y015050D01*
X005250Y015050D01*
X005250Y016300D01*
X005236Y016300D01*
X005109Y016287D01*
X004984Y016263D01*
X004862Y016225D01*
X004744Y016177D01*
X004631Y016116D01*
X004525Y016045D01*
X004426Y015964D01*
X004336Y015874D01*
X004255Y015775D01*
X004184Y015669D01*
X004123Y015556D01*
X004075Y015438D01*
X004037Y015316D01*
X004013Y015191D01*
X004000Y015064D01*
X004000Y015050D01*
X005250Y015050D01*
X005250Y014950D01*
X005350Y014950D01*
X006600Y014950D01*
X006600Y014936D01*
X006587Y014809D01*
X006564Y014690D01*
X006640Y014766D01*
X006640Y016266D01*
X006824Y016450D01*
X006728Y016354D02*
X004799Y016354D01*
X004961Y016256D02*
X004599Y016256D01*
X004707Y016157D02*
X004429Y016157D01*
X004325Y016059D02*
X004544Y016059D01*
X004422Y015960D02*
X004227Y015960D01*
X004137Y015862D02*
X004325Y015862D01*
X004246Y015763D02*
X004081Y015763D01*
X004024Y015665D02*
X004181Y015665D01*
X004129Y015566D02*
X003967Y015566D01*
X003937Y015468D02*
X004087Y015468D01*
X004053Y015369D02*
X003911Y015369D01*
X003884Y015271D02*
X004028Y015271D01*
X004011Y015172D02*
X003861Y015172D01*
X003855Y015074D02*
X004001Y015074D01*
X004000Y014950D02*
X004000Y014936D01*
X004013Y014809D01*
X004037Y014684D01*
X004075Y014562D01*
X004123Y014444D01*
X004184Y014331D01*
X004255Y014225D01*
X004336Y014126D01*
X004426Y014036D01*
X004525Y013955D01*
X004631Y013884D01*
X004744Y013823D01*
X004862Y013775D01*
X004984Y013737D01*
X005109Y013713D01*
X005236Y013700D01*
X005250Y013700D01*
X005250Y014950D01*
X004000Y014950D01*
X004006Y014877D02*
X003850Y014877D01*
X003850Y014975D02*
X005250Y014975D01*
X005250Y014877D02*
X005350Y014877D01*
X005350Y014975D02*
X006640Y014975D01*
X006600Y015050D02*
X006600Y015064D01*
X006587Y015191D01*
X006563Y015316D01*
X006525Y015438D01*
X006477Y015556D01*
X006416Y015669D01*
X006345Y015775D01*
X006264Y015874D01*
X006174Y015964D01*
X006075Y016045D01*
X005969Y016116D01*
X005856Y016177D01*
X005738Y016225D01*
X005616Y016263D01*
X005491Y016287D01*
X005364Y016300D01*
X005350Y016300D01*
X005350Y015050D01*
X006600Y015050D01*
X006599Y015074D02*
X006640Y015074D01*
X006640Y015172D02*
X006589Y015172D01*
X006572Y015271D02*
X006640Y015271D01*
X006640Y015369D02*
X006547Y015369D01*
X006513Y015468D02*
X006640Y015468D01*
X006640Y015566D02*
X006471Y015566D01*
X006419Y015665D02*
X006640Y015665D01*
X006640Y015763D02*
X006354Y015763D01*
X006275Y015862D02*
X006640Y015862D01*
X006640Y015960D02*
X006178Y015960D01*
X006056Y016059D02*
X006640Y016059D01*
X006640Y016157D02*
X005893Y016157D01*
X005639Y016256D02*
X006640Y016256D01*
X006800Y016200D02*
X007100Y016500D01*
X007500Y016500D01*
X007800Y016200D01*
X007800Y015850D01*
X008050Y015600D01*
X008139Y015350D02*
X008200Y015375D01*
X008275Y015450D01*
X008315Y015547D01*
X008315Y015653D01*
X008312Y015659D01*
X008455Y015719D01*
X008581Y015845D01*
X008650Y016010D01*
X008650Y016190D01*
X008581Y016355D01*
X008486Y016450D01*
X018000Y016450D01*
X018189Y016438D01*
X018555Y016340D01*
X018883Y016150D01*
X019150Y015883D01*
X019340Y015555D01*
X019438Y015189D01*
X019450Y015000D01*
X019450Y009456D01*
X019210Y009756D01*
X019210Y009766D01*
X019169Y009807D01*
X019134Y009852D01*
X019123Y009853D01*
X019450Y009853D01*
X019450Y009755D02*
X019211Y009755D01*
X019290Y009656D02*
X019450Y009656D01*
X019450Y009558D02*
X019369Y009558D01*
X019448Y009459D02*
X019450Y009459D01*
X019450Y009200D02*
X019050Y009700D01*
X017500Y009700D01*
X017000Y010100D01*
X017000Y011100D01*
X016837Y011363D01*
X016053Y011363D01*
X016053Y010970D02*
X016670Y010970D01*
X016700Y011000D01*
X016551Y010810D02*
X016564Y010797D01*
X016652Y010760D01*
X016748Y010760D01*
X016836Y010797D01*
X016840Y010801D01*
X016840Y010156D01*
X016834Y010148D01*
X016840Y010091D01*
X016840Y010034D01*
X016847Y010027D01*
X016848Y010016D01*
X016893Y009981D01*
X016934Y009940D01*
X016944Y009940D01*
X017393Y009581D01*
X017434Y009540D01*
X017444Y009540D01*
X017452Y009534D01*
X017509Y009540D01*
X018973Y009540D01*
X019290Y009144D01*
X019290Y007164D01*
X017926Y007164D01*
X017861Y007099D01*
X017861Y006378D01*
X017926Y006314D01*
X019290Y006314D01*
X019290Y005753D01*
X019280Y005740D01*
X019252Y005740D01*
X019164Y005703D01*
X019097Y005636D01*
X019060Y005548D01*
X019060Y005452D01*
X019097Y005364D01*
X019164Y005297D01*
X019252Y005260D01*
X019348Y005260D01*
X019436Y005297D01*
X019450Y005311D01*
X019450Y002300D01*
X019438Y002111D01*
X019340Y001745D01*
X019340Y001745D01*
X019150Y001417D01*
X018883Y001150D01*
X018555Y000960D01*
X018189Y000862D01*
X018000Y000850D01*
X013650Y000850D01*
X013650Y002821D01*
X013529Y003029D01*
X013321Y003150D01*
X012179Y003150D01*
X011971Y003029D01*
X011896Y002900D01*
X011404Y002900D01*
X011329Y003029D01*
X011121Y003150D01*
X009979Y003150D01*
X009771Y003029D01*
X009650Y002821D01*
X009650Y000850D01*
X005300Y000850D01*
X005111Y000862D01*
X004745Y000960D01*
X004417Y001150D01*
X004150Y001417D01*
X003960Y001745D01*
X003862Y002111D01*
X003850Y002300D01*
X003850Y005614D01*
X003751Y005820D01*
X003675Y005880D01*
X003675Y005990D01*
X003629Y006100D01*
X003675Y006210D01*
X003675Y006340D01*
X003629Y006450D01*
X003675Y006560D01*
X003675Y006650D01*
X004189Y006650D01*
X004240Y006643D01*
X004250Y006650D01*
X004262Y006650D01*
X004299Y006686D01*
X004440Y006793D01*
X004440Y005966D01*
X004214Y005740D01*
X004152Y005740D01*
X004064Y005703D01*
X003997Y005636D01*
X003960Y005548D01*
X003960Y005452D01*
X003997Y005364D01*
X004064Y005297D01*
X004152Y005260D01*
X004248Y005260D01*
X004336Y005297D01*
X004403Y005364D01*
X004440Y005452D01*
X004440Y005514D01*
X004666Y005740D01*
X004760Y005834D01*
X004760Y006989D01*
X005360Y006989D01*
X005425Y007054D01*
X005425Y007140D01*
X005621Y007140D01*
X005664Y007097D01*
X005752Y007060D01*
X005848Y007060D01*
X005936Y007097D01*
X006003Y007164D01*
X006040Y007252D01*
X006040Y007348D01*
X006003Y007436D01*
X005936Y007503D01*
X005848Y007540D01*
X005752Y007540D01*
X005664Y007503D01*
X005621Y007460D01*
X005425Y007460D01*
X005425Y007546D01*
X005360Y007611D01*
X003793Y007611D01*
X003728Y007546D01*
X003728Y007054D01*
X003793Y006989D01*
X004202Y006989D01*
X004150Y006950D01*
X003675Y006950D01*
X003675Y007040D01*
X003629Y007150D01*
X003675Y007260D01*
X003675Y007390D01*
X003629Y007500D01*
X003675Y007610D01*
X003675Y007740D01*
X003629Y007850D01*
X003675Y007960D01*
X003675Y008050D01*
X003732Y008050D01*
X003793Y007989D01*
X005360Y007989D01*
X005425Y008054D01*
X005425Y008140D01*
X005621Y008140D01*
X005664Y008097D01*
X005752Y008060D01*
X005848Y008060D01*
X005936Y008097D01*
X006003Y008164D01*
X006040Y008252D01*
X006040Y008348D01*
X006003Y008436D01*
X005936Y008503D01*
X005848Y008540D01*
X005752Y008540D01*
X005664Y008503D01*
X005621Y008460D01*
X005425Y008460D01*
X005425Y008546D01*
X005360Y008611D01*
X003793Y008611D01*
X003728Y008546D01*
X003728Y008350D01*
X003675Y008350D01*
X003675Y008440D01*
X003629Y008550D01*
X003675Y008660D01*
X003675Y008790D01*
X003629Y008900D01*
X003675Y009010D01*
X003675Y009140D01*
X003629Y009250D01*
X003675Y009360D01*
X003675Y009490D01*
X003629Y009600D01*
X003675Y009710D01*
X003675Y009840D01*
X003629Y009950D01*
X003675Y010060D01*
X003675Y010190D01*
X003629Y010300D01*
X003675Y010410D01*
X003675Y010500D01*
X003728Y010500D01*
X003728Y010054D01*
X003793Y009989D01*
X005360Y009989D01*
X005425Y010054D01*
X005425Y010140D01*
X005621Y010140D01*
X005664Y010097D01*
X005752Y010060D01*
X005848Y010060D01*
X005936Y010097D01*
X006003Y010164D01*
X006040Y010252D01*
X006040Y010348D01*
X006003Y010436D01*
X005936Y010503D01*
X005848Y010540D01*
X005752Y010540D01*
X005664Y010503D01*
X005621Y010460D01*
X005425Y010460D01*
X005425Y010540D01*
X006175Y010540D01*
X006175Y010054D01*
X006240Y009989D01*
X007740Y009989D01*
X007740Y009916D01*
X007435Y009611D01*
X006939Y009611D01*
X006690Y009860D01*
X005979Y009860D01*
X005936Y009903D01*
X005848Y009940D01*
X005752Y009940D01*
X005664Y009903D01*
X005597Y009836D01*
X005560Y009748D01*
X005560Y009652D01*
X005597Y009564D01*
X005664Y009497D01*
X005752Y009460D01*
X005848Y009460D01*
X005936Y009497D01*
X005979Y009540D01*
X006175Y009540D01*
X006175Y009054D01*
X006240Y008989D01*
X007807Y008989D01*
X007872Y009054D01*
X007872Y009546D01*
X007847Y009571D01*
X007940Y009664D01*
X007940Y008816D01*
X007735Y008611D01*
X006240Y008611D01*
X006175Y008546D01*
X006175Y008054D01*
X006240Y007989D01*
X006486Y007989D01*
X006457Y007960D01*
X005965Y007960D01*
X005895Y008030D01*
X005705Y008030D01*
X005570Y007895D01*
X005570Y007705D01*
X005705Y007570D01*
X005895Y007570D01*
X005965Y007640D01*
X006590Y007640D01*
X006939Y007989D01*
X007807Y007989D01*
X007872Y008054D01*
X007872Y008295D01*
X008140Y008564D01*
X008140Y008266D01*
X007485Y007611D01*
X006240Y007611D01*
X006175Y007546D01*
X006175Y007054D01*
X006240Y006989D01*
X006486Y006989D01*
X006457Y006960D01*
X005965Y006960D01*
X005895Y007030D01*
X005705Y007030D01*
X005570Y006895D01*
X005570Y006705D01*
X005705Y006570D01*
X005895Y006570D01*
X005965Y006640D01*
X006590Y006640D01*
X006939Y006989D01*
X007807Y006989D01*
X007872Y007054D01*
X007872Y007545D01*
X008460Y008134D01*
X008460Y009601D01*
X008464Y009597D01*
X008552Y009560D01*
X008648Y009560D01*
X008736Y009597D01*
X008803Y009664D01*
X008840Y009752D01*
X008840Y009848D01*
X008808Y009924D01*
X009050Y009924D01*
X009134Y009840D01*
X009189Y009785D01*
X009189Y009141D01*
X009253Y009077D01*
X009641Y009077D01*
X009644Y009079D01*
X009647Y009077D01*
X010035Y009077D01*
X010038Y009079D01*
X010041Y009077D01*
X010429Y009077D01*
X010431Y009079D01*
X010434Y009077D01*
X010822Y009077D01*
X010825Y009079D01*
X010828Y009077D01*
X010862Y009077D01*
X010862Y008812D01*
X011240Y008434D01*
X011244Y008430D01*
X009795Y008430D01*
X009213Y009012D01*
X009203Y009036D01*
X009136Y009103D01*
X009112Y009113D01*
X009095Y009130D01*
X009072Y009130D01*
X009048Y009140D01*
X008952Y009140D01*
X008928Y009130D01*
X008905Y009130D01*
X008888Y009113D01*
X008864Y009103D01*
X008797Y009036D01*
X008787Y009012D01*
X008770Y008995D01*
X008770Y008972D01*
X008760Y008948D01*
X008760Y008852D01*
X008770Y008828D01*
X008770Y008805D01*
X008787Y008788D01*
X008797Y008764D01*
X008864Y008697D01*
X008888Y008687D01*
X009573Y008002D01*
X009332Y008002D01*
X009303Y008072D01*
X009173Y008202D01*
X009004Y008272D01*
X008821Y008272D01*
X008652Y008202D01*
X008523Y008072D01*
X008453Y007903D01*
X008453Y007720D01*
X008523Y007551D01*
X008652Y007422D01*
X008821Y007352D01*
X009004Y007352D01*
X009173Y007422D01*
X009303Y007551D01*
X009332Y007622D01*
X011304Y007622D01*
X012110Y006727D01*
X012110Y005149D01*
X012097Y005136D01*
X012060Y005048D01*
X012060Y004952D01*
X012097Y004864D01*
X012164Y004797D01*
X012252Y004760D01*
X012348Y004760D01*
X012436Y004797D01*
X012488Y004848D01*
X012539Y004797D01*
X012627Y004760D01*
X012701Y004760D01*
X013115Y004384D01*
X013159Y004340D01*
X013163Y004340D01*
X013166Y004337D01*
X013229Y004340D01*
X013834Y004340D01*
X013835Y004339D01*
X013901Y004340D01*
X013966Y004340D01*
X013967Y004341D01*
X013968Y004341D01*
X014014Y004387D01*
X014060Y004434D01*
X014060Y004434D01*
X015567Y005965D01*
X015578Y005965D01*
X015578Y005948D01*
X015557Y005926D01*
X015504Y005872D01*
X015504Y005869D01*
X014018Y004290D01*
X008979Y004290D01*
X008440Y004829D01*
X008440Y004848D01*
X008403Y004936D01*
X008336Y005003D01*
X008248Y005040D01*
X008229Y005040D01*
X007779Y005490D01*
X006249Y005490D01*
X006236Y005503D01*
X006148Y005540D01*
X006052Y005540D01*
X005964Y005503D01*
X005897Y005436D01*
X005860Y005348D01*
X005860Y005252D01*
X005897Y005164D01*
X005964Y005097D01*
X006052Y005060D01*
X006148Y005060D01*
X006236Y005097D01*
X006249Y005110D01*
X007621Y005110D01*
X007960Y004771D01*
X007960Y004752D01*
X007997Y004664D01*
X008064Y004597D01*
X008152Y004560D01*
X008171Y004560D01*
X008821Y003910D01*
X009441Y003910D01*
X008271Y002740D01*
X008252Y002740D01*
X008164Y002703D01*
X008097Y002636D01*
X008060Y002548D01*
X008060Y002452D01*
X008097Y002364D01*
X008164Y002297D01*
X008252Y002260D01*
X008348Y002260D01*
X008436Y002297D01*
X008503Y002364D01*
X008540Y002452D01*
X008540Y002471D01*
X008691Y002622D01*
X008660Y002548D01*
X008660Y002452D01*
X008697Y002364D01*
X008764Y002297D01*
X008852Y002260D01*
X008948Y002260D01*
X009036Y002297D01*
X009103Y002364D01*
X009140Y002452D01*
X009140Y002471D01*
X009879Y003210D01*
X012451Y003210D01*
X012464Y003197D01*
X012552Y003160D01*
X012648Y003160D01*
X012736Y003197D01*
X012803Y003264D01*
X012840Y003352D01*
X017235Y003352D01*
X017225Y003345D02*
X017126Y003264D01*
X017036Y003174D01*
X016955Y003075D01*
X016884Y002969D01*
X016823Y002856D01*
X016775Y002738D01*
X016737Y002616D01*
X016713Y002491D01*
X016700Y002364D01*
X016700Y002350D01*
X017950Y002350D01*
X017950Y003600D01*
X017936Y003600D01*
X017809Y003587D01*
X017684Y003563D01*
X017562Y003525D01*
X017444Y003477D01*
X017331Y003416D01*
X017225Y003345D01*
X017115Y003254D02*
X012793Y003254D01*
X012840Y003352D02*
X012840Y003448D01*
X012803Y003536D01*
X012736Y003603D01*
X012720Y003610D01*
X012751Y003610D01*
X012764Y003597D01*
X012852Y003560D01*
X012948Y003560D01*
X013036Y003597D01*
X013103Y003664D01*
X013140Y003752D01*
X013140Y003848D01*
X013114Y003910D01*
X014025Y003910D01*
X014027Y003908D01*
X014103Y003910D01*
X014179Y003910D01*
X014181Y003912D01*
X014184Y003912D01*
X014236Y003968D01*
X014290Y004021D01*
X014290Y004025D01*
X015666Y005487D01*
X017544Y005487D01*
X017609Y005551D01*
X017609Y005880D01*
X017740Y005737D01*
X017740Y005179D01*
X017697Y005136D01*
X017660Y005048D01*
X017660Y004952D01*
X017697Y004864D01*
X017764Y004797D01*
X017852Y004760D01*
X017948Y004760D01*
X018036Y004797D01*
X018103Y004864D01*
X018140Y004952D01*
X018140Y005048D01*
X018103Y005136D01*
X018060Y005179D01*
X018060Y005797D01*
X018063Y005860D01*
X018060Y005863D01*
X018060Y005866D01*
X018015Y005911D01*
X017760Y006188D01*
X017760Y006191D01*
X017715Y006236D01*
X017673Y006282D01*
X017669Y006282D01*
X017666Y006285D01*
X017603Y006285D01*
X017540Y006288D01*
X017537Y006285D01*
X016932Y006285D01*
X017265Y006639D01*
X017310Y006684D01*
X017310Y006687D01*
X017312Y006689D01*
X017310Y006752D01*
X017310Y007839D01*
X017687Y008261D01*
X018162Y008735D01*
X018441Y008735D01*
X018485Y008692D01*
X018573Y008655D01*
X018668Y008655D01*
X018756Y008692D01*
X018824Y008760D01*
X018860Y008848D01*
X018860Y008943D01*
X018824Y009031D01*
X018756Y009099D01*
X018668Y009135D01*
X018573Y009135D01*
X018485Y009099D01*
X018441Y009055D01*
X018029Y009055D01*
X017501Y008527D01*
X017495Y008527D01*
X017454Y008480D01*
X017410Y008437D01*
X017410Y008432D01*
X017034Y008010D01*
X016990Y007966D01*
X016990Y007961D01*
X016987Y007957D01*
X016990Y007896D01*
X016990Y006813D01*
X016838Y006652D01*
X016803Y006736D01*
X016739Y006800D01*
X016803Y006864D01*
X016840Y006952D01*
X016840Y007048D01*
X016803Y007136D01*
X016736Y007203D01*
X016648Y007240D01*
X016566Y007240D01*
X016586Y007260D01*
X016648Y007260D01*
X016736Y007297D01*
X016803Y007364D01*
X016840Y007452D01*
X016840Y007548D01*
X016803Y007636D01*
X016736Y007703D01*
X016648Y007740D01*
X016552Y007740D01*
X016464Y007703D01*
X016397Y007636D01*
X016360Y007548D01*
X016360Y007510D01*
X015979Y007510D01*
X015936Y007553D01*
X015848Y007590D01*
X015752Y007590D01*
X015664Y007553D01*
X015597Y007486D01*
X015560Y007398D01*
X015560Y007302D01*
X015597Y007214D01*
X015636Y007175D01*
X015621Y007160D01*
X014966Y007160D01*
X014340Y007786D01*
X014340Y007848D01*
X014303Y007936D01*
X014236Y008003D01*
X014148Y008040D01*
X014052Y008040D01*
X013964Y008003D01*
X013897Y007936D01*
X013860Y007848D01*
X013860Y007752D01*
X013869Y007731D01*
X013848Y007740D01*
X013752Y007740D01*
X013664Y007703D01*
X013597Y007636D01*
X013560Y007548D01*
X013560Y007452D01*
X013597Y007364D01*
X013664Y007297D01*
X013752Y007260D01*
X013814Y007260D01*
X014540Y006534D01*
X014634Y006440D01*
X014914Y006440D01*
X014865Y006391D01*
X013714Y005240D01*
X013652Y005240D01*
X013564Y005203D01*
X013497Y005136D01*
X013460Y005048D01*
X013460Y004952D01*
X013497Y004864D01*
X013564Y004797D01*
X013652Y004760D01*
X013748Y004760D01*
X013836Y004797D01*
X013903Y004864D01*
X013940Y004952D01*
X013940Y005014D01*
X015091Y006165D01*
X015315Y006165D01*
X013833Y004660D01*
X013287Y004660D01*
X012915Y004998D01*
X012915Y005048D01*
X012878Y005136D01*
X012811Y005203D01*
X012723Y005240D01*
X012627Y005240D01*
X012539Y005203D01*
X012490Y005154D01*
X012490Y006795D01*
X012494Y006869D01*
X012490Y006873D01*
X012490Y006879D01*
X012438Y006931D01*
X012219Y007174D01*
X012252Y007160D01*
X012348Y007160D01*
X012436Y007197D01*
X012503Y007264D01*
X012540Y007352D01*
X012540Y007448D01*
X012503Y007536D01*
X012460Y007579D01*
X012460Y007866D01*
X012110Y008216D01*
X012016Y008310D01*
X011815Y008310D01*
X011813Y008312D01*
X011803Y008336D01*
X011799Y008340D01*
X014734Y008340D01*
X015060Y008014D01*
X015060Y007952D01*
X015097Y007864D01*
X015164Y007797D01*
X015252Y007760D01*
X015348Y007760D01*
X015436Y007797D01*
X015503Y007864D01*
X015540Y007952D01*
X015540Y008048D01*
X015503Y008136D01*
X015436Y008203D01*
X015348Y008240D01*
X015286Y008240D01*
X014960Y008566D01*
X014960Y008566D01*
X014866Y008660D01*
X011799Y008660D01*
X011803Y008664D01*
X011840Y008752D01*
X011840Y008848D01*
X011803Y008936D01*
X011736Y009003D01*
X011648Y009040D01*
X011586Y009040D01*
X011576Y009051D01*
X011576Y009077D01*
X011610Y009077D01*
X011613Y009079D01*
X011615Y009077D01*
X012003Y009077D01*
X012068Y009141D01*
X012068Y009693D01*
X012114Y009647D01*
X012202Y009610D01*
X012264Y009610D01*
X012552Y009322D01*
X012732Y009322D01*
X012732Y009141D01*
X012797Y009077D01*
X013185Y009077D01*
X013187Y009079D01*
X013190Y009077D01*
X013193Y009077D01*
X013160Y008998D01*
X013160Y008902D01*
X013197Y008814D01*
X013264Y008747D01*
X013352Y008710D01*
X013448Y008710D01*
X013536Y008747D01*
X013603Y008814D01*
X013640Y008902D01*
X013640Y008998D01*
X013607Y009077D01*
X013972Y009077D01*
X013975Y009079D01*
X013978Y009077D01*
X014366Y009077D01*
X014369Y009079D01*
X014371Y009077D01*
X014759Y009077D01*
X014762Y009079D01*
X014765Y009077D01*
X015153Y009077D01*
X015156Y009079D01*
X015159Y009077D01*
X015547Y009077D01*
X015611Y009141D01*
X015611Y009823D01*
X015547Y009887D01*
X015159Y009887D01*
X015156Y009884D01*
X015153Y009887D01*
X014765Y009887D01*
X014762Y009884D01*
X014759Y009887D01*
X014371Y009887D01*
X014369Y009884D01*
X014366Y009887D01*
X013978Y009887D01*
X013975Y009884D01*
X013972Y009887D01*
X013938Y009887D01*
X013938Y009888D01*
X013610Y010216D01*
X013610Y010501D01*
X013664Y010447D01*
X013752Y010410D01*
X013848Y010410D01*
X013859Y010415D01*
X014251Y010022D01*
X015648Y010022D01*
X015648Y009988D01*
X015712Y009924D01*
X016394Y009924D01*
X016458Y009988D01*
X016458Y010376D01*
X016456Y010379D01*
X016458Y010382D01*
X016458Y010770D01*
X016456Y010773D01*
X016458Y010776D01*
X016458Y010810D01*
X016551Y010810D01*
X016458Y010740D02*
X016840Y010740D01*
X016840Y010641D02*
X016458Y010641D01*
X016458Y010543D02*
X016840Y010543D01*
X016840Y010444D02*
X016458Y010444D01*
X016458Y010346D02*
X016840Y010346D01*
X016840Y010247D02*
X016458Y010247D01*
X016458Y010149D02*
X016834Y010149D01*
X016840Y010050D02*
X016458Y010050D01*
X016422Y009952D02*
X016922Y009952D01*
X017053Y009853D02*
X015581Y009853D01*
X015611Y009755D02*
X017176Y009755D01*
X017299Y009656D02*
X015611Y009656D01*
X015611Y009558D02*
X017416Y009558D01*
X017556Y009860D02*
X017160Y010177D01*
X017160Y011081D01*
X017171Y011128D01*
X017160Y011146D01*
X017160Y011166D01*
X017126Y011200D01*
X016997Y011409D01*
X016997Y011430D01*
X016963Y011463D01*
X016938Y011504D01*
X016918Y011509D01*
X016903Y011523D01*
X016855Y011523D01*
X016809Y011534D01*
X016791Y011523D01*
X016458Y011523D01*
X016458Y011557D01*
X016456Y011560D01*
X016458Y011563D01*
X016458Y011951D01*
X016456Y011954D01*
X016458Y011957D01*
X016458Y012345D01*
X016456Y012348D01*
X016458Y012350D01*
X016458Y012738D01*
X016456Y012741D01*
X016458Y012744D01*
X016458Y013132D01*
X016456Y013135D01*
X016458Y013138D01*
X016458Y013142D01*
X017589Y013142D01*
X018810Y011921D01*
X018810Y011432D01*
X018770Y011530D01*
X018680Y011620D01*
X018563Y011668D01*
X018437Y011668D01*
X018320Y011620D01*
X018230Y011530D01*
X018182Y011413D01*
X018182Y011287D01*
X018230Y011170D01*
X018320Y011080D01*
X018437Y011032D01*
X018563Y011032D01*
X018680Y011080D01*
X018770Y011170D01*
X018810Y011268D01*
X018810Y010879D01*
X018471Y010540D01*
X017760Y010540D01*
X017680Y010620D01*
X017563Y010668D01*
X017437Y010668D01*
X017320Y010620D01*
X017230Y010530D01*
X017182Y010413D01*
X017182Y010287D01*
X017230Y010170D01*
X017320Y010080D01*
X017437Y010032D01*
X017563Y010032D01*
X017680Y010080D01*
X017760Y010160D01*
X018629Y010160D01*
X018740Y010271D01*
X019190Y010721D01*
X019190Y012079D01*
X019079Y012190D01*
X017747Y013522D01*
X016458Y013522D01*
X016458Y013526D01*
X016394Y013590D01*
X016283Y013590D01*
X016283Y015242D01*
X016013Y015512D01*
X016003Y015536D01*
X015936Y015603D01*
X015912Y015613D01*
X015895Y015630D01*
X015872Y015630D01*
X015848Y015640D01*
X015752Y015640D01*
X015728Y015630D01*
X015705Y015630D01*
X015688Y015613D01*
X015664Y015603D01*
X015597Y015536D01*
X015587Y015512D01*
X015570Y015495D01*
X015570Y015472D01*
X015560Y015448D01*
X015560Y015352D01*
X015570Y015328D01*
X015570Y015305D01*
X015587Y015288D01*
X015597Y015264D01*
X015664Y015197D01*
X015688Y015187D01*
X015823Y015052D01*
X015823Y013590D01*
X015712Y013590D01*
X015648Y013526D01*
X015648Y013492D01*
X015466Y013492D01*
X015334Y013360D01*
X015240Y013266D01*
X015240Y012566D01*
X014914Y012240D01*
X014852Y012240D01*
X014764Y012203D01*
X014760Y012199D01*
X014760Y014666D01*
X014040Y015386D01*
X014040Y015448D01*
X014003Y015536D01*
X013936Y015603D01*
X013848Y015640D01*
X013752Y015640D01*
X013664Y015603D01*
X013597Y015536D01*
X013560Y015448D01*
X013560Y015352D01*
X013597Y015264D01*
X013664Y015197D01*
X013752Y015160D01*
X013814Y015160D01*
X014440Y014534D01*
X014440Y011634D01*
X014534Y011540D01*
X015264Y010810D01*
X015648Y010810D01*
X015648Y010776D01*
X015651Y010773D01*
X015648Y010770D01*
X015648Y010760D01*
X014766Y010760D01*
X014360Y011166D01*
X014360Y012521D01*
X014403Y012564D01*
X014440Y012652D01*
X014440Y012748D01*
X014403Y012836D01*
X014336Y012903D01*
X014248Y012940D01*
X014152Y012940D01*
X014064Y012903D01*
X014010Y012849D01*
X014010Y014416D01*
X013040Y015386D01*
X013040Y015448D01*
X013003Y015536D01*
X012936Y015603D01*
X012848Y015640D01*
X012752Y015640D01*
X012664Y015603D01*
X012597Y015536D01*
X012560Y015448D01*
X012560Y015352D01*
X012597Y015264D01*
X012664Y015197D01*
X012752Y015160D01*
X012814Y015160D01*
X013690Y014284D01*
X013690Y010864D01*
X013664Y010853D01*
X013610Y010799D01*
X013610Y010871D01*
X013653Y010914D01*
X013690Y011002D01*
X013690Y011098D01*
X013653Y011186D01*
X013610Y011229D01*
X013610Y012666D01*
X012190Y014086D01*
X012190Y014148D01*
X012153Y014236D01*
X012086Y014303D01*
X011998Y014340D01*
X011902Y014340D01*
X011814Y014303D01*
X011760Y014249D01*
X011760Y015134D01*
X011786Y015160D01*
X011848Y015160D01*
X011936Y015197D01*
X012003Y015264D01*
X012040Y015352D01*
X012040Y015448D01*
X012003Y015536D01*
X011936Y015603D01*
X011848Y015640D01*
X011752Y015640D01*
X011664Y015603D01*
X011597Y015536D01*
X011560Y015448D01*
X011560Y015386D01*
X011440Y015266D01*
X011440Y013986D01*
X011440Y013986D01*
X011440Y014048D01*
X011403Y014136D01*
X011336Y014203D01*
X011248Y014240D01*
X011152Y014240D01*
X011110Y014222D01*
X011110Y015316D01*
X011040Y015386D01*
X011040Y015448D01*
X011003Y015536D01*
X010936Y015603D01*
X010848Y015640D01*
X010752Y015640D01*
X010664Y015603D01*
X010597Y015536D01*
X010560Y015448D01*
X010560Y015352D01*
X010597Y015264D01*
X010664Y015197D01*
X010752Y015160D01*
X010790Y015160D01*
X010790Y013834D01*
X011140Y013484D01*
X011140Y010286D01*
X010510Y010916D01*
X010510Y013765D01*
X010586Y013797D01*
X010653Y013864D01*
X010690Y013952D01*
X010690Y014048D01*
X010653Y014136D01*
X010586Y014203D01*
X010498Y014240D01*
X010402Y014240D01*
X010314Y014203D01*
X010310Y014199D01*
X010310Y015116D01*
X010040Y015386D01*
X010040Y015448D01*
X010003Y015536D01*
X009936Y015603D01*
X009848Y015640D01*
X009752Y015640D01*
X009664Y015603D01*
X009597Y015536D01*
X009560Y015448D01*
X009560Y015352D01*
X009597Y015264D01*
X009664Y015197D01*
X009752Y015160D01*
X009814Y015160D01*
X009990Y014984D01*
X009990Y014436D01*
X009040Y015386D01*
X009040Y015448D01*
X009003Y015536D01*
X008936Y015603D01*
X008848Y015640D01*
X008752Y015640D01*
X008664Y015603D01*
X008597Y015536D01*
X008560Y015448D01*
X008560Y015352D01*
X008597Y015264D01*
X008664Y015197D01*
X008752Y015160D01*
X008814Y015160D01*
X009659Y014315D01*
X009598Y014340D01*
X009502Y014340D01*
X009414Y014303D01*
X009347Y014236D01*
X009310Y014148D01*
X009310Y014066D01*
X008315Y015061D01*
X008315Y015153D01*
X008275Y015250D01*
X008200Y015325D01*
X008139Y015350D01*
X008185Y015369D02*
X008560Y015369D01*
X008568Y015468D02*
X008282Y015468D01*
X008315Y015566D02*
X008627Y015566D01*
X008499Y015763D02*
X016946Y015763D01*
X016955Y015775D02*
X016884Y015669D01*
X016823Y015556D01*
X016775Y015438D01*
X016737Y015316D01*
X016713Y015191D01*
X016700Y015064D01*
X016700Y015050D01*
X017950Y015050D01*
X017950Y016300D01*
X017936Y016300D01*
X017809Y016287D01*
X017684Y016263D01*
X017562Y016225D01*
X017444Y016177D01*
X017331Y016116D01*
X017225Y016045D01*
X017126Y015964D01*
X017036Y015874D01*
X016955Y015775D01*
X017025Y015862D02*
X008588Y015862D01*
X008629Y015960D02*
X017122Y015960D01*
X017244Y016059D02*
X008650Y016059D01*
X008650Y016157D02*
X017407Y016157D01*
X017661Y016256D02*
X008623Y016256D01*
X008582Y016354D02*
X018501Y016354D01*
X018438Y016225D02*
X018316Y016263D01*
X018191Y016287D01*
X018064Y016300D01*
X018050Y016300D01*
X018050Y015050D01*
X019300Y015050D01*
X019300Y015064D01*
X019287Y015191D01*
X019263Y015316D01*
X019225Y015438D01*
X019177Y015556D01*
X019116Y015669D01*
X019045Y015775D01*
X018964Y015874D01*
X018874Y015964D01*
X018775Y016045D01*
X018669Y016116D01*
X018556Y016177D01*
X018438Y016225D01*
X018339Y016256D02*
X018701Y016256D01*
X018593Y016157D02*
X018871Y016157D01*
X018975Y016059D02*
X018756Y016059D01*
X018878Y015960D02*
X019073Y015960D01*
X019163Y015862D02*
X018975Y015862D01*
X019054Y015763D02*
X019219Y015763D01*
X019276Y015665D02*
X019119Y015665D01*
X019171Y015566D02*
X019333Y015566D01*
X019363Y015468D02*
X019213Y015468D01*
X019247Y015369D02*
X019389Y015369D01*
X019416Y015271D02*
X019272Y015271D01*
X019289Y015172D02*
X019439Y015172D01*
X019445Y015074D02*
X019299Y015074D01*
X019300Y014950D02*
X018050Y014950D01*
X018050Y015050D01*
X017950Y015050D01*
X017950Y014950D01*
X018050Y014950D01*
X018050Y013700D01*
X018064Y013700D01*
X018191Y013713D01*
X018316Y013737D01*
X018438Y013775D01*
X018556Y013823D01*
X018669Y013884D01*
X018775Y013955D01*
X018874Y014036D01*
X018964Y014126D01*
X019045Y014225D01*
X019116Y014331D01*
X019177Y014444D01*
X019225Y014562D01*
X019263Y014684D01*
X019287Y014809D01*
X019300Y014936D01*
X019300Y014950D01*
X019294Y014877D02*
X019450Y014877D01*
X019450Y014975D02*
X018050Y014975D01*
X018050Y014877D02*
X017950Y014877D01*
X017950Y014950D02*
X017950Y013700D01*
X017936Y013700D01*
X017809Y013713D01*
X017684Y013737D01*
X017562Y013775D01*
X017444Y013823D01*
X017331Y013884D01*
X017225Y013955D01*
X017126Y014036D01*
X017036Y014126D01*
X016955Y014225D01*
X016884Y014331D01*
X016823Y014444D01*
X016775Y014562D01*
X016737Y014684D01*
X016713Y014809D01*
X016700Y014936D01*
X016700Y014950D01*
X017950Y014950D01*
X017950Y014975D02*
X016283Y014975D01*
X016283Y014877D02*
X016706Y014877D01*
X016719Y014778D02*
X016283Y014778D01*
X016283Y014680D02*
X016739Y014680D01*
X016769Y014581D02*
X016283Y014581D01*
X016283Y014483D02*
X016807Y014483D01*
X016855Y014384D02*
X016283Y014384D01*
X016283Y014286D02*
X016914Y014286D01*
X016985Y014187D02*
X016283Y014187D01*
X016283Y014089D02*
X017073Y014089D01*
X017181Y013990D02*
X016283Y013990D01*
X016283Y013892D02*
X017319Y013892D01*
X017517Y013793D02*
X016283Y013793D01*
X016283Y013695D02*
X019450Y013695D01*
X019450Y013793D02*
X018483Y013793D01*
X018681Y013892D02*
X019450Y013892D01*
X019450Y013990D02*
X018819Y013990D01*
X018927Y014089D02*
X019450Y014089D01*
X019450Y014187D02*
X019015Y014187D01*
X019086Y014286D02*
X019450Y014286D01*
X019450Y014384D02*
X019145Y014384D01*
X019193Y014483D02*
X019450Y014483D01*
X019450Y014581D02*
X019231Y014581D01*
X019261Y014680D02*
X019450Y014680D01*
X019450Y014778D02*
X019281Y014778D01*
X019450Y013596D02*
X016283Y013596D01*
X016053Y013332D02*
X015532Y013332D01*
X015400Y013200D01*
X015400Y012500D01*
X014900Y012000D01*
X015062Y011823D02*
X015648Y011823D01*
X015648Y011725D02*
X014802Y011725D01*
X014760Y011766D02*
X014760Y011801D01*
X014764Y011797D01*
X014852Y011760D01*
X014948Y011760D01*
X015036Y011797D01*
X015103Y011864D01*
X015140Y011952D01*
X015140Y012014D01*
X015560Y012434D01*
X015560Y013134D01*
X015598Y013172D01*
X015648Y013172D01*
X015648Y013138D01*
X015651Y013135D01*
X015648Y013132D01*
X015648Y012744D01*
X015651Y012741D01*
X015648Y012738D01*
X015648Y012350D01*
X015651Y012348D01*
X015648Y012345D01*
X015648Y011957D01*
X015651Y011954D01*
X015648Y011951D01*
X015648Y011563D01*
X015651Y011560D01*
X015648Y011557D01*
X015648Y011169D01*
X015651Y011166D01*
X015648Y011164D01*
X015648Y011130D01*
X015397Y011130D01*
X014760Y011766D01*
X014600Y011700D02*
X014600Y014600D01*
X013800Y015400D01*
X013973Y015566D02*
X015627Y015566D01*
X015568Y015468D02*
X014032Y015468D01*
X014057Y015369D02*
X015560Y015369D01*
X015594Y015271D02*
X014156Y015271D01*
X014254Y015172D02*
X015703Y015172D01*
X015801Y015074D02*
X014353Y015074D01*
X014451Y014975D02*
X015823Y014975D01*
X015823Y014877D02*
X014550Y014877D01*
X014648Y014778D02*
X015823Y014778D01*
X015823Y014680D02*
X014747Y014680D01*
X014760Y014581D02*
X015823Y014581D01*
X015823Y014483D02*
X014760Y014483D01*
X014760Y014384D02*
X015823Y014384D01*
X015823Y014286D02*
X014760Y014286D01*
X014760Y014187D02*
X015823Y014187D01*
X015823Y014089D02*
X014760Y014089D01*
X014760Y013990D02*
X015823Y013990D01*
X015823Y013892D02*
X014760Y013892D01*
X014760Y013793D02*
X015823Y013793D01*
X015823Y013695D02*
X014760Y013695D01*
X014760Y013596D02*
X015823Y013596D01*
X015648Y013498D02*
X014760Y013498D01*
X014760Y013399D02*
X015373Y013399D01*
X015274Y013301D02*
X014760Y013301D01*
X014760Y013202D02*
X015240Y013202D01*
X015240Y013104D02*
X014760Y013104D01*
X014760Y013005D02*
X015240Y013005D01*
X015240Y012907D02*
X014760Y012907D01*
X014760Y012808D02*
X015240Y012808D01*
X015240Y012710D02*
X014760Y012710D01*
X014760Y012611D02*
X015240Y012611D01*
X015186Y012513D02*
X014760Y012513D01*
X014760Y012414D02*
X015088Y012414D01*
X014989Y012316D02*
X014760Y012316D01*
X014760Y012217D02*
X014797Y012217D01*
X014440Y012217D02*
X014360Y012217D01*
X014360Y012119D02*
X014440Y012119D01*
X014440Y012020D02*
X014360Y012020D01*
X014360Y011922D02*
X014440Y011922D01*
X014440Y011823D02*
X014360Y011823D01*
X014360Y011725D02*
X014440Y011725D01*
X014448Y011626D02*
X014360Y011626D01*
X014360Y011528D02*
X014546Y011528D01*
X014645Y011429D02*
X014360Y011429D01*
X014360Y011331D02*
X014743Y011331D01*
X014842Y011232D02*
X014360Y011232D01*
X014393Y011134D02*
X014940Y011134D01*
X015039Y011035D02*
X014491Y011035D01*
X014590Y010937D02*
X015137Y010937D01*
X015236Y010838D02*
X014688Y010838D01*
X014700Y010600D02*
X016029Y010600D01*
X016053Y010576D01*
X016053Y010970D02*
X015330Y010970D01*
X014600Y011700D01*
X014900Y011626D02*
X015648Y011626D01*
X015648Y011528D02*
X014999Y011528D01*
X015097Y011429D02*
X015648Y011429D01*
X015648Y011331D02*
X015196Y011331D01*
X015294Y011232D02*
X015648Y011232D01*
X015648Y011134D02*
X015393Y011134D01*
X015648Y011922D02*
X015127Y011922D01*
X015146Y012020D02*
X015648Y012020D01*
X015648Y012119D02*
X015245Y012119D01*
X015343Y012217D02*
X015648Y012217D01*
X015648Y012316D02*
X015442Y012316D01*
X015540Y012414D02*
X015648Y012414D01*
X015648Y012513D02*
X015560Y012513D01*
X015560Y012611D02*
X015648Y012611D01*
X015648Y012710D02*
X015560Y012710D01*
X015560Y012808D02*
X015648Y012808D01*
X015648Y012907D02*
X015560Y012907D01*
X015560Y013005D02*
X015648Y013005D01*
X015648Y013104D02*
X015560Y013104D01*
X016458Y013104D02*
X017628Y013104D01*
X017726Y013005D02*
X016458Y013005D01*
X016458Y012907D02*
X017825Y012907D01*
X017923Y012808D02*
X016458Y012808D01*
X016458Y012710D02*
X018022Y012710D01*
X018120Y012611D02*
X017741Y012611D01*
X017743Y012613D02*
X017728Y012628D01*
X017670Y012667D01*
X017604Y012694D01*
X017535Y012708D01*
X017465Y012708D01*
X017396Y012694D01*
X017330Y012667D01*
X017272Y012628D01*
X017257Y012613D01*
X017500Y012370D01*
X017480Y012350D01*
X017237Y012593D01*
X017222Y012578D01*
X017183Y012520D01*
X017156Y012454D01*
X017142Y012385D01*
X017142Y012315D01*
X017156Y012246D01*
X017183Y012180D01*
X017222Y012122D01*
X017237Y012107D01*
X017480Y012350D01*
X017500Y012330D01*
X017520Y012350D01*
X017500Y012370D01*
X017743Y012613D01*
X017763Y012593D02*
X017520Y012350D01*
X017763Y012107D01*
X017778Y012122D01*
X017817Y012180D01*
X017844Y012246D01*
X017858Y012315D01*
X017858Y012385D01*
X017844Y012454D01*
X017817Y012520D01*
X017778Y012578D01*
X017763Y012593D01*
X017820Y012513D02*
X018219Y012513D01*
X018317Y012414D02*
X017852Y012414D01*
X017858Y012316D02*
X018416Y012316D01*
X018514Y012217D02*
X017832Y012217D01*
X017775Y012119D02*
X018613Y012119D01*
X018711Y012020D02*
X017639Y012020D01*
X017670Y012033D02*
X017728Y012072D01*
X017743Y012087D01*
X017500Y012330D01*
X017257Y012087D01*
X017272Y012072D01*
X017330Y012033D01*
X017396Y012006D01*
X017465Y011992D01*
X017535Y011992D01*
X017604Y012006D01*
X017670Y012033D01*
X017712Y012119D02*
X017751Y012119D01*
X017653Y012217D02*
X017613Y012217D01*
X017554Y012316D02*
X017515Y012316D01*
X017485Y012316D02*
X017446Y012316D01*
X017456Y012414D02*
X017416Y012414D01*
X017357Y012513D02*
X017318Y012513D01*
X017259Y012611D02*
X016458Y012611D01*
X016458Y012513D02*
X017180Y012513D01*
X017148Y012414D02*
X016458Y012414D01*
X016458Y012316D02*
X017142Y012316D01*
X017168Y012217D02*
X016458Y012217D01*
X016458Y012119D02*
X017225Y012119D01*
X017249Y012119D02*
X017288Y012119D01*
X017347Y012217D02*
X017387Y012217D01*
X017361Y012020D02*
X016458Y012020D01*
X016458Y011922D02*
X018810Y011922D01*
X018810Y011823D02*
X016458Y011823D01*
X016458Y011725D02*
X018810Y011725D01*
X018810Y011626D02*
X018664Y011626D01*
X018771Y011528D02*
X018810Y011528D01*
X018795Y011232D02*
X018810Y011232D01*
X018810Y011134D02*
X018733Y011134D01*
X018810Y011035D02*
X018570Y011035D01*
X018430Y011035D02*
X017160Y011035D01*
X017160Y010937D02*
X018810Y010937D01*
X018769Y010838D02*
X017160Y010838D01*
X017160Y010740D02*
X018671Y010740D01*
X018572Y010641D02*
X017628Y010641D01*
X017757Y010543D02*
X018474Y010543D01*
X018716Y010247D02*
X019450Y010247D01*
X019450Y010149D02*
X017748Y010149D01*
X017607Y010050D02*
X019450Y010050D01*
X019450Y009952D02*
X017442Y009952D01*
X017393Y010050D02*
X017319Y010050D01*
X017252Y010149D02*
X017195Y010149D01*
X017199Y010247D02*
X017160Y010247D01*
X017160Y010346D02*
X017182Y010346D01*
X017195Y010444D02*
X017160Y010444D01*
X017160Y010543D02*
X017243Y010543D01*
X017160Y010641D02*
X017372Y010641D01*
X017167Y011134D02*
X018267Y011134D01*
X018205Y011232D02*
X017106Y011232D01*
X017045Y011331D02*
X018182Y011331D01*
X018189Y011429D02*
X016997Y011429D01*
X016837Y011528D02*
X018229Y011528D01*
X018336Y011626D02*
X016458Y011626D01*
X016458Y011528D02*
X016798Y011528D01*
X017544Y012414D02*
X017584Y012414D01*
X017643Y012513D02*
X017682Y012513D01*
X018264Y013005D02*
X019450Y013005D01*
X019450Y012907D02*
X018362Y012907D01*
X018461Y012808D02*
X019450Y012808D01*
X019450Y012710D02*
X018559Y012710D01*
X018658Y012611D02*
X019450Y012611D01*
X019450Y012513D02*
X018756Y012513D01*
X018855Y012414D02*
X019450Y012414D01*
X019450Y012316D02*
X018953Y012316D01*
X019052Y012217D02*
X019450Y012217D01*
X019450Y012119D02*
X019150Y012119D01*
X019190Y012020D02*
X019450Y012020D01*
X019450Y011922D02*
X019190Y011922D01*
X019190Y011823D02*
X019450Y011823D01*
X019450Y011725D02*
X019190Y011725D01*
X019190Y011626D02*
X019450Y011626D01*
X019450Y011528D02*
X019190Y011528D01*
X019190Y011429D02*
X019450Y011429D01*
X019450Y011331D02*
X019190Y011331D01*
X019190Y011232D02*
X019450Y011232D01*
X019450Y011134D02*
X019190Y011134D01*
X019190Y011035D02*
X019450Y011035D01*
X019450Y010937D02*
X019190Y010937D01*
X019190Y010838D02*
X019450Y010838D01*
X019450Y010740D02*
X019190Y010740D01*
X019110Y010641D02*
X019450Y010641D01*
X019450Y010543D02*
X019011Y010543D01*
X018913Y010444D02*
X019450Y010444D01*
X019450Y010346D02*
X018814Y010346D01*
X019002Y009866D02*
X018994Y009860D01*
X017556Y009860D01*
X017940Y008967D02*
X013640Y008967D01*
X013626Y008868D02*
X017842Y008868D01*
X017743Y008770D02*
X013559Y008770D01*
X013400Y008950D02*
X013400Y009466D01*
X013384Y009482D01*
X013384Y009716D01*
X013100Y010000D01*
X012600Y010000D01*
X012000Y010600D01*
X012000Y011550D01*
X012000Y013600D01*
X011600Y014000D01*
X011600Y015200D01*
X011800Y015400D01*
X011973Y015566D02*
X012627Y015566D01*
X012568Y015468D02*
X012032Y015468D01*
X012040Y015369D02*
X012560Y015369D01*
X012594Y015271D02*
X012006Y015271D01*
X011877Y015172D02*
X012723Y015172D01*
X012900Y015074D02*
X011760Y015074D01*
X011760Y014975D02*
X012999Y014975D01*
X013097Y014877D02*
X011760Y014877D01*
X011760Y014778D02*
X013196Y014778D01*
X013294Y014680D02*
X011760Y014680D01*
X011760Y014581D02*
X013393Y014581D01*
X013491Y014483D02*
X011760Y014483D01*
X011760Y014384D02*
X013590Y014384D01*
X013688Y014286D02*
X012104Y014286D01*
X012174Y014187D02*
X013690Y014187D01*
X013690Y014089D02*
X012190Y014089D01*
X012286Y013990D02*
X013690Y013990D01*
X013690Y013892D02*
X012385Y013892D01*
X012483Y013793D02*
X013690Y013793D01*
X013690Y013695D02*
X012582Y013695D01*
X012680Y013596D02*
X013690Y013596D01*
X013690Y013498D02*
X012779Y013498D01*
X012877Y013399D02*
X013690Y013399D01*
X013690Y013301D02*
X012976Y013301D01*
X013074Y013202D02*
X013690Y013202D01*
X013690Y013104D02*
X013173Y013104D01*
X013271Y013005D02*
X013690Y013005D01*
X013690Y012907D02*
X013370Y012907D01*
X013468Y012808D02*
X013690Y012808D01*
X013690Y012710D02*
X013567Y012710D01*
X013610Y012611D02*
X013690Y012611D01*
X013690Y012513D02*
X013610Y012513D01*
X013610Y012414D02*
X013690Y012414D01*
X013690Y012316D02*
X013610Y012316D01*
X013610Y012217D02*
X013690Y012217D01*
X013690Y012119D02*
X013610Y012119D01*
X013610Y012020D02*
X013690Y012020D01*
X013690Y011922D02*
X013610Y011922D01*
X013610Y011823D02*
X013690Y011823D01*
X013690Y011725D02*
X013610Y011725D01*
X013610Y011626D02*
X013690Y011626D01*
X013690Y011528D02*
X013610Y011528D01*
X013610Y011429D02*
X013690Y011429D01*
X013690Y011331D02*
X013610Y011331D01*
X013610Y011232D02*
X013690Y011232D01*
X013690Y011134D02*
X013675Y011134D01*
X013690Y011035D02*
X013690Y011035D01*
X013690Y010937D02*
X013663Y010937D01*
X013649Y010838D02*
X013610Y010838D01*
X013450Y011050D02*
X013450Y012600D01*
X011950Y014100D01*
X011796Y014286D02*
X011760Y014286D01*
X011440Y014286D02*
X011110Y014286D01*
X011110Y014384D02*
X011440Y014384D01*
X011440Y014483D02*
X011110Y014483D01*
X011110Y014581D02*
X011440Y014581D01*
X011440Y014680D02*
X011110Y014680D01*
X011110Y014778D02*
X011440Y014778D01*
X011440Y014877D02*
X011110Y014877D01*
X011110Y014975D02*
X011440Y014975D01*
X011440Y015074D02*
X011110Y015074D01*
X011110Y015172D02*
X011440Y015172D01*
X011444Y015271D02*
X011110Y015271D01*
X011057Y015369D02*
X011543Y015369D01*
X011568Y015468D02*
X011032Y015468D01*
X010973Y015566D02*
X011627Y015566D01*
X010950Y015250D02*
X010950Y013900D01*
X011300Y013550D01*
X011300Y010300D01*
X011550Y010050D01*
X011809Y009791D01*
X011809Y009482D01*
X012068Y009459D02*
X012415Y009459D01*
X012513Y009361D02*
X012068Y009361D01*
X012068Y009262D02*
X012732Y009262D01*
X012732Y009164D02*
X012068Y009164D01*
X011832Y008868D02*
X013174Y008868D01*
X013160Y008967D02*
X011773Y008967D01*
X011840Y008770D02*
X013241Y008770D01*
X013188Y009065D02*
X011576Y009065D01*
X011416Y008984D02*
X011416Y009482D01*
X011416Y009784D01*
X011200Y010000D01*
X010350Y010850D01*
X010350Y013900D01*
X010450Y014000D01*
X010673Y014089D02*
X010790Y014089D01*
X010790Y014187D02*
X010602Y014187D01*
X010790Y014286D02*
X010310Y014286D01*
X010310Y014384D02*
X010790Y014384D01*
X010790Y014483D02*
X010310Y014483D01*
X010310Y014581D02*
X010790Y014581D01*
X010790Y014680D02*
X010310Y014680D01*
X010310Y014778D02*
X010790Y014778D01*
X010790Y014877D02*
X010310Y014877D01*
X010310Y014975D02*
X010790Y014975D01*
X010790Y015074D02*
X010310Y015074D01*
X010254Y015172D02*
X010723Y015172D01*
X010594Y015271D02*
X010156Y015271D01*
X010057Y015369D02*
X010560Y015369D01*
X010568Y015468D02*
X010032Y015468D01*
X009973Y015566D02*
X010627Y015566D01*
X010800Y015400D02*
X010950Y015250D01*
X010150Y015050D02*
X009800Y015400D01*
X009627Y015566D02*
X008973Y015566D01*
X009032Y015468D02*
X009568Y015468D01*
X009560Y015369D02*
X009057Y015369D01*
X009156Y015271D02*
X009594Y015271D01*
X009723Y015172D02*
X009254Y015172D01*
X009353Y015074D02*
X009900Y015074D01*
X009990Y014975D02*
X009451Y014975D01*
X009550Y014877D02*
X009990Y014877D01*
X009990Y014778D02*
X009648Y014778D01*
X009747Y014680D02*
X009990Y014680D01*
X009990Y014581D02*
X009845Y014581D01*
X009944Y014483D02*
X009990Y014483D01*
X009900Y014300D02*
X008800Y015400D01*
X008723Y015172D02*
X008307Y015172D01*
X008315Y015074D02*
X008900Y015074D01*
X008999Y014975D02*
X008401Y014975D01*
X008500Y014877D02*
X009097Y014877D01*
X009196Y014778D02*
X008598Y014778D01*
X008697Y014680D02*
X009294Y014680D01*
X009393Y014581D02*
X008795Y014581D01*
X008894Y014483D02*
X009491Y014483D01*
X009590Y014384D02*
X008992Y014384D01*
X009091Y014286D02*
X009396Y014286D01*
X009326Y014187D02*
X009189Y014187D01*
X009288Y014089D02*
X009310Y014089D01*
X009064Y013860D02*
X008188Y013860D01*
X008250Y014010D01*
X008250Y014190D01*
X008192Y014329D01*
X008194Y014330D01*
X008244Y014363D01*
X008287Y014406D01*
X008320Y014456D01*
X008343Y014511D01*
X008355Y014569D01*
X009064Y013860D01*
X009032Y013892D02*
X008201Y013892D01*
X008242Y013990D02*
X008934Y013990D01*
X008835Y014089D02*
X008250Y014089D01*
X008250Y014187D02*
X008737Y014187D01*
X008638Y014286D02*
X008210Y014286D01*
X008265Y014384D02*
X008540Y014384D01*
X008441Y014483D02*
X008331Y014483D01*
X008351Y014572D02*
X008078Y014572D01*
X008078Y014628D01*
X008296Y014628D01*
X008351Y014572D01*
X008343Y014581D02*
X008078Y014581D01*
X008100Y014600D02*
X008050Y014600D01*
X008100Y014600D02*
X008400Y014300D01*
X008313Y013540D02*
X008312Y013538D01*
X008302Y013500D01*
X008302Y013356D01*
X008723Y013356D01*
X008723Y013308D01*
X008302Y013308D01*
X008302Y013164D01*
X008312Y013126D01*
X008332Y013091D01*
X008342Y013081D01*
X008342Y012744D01*
X008344Y012741D01*
X008342Y012738D01*
X008342Y012704D01*
X008222Y012704D01*
X007386Y013540D01*
X008313Y013540D01*
X008302Y013498D02*
X007429Y013498D01*
X007527Y013399D02*
X008302Y013399D01*
X008302Y013301D02*
X007626Y013301D01*
X007724Y013202D02*
X008302Y013202D01*
X008325Y013104D02*
X007823Y013104D01*
X007921Y013005D02*
X008342Y013005D01*
X008342Y012907D02*
X008020Y012907D01*
X008118Y012808D02*
X008342Y012808D01*
X008342Y012710D02*
X008217Y012710D01*
X008156Y012544D02*
X008747Y012544D01*
X008747Y012151D02*
X008451Y012151D01*
X007600Y011300D01*
X007023Y011300D01*
X006623Y011700D01*
X005800Y011700D01*
X005708Y011922D02*
X003850Y011922D01*
X003850Y012020D02*
X008094Y012020D01*
X008192Y012119D02*
X003850Y012119D01*
X003850Y012217D02*
X008291Y012217D01*
X008342Y012316D02*
X003850Y012316D01*
X003850Y012414D02*
X008060Y012414D01*
X007961Y012513D02*
X003850Y012513D01*
X003850Y012611D02*
X007863Y012611D01*
X007764Y012710D02*
X003850Y012710D01*
X003850Y012808D02*
X007666Y012808D01*
X007567Y012907D02*
X003850Y012907D01*
X003850Y013005D02*
X007469Y013005D01*
X007370Y013104D02*
X003850Y013104D01*
X003850Y013202D02*
X007272Y013202D01*
X007173Y013301D02*
X003850Y013301D01*
X003850Y013399D02*
X007075Y013399D01*
X006976Y013498D02*
X003850Y013498D01*
X003850Y013596D02*
X006878Y013596D01*
X006779Y013695D02*
X003850Y013695D01*
X003850Y013793D02*
X004817Y013793D01*
X004619Y013892D02*
X003850Y013892D01*
X003850Y013990D02*
X004481Y013990D01*
X004373Y014089D02*
X003850Y014089D01*
X003850Y014187D02*
X004285Y014187D01*
X004214Y014286D02*
X003850Y014286D01*
X003850Y014384D02*
X004155Y014384D01*
X004107Y014483D02*
X003850Y014483D01*
X003850Y014581D02*
X004069Y014581D01*
X004039Y014680D02*
X003850Y014680D01*
X003850Y014778D02*
X004019Y014778D01*
X005250Y014778D02*
X005350Y014778D01*
X005350Y014680D02*
X005250Y014680D01*
X005250Y014581D02*
X005350Y014581D01*
X005350Y014483D02*
X005250Y014483D01*
X005250Y014384D02*
X005350Y014384D01*
X005350Y014286D02*
X005250Y014286D01*
X005250Y014187D02*
X005350Y014187D01*
X005350Y014089D02*
X005250Y014089D01*
X005250Y013990D02*
X005350Y013990D01*
X005350Y013892D02*
X005250Y013892D01*
X005250Y013793D02*
X005350Y013793D01*
X005783Y013793D02*
X006681Y013793D01*
X006582Y013892D02*
X005981Y013892D01*
X006119Y013990D02*
X006540Y013990D01*
X006540Y014089D02*
X006227Y014089D01*
X006315Y014187D02*
X006540Y014187D01*
X006540Y014286D02*
X006386Y014286D01*
X006445Y014384D02*
X006540Y014384D01*
X006540Y014483D02*
X006493Y014483D01*
X006531Y014581D02*
X006540Y014581D01*
X006700Y014600D02*
X006700Y014000D01*
X008156Y012544D01*
X007995Y011922D02*
X005892Y011922D01*
X005591Y011823D02*
X003850Y011823D01*
X003850Y011725D02*
X005560Y011725D01*
X005571Y011626D02*
X005398Y011626D01*
X005463Y011528D02*
X005633Y011528D01*
X005465Y011429D02*
X006175Y011429D01*
X006175Y011331D02*
X004627Y011331D01*
X004577Y011300D02*
X005800Y011300D01*
X005967Y011528D02*
X006175Y011528D01*
X006175Y011232D02*
X005465Y011232D01*
X005465Y011134D02*
X006175Y011134D01*
X006194Y011035D02*
X005451Y011035D01*
X005056Y010937D02*
X007560Y010937D01*
X007462Y010838D02*
X006712Y010838D01*
X006810Y010740D02*
X007363Y010740D01*
X007265Y010641D02*
X006909Y010641D01*
X006623Y010700D02*
X007023Y010300D01*
X007150Y010300D01*
X008250Y011400D01*
X008250Y011550D01*
X008457Y011757D01*
X008747Y011757D01*
X008747Y011363D02*
X008513Y011363D01*
X007900Y010750D01*
X007900Y009850D01*
X007400Y009350D01*
X007400Y009300D01*
X007023Y009300D01*
X006623Y009700D01*
X005800Y009700D01*
X005614Y009853D02*
X003669Y009853D01*
X003675Y009755D02*
X005563Y009755D01*
X005560Y009656D02*
X003652Y009656D01*
X003647Y009558D02*
X003740Y009558D01*
X003728Y009546D02*
X003728Y009054D01*
X003793Y008989D01*
X005360Y008989D01*
X005425Y009054D01*
X005425Y009546D01*
X005360Y009611D01*
X003793Y009611D01*
X003728Y009546D01*
X003728Y009459D02*
X003675Y009459D01*
X003675Y009361D02*
X003728Y009361D01*
X003728Y009262D02*
X003634Y009262D01*
X003665Y009164D02*
X003728Y009164D01*
X003728Y009065D02*
X003675Y009065D01*
X003657Y008967D02*
X007940Y008967D01*
X007940Y009065D02*
X007872Y009065D01*
X007872Y009164D02*
X007940Y009164D01*
X007940Y009262D02*
X007872Y009262D01*
X007872Y009361D02*
X007940Y009361D01*
X007940Y009459D02*
X007872Y009459D01*
X007860Y009558D02*
X007940Y009558D01*
X007932Y009656D02*
X007940Y009656D01*
X007677Y009853D02*
X006697Y009853D01*
X006795Y009755D02*
X007578Y009755D01*
X007480Y009656D02*
X006894Y009656D01*
X006175Y009459D02*
X005425Y009459D01*
X005425Y009361D02*
X006175Y009361D01*
X006175Y009262D02*
X005425Y009262D01*
X005425Y009164D02*
X006175Y009164D01*
X006175Y009065D02*
X005425Y009065D01*
X005414Y009558D02*
X005603Y009558D01*
X005421Y010050D02*
X006179Y010050D01*
X006175Y010149D02*
X005988Y010149D01*
X006038Y010247D02*
X006175Y010247D01*
X006175Y010346D02*
X006040Y010346D01*
X005995Y010444D02*
X006175Y010444D01*
X005800Y010300D02*
X004577Y010300D01*
X004765Y010641D02*
X004171Y010641D01*
X004073Y010740D02*
X004760Y010740D01*
X004799Y010838D02*
X003675Y010838D01*
X003656Y010937D02*
X004944Y010937D01*
X005000Y010700D02*
X006623Y010700D01*
X006924Y011626D02*
X007700Y011626D01*
X007798Y011725D02*
X006825Y011725D01*
X006727Y011823D02*
X007897Y011823D01*
X008520Y010970D02*
X008100Y010550D01*
X008100Y008750D01*
X007650Y008300D01*
X007023Y008300D01*
X006523Y007800D01*
X005800Y007800D01*
X005944Y007982D02*
X006479Y007982D01*
X006734Y007785D02*
X007658Y007785D01*
X007757Y007883D02*
X006833Y007883D01*
X006931Y007982D02*
X007855Y007982D01*
X007872Y008080D02*
X007954Y008080D01*
X007872Y008179D02*
X008052Y008179D01*
X008140Y008277D02*
X007872Y008277D01*
X007952Y008376D02*
X008140Y008376D01*
X008140Y008474D02*
X008050Y008474D01*
X007795Y008671D02*
X003675Y008671D01*
X003675Y008770D02*
X007893Y008770D01*
X007940Y008868D02*
X003643Y008868D01*
X003639Y008573D02*
X003755Y008573D01*
X003728Y008474D02*
X003661Y008474D01*
X003675Y008376D02*
X003728Y008376D01*
X003675Y007982D02*
X005656Y007982D01*
X005704Y008080D02*
X005425Y008080D01*
X005570Y007883D02*
X003643Y007883D01*
X003656Y007785D02*
X005570Y007785D01*
X005589Y007686D02*
X003675Y007686D01*
X003666Y007588D02*
X003770Y007588D01*
X003728Y007489D02*
X003634Y007489D01*
X003675Y007391D02*
X003728Y007391D01*
X003728Y007292D02*
X003675Y007292D01*
X003647Y007194D02*
X003728Y007194D01*
X003728Y007095D02*
X003652Y007095D01*
X003675Y006997D02*
X003786Y006997D01*
X003675Y006603D02*
X004440Y006603D01*
X004440Y006701D02*
X004318Y006701D01*
X004440Y006504D02*
X003652Y006504D01*
X003648Y006406D02*
X004440Y006406D01*
X004440Y006307D02*
X003675Y006307D01*
X003674Y006209D02*
X004440Y006209D01*
X004440Y006110D02*
X003633Y006110D01*
X003666Y006012D02*
X004440Y006012D01*
X004387Y005913D02*
X003675Y005913D01*
X003753Y005815D02*
X004288Y005815D01*
X004094Y005716D02*
X003801Y005716D01*
X003848Y005618D02*
X003989Y005618D01*
X003960Y005519D02*
X003850Y005519D01*
X003850Y005421D02*
X003973Y005421D01*
X004039Y005322D02*
X003850Y005322D01*
X003850Y005224D02*
X005872Y005224D01*
X005860Y005322D02*
X004361Y005322D01*
X004427Y005421D02*
X005890Y005421D01*
X006002Y005519D02*
X004445Y005519D01*
X004544Y005618D02*
X012110Y005618D01*
X012110Y005716D02*
X004642Y005716D01*
X004741Y005815D02*
X012110Y005815D01*
X012110Y005913D02*
X004760Y005913D01*
X004760Y006012D02*
X012110Y006012D01*
X012110Y006110D02*
X004760Y006110D01*
X004760Y006209D02*
X012110Y006209D01*
X012110Y006307D02*
X009050Y006307D01*
X009030Y006301D02*
X009105Y006325D01*
X009175Y006361D01*
X009238Y006407D01*
X009294Y006462D01*
X009340Y006526D01*
X009376Y006596D01*
X009400Y006671D01*
X009413Y006749D01*
X009413Y006779D01*
X008922Y006779D01*
X008922Y006797D01*
X009413Y006797D01*
X009413Y006828D01*
X009400Y006905D01*
X009376Y006980D01*
X009340Y007050D01*
X009294Y007114D01*
X009238Y007170D01*
X009175Y007216D01*
X009105Y007252D01*
X009030Y007276D01*
X008952Y007288D01*
X008922Y007288D01*
X008922Y006797D01*
X008904Y006797D01*
X008904Y007288D01*
X008873Y007288D01*
X008796Y007276D01*
X008721Y007252D01*
X008651Y007216D01*
X008587Y007170D01*
X008531Y007114D01*
X008485Y007050D01*
X008449Y006980D01*
X008425Y006905D01*
X008413Y006828D01*
X008413Y006797D01*
X008904Y006797D01*
X008904Y006779D01*
X008922Y006779D01*
X008922Y006288D01*
X008952Y006288D01*
X009030Y006301D01*
X008922Y006307D02*
X008904Y006307D01*
X008904Y006288D02*
X008873Y006288D01*
X008796Y006301D01*
X008721Y006325D01*
X008651Y006361D01*
X008587Y006407D01*
X008531Y006462D01*
X008485Y006526D01*
X008449Y006596D01*
X008425Y006671D01*
X008413Y006749D01*
X008413Y006779D01*
X008904Y006779D01*
X008904Y006288D01*
X008904Y006406D02*
X008922Y006406D01*
X008922Y006504D02*
X008904Y006504D01*
X008904Y006603D02*
X008922Y006603D01*
X008922Y006701D02*
X008904Y006701D01*
X008904Y006800D02*
X008922Y006800D01*
X008922Y006898D02*
X008904Y006898D01*
X008904Y006997D02*
X008922Y006997D01*
X008922Y007095D02*
X008904Y007095D01*
X008904Y007194D02*
X008922Y007194D01*
X009098Y007391D02*
X011512Y007391D01*
X011423Y007489D02*
X009240Y007489D01*
X009318Y007588D02*
X011335Y007588D01*
X011601Y007292D02*
X007872Y007292D01*
X007872Y007194D02*
X008620Y007194D01*
X008517Y007095D02*
X007872Y007095D01*
X007814Y006997D02*
X008458Y006997D01*
X008424Y006898D02*
X006848Y006898D01*
X006749Y006800D02*
X008413Y006800D01*
X008420Y006701D02*
X006651Y006701D01*
X006523Y006800D02*
X007023Y007300D01*
X007400Y007300D01*
X008300Y008200D01*
X008300Y010450D01*
X008426Y010576D01*
X008747Y010576D01*
X008747Y010970D02*
X008520Y010970D01*
X008747Y010182D02*
X008600Y010035D01*
X008600Y009800D01*
X008795Y009656D02*
X009189Y009656D01*
X009189Y009558D02*
X008460Y009558D01*
X008460Y009459D02*
X009189Y009459D01*
X009189Y009361D02*
X008460Y009361D01*
X008460Y009262D02*
X009189Y009262D01*
X009189Y009164D02*
X008460Y009164D01*
X008460Y009065D02*
X008826Y009065D01*
X008768Y008967D02*
X008460Y008967D01*
X008460Y008868D02*
X008760Y008868D01*
X008794Y008770D02*
X008460Y008770D01*
X008460Y008671D02*
X008904Y008671D01*
X009002Y008573D02*
X008460Y008573D01*
X008460Y008474D02*
X009101Y008474D01*
X009199Y008376D02*
X008460Y008376D01*
X008460Y008277D02*
X009298Y008277D01*
X009396Y008179D02*
X009196Y008179D01*
X009295Y008080D02*
X009495Y008080D01*
X009751Y008474D02*
X011200Y008474D01*
X011101Y008573D02*
X009653Y008573D01*
X009554Y008671D02*
X011003Y008671D01*
X010904Y008770D02*
X009456Y008770D01*
X009357Y008868D02*
X010862Y008868D01*
X010862Y008967D02*
X009259Y008967D01*
X009174Y009065D02*
X010862Y009065D01*
X011022Y008878D02*
X011400Y008500D01*
X014800Y008500D01*
X015300Y008000D01*
X015461Y008179D02*
X017184Y008179D01*
X017272Y008277D02*
X015249Y008277D01*
X015151Y008376D02*
X017360Y008376D01*
X017448Y008474D02*
X015052Y008474D01*
X014954Y008573D02*
X017546Y008573D01*
X017645Y008671D02*
X011806Y008671D01*
X011600Y008800D02*
X011416Y008984D01*
X011022Y008878D02*
X011022Y009482D01*
X011022Y009778D01*
X010150Y010650D01*
X010150Y015050D01*
X009900Y014300D02*
X009900Y012700D01*
X009900Y010500D01*
X010628Y009772D01*
X010628Y009482D01*
X010235Y009482D02*
X010235Y009765D01*
X009650Y010350D01*
X009650Y012400D01*
X009650Y014000D01*
X009550Y014100D01*
X009400Y013750D02*
X008050Y015100D01*
X008254Y015271D02*
X008594Y015271D01*
X008325Y015665D02*
X016881Y015665D01*
X016829Y015566D02*
X015973Y015566D01*
X016058Y015468D02*
X016787Y015468D01*
X016753Y015369D02*
X016156Y015369D01*
X016255Y015271D02*
X016728Y015271D01*
X016711Y015172D02*
X016283Y015172D01*
X016283Y015074D02*
X016701Y015074D01*
X017950Y015074D02*
X018050Y015074D01*
X018050Y015172D02*
X017950Y015172D01*
X017950Y015271D02*
X018050Y015271D01*
X018050Y015369D02*
X017950Y015369D01*
X017950Y015468D02*
X018050Y015468D01*
X018050Y015566D02*
X017950Y015566D01*
X017950Y015665D02*
X018050Y015665D01*
X018050Y015763D02*
X017950Y015763D01*
X017950Y015862D02*
X018050Y015862D01*
X018050Y015960D02*
X017950Y015960D01*
X017950Y016059D02*
X018050Y016059D01*
X018050Y016157D02*
X017950Y016157D01*
X017950Y016256D02*
X018050Y016256D01*
X018050Y014778D02*
X017950Y014778D01*
X017950Y014680D02*
X018050Y014680D01*
X018050Y014581D02*
X017950Y014581D01*
X017950Y014483D02*
X018050Y014483D01*
X018050Y014384D02*
X017950Y014384D01*
X017950Y014286D02*
X018050Y014286D01*
X018050Y014187D02*
X017950Y014187D01*
X017950Y014089D02*
X018050Y014089D01*
X018050Y013990D02*
X017950Y013990D01*
X017950Y013892D02*
X018050Y013892D01*
X018050Y013793D02*
X017950Y013793D01*
X017771Y013498D02*
X019450Y013498D01*
X019450Y013399D02*
X017870Y013399D01*
X017968Y013301D02*
X019450Y013301D01*
X019450Y013202D02*
X018067Y013202D01*
X018165Y013104D02*
X019450Y013104D01*
X019116Y009860D02*
X019059Y009860D01*
X019002Y009866D01*
X019116Y009860D02*
X019123Y009853D01*
X019038Y009459D02*
X015611Y009459D01*
X015611Y009361D02*
X019117Y009361D01*
X019195Y009262D02*
X015611Y009262D01*
X015611Y009164D02*
X019274Y009164D01*
X019290Y009065D02*
X018790Y009065D01*
X018851Y008967D02*
X019290Y008967D01*
X019290Y008868D02*
X018860Y008868D01*
X018828Y008770D02*
X019290Y008770D01*
X019290Y008671D02*
X018706Y008671D01*
X018535Y008671D02*
X018097Y008671D01*
X017999Y008573D02*
X019290Y008573D01*
X019290Y008474D02*
X017900Y008474D01*
X017802Y008376D02*
X019290Y008376D01*
X019290Y008277D02*
X017703Y008277D01*
X017614Y008179D02*
X019290Y008179D01*
X019290Y008080D02*
X017525Y008080D01*
X017437Y007982D02*
X019290Y007982D01*
X019290Y007883D02*
X017349Y007883D01*
X017310Y007785D02*
X019290Y007785D01*
X019290Y007686D02*
X017310Y007686D01*
X017310Y007588D02*
X019290Y007588D01*
X019290Y007489D02*
X017310Y007489D01*
X017310Y007391D02*
X019290Y007391D01*
X019290Y007292D02*
X017310Y007292D01*
X017310Y007194D02*
X019290Y007194D01*
X019290Y006307D02*
X016953Y006307D01*
X017045Y006406D02*
X017861Y006406D01*
X017861Y006504D02*
X017138Y006504D01*
X017231Y006603D02*
X017861Y006603D01*
X017861Y006701D02*
X017312Y006701D01*
X017310Y006800D02*
X017861Y006800D01*
X017861Y006898D02*
X017310Y006898D01*
X017310Y006997D02*
X017861Y006997D01*
X017861Y007095D02*
X017310Y007095D01*
X016990Y007095D02*
X016820Y007095D01*
X016840Y006997D02*
X016990Y006997D01*
X016990Y006898D02*
X016818Y006898D01*
X016740Y006800D02*
X016977Y006800D01*
X016884Y006701D02*
X016818Y006701D01*
X016600Y006600D02*
X015300Y006600D01*
X014700Y006600D01*
X013800Y007500D01*
X013576Y007588D02*
X012460Y007588D01*
X012460Y007686D02*
X013647Y007686D01*
X013560Y007489D02*
X012523Y007489D01*
X012540Y007391D02*
X013586Y007391D01*
X013675Y007292D02*
X012515Y007292D01*
X012429Y007194D02*
X013880Y007194D01*
X013979Y007095D02*
X012290Y007095D01*
X012379Y006997D02*
X014077Y006997D01*
X014176Y006898D02*
X012471Y006898D01*
X012490Y006800D02*
X014274Y006800D01*
X014373Y006701D02*
X012490Y006701D01*
X012490Y006603D02*
X014471Y006603D01*
X014570Y006504D02*
X012490Y006504D01*
X012490Y006406D02*
X014879Y006406D01*
X014781Y006307D02*
X012490Y006307D01*
X012490Y006209D02*
X014682Y006209D01*
X014584Y006110D02*
X012490Y006110D01*
X012490Y006012D02*
X014485Y006012D01*
X014387Y005913D02*
X012490Y005913D01*
X012490Y005815D02*
X014288Y005815D01*
X014190Y005716D02*
X012490Y005716D01*
X012490Y005618D02*
X014091Y005618D01*
X013993Y005519D02*
X012490Y005519D01*
X012490Y005421D02*
X013894Y005421D01*
X013796Y005322D02*
X012490Y005322D01*
X012490Y005224D02*
X012587Y005224D01*
X012763Y005224D02*
X013612Y005224D01*
X013492Y005125D02*
X012883Y005125D01*
X012915Y005027D02*
X013460Y005027D01*
X013470Y004928D02*
X012992Y004928D01*
X013100Y004830D02*
X013531Y004830D01*
X013700Y005000D02*
X015025Y006325D01*
X016750Y006325D01*
X017150Y006750D01*
X017150Y007900D01*
X017570Y008370D01*
X018095Y008895D01*
X018620Y008895D01*
X018451Y009065D02*
X013612Y009065D01*
X013778Y009482D02*
X013778Y009822D01*
X013450Y010150D01*
X013450Y011050D01*
X013225Y011134D02*
X012160Y011134D01*
X012160Y011232D02*
X013290Y011232D01*
X013290Y011229D02*
X013290Y012534D01*
X012160Y013664D01*
X012160Y011729D01*
X012203Y011686D01*
X012240Y011598D01*
X012240Y011502D01*
X012203Y011414D01*
X012160Y011371D01*
X012160Y010666D01*
X012666Y010160D01*
X013166Y010160D01*
X013260Y010066D01*
X013439Y009887D01*
X013487Y009887D01*
X013384Y009990D01*
X013290Y010084D01*
X013290Y010871D01*
X013247Y010914D01*
X013210Y011002D01*
X013210Y011098D01*
X013247Y011186D01*
X013290Y011229D01*
X013290Y011331D02*
X012160Y011331D01*
X012210Y011429D02*
X013290Y011429D01*
X013290Y011528D02*
X012240Y011528D01*
X012228Y011626D02*
X013290Y011626D01*
X013290Y011725D02*
X012165Y011725D01*
X012160Y011823D02*
X013290Y011823D01*
X013290Y011922D02*
X012160Y011922D01*
X012160Y012020D02*
X013290Y012020D01*
X013290Y012119D02*
X012160Y012119D01*
X012160Y012217D02*
X013290Y012217D01*
X013290Y012316D02*
X012160Y012316D01*
X012160Y012414D02*
X013290Y012414D01*
X013290Y012513D02*
X012160Y012513D01*
X012160Y012611D02*
X013213Y012611D01*
X013114Y012710D02*
X012160Y012710D01*
X012160Y012808D02*
X013016Y012808D01*
X012917Y012907D02*
X012160Y012907D01*
X012160Y013005D02*
X012819Y013005D01*
X012720Y013104D02*
X012160Y013104D01*
X012160Y013202D02*
X012622Y013202D01*
X012523Y013301D02*
X012160Y013301D01*
X012160Y013399D02*
X012425Y013399D01*
X012326Y013498D02*
X012160Y013498D01*
X012160Y013596D02*
X012228Y013596D01*
X011700Y013500D02*
X011200Y014000D01*
X011423Y014089D02*
X011440Y014089D01*
X011440Y014187D02*
X011352Y014187D01*
X011440Y013990D02*
X011440Y013990D01*
X011700Y013500D02*
X011700Y011200D01*
X011700Y010400D01*
X012250Y009850D01*
X012618Y009482D01*
X012991Y009482D01*
X013375Y009952D02*
X013422Y009952D01*
X013324Y010050D02*
X013276Y010050D01*
X013290Y010149D02*
X013178Y010149D01*
X013290Y010247D02*
X012579Y010247D01*
X012481Y010346D02*
X013290Y010346D01*
X013290Y010444D02*
X012382Y010444D01*
X012284Y010543D02*
X013290Y010543D01*
X013290Y010641D02*
X012185Y010641D01*
X012160Y010740D02*
X013290Y010740D01*
X013290Y010838D02*
X012160Y010838D01*
X012160Y010937D02*
X013237Y010937D01*
X013210Y011035D02*
X012160Y011035D01*
X011140Y011035D02*
X010510Y011035D01*
X010510Y010937D02*
X011140Y010937D01*
X011140Y010838D02*
X010588Y010838D01*
X010687Y010740D02*
X011140Y010740D01*
X011140Y010641D02*
X010785Y010641D01*
X010884Y010543D02*
X011140Y010543D01*
X011140Y010444D02*
X010982Y010444D01*
X011081Y010346D02*
X011140Y010346D01*
X011140Y011134D02*
X010510Y011134D01*
X010510Y011232D02*
X011140Y011232D01*
X011140Y011331D02*
X010510Y011331D01*
X010510Y011429D02*
X011140Y011429D01*
X011140Y011528D02*
X010510Y011528D01*
X010510Y011626D02*
X011140Y011626D01*
X011140Y011725D02*
X010510Y011725D01*
X010510Y011823D02*
X011140Y011823D01*
X011140Y011922D02*
X010510Y011922D01*
X010510Y012020D02*
X011140Y012020D01*
X011140Y012119D02*
X010510Y012119D01*
X010510Y012217D02*
X011140Y012217D01*
X011140Y012316D02*
X010510Y012316D01*
X010510Y012414D02*
X011140Y012414D01*
X011140Y012513D02*
X010510Y012513D01*
X010510Y012611D02*
X011140Y012611D01*
X011140Y012710D02*
X010510Y012710D01*
X010510Y012808D02*
X011140Y012808D01*
X011140Y012907D02*
X010510Y012907D01*
X010510Y013005D02*
X011140Y013005D01*
X011140Y013104D02*
X010510Y013104D01*
X010510Y013202D02*
X011140Y013202D01*
X011140Y013301D02*
X010510Y013301D01*
X010510Y013399D02*
X011140Y013399D01*
X011126Y013498D02*
X010510Y013498D01*
X010510Y013596D02*
X011028Y013596D01*
X010929Y013695D02*
X010510Y013695D01*
X010577Y013793D02*
X010831Y013793D01*
X010790Y013892D02*
X010665Y013892D01*
X010690Y013990D02*
X010790Y013990D01*
X009400Y013750D02*
X009400Y010200D01*
X009841Y009759D01*
X009841Y009482D01*
X009447Y009482D02*
X009447Y009753D01*
X009200Y010000D01*
X009200Y013500D01*
X009000Y013700D01*
X007300Y013700D01*
X006900Y014100D01*
X006900Y014450D01*
X007550Y015100D01*
X007200Y015400D02*
X007400Y015600D01*
X007550Y015600D01*
X006800Y016200D02*
X006800Y014700D01*
X006700Y014600D01*
X006640Y014778D02*
X006581Y014778D01*
X006594Y014877D02*
X006640Y014877D01*
X005350Y015074D02*
X005250Y015074D01*
X005250Y015172D02*
X005350Y015172D01*
X005350Y015271D02*
X005250Y015271D01*
X005250Y015369D02*
X005350Y015369D01*
X005350Y015468D02*
X005250Y015468D01*
X005250Y015566D02*
X005350Y015566D01*
X005350Y015665D02*
X005250Y015665D01*
X005250Y015763D02*
X005350Y015763D01*
X005350Y015862D02*
X005250Y015862D01*
X005250Y015960D02*
X005350Y015960D01*
X005350Y016059D02*
X005250Y016059D01*
X005250Y016157D02*
X005350Y016157D01*
X005350Y016256D02*
X005250Y016256D01*
X003348Y017536D02*
X010950Y017536D01*
X010950Y018029D02*
X009265Y018029D01*
X009363Y018127D02*
X010950Y018127D01*
X010950Y018226D02*
X009450Y018226D01*
X009450Y018324D02*
X010950Y018324D01*
X010950Y018423D02*
X009050Y018423D01*
X009050Y018324D02*
X008950Y018324D01*
X008950Y018226D02*
X009050Y018226D01*
X009050Y018127D02*
X008950Y018127D01*
X008950Y018029D02*
X009050Y018029D01*
X008735Y018029D02*
X008208Y018029D01*
X008307Y018127D02*
X008637Y018127D01*
X008550Y018226D02*
X008405Y018226D01*
X008410Y018324D02*
X008550Y018324D01*
X009318Y018718D02*
X010950Y018718D01*
X010950Y018620D02*
X009417Y018620D01*
X009450Y018521D02*
X010950Y018521D01*
X010950Y019999D02*
X008190Y019999D01*
X008190Y020097D02*
X010950Y020097D01*
X010950Y020196D02*
X008190Y020196D01*
X008190Y020294D02*
X010950Y020294D01*
X010950Y020393D02*
X008176Y020393D01*
X008078Y020491D02*
X010950Y020491D01*
X010950Y020590D02*
X007979Y020590D01*
X007881Y020688D02*
X010950Y020688D01*
X010950Y020787D02*
X007782Y020787D01*
X007684Y020885D02*
X010950Y020885D01*
X010950Y020984D02*
X007585Y020984D01*
X007487Y021082D02*
X010950Y021082D01*
X010950Y021969D02*
X007319Y021969D01*
X007401Y022067D02*
X010950Y022067D01*
X010950Y022166D02*
X007442Y022166D01*
X007460Y022264D02*
X010950Y022264D01*
X010950Y022363D02*
X007460Y022363D01*
X007431Y022461D02*
X010950Y022461D01*
X010950Y022560D02*
X007390Y022560D01*
X007292Y022658D02*
X010950Y022658D01*
X012973Y015566D02*
X013627Y015566D01*
X013568Y015468D02*
X013032Y015468D01*
X013057Y015369D02*
X013560Y015369D01*
X013594Y015271D02*
X013156Y015271D01*
X013254Y015172D02*
X013723Y015172D01*
X013900Y015074D02*
X013353Y015074D01*
X013451Y014975D02*
X013999Y014975D01*
X014097Y014877D02*
X013550Y014877D01*
X013648Y014778D02*
X014196Y014778D01*
X014294Y014680D02*
X013747Y014680D01*
X013845Y014581D02*
X014393Y014581D01*
X014440Y014483D02*
X013944Y014483D01*
X014010Y014384D02*
X014440Y014384D01*
X014440Y014286D02*
X014010Y014286D01*
X014010Y014187D02*
X014440Y014187D01*
X014440Y014089D02*
X014010Y014089D01*
X014010Y013990D02*
X014440Y013990D01*
X014440Y013892D02*
X014010Y013892D01*
X014010Y013793D02*
X014440Y013793D01*
X014440Y013695D02*
X014010Y013695D01*
X014010Y013596D02*
X014440Y013596D01*
X014440Y013498D02*
X014010Y013498D01*
X014010Y013399D02*
X014440Y013399D01*
X014440Y013301D02*
X014010Y013301D01*
X014010Y013202D02*
X014440Y013202D01*
X014440Y013104D02*
X014010Y013104D01*
X014010Y013005D02*
X014440Y013005D01*
X014440Y012907D02*
X014329Y012907D01*
X014415Y012808D02*
X014440Y012808D01*
X014440Y012710D02*
X014440Y012710D01*
X014440Y012611D02*
X014423Y012611D01*
X014440Y012513D02*
X014360Y012513D01*
X014360Y012414D02*
X014440Y012414D01*
X014440Y012316D02*
X014360Y012316D01*
X014200Y012700D02*
X014200Y011100D01*
X014700Y010600D01*
X014318Y010182D02*
X013850Y010650D01*
X013850Y014350D01*
X012800Y015400D01*
X014010Y012907D02*
X014071Y012907D01*
X013850Y010650D02*
X013800Y010650D01*
X013670Y010444D02*
X013610Y010444D01*
X013610Y010346D02*
X013928Y010346D01*
X014027Y010247D02*
X013610Y010247D01*
X013678Y010149D02*
X014125Y010149D01*
X014224Y010050D02*
X013776Y010050D01*
X013875Y009952D02*
X015685Y009952D01*
X016053Y010182D02*
X014318Y010182D01*
X014797Y008277D02*
X012049Y008277D01*
X012148Y008179D02*
X014895Y008179D01*
X014994Y008080D02*
X012246Y008080D01*
X012345Y007982D02*
X013942Y007982D01*
X013875Y007883D02*
X012443Y007883D01*
X012460Y007785D02*
X013860Y007785D01*
X014100Y007800D02*
X014900Y007000D01*
X015800Y007000D01*
X016600Y007000D01*
X016746Y007194D02*
X016990Y007194D01*
X016990Y007292D02*
X016725Y007292D01*
X016814Y007391D02*
X016990Y007391D01*
X016990Y007489D02*
X016840Y007489D01*
X016824Y007588D02*
X016990Y007588D01*
X016990Y007686D02*
X016753Y007686D01*
X016600Y007500D02*
X016450Y007350D01*
X015800Y007350D01*
X015617Y007194D02*
X014933Y007194D01*
X014834Y007292D02*
X015564Y007292D01*
X015560Y007391D02*
X014736Y007391D01*
X014637Y007489D02*
X015600Y007489D01*
X015746Y007588D02*
X014539Y007588D01*
X014440Y007686D02*
X016447Y007686D01*
X016376Y007588D02*
X015854Y007588D01*
X015540Y007982D02*
X017005Y007982D01*
X016990Y007883D02*
X015511Y007883D01*
X015407Y007785D02*
X016990Y007785D01*
X017096Y008080D02*
X015527Y008080D01*
X015193Y007785D02*
X014342Y007785D01*
X014325Y007883D02*
X015089Y007883D01*
X015060Y007982D02*
X014258Y007982D01*
X015036Y006110D02*
X015261Y006110D01*
X015164Y006012D02*
X014938Y006012D01*
X014839Y005913D02*
X015067Y005913D01*
X014970Y005815D02*
X014741Y005815D01*
X014642Y005716D02*
X014873Y005716D01*
X014776Y005618D02*
X014544Y005618D01*
X014445Y005519D02*
X014679Y005519D01*
X014582Y005421D02*
X014347Y005421D01*
X014248Y005322D02*
X014485Y005322D01*
X014388Y005224D02*
X014150Y005224D01*
X014051Y005125D02*
X014291Y005125D01*
X014194Y005027D02*
X013953Y005027D01*
X013930Y004928D02*
X014097Y004928D01*
X014000Y004830D02*
X013869Y004830D01*
X013903Y004731D02*
X013209Y004731D01*
X013225Y004500D02*
X012675Y005000D01*
X012506Y004830D02*
X012469Y004830D01*
X012733Y004731D02*
X008538Y004731D01*
X008440Y004830D02*
X012131Y004830D01*
X012070Y004928D02*
X008407Y004928D01*
X008280Y005027D02*
X012060Y005027D01*
X012092Y005125D02*
X008144Y005125D01*
X008045Y005224D02*
X012110Y005224D01*
X012110Y005322D02*
X007947Y005322D01*
X007848Y005421D02*
X012110Y005421D01*
X012110Y005519D02*
X006198Y005519D01*
X005936Y005125D02*
X003850Y005125D01*
X003850Y005027D02*
X004120Y005027D01*
X004152Y005040D02*
X004064Y005003D01*
X003997Y004936D01*
X003960Y004848D01*
X003960Y004752D01*
X003997Y004664D01*
X004064Y004597D01*
X004152Y004560D01*
X004248Y004560D01*
X004336Y004597D01*
X004379Y004640D01*
X004934Y004640D01*
X006660Y002914D01*
X006660Y002852D01*
X006697Y002764D01*
X006764Y002697D01*
X006852Y002660D01*
X006948Y002660D01*
X007036Y002697D01*
X007103Y002764D01*
X007140Y002852D01*
X007140Y002948D01*
X007103Y003036D01*
X007036Y003103D01*
X006948Y003140D01*
X006886Y003140D01*
X005160Y004866D01*
X005066Y004960D01*
X004379Y004960D01*
X004336Y005003D01*
X004248Y005040D01*
X004152Y005040D01*
X004280Y005027D02*
X007705Y005027D01*
X007803Y004928D02*
X005098Y004928D01*
X005197Y004830D02*
X007902Y004830D01*
X007969Y004731D02*
X005295Y004731D01*
X005394Y004633D02*
X008028Y004633D01*
X008197Y004534D02*
X005492Y004534D01*
X005591Y004436D02*
X008296Y004436D01*
X008394Y004337D02*
X005689Y004337D01*
X005788Y004239D02*
X008493Y004239D01*
X008591Y004140D02*
X005886Y004140D01*
X005985Y004042D02*
X008690Y004042D01*
X008788Y003943D02*
X006083Y003943D01*
X006182Y003845D02*
X009376Y003845D01*
X009277Y003746D02*
X006280Y003746D01*
X006379Y003648D02*
X009179Y003648D01*
X009080Y003549D02*
X006477Y003549D01*
X006576Y003451D02*
X008982Y003451D01*
X008883Y003352D02*
X006674Y003352D01*
X006773Y003254D02*
X008785Y003254D01*
X008686Y003155D02*
X006871Y003155D01*
X007083Y003057D02*
X008588Y003057D01*
X008489Y002958D02*
X007136Y002958D01*
X007140Y002860D02*
X008391Y002860D01*
X008292Y002761D02*
X007100Y002761D01*
X006954Y002663D02*
X008123Y002663D01*
X008067Y002564D02*
X006573Y002564D01*
X006563Y002616D02*
X006525Y002738D01*
X006477Y002856D01*
X006416Y002969D01*
X006345Y003075D01*
X006264Y003174D01*
X006174Y003264D01*
X006075Y003345D01*
X005969Y003416D01*
X005856Y003477D01*
X005738Y003525D01*
X005616Y003563D01*
X005491Y003587D01*
X005364Y003600D01*
X005350Y003600D01*
X005350Y002350D01*
X006600Y002350D01*
X006600Y002364D01*
X006587Y002491D01*
X006563Y002616D01*
X006549Y002663D02*
X006846Y002663D01*
X006700Y002761D02*
X006516Y002761D01*
X006475Y002860D02*
X006660Y002860D01*
X006616Y002958D02*
X006422Y002958D01*
X006358Y003057D02*
X006517Y003057D01*
X006419Y003155D02*
X006280Y003155D01*
X006320Y003254D02*
X006185Y003254D01*
X006222Y003352D02*
X006065Y003352D01*
X006123Y003451D02*
X005905Y003451D01*
X006025Y003549D02*
X005661Y003549D01*
X005828Y003746D02*
X003850Y003746D01*
X003850Y003648D02*
X005926Y003648D01*
X005729Y003845D02*
X003850Y003845D01*
X003850Y003943D02*
X005631Y003943D01*
X005532Y004042D02*
X003850Y004042D01*
X003850Y004140D02*
X005434Y004140D01*
X005335Y004239D02*
X003850Y004239D01*
X003850Y004337D02*
X005237Y004337D01*
X005138Y004436D02*
X003850Y004436D01*
X003850Y004534D02*
X005040Y004534D01*
X004941Y004633D02*
X004372Y004633D01*
X004200Y004800D02*
X005000Y004800D01*
X006900Y002900D01*
X006590Y002466D02*
X008060Y002466D01*
X008095Y002367D02*
X006600Y002367D01*
X006600Y002250D02*
X005350Y002250D01*
X005350Y002350D01*
X005250Y002350D01*
X005250Y003600D01*
X005236Y003600D01*
X005109Y003587D01*
X004984Y003563D01*
X004862Y003525D01*
X004744Y003477D01*
X004631Y003416D01*
X004525Y003345D01*
X004426Y003264D01*
X004336Y003174D01*
X004255Y003075D01*
X004184Y002969D01*
X004123Y002856D01*
X004075Y002738D01*
X004037Y002616D01*
X004013Y002491D01*
X004000Y002364D01*
X004000Y002350D01*
X005250Y002350D01*
X005250Y002250D01*
X005350Y002250D01*
X005350Y001000D01*
X005364Y001000D01*
X005491Y001013D01*
X005616Y001037D01*
X005738Y001075D01*
X005856Y001123D01*
X005969Y001184D01*
X006075Y001255D01*
X006174Y001336D01*
X006264Y001426D01*
X006345Y001525D01*
X006416Y001631D01*
X006477Y001744D01*
X006525Y001862D01*
X006563Y001984D01*
X006587Y002109D01*
X006600Y002236D01*
X006600Y002250D01*
X006593Y002170D02*
X009650Y002170D01*
X009650Y002072D02*
X006580Y002072D01*
X006559Y001973D02*
X009650Y001973D01*
X009650Y001875D02*
X006529Y001875D01*
X006490Y001776D02*
X009650Y001776D01*
X009650Y001678D02*
X006441Y001678D01*
X006382Y001579D02*
X009650Y001579D01*
X009650Y001481D02*
X006309Y001481D01*
X006220Y001382D02*
X009650Y001382D01*
X009650Y001284D02*
X006111Y001284D01*
X005971Y001185D02*
X009650Y001185D01*
X009650Y001087D02*
X005767Y001087D01*
X005350Y001087D02*
X005250Y001087D01*
X005250Y001000D02*
X005250Y002250D01*
X004000Y002250D01*
X004000Y002236D01*
X004013Y002109D01*
X004037Y001984D01*
X004075Y001862D01*
X004123Y001744D01*
X004184Y001631D01*
X004255Y001525D01*
X004336Y001426D01*
X004426Y001336D01*
X004525Y001255D01*
X004631Y001184D01*
X004744Y001123D01*
X004862Y001075D01*
X004984Y001037D01*
X005109Y001013D01*
X005236Y001000D01*
X005250Y001000D01*
X005250Y001185D02*
X005350Y001185D01*
X005350Y001284D02*
X005250Y001284D01*
X005250Y001382D02*
X005350Y001382D01*
X005350Y001481D02*
X005250Y001481D01*
X005250Y001579D02*
X005350Y001579D01*
X005350Y001678D02*
X005250Y001678D01*
X005250Y001776D02*
X005350Y001776D01*
X005350Y001875D02*
X005250Y001875D01*
X005250Y001973D02*
X005350Y001973D01*
X005350Y002072D02*
X005250Y002072D01*
X005250Y002170D02*
X005350Y002170D01*
X005350Y002269D02*
X008232Y002269D01*
X008368Y002269D02*
X008832Y002269D01*
X008968Y002269D02*
X009650Y002269D01*
X009650Y002367D02*
X009105Y002367D01*
X009140Y002466D02*
X009650Y002466D01*
X009650Y002564D02*
X009233Y002564D01*
X009331Y002663D02*
X009650Y002663D01*
X009650Y002761D02*
X009430Y002761D01*
X009528Y002860D02*
X009672Y002860D01*
X009627Y002958D02*
X009729Y002958D01*
X009771Y003029D02*
X009771Y003029D01*
X009771Y003029D01*
X009725Y003057D02*
X009817Y003057D01*
X009824Y003155D02*
X017020Y003155D01*
X016942Y003057D02*
X013483Y003057D01*
X013529Y003029D02*
X013529Y003029D01*
X013529Y003029D01*
X013571Y002958D02*
X016878Y002958D01*
X016825Y002860D02*
X013628Y002860D01*
X013650Y002761D02*
X016784Y002761D01*
X016751Y002663D02*
X013650Y002663D01*
X013650Y002564D02*
X016727Y002564D01*
X016710Y002466D02*
X013650Y002466D01*
X013650Y002367D02*
X016700Y002367D01*
X016700Y002250D02*
X016700Y002236D01*
X016713Y002109D01*
X016737Y001984D01*
X016775Y001862D01*
X016823Y001744D01*
X016884Y001631D01*
X016955Y001525D01*
X017036Y001426D01*
X017126Y001336D01*
X017225Y001255D01*
X017331Y001184D01*
X017444Y001123D01*
X017562Y001075D01*
X017684Y001037D01*
X017809Y001013D01*
X017936Y001000D01*
X017950Y001000D01*
X017950Y002250D01*
X018050Y002250D01*
X018050Y002350D01*
X019300Y002350D01*
X019300Y002364D01*
X019287Y002491D01*
X019263Y002616D01*
X019225Y002738D01*
X019177Y002856D01*
X019116Y002969D01*
X019045Y003075D01*
X018964Y003174D01*
X018874Y003264D01*
X018775Y003345D01*
X018669Y003416D01*
X018556Y003477D01*
X018438Y003525D01*
X018316Y003563D01*
X018191Y003587D01*
X018064Y003600D01*
X018050Y003600D01*
X018050Y002350D01*
X017950Y002350D01*
X017950Y002250D01*
X016700Y002250D01*
X016707Y002170D02*
X013650Y002170D01*
X013650Y002072D02*
X016720Y002072D01*
X016741Y001973D02*
X013650Y001973D01*
X013650Y001875D02*
X016771Y001875D01*
X016810Y001776D02*
X013650Y001776D01*
X013650Y001678D02*
X016859Y001678D01*
X016918Y001579D02*
X013650Y001579D01*
X013650Y001481D02*
X016991Y001481D01*
X017080Y001382D02*
X013650Y001382D01*
X013650Y001284D02*
X017189Y001284D01*
X017329Y001185D02*
X013650Y001185D01*
X013650Y001087D02*
X017533Y001087D01*
X017950Y001087D02*
X018050Y001087D01*
X018050Y001000D02*
X018064Y001000D01*
X018191Y001013D01*
X018316Y001037D01*
X018438Y001075D01*
X018556Y001123D01*
X018669Y001184D01*
X018775Y001255D01*
X018874Y001336D01*
X018964Y001426D01*
X019045Y001525D01*
X019116Y001631D01*
X019177Y001744D01*
X019225Y001862D01*
X019263Y001984D01*
X019287Y002109D01*
X019300Y002236D01*
X019300Y002250D01*
X018050Y002250D01*
X018050Y001000D01*
X018050Y001185D02*
X017950Y001185D01*
X017950Y001284D02*
X018050Y001284D01*
X018050Y001382D02*
X017950Y001382D01*
X017950Y001481D02*
X018050Y001481D01*
X018050Y001579D02*
X017950Y001579D01*
X017950Y001678D02*
X018050Y001678D01*
X018050Y001776D02*
X017950Y001776D01*
X017950Y001875D02*
X018050Y001875D01*
X018050Y001973D02*
X017950Y001973D01*
X017950Y002072D02*
X018050Y002072D01*
X018050Y002170D02*
X017950Y002170D01*
X017950Y002269D02*
X013650Y002269D01*
X012839Y003451D02*
X017395Y003451D01*
X017639Y003549D02*
X012790Y003549D01*
X013087Y003648D02*
X017915Y003648D01*
X017926Y003636D02*
X019355Y003636D01*
X019420Y003701D01*
X019420Y004422D01*
X019355Y004486D01*
X017926Y004486D01*
X017861Y004422D01*
X017861Y003701D01*
X017926Y003636D01*
X017950Y003549D02*
X018050Y003549D01*
X018050Y003451D02*
X017950Y003451D01*
X017950Y003352D02*
X018050Y003352D01*
X018050Y003254D02*
X017950Y003254D01*
X017950Y003155D02*
X018050Y003155D01*
X018050Y003057D02*
X017950Y003057D01*
X017950Y002958D02*
X018050Y002958D01*
X018050Y002860D02*
X017950Y002860D01*
X017950Y002761D02*
X018050Y002761D01*
X018050Y002663D02*
X017950Y002663D01*
X017950Y002564D02*
X018050Y002564D01*
X018050Y002466D02*
X017950Y002466D01*
X017950Y002367D02*
X018050Y002367D01*
X018050Y002269D02*
X019448Y002269D01*
X019450Y002367D02*
X019300Y002367D01*
X019290Y002466D02*
X019450Y002466D01*
X019450Y002564D02*
X019273Y002564D01*
X019249Y002663D02*
X019450Y002663D01*
X019450Y002761D02*
X019216Y002761D01*
X019175Y002860D02*
X019450Y002860D01*
X019450Y002958D02*
X019122Y002958D01*
X019058Y003057D02*
X019450Y003057D01*
X019450Y003155D02*
X018980Y003155D01*
X018885Y003254D02*
X019450Y003254D01*
X019450Y003352D02*
X018765Y003352D01*
X018605Y003451D02*
X019450Y003451D01*
X019450Y003549D02*
X018361Y003549D01*
X017861Y003746D02*
X013137Y003746D01*
X013140Y003845D02*
X017861Y003845D01*
X017861Y003943D02*
X014213Y003943D01*
X014306Y004042D02*
X017861Y004042D01*
X017861Y004140D02*
X014399Y004140D01*
X014491Y004239D02*
X017861Y004239D01*
X017861Y004337D02*
X014584Y004337D01*
X014677Y004436D02*
X017875Y004436D01*
X017619Y004717D02*
X017639Y004752D01*
X017649Y004790D01*
X017649Y004958D01*
X016642Y004958D01*
X016642Y005055D01*
X016545Y005055D01*
X016545Y005353D01*
X015668Y005353D01*
X015630Y005343D01*
X015596Y005323D01*
X015568Y005295D01*
X015548Y005261D01*
X015538Y005223D01*
X015538Y005055D01*
X016545Y005055D01*
X016545Y004958D01*
X016642Y004958D01*
X016642Y004659D01*
X017519Y004659D01*
X017557Y004670D01*
X017591Y004689D01*
X017619Y004717D01*
X017627Y004731D02*
X019450Y004731D01*
X019450Y004633D02*
X014862Y004633D01*
X014955Y004731D02*
X015560Y004731D01*
X015568Y004717D02*
X015596Y004689D01*
X015630Y004670D01*
X015668Y004659D01*
X016545Y004659D01*
X016545Y004958D01*
X015538Y004958D01*
X015538Y004790D01*
X015548Y004752D01*
X015568Y004717D01*
X015538Y004830D02*
X015047Y004830D01*
X015140Y004928D02*
X015538Y004928D01*
X015538Y005125D02*
X015325Y005125D01*
X015233Y005027D02*
X016545Y005027D01*
X016642Y005027D02*
X017660Y005027D01*
X017649Y005055D02*
X017649Y005223D01*
X017639Y005261D01*
X017619Y005295D01*
X017591Y005323D01*
X017557Y005343D01*
X017519Y005353D01*
X016642Y005353D01*
X016642Y005055D01*
X017649Y005055D01*
X017649Y005125D02*
X017692Y005125D01*
X017649Y005224D02*
X017740Y005224D01*
X017740Y005322D02*
X017592Y005322D01*
X017740Y005421D02*
X015603Y005421D01*
X015595Y005322D02*
X015511Y005322D01*
X015538Y005224D02*
X015418Y005224D01*
X015174Y005519D02*
X015128Y005519D01*
X015082Y005421D02*
X015031Y005421D01*
X014989Y005322D02*
X014934Y005322D01*
X014896Y005224D02*
X014837Y005224D01*
X014804Y005125D02*
X014740Y005125D01*
X014711Y005027D02*
X014643Y005027D01*
X014618Y004928D02*
X014546Y004928D01*
X014526Y004830D02*
X014449Y004830D01*
X014433Y004731D02*
X014352Y004731D01*
X014340Y004633D02*
X014255Y004633D01*
X014247Y004534D02*
X014158Y004534D01*
X014155Y004436D02*
X014061Y004436D01*
X014062Y004337D02*
X008932Y004337D01*
X008833Y004436D02*
X013058Y004436D01*
X012950Y004534D02*
X008735Y004534D01*
X008636Y004633D02*
X012841Y004633D01*
X013225Y004500D02*
X013900Y004500D01*
X015500Y006125D01*
X017600Y006125D01*
X017900Y005800D01*
X017900Y005000D01*
X018069Y004830D02*
X019450Y004830D01*
X019450Y004928D02*
X018130Y004928D01*
X018140Y005027D02*
X019450Y005027D01*
X019450Y005125D02*
X018108Y005125D01*
X018060Y005224D02*
X019450Y005224D01*
X019300Y005500D02*
X019450Y005700D01*
X019450Y009200D01*
X019290Y006209D02*
X017743Y006209D01*
X017832Y006110D02*
X019290Y006110D01*
X019290Y006012D02*
X017922Y006012D01*
X018013Y005913D02*
X019290Y005913D01*
X019290Y005815D02*
X018061Y005815D01*
X018060Y005716D02*
X019194Y005716D01*
X019089Y005618D02*
X018060Y005618D01*
X018060Y005519D02*
X019060Y005519D01*
X019073Y005421D02*
X018060Y005421D01*
X018060Y005322D02*
X019139Y005322D01*
X019450Y004534D02*
X014769Y004534D01*
X015225Y005618D02*
X015267Y005618D01*
X015322Y005716D02*
X015360Y005716D01*
X015419Y005815D02*
X015452Y005815D01*
X015516Y005913D02*
X015544Y005913D01*
X016545Y005322D02*
X016642Y005322D01*
X016642Y005224D02*
X016545Y005224D01*
X016545Y005125D02*
X016642Y005125D01*
X016642Y004928D02*
X016545Y004928D01*
X016545Y004830D02*
X016642Y004830D01*
X016642Y004731D02*
X016545Y004731D01*
X017577Y005519D02*
X017740Y005519D01*
X017740Y005618D02*
X017609Y005618D01*
X017609Y005716D02*
X017740Y005716D01*
X017669Y005815D02*
X017609Y005815D01*
X017649Y004928D02*
X017670Y004928D01*
X017649Y004830D02*
X017731Y004830D01*
X019406Y004436D02*
X019450Y004436D01*
X019450Y004337D02*
X019420Y004337D01*
X019420Y004239D02*
X019450Y004239D01*
X019450Y004140D02*
X019420Y004140D01*
X019420Y004042D02*
X019450Y004042D01*
X019450Y003943D02*
X019420Y003943D01*
X019420Y003845D02*
X019450Y003845D01*
X019450Y003746D02*
X019420Y003746D01*
X019450Y003648D02*
X019366Y003648D01*
X019293Y002170D02*
X019441Y002170D01*
X019427Y002072D02*
X019280Y002072D01*
X019259Y001973D02*
X019401Y001973D01*
X019374Y001875D02*
X019229Y001875D01*
X019190Y001776D02*
X019348Y001776D01*
X019301Y001678D02*
X019141Y001678D01*
X019082Y001579D02*
X019244Y001579D01*
X019187Y001481D02*
X019009Y001481D01*
X018920Y001382D02*
X019115Y001382D01*
X019017Y001284D02*
X018811Y001284D01*
X018918Y001185D02*
X018671Y001185D01*
X018773Y001087D02*
X018467Y001087D01*
X018603Y000988D02*
X013650Y000988D01*
X013650Y000890D02*
X018290Y000890D01*
X012300Y007400D02*
X012300Y007800D01*
X011950Y008150D01*
X011650Y008150D01*
X011600Y008200D01*
X011690Y007194D02*
X009205Y007194D01*
X009308Y007095D02*
X011778Y007095D01*
X011867Y006997D02*
X009368Y006997D01*
X009401Y006898D02*
X011956Y006898D01*
X012045Y006800D02*
X009413Y006800D01*
X009405Y006701D02*
X012110Y006701D01*
X012110Y006603D02*
X009378Y006603D01*
X009324Y006504D02*
X012110Y006504D01*
X012110Y006406D02*
X009237Y006406D01*
X008775Y006307D02*
X004760Y006307D01*
X004760Y006406D02*
X008589Y006406D01*
X008501Y006504D02*
X004760Y006504D01*
X004760Y006603D02*
X005672Y006603D01*
X005574Y006701D02*
X004760Y006701D01*
X004760Y006800D02*
X005570Y006800D01*
X005573Y006898D02*
X004760Y006898D01*
X004600Y007100D02*
X004600Y005900D01*
X004200Y005500D01*
X003993Y004928D02*
X003850Y004928D01*
X003850Y004830D02*
X003960Y004830D01*
X003969Y004731D02*
X003850Y004731D01*
X003850Y004633D02*
X004028Y004633D01*
X003850Y003549D02*
X004939Y003549D01*
X004695Y003451D02*
X003850Y003451D01*
X003850Y003352D02*
X004535Y003352D01*
X004415Y003254D02*
X003850Y003254D01*
X003850Y003155D02*
X004320Y003155D01*
X004242Y003057D02*
X003850Y003057D01*
X003850Y002958D02*
X004178Y002958D01*
X004125Y002860D02*
X003850Y002860D01*
X003850Y002761D02*
X004084Y002761D01*
X004051Y002663D02*
X003850Y002663D01*
X003850Y002564D02*
X004027Y002564D01*
X004010Y002466D02*
X003850Y002466D01*
X003850Y002367D02*
X004000Y002367D01*
X003852Y002269D02*
X005250Y002269D01*
X005250Y002367D02*
X005350Y002367D01*
X005350Y002466D02*
X005250Y002466D01*
X005250Y002564D02*
X005350Y002564D01*
X005350Y002663D02*
X005250Y002663D01*
X005250Y002761D02*
X005350Y002761D01*
X005350Y002860D02*
X005250Y002860D01*
X005250Y002958D02*
X005350Y002958D01*
X005350Y003057D02*
X005250Y003057D01*
X005250Y003155D02*
X005350Y003155D01*
X005350Y003254D02*
X005250Y003254D01*
X005250Y003352D02*
X005350Y003352D01*
X005350Y003451D02*
X005250Y003451D01*
X005250Y003549D02*
X005350Y003549D01*
X004007Y002170D02*
X003859Y002170D01*
X003873Y002072D02*
X004020Y002072D01*
X004041Y001973D02*
X003899Y001973D01*
X003926Y001875D02*
X004071Y001875D01*
X004110Y001776D02*
X003952Y001776D01*
X003999Y001678D02*
X004159Y001678D01*
X004218Y001579D02*
X004056Y001579D01*
X004113Y001481D02*
X004291Y001481D01*
X004380Y001382D02*
X004185Y001382D01*
X004283Y001284D02*
X004489Y001284D01*
X004382Y001185D02*
X004629Y001185D01*
X004527Y001087D02*
X004833Y001087D01*
X004697Y000988D02*
X009650Y000988D01*
X009650Y000890D02*
X005010Y000890D01*
X002850Y001678D02*
X002314Y001678D01*
X002412Y001776D02*
X002850Y001776D01*
X001746Y001382D02*
X001254Y001382D01*
X001353Y001284D02*
X001647Y001284D01*
X001550Y001185D02*
X001450Y001185D01*
X001450Y001087D02*
X001550Y001087D01*
X001550Y000890D02*
X001450Y000890D01*
X001427Y000791D02*
X001573Y000791D01*
X001671Y000693D02*
X001329Y000693D01*
X001230Y000594D02*
X001770Y000594D01*
X001050Y000594D02*
X000950Y000594D01*
X000950Y000693D02*
X001050Y000693D01*
X001050Y000791D02*
X000950Y000791D01*
X000770Y000594D02*
X000450Y000594D01*
X000450Y000693D02*
X000671Y000693D01*
X000573Y000791D02*
X000450Y000791D01*
X000950Y001087D02*
X001050Y001087D01*
X001050Y001185D02*
X000950Y001185D01*
X000950Y001284D02*
X001050Y001284D01*
X001050Y001382D02*
X000950Y001382D01*
X000450Y006504D02*
X001960Y006504D01*
X004577Y007300D02*
X005800Y007300D01*
X006022Y007391D02*
X006175Y007391D01*
X006175Y007489D02*
X005950Y007489D01*
X005913Y007588D02*
X006216Y007588D01*
X006175Y007292D02*
X006040Y007292D01*
X006016Y007194D02*
X006175Y007194D01*
X006175Y007095D02*
X005932Y007095D01*
X005929Y006997D02*
X006232Y006997D01*
X006523Y006800D02*
X005800Y006800D01*
X005671Y006997D02*
X005368Y006997D01*
X005425Y007095D02*
X005668Y007095D01*
X005650Y007489D02*
X005425Y007489D01*
X005384Y007588D02*
X005687Y007588D01*
X005896Y008080D02*
X006175Y008080D01*
X006175Y008179D02*
X006009Y008179D01*
X006040Y008277D02*
X006175Y008277D01*
X006175Y008376D02*
X006028Y008376D01*
X005965Y008474D02*
X006175Y008474D01*
X006201Y008573D02*
X005399Y008573D01*
X005425Y008474D02*
X005635Y008474D01*
X005800Y008300D02*
X004577Y008300D01*
X005928Y006603D02*
X008447Y006603D01*
X008728Y007391D02*
X007872Y007391D01*
X007872Y007489D02*
X008585Y007489D01*
X008508Y007588D02*
X007914Y007588D01*
X008012Y007686D02*
X008467Y007686D01*
X008453Y007785D02*
X008111Y007785D01*
X008209Y007883D02*
X008453Y007883D01*
X008485Y007982D02*
X008308Y007982D01*
X008406Y008080D02*
X008530Y008080D01*
X008460Y008179D02*
X008629Y008179D01*
X007560Y007686D02*
X006636Y007686D01*
X007740Y009952D02*
X003630Y009952D01*
X003671Y010050D02*
X003732Y010050D01*
X003728Y010149D02*
X003675Y010149D01*
X003651Y010247D02*
X003728Y010247D01*
X003728Y010346D02*
X003648Y010346D01*
X003675Y010444D02*
X003728Y010444D01*
X003702Y011035D02*
X003633Y011035D01*
X003674Y011134D02*
X003688Y011134D01*
X003067Y011035D02*
X002750Y011035D01*
X002750Y010937D02*
X003044Y010937D01*
X003025Y010838D02*
X002951Y010838D01*
X003026Y011134D02*
X002750Y011134D01*
X002750Y011232D02*
X003009Y011232D01*
X002949Y011280D02*
X002949Y011280D01*
X002925Y011331D02*
X002750Y011331D01*
X002750Y011429D02*
X002877Y011429D01*
X002850Y011528D02*
X002750Y011528D01*
X002750Y011626D02*
X002850Y011626D01*
X002850Y011725D02*
X002750Y011725D01*
X002750Y011823D02*
X002850Y011823D01*
X002850Y011922D02*
X002750Y011922D01*
X002750Y012020D02*
X002850Y012020D01*
X002850Y012119D02*
X002750Y012119D01*
X002750Y012217D02*
X002850Y012217D01*
X002850Y012316D02*
X002750Y012316D01*
X002750Y012414D02*
X002850Y012414D01*
X002850Y012513D02*
X002750Y012513D01*
X002750Y012611D02*
X002850Y012611D01*
X002850Y012710D02*
X002750Y012710D01*
X002750Y012808D02*
X002850Y012808D01*
X002850Y012907D02*
X002750Y012907D01*
X002750Y013005D02*
X002850Y013005D01*
X002850Y013104D02*
X002750Y013104D01*
X002750Y013202D02*
X002850Y013202D01*
X002850Y013301D02*
X002750Y013301D01*
X002750Y013399D02*
X002850Y013399D01*
X004527Y011626D02*
X004627Y011626D01*
X004627Y011528D02*
X004527Y011528D01*
X004527Y011429D02*
X004627Y011429D01*
X004627Y011232D02*
X004527Y011232D01*
X004527Y011134D02*
X004627Y011134D01*
X004627Y011035D02*
X004527Y011035D01*
X008838Y009853D02*
X009121Y009853D01*
X009189Y009755D02*
X008840Y009755D01*
X012068Y009656D02*
X012105Y009656D01*
X012068Y009558D02*
X012316Y009558D01*
X012017Y003057D02*
X011283Y003057D01*
X011329Y003029D02*
X011329Y003029D01*
X011329Y003029D01*
X011371Y002958D02*
X011929Y002958D01*
X011971Y003029D02*
X011971Y003029D01*
X011971Y003029D01*
X008695Y002367D02*
X008505Y002367D01*
X008540Y002466D02*
X008660Y002466D01*
X008667Y002564D02*
X008633Y002564D01*
D23*
X009700Y008200D02*
X009000Y008900D01*
X009700Y008200D02*
X011600Y008200D01*
X016053Y013332D02*
X016053Y015147D01*
X015800Y015400D01*
X007550Y014600D02*
X007500Y014600D01*
X007200Y014300D01*
D24*
X005000Y018400D02*
X002900Y020500D01*
X002900Y020900D01*
X002600Y020900D01*
X002500Y021000D01*
X002500Y021900D01*
X002600Y022000D01*
X004200Y022000D01*
X002600Y022000D02*
X002000Y022000D01*
X007000Y021300D02*
X008000Y020300D01*
X008000Y019400D01*
X016053Y013332D02*
X017668Y013332D01*
X019000Y012000D01*
X019000Y010800D01*
X018550Y010350D01*
X017500Y010350D01*
X016593Y005794D02*
X015694Y005794D01*
X014100Y004100D01*
X008900Y004100D01*
X008200Y004800D01*
X007700Y005300D01*
X006100Y005300D01*
X008300Y002500D02*
X009600Y003800D01*
X012900Y003800D01*
X012600Y003400D02*
X009800Y003400D01*
X008900Y002500D01*
X012300Y005000D02*
X012300Y006800D01*
X011388Y007812D01*
X008913Y007812D01*
D25*
X004600Y007277D02*
X004577Y007300D01*
X004600Y007277D02*
X004600Y007100D01*
X004200Y006800D01*
X002500Y006800D01*
X002200Y006500D01*
X002875Y007850D02*
X003925Y007850D01*
X003900Y008300D02*
X003950Y008350D01*
X004300Y008350D01*
X004150Y008200D01*
X002700Y008200D01*
X002400Y008500D01*
X001900Y008500D01*
X001600Y008800D01*
X001600Y009300D01*
X001700Y009400D01*
X001700Y009500D01*
X001300Y009500D02*
X001300Y009300D01*
X001400Y009200D01*
X001400Y008500D01*
X002600Y008700D02*
X002600Y010500D01*
X002500Y010600D01*
X002500Y010700D01*
X002600Y010800D01*
X002600Y013900D01*
X002200Y013500D01*
X001800Y013500D01*
X001300Y013000D01*
X001000Y013000D01*
X000800Y013500D02*
X000500Y013800D01*
X000500Y021200D01*
X000800Y021500D01*
X001500Y021500D01*
X001900Y020500D02*
X002300Y020500D01*
X001900Y020500D02*
X001400Y020000D01*
X001400Y014400D01*
X001000Y014000D01*
X000800Y013500D02*
X001500Y013500D01*
X002000Y014000D01*
X001700Y014500D02*
X001700Y014600D01*
X001600Y014700D01*
X001600Y019600D01*
X002000Y020000D01*
X004000Y018000D01*
X005600Y018000D01*
X006000Y018400D01*
X006400Y018600D02*
X006000Y019000D01*
X006000Y019400D01*
X006400Y018600D02*
X006400Y018200D01*
X006000Y017800D01*
X003400Y017800D01*
X002600Y017000D01*
X002600Y013900D01*
X002750Y011000D02*
X003800Y011000D01*
X004000Y010800D01*
X003950Y010650D02*
X004200Y010400D01*
X004377Y010400D01*
X004427Y010450D01*
X004577Y010300D01*
X004200Y010400D02*
X004100Y010400D01*
X004050Y010450D01*
X003950Y010650D02*
X002800Y010650D01*
X004300Y008350D02*
X004527Y008350D01*
X004577Y008300D01*
D26*
X005800Y007800D03*
X005800Y006800D03*
X001700Y009500D03*
X001300Y009500D03*
X001700Y014500D03*
X002700Y018200D03*
X002300Y020500D03*
X002900Y020900D03*
X004200Y022000D03*
X001500Y021500D03*
M02*
