G75*
G70*
%OFA0B0*%
%FSLAX24Y24*%
%IPPOS*%
%LPD*%
%AMOC8*
5,1,8,0,0,1.08239X$1,22.5*
%
%ADD10C,0.0000*%
D10*
X000200Y000200D02*
X003100Y000200D01*
X003100Y005500D01*
X003102Y005530D01*
X003107Y005560D01*
X003116Y005589D01*
X003129Y005616D01*
X003144Y005642D01*
X003163Y005666D01*
X003184Y005687D01*
X003208Y005706D01*
X003234Y005721D01*
X003261Y005734D01*
X003290Y005743D01*
X003320Y005748D01*
X003350Y005750D01*
X003380Y005748D01*
X003410Y005743D01*
X003439Y005734D01*
X003466Y005721D01*
X003492Y005706D01*
X003516Y005687D01*
X003537Y005666D01*
X003556Y005642D01*
X003571Y005616D01*
X003584Y005589D01*
X003593Y005560D01*
X003598Y005530D01*
X003600Y005500D01*
X003600Y002300D01*
X003602Y002219D01*
X003608Y002138D01*
X003617Y002058D01*
X003631Y001978D01*
X003648Y001899D01*
X003669Y001821D01*
X003693Y001744D01*
X003722Y001668D01*
X003754Y001594D01*
X003789Y001521D01*
X003828Y001450D01*
X003870Y001381D01*
X003915Y001314D01*
X003964Y001249D01*
X004015Y001187D01*
X004070Y001127D01*
X004127Y001070D01*
X004187Y001015D01*
X004249Y000964D01*
X004314Y000915D01*
X004381Y000870D01*
X004450Y000828D01*
X004521Y000789D01*
X004594Y000754D01*
X004668Y000722D01*
X004744Y000693D01*
X004821Y000669D01*
X004899Y000648D01*
X004978Y000631D01*
X005058Y000617D01*
X005138Y000608D01*
X005219Y000602D01*
X005300Y000600D01*
X009900Y000600D01*
X009900Y002700D01*
X009902Y002726D01*
X009907Y002752D01*
X009915Y002777D01*
X009927Y002800D01*
X009941Y002822D01*
X009959Y002841D01*
X009978Y002859D01*
X010000Y002873D01*
X010023Y002885D01*
X010048Y002893D01*
X010074Y002898D01*
X010100Y002900D01*
X011000Y002900D01*
X011026Y002898D01*
X011052Y002893D01*
X011077Y002885D01*
X011100Y002873D01*
X011122Y002859D01*
X011141Y002841D01*
X011159Y002822D01*
X011173Y002800D01*
X011185Y002777D01*
X011193Y002752D01*
X011198Y002726D01*
X011200Y002700D01*
X011200Y002600D01*
X011198Y002574D01*
X011193Y002548D01*
X011185Y002523D01*
X011173Y002500D01*
X011159Y002478D01*
X011141Y002459D01*
X011122Y002441D01*
X011100Y002427D01*
X011077Y002415D01*
X011052Y002407D01*
X011026Y002402D01*
X011000Y002400D01*
X010600Y002400D01*
X010574Y002398D01*
X010548Y002393D01*
X010523Y002385D01*
X010500Y002373D01*
X010478Y002359D01*
X010459Y002341D01*
X010441Y002322D01*
X010427Y002300D01*
X010415Y002277D01*
X010407Y002252D01*
X010402Y002226D01*
X010400Y002200D01*
X010400Y000800D01*
X010402Y000774D01*
X010407Y000748D01*
X010415Y000723D01*
X010427Y000700D01*
X010441Y000678D01*
X010459Y000659D01*
X010478Y000641D01*
X010500Y000627D01*
X010523Y000615D01*
X010548Y000607D01*
X010574Y000602D01*
X010600Y000600D01*
X012700Y000600D01*
X012726Y000602D01*
X012752Y000607D01*
X012777Y000615D01*
X012800Y000627D01*
X012822Y000641D01*
X012841Y000659D01*
X012859Y000678D01*
X012873Y000700D01*
X012885Y000723D01*
X012893Y000748D01*
X012898Y000774D01*
X012900Y000800D01*
X012900Y002200D01*
X012898Y002226D01*
X012893Y002252D01*
X012885Y002277D01*
X012873Y002300D01*
X012859Y002322D01*
X012841Y002341D01*
X012822Y002359D01*
X012800Y002373D01*
X012777Y002385D01*
X012752Y002393D01*
X012726Y002398D01*
X012700Y002400D01*
X012300Y002400D01*
X012274Y002402D01*
X012248Y002407D01*
X012223Y002415D01*
X012200Y002427D01*
X012178Y002441D01*
X012159Y002459D01*
X012141Y002478D01*
X012127Y002500D01*
X012115Y002523D01*
X012107Y002548D01*
X012102Y002574D01*
X012100Y002600D01*
X012100Y002700D01*
X012102Y002726D01*
X012107Y002752D01*
X012115Y002777D01*
X012127Y002800D01*
X012141Y002822D01*
X012159Y002841D01*
X012178Y002859D01*
X012200Y002873D01*
X012223Y002885D01*
X012248Y002893D01*
X012274Y002898D01*
X012300Y002900D01*
X013200Y002900D01*
X013226Y002898D01*
X013252Y002893D01*
X013277Y002885D01*
X013300Y002873D01*
X013322Y002859D01*
X013341Y002841D01*
X013359Y002822D01*
X013373Y002800D01*
X013385Y002777D01*
X013393Y002752D01*
X013398Y002726D01*
X013400Y002700D01*
X013400Y000600D01*
X018000Y000600D01*
X018081Y000602D01*
X018162Y000608D01*
X018242Y000617D01*
X018322Y000631D01*
X018401Y000648D01*
X018479Y000669D01*
X018556Y000693D01*
X018632Y000722D01*
X018706Y000754D01*
X018779Y000789D01*
X018850Y000828D01*
X018919Y000870D01*
X018986Y000915D01*
X019051Y000964D01*
X019113Y001015D01*
X019173Y001070D01*
X019230Y001127D01*
X019285Y001187D01*
X019336Y001249D01*
X019385Y001314D01*
X019430Y001381D01*
X019472Y001450D01*
X019511Y001521D01*
X019546Y001594D01*
X019578Y001668D01*
X019607Y001744D01*
X019631Y001821D01*
X019652Y001899D01*
X019669Y001978D01*
X019683Y002058D01*
X019692Y002138D01*
X019698Y002219D01*
X019700Y002300D01*
X019700Y015000D01*
X019698Y015081D01*
X019692Y015162D01*
X019683Y015242D01*
X019669Y015322D01*
X019652Y015401D01*
X019631Y015479D01*
X019607Y015556D01*
X019578Y015632D01*
X019546Y015706D01*
X019511Y015779D01*
X019472Y015850D01*
X019430Y015919D01*
X019385Y015986D01*
X019336Y016051D01*
X019285Y016113D01*
X019230Y016173D01*
X019173Y016230D01*
X019113Y016285D01*
X019051Y016336D01*
X018986Y016385D01*
X018919Y016430D01*
X018850Y016472D01*
X018779Y016511D01*
X018706Y016546D01*
X018632Y016578D01*
X018556Y016607D01*
X018479Y016631D01*
X018401Y016652D01*
X018322Y016669D01*
X018242Y016683D01*
X018162Y016692D01*
X018081Y016698D01*
X018000Y016700D01*
X005300Y016700D01*
X005100Y017200D02*
X011200Y017200D01*
X011200Y023900D01*
X000200Y023900D01*
X000200Y000200D01*
X003275Y005925D02*
X003277Y005942D01*
X003282Y005958D01*
X003291Y005972D01*
X003303Y005984D01*
X003317Y005993D01*
X003333Y005998D01*
X003350Y006000D01*
X003367Y005998D01*
X003383Y005993D01*
X003397Y005984D01*
X003409Y005972D01*
X003418Y005958D01*
X003423Y005942D01*
X003425Y005925D01*
X003423Y005908D01*
X003418Y005892D01*
X003409Y005878D01*
X003397Y005866D01*
X003383Y005857D01*
X003367Y005852D01*
X003350Y005850D01*
X003333Y005852D01*
X003317Y005857D01*
X003303Y005866D01*
X003291Y005878D01*
X003282Y005892D01*
X003277Y005908D01*
X003275Y005925D01*
X003275Y006275D02*
X003277Y006292D01*
X003282Y006308D01*
X003291Y006322D01*
X003303Y006334D01*
X003317Y006343D01*
X003333Y006348D01*
X003350Y006350D01*
X003367Y006348D01*
X003383Y006343D01*
X003397Y006334D01*
X003409Y006322D01*
X003418Y006308D01*
X003423Y006292D01*
X003425Y006275D01*
X003423Y006258D01*
X003418Y006242D01*
X003409Y006228D01*
X003397Y006216D01*
X003383Y006207D01*
X003367Y006202D01*
X003350Y006200D01*
X003333Y006202D01*
X003317Y006207D01*
X003303Y006216D01*
X003291Y006228D01*
X003282Y006242D01*
X003277Y006258D01*
X003275Y006275D01*
X003275Y006625D02*
X003277Y006642D01*
X003282Y006658D01*
X003291Y006672D01*
X003303Y006684D01*
X003317Y006693D01*
X003333Y006698D01*
X003350Y006700D01*
X003367Y006698D01*
X003383Y006693D01*
X003397Y006684D01*
X003409Y006672D01*
X003418Y006658D01*
X003423Y006642D01*
X003425Y006625D01*
X003423Y006608D01*
X003418Y006592D01*
X003409Y006578D01*
X003397Y006566D01*
X003383Y006557D01*
X003367Y006552D01*
X003350Y006550D01*
X003333Y006552D01*
X003317Y006557D01*
X003303Y006566D01*
X003291Y006578D01*
X003282Y006592D01*
X003277Y006608D01*
X003275Y006625D01*
X003275Y006975D02*
X003277Y006992D01*
X003282Y007008D01*
X003291Y007022D01*
X003303Y007034D01*
X003317Y007043D01*
X003333Y007048D01*
X003350Y007050D01*
X003367Y007048D01*
X003383Y007043D01*
X003397Y007034D01*
X003409Y007022D01*
X003418Y007008D01*
X003423Y006992D01*
X003425Y006975D01*
X003423Y006958D01*
X003418Y006942D01*
X003409Y006928D01*
X003397Y006916D01*
X003383Y006907D01*
X003367Y006902D01*
X003350Y006900D01*
X003333Y006902D01*
X003317Y006907D01*
X003303Y006916D01*
X003291Y006928D01*
X003282Y006942D01*
X003277Y006958D01*
X003275Y006975D01*
X003275Y007325D02*
X003277Y007342D01*
X003282Y007358D01*
X003291Y007372D01*
X003303Y007384D01*
X003317Y007393D01*
X003333Y007398D01*
X003350Y007400D01*
X003367Y007398D01*
X003383Y007393D01*
X003397Y007384D01*
X003409Y007372D01*
X003418Y007358D01*
X003423Y007342D01*
X003425Y007325D01*
X003423Y007308D01*
X003418Y007292D01*
X003409Y007278D01*
X003397Y007266D01*
X003383Y007257D01*
X003367Y007252D01*
X003350Y007250D01*
X003333Y007252D01*
X003317Y007257D01*
X003303Y007266D01*
X003291Y007278D01*
X003282Y007292D01*
X003277Y007308D01*
X003275Y007325D01*
X003275Y007675D02*
X003277Y007692D01*
X003282Y007708D01*
X003291Y007722D01*
X003303Y007734D01*
X003317Y007743D01*
X003333Y007748D01*
X003350Y007750D01*
X003367Y007748D01*
X003383Y007743D01*
X003397Y007734D01*
X003409Y007722D01*
X003418Y007708D01*
X003423Y007692D01*
X003425Y007675D01*
X003423Y007658D01*
X003418Y007642D01*
X003409Y007628D01*
X003397Y007616D01*
X003383Y007607D01*
X003367Y007602D01*
X003350Y007600D01*
X003333Y007602D01*
X003317Y007607D01*
X003303Y007616D01*
X003291Y007628D01*
X003282Y007642D01*
X003277Y007658D01*
X003275Y007675D01*
X003275Y008025D02*
X003277Y008042D01*
X003282Y008058D01*
X003291Y008072D01*
X003303Y008084D01*
X003317Y008093D01*
X003333Y008098D01*
X003350Y008100D01*
X003367Y008098D01*
X003383Y008093D01*
X003397Y008084D01*
X003409Y008072D01*
X003418Y008058D01*
X003423Y008042D01*
X003425Y008025D01*
X003423Y008008D01*
X003418Y007992D01*
X003409Y007978D01*
X003397Y007966D01*
X003383Y007957D01*
X003367Y007952D01*
X003350Y007950D01*
X003333Y007952D01*
X003317Y007957D01*
X003303Y007966D01*
X003291Y007978D01*
X003282Y007992D01*
X003277Y008008D01*
X003275Y008025D01*
X003275Y008375D02*
X003277Y008392D01*
X003282Y008408D01*
X003291Y008422D01*
X003303Y008434D01*
X003317Y008443D01*
X003333Y008448D01*
X003350Y008450D01*
X003367Y008448D01*
X003383Y008443D01*
X003397Y008434D01*
X003409Y008422D01*
X003418Y008408D01*
X003423Y008392D01*
X003425Y008375D01*
X003423Y008358D01*
X003418Y008342D01*
X003409Y008328D01*
X003397Y008316D01*
X003383Y008307D01*
X003367Y008302D01*
X003350Y008300D01*
X003333Y008302D01*
X003317Y008307D01*
X003303Y008316D01*
X003291Y008328D01*
X003282Y008342D01*
X003277Y008358D01*
X003275Y008375D01*
X003275Y008725D02*
X003277Y008742D01*
X003282Y008758D01*
X003291Y008772D01*
X003303Y008784D01*
X003317Y008793D01*
X003333Y008798D01*
X003350Y008800D01*
X003367Y008798D01*
X003383Y008793D01*
X003397Y008784D01*
X003409Y008772D01*
X003418Y008758D01*
X003423Y008742D01*
X003425Y008725D01*
X003423Y008708D01*
X003418Y008692D01*
X003409Y008678D01*
X003397Y008666D01*
X003383Y008657D01*
X003367Y008652D01*
X003350Y008650D01*
X003333Y008652D01*
X003317Y008657D01*
X003303Y008666D01*
X003291Y008678D01*
X003282Y008692D01*
X003277Y008708D01*
X003275Y008725D01*
X003275Y009075D02*
X003277Y009092D01*
X003282Y009108D01*
X003291Y009122D01*
X003303Y009134D01*
X003317Y009143D01*
X003333Y009148D01*
X003350Y009150D01*
X003367Y009148D01*
X003383Y009143D01*
X003397Y009134D01*
X003409Y009122D01*
X003418Y009108D01*
X003423Y009092D01*
X003425Y009075D01*
X003423Y009058D01*
X003418Y009042D01*
X003409Y009028D01*
X003397Y009016D01*
X003383Y009007D01*
X003367Y009002D01*
X003350Y009000D01*
X003333Y009002D01*
X003317Y009007D01*
X003303Y009016D01*
X003291Y009028D01*
X003282Y009042D01*
X003277Y009058D01*
X003275Y009075D01*
X003275Y009425D02*
X003277Y009442D01*
X003282Y009458D01*
X003291Y009472D01*
X003303Y009484D01*
X003317Y009493D01*
X003333Y009498D01*
X003350Y009500D01*
X003367Y009498D01*
X003383Y009493D01*
X003397Y009484D01*
X003409Y009472D01*
X003418Y009458D01*
X003423Y009442D01*
X003425Y009425D01*
X003423Y009408D01*
X003418Y009392D01*
X003409Y009378D01*
X003397Y009366D01*
X003383Y009357D01*
X003367Y009352D01*
X003350Y009350D01*
X003333Y009352D01*
X003317Y009357D01*
X003303Y009366D01*
X003291Y009378D01*
X003282Y009392D01*
X003277Y009408D01*
X003275Y009425D01*
X003275Y009775D02*
X003277Y009792D01*
X003282Y009808D01*
X003291Y009822D01*
X003303Y009834D01*
X003317Y009843D01*
X003333Y009848D01*
X003350Y009850D01*
X003367Y009848D01*
X003383Y009843D01*
X003397Y009834D01*
X003409Y009822D01*
X003418Y009808D01*
X003423Y009792D01*
X003425Y009775D01*
X003423Y009758D01*
X003418Y009742D01*
X003409Y009728D01*
X003397Y009716D01*
X003383Y009707D01*
X003367Y009702D01*
X003350Y009700D01*
X003333Y009702D01*
X003317Y009707D01*
X003303Y009716D01*
X003291Y009728D01*
X003282Y009742D01*
X003277Y009758D01*
X003275Y009775D01*
X003275Y010125D02*
X003277Y010142D01*
X003282Y010158D01*
X003291Y010172D01*
X003303Y010184D01*
X003317Y010193D01*
X003333Y010198D01*
X003350Y010200D01*
X003367Y010198D01*
X003383Y010193D01*
X003397Y010184D01*
X003409Y010172D01*
X003418Y010158D01*
X003423Y010142D01*
X003425Y010125D01*
X003423Y010108D01*
X003418Y010092D01*
X003409Y010078D01*
X003397Y010066D01*
X003383Y010057D01*
X003367Y010052D01*
X003350Y010050D01*
X003333Y010052D01*
X003317Y010057D01*
X003303Y010066D01*
X003291Y010078D01*
X003282Y010092D01*
X003277Y010108D01*
X003275Y010125D01*
X003275Y010475D02*
X003277Y010492D01*
X003282Y010508D01*
X003291Y010522D01*
X003303Y010534D01*
X003317Y010543D01*
X003333Y010548D01*
X003350Y010550D01*
X003367Y010548D01*
X003383Y010543D01*
X003397Y010534D01*
X003409Y010522D01*
X003418Y010508D01*
X003423Y010492D01*
X003425Y010475D01*
X003423Y010458D01*
X003418Y010442D01*
X003409Y010428D01*
X003397Y010416D01*
X003383Y010407D01*
X003367Y010402D01*
X003350Y010400D01*
X003333Y010402D01*
X003317Y010407D01*
X003303Y010416D01*
X003291Y010428D01*
X003282Y010442D01*
X003277Y010458D01*
X003275Y010475D01*
X003275Y010825D02*
X003277Y010842D01*
X003282Y010858D01*
X003291Y010872D01*
X003303Y010884D01*
X003317Y010893D01*
X003333Y010898D01*
X003350Y010900D01*
X003367Y010898D01*
X003383Y010893D01*
X003397Y010884D01*
X003409Y010872D01*
X003418Y010858D01*
X003423Y010842D01*
X003425Y010825D01*
X003423Y010808D01*
X003418Y010792D01*
X003409Y010778D01*
X003397Y010766D01*
X003383Y010757D01*
X003367Y010752D01*
X003350Y010750D01*
X003333Y010752D01*
X003317Y010757D01*
X003303Y010766D01*
X003291Y010778D01*
X003282Y010792D01*
X003277Y010808D01*
X003275Y010825D01*
X003275Y011200D02*
X003277Y011217D01*
X003282Y011233D01*
X003291Y011247D01*
X003303Y011259D01*
X003317Y011268D01*
X003333Y011273D01*
X003350Y011275D01*
X003367Y011273D01*
X003383Y011268D01*
X003397Y011259D01*
X003409Y011247D01*
X003418Y011233D01*
X003423Y011217D01*
X003425Y011200D01*
X003423Y011183D01*
X003418Y011167D01*
X003409Y011153D01*
X003397Y011141D01*
X003383Y011132D01*
X003367Y011127D01*
X003350Y011125D01*
X003333Y011127D01*
X003317Y011132D01*
X003303Y011141D01*
X003291Y011153D01*
X003282Y011167D01*
X003277Y011183D01*
X003275Y011200D01*
X003100Y011600D02*
X003102Y011570D01*
X003107Y011540D01*
X003116Y011511D01*
X003129Y011484D01*
X003144Y011458D01*
X003163Y011434D01*
X003184Y011413D01*
X003208Y011394D01*
X003234Y011379D01*
X003261Y011366D01*
X003290Y011357D01*
X003320Y011352D01*
X003350Y011350D01*
X003380Y011352D01*
X003410Y011357D01*
X003439Y011366D01*
X003466Y011379D01*
X003492Y011394D01*
X003516Y011413D01*
X003537Y011434D01*
X003556Y011458D01*
X003571Y011484D01*
X003584Y011511D01*
X003593Y011540D01*
X003598Y011570D01*
X003600Y011600D01*
X003600Y015000D01*
X003100Y015300D02*
X003100Y011600D01*
X003600Y015000D02*
X003602Y015081D01*
X003608Y015162D01*
X003617Y015242D01*
X003631Y015322D01*
X003648Y015401D01*
X003669Y015479D01*
X003693Y015556D01*
X003722Y015632D01*
X003754Y015706D01*
X003789Y015779D01*
X003828Y015850D01*
X003870Y015919D01*
X003915Y015986D01*
X003964Y016051D01*
X004015Y016113D01*
X004070Y016173D01*
X004127Y016230D01*
X004187Y016285D01*
X004249Y016336D01*
X004314Y016385D01*
X004381Y016430D01*
X004450Y016472D01*
X004521Y016511D01*
X004594Y016546D01*
X004668Y016578D01*
X004744Y016607D01*
X004821Y016631D01*
X004899Y016652D01*
X004978Y016669D01*
X005058Y016683D01*
X005138Y016692D01*
X005219Y016698D01*
X005300Y016700D01*
X005100Y017200D02*
X005004Y017200D01*
X004909Y017196D01*
X004813Y017187D01*
X004719Y017173D01*
X004625Y017154D01*
X004532Y017131D01*
X004440Y017103D01*
X004350Y017071D01*
X004261Y017034D01*
X004175Y016994D01*
X004090Y016949D01*
X004008Y016899D01*
X003928Y016846D01*
X003851Y016789D01*
X003777Y016729D01*
X003706Y016664D01*
X003638Y016597D01*
X003574Y016526D01*
X003513Y016452D01*
X003456Y016375D01*
X003403Y016296D01*
X003354Y016213D01*
X003308Y016129D01*
X003267Y016043D01*
X003230Y015954D01*
X003198Y015864D01*
X003170Y015772D01*
X003147Y015680D01*
X003128Y015586D01*
X003114Y015491D01*
X003104Y015396D01*
X003100Y015300D01*
X007200Y016100D02*
X007202Y016128D01*
X007208Y016155D01*
X007217Y016181D01*
X007230Y016206D01*
X007247Y016229D01*
X007266Y016249D01*
X007288Y016266D01*
X007312Y016280D01*
X007338Y016290D01*
X007365Y016297D01*
X007393Y016300D01*
X007421Y016299D01*
X007448Y016294D01*
X007475Y016285D01*
X007500Y016273D01*
X007523Y016258D01*
X007544Y016239D01*
X007562Y016218D01*
X007577Y016194D01*
X007588Y016168D01*
X007596Y016142D01*
X007600Y016114D01*
X007600Y016086D01*
X007596Y016058D01*
X007588Y016032D01*
X007577Y016006D01*
X007562Y015982D01*
X007544Y015961D01*
X007523Y015942D01*
X007500Y015927D01*
X007475Y015915D01*
X007448Y015906D01*
X007421Y015901D01*
X007393Y015900D01*
X007365Y015903D01*
X007338Y015910D01*
X007312Y015920D01*
X007288Y015934D01*
X007266Y015951D01*
X007247Y015971D01*
X007230Y015994D01*
X007217Y016019D01*
X007208Y016045D01*
X007202Y016072D01*
X007200Y016100D01*
X008000Y016100D02*
X008002Y016128D01*
X008008Y016155D01*
X008017Y016181D01*
X008030Y016206D01*
X008047Y016229D01*
X008066Y016249D01*
X008088Y016266D01*
X008112Y016280D01*
X008138Y016290D01*
X008165Y016297D01*
X008193Y016300D01*
X008221Y016299D01*
X008248Y016294D01*
X008275Y016285D01*
X008300Y016273D01*
X008323Y016258D01*
X008344Y016239D01*
X008362Y016218D01*
X008377Y016194D01*
X008388Y016168D01*
X008396Y016142D01*
X008400Y016114D01*
X008400Y016086D01*
X008396Y016058D01*
X008388Y016032D01*
X008377Y016006D01*
X008362Y015982D01*
X008344Y015961D01*
X008323Y015942D01*
X008300Y015927D01*
X008275Y015915D01*
X008248Y015906D01*
X008221Y015901D01*
X008193Y015900D01*
X008165Y015903D01*
X008138Y015910D01*
X008112Y015920D01*
X008088Y015934D01*
X008066Y015951D01*
X008047Y015971D01*
X008030Y015994D01*
X008017Y016019D01*
X008008Y016045D01*
X008002Y016072D01*
X008000Y016100D01*
X007600Y014100D02*
X007602Y014128D01*
X007608Y014155D01*
X007617Y014181D01*
X007630Y014206D01*
X007647Y014229D01*
X007666Y014249D01*
X007688Y014266D01*
X007712Y014280D01*
X007738Y014290D01*
X007765Y014297D01*
X007793Y014300D01*
X007821Y014299D01*
X007848Y014294D01*
X007875Y014285D01*
X007900Y014273D01*
X007923Y014258D01*
X007944Y014239D01*
X007962Y014218D01*
X007977Y014194D01*
X007988Y014168D01*
X007996Y014142D01*
X008000Y014114D01*
X008000Y014086D01*
X007996Y014058D01*
X007988Y014032D01*
X007977Y014006D01*
X007962Y013982D01*
X007944Y013961D01*
X007923Y013942D01*
X007900Y013927D01*
X007875Y013915D01*
X007848Y013906D01*
X007821Y013901D01*
X007793Y013900D01*
X007765Y013903D01*
X007738Y013910D01*
X007712Y013920D01*
X007688Y013934D01*
X007666Y013951D01*
X007647Y013971D01*
X007630Y013994D01*
X007617Y014019D01*
X007608Y014045D01*
X007602Y014072D01*
X007600Y014100D01*
M02*
