%
M48
M72
T01C0.0080
T02C0.0100
T03C0.0150
T04C0.0236
T05C0.0256
T06C0.0400
T07C0.1260
%
T01
X5800Y6800
X5800Y7800
X1700Y9500
X1300Y9500
X1700Y14500
X2700Y18200
X2300Y20500
X2900Y20900
X4200Y22000
X1500Y21500
T02
X2900Y19800
X3300Y16900
X5000Y12400
X5800Y11700
X5800Y11300
X5800Y10300
X5800Y9700
X5800Y8900
X5800Y8300
X5800Y7300
X5800Y6100
X6100Y5300
X5800Y4800
X4200Y4800
X4200Y4400
X4200Y5500
X2500Y5500
X2200Y6500
X1400Y8500
X2600Y8700
X2800Y10650
X5000Y10700
X6400Y12400
X7200Y14300
X7200Y15400
X8600Y14100
X8200Y13400
X9550Y14100
X10450Y14000
X10600Y14500
X11200Y14000
X11950Y14100
X12900Y14300
X12800Y15400
X11800Y15400
X10800Y15400
X9800Y15400
X8800Y15400
X9900Y12700
X9650Y12400
X10600Y11400
X10950Y10700
X11200Y10000
X11550Y10050
X12250Y9850
X12500Y10500
X11700Y11200
X12000Y11550
X13450Y11050
X13800Y10650
X14900Y12000
X15400Y11500
X16700Y11000
X16900Y12000
X18375Y10725
X18950Y10000
X18950Y9300
X18620Y8895
X16600Y7500
X16600Y7000
X16600Y6600
X15800Y7000
X15800Y7350
X15300Y8000
X14100Y7800
X13800Y7500
X13650Y7050
X14350Y6200
X15300Y6600
X13700Y5000
X12900Y3800
X12600Y3400
X11825Y3100
X12300Y5000
X12675Y5000
X13000Y6100
X12300Y7400
X11600Y8200
X11600Y8800
X10200Y8800
X9000Y8900
X8600Y9200
X8600Y9800
X7250Y7850
X8200Y4800
X6900Y2900
X8300Y2500
X8900Y2500
X9400Y1200
X13900Y1000
X15150Y4200
X16650Y4200
X17900Y5000
X19300Y5500
X17550Y6600
X16200Y9400
X14200Y12700
X15100Y14300
X15800Y15400
X13800Y15400
X10100Y18900
X8300Y23500
X3100Y23400
X13400Y8950
X10200Y7100
T03
X3350Y6975
X3350Y6625
X3350Y6275
X3350Y5925
X3350Y7325
X3350Y7675
X3350Y8025
X3350Y8375
X3350Y8725
X3350Y9075
X3350Y9425
X3350Y9775
X3350Y10125
X3350Y10475
X3350Y10825
X3350Y11200
T04
X8913Y7812
X8913Y6788
T05
X17500Y10350
X18500Y11350
X17500Y12350
T06
X1000Y1000
X1000Y2000
X1000Y3000
X1000Y4000
X1000Y5000
X1000Y6000
X1000Y7000
X1000Y8000
X1000Y9000
X1000Y10000
X1000Y11000
X1000Y12000
X1000Y13000
X1000Y14000
X1000Y15000
X1000Y16000
X1000Y17000
X1000Y18000
X1000Y19000
X1000Y20000
X1000Y21000
X1000Y22000
X1000Y23000
X2000Y23000
X2000Y22000
X2000Y21000
X2000Y20000
X2000Y19000
X2000Y18000
X2000Y17000
X2000Y16000
X2000Y15000
X2000Y14000
X2000Y13000
X2000Y12000
X2000Y11000
X2000Y10000
X2000Y9000
X2000Y8000
X2000Y7000
X2000Y6000
X2000Y5000
X2000Y4000
X2000Y3000
X2000Y2000
X2000Y1000
X7800Y14100
X7400Y16100
X8200Y16100
X8000Y18400
X8000Y19400
X7000Y19400
X7000Y18400
X6000Y18400
X6000Y19400
X5000Y19400
X5000Y18400
X7000Y21300
X7000Y22300
X7000Y23300
X9000Y19400
X9000Y18400
T07
X5300Y15000
X5300Y2300
X18000Y2300
X18000Y15000
M30
