G75*
%MOIN*%
%OFA0B0*%
%FSLAX25Y25*%
%IPPOS*%
%LPD*%
%AMOC8*
5,1,8,0,0,1.08239X$1,22.5*
%
%ADD10C,0.00000*%
D10*
X0002000Y0002000D02*
X0031000Y0002000D01*
X0031000Y0055000D01*
X0031002Y0055098D01*
X0031008Y0055196D01*
X0031017Y0055294D01*
X0031031Y0055391D01*
X0031048Y0055488D01*
X0031069Y0055584D01*
X0031094Y0055679D01*
X0031122Y0055773D01*
X0031155Y0055865D01*
X0031190Y0055957D01*
X0031230Y0056047D01*
X0031272Y0056135D01*
X0031319Y0056222D01*
X0031368Y0056306D01*
X0031421Y0056389D01*
X0031477Y0056469D01*
X0031537Y0056548D01*
X0031599Y0056624D01*
X0031664Y0056697D01*
X0031732Y0056768D01*
X0031803Y0056836D01*
X0031876Y0056901D01*
X0031952Y0056963D01*
X0032031Y0057023D01*
X0032111Y0057079D01*
X0032194Y0057132D01*
X0032278Y0057181D01*
X0032365Y0057228D01*
X0032453Y0057270D01*
X0032543Y0057310D01*
X0032635Y0057345D01*
X0032727Y0057378D01*
X0032821Y0057406D01*
X0032916Y0057431D01*
X0033012Y0057452D01*
X0033109Y0057469D01*
X0033206Y0057483D01*
X0033304Y0057492D01*
X0033402Y0057498D01*
X0033500Y0057500D01*
X0033598Y0057498D01*
X0033696Y0057492D01*
X0033794Y0057483D01*
X0033891Y0057469D01*
X0033988Y0057452D01*
X0034084Y0057431D01*
X0034179Y0057406D01*
X0034273Y0057378D01*
X0034365Y0057345D01*
X0034457Y0057310D01*
X0034547Y0057270D01*
X0034635Y0057228D01*
X0034722Y0057181D01*
X0034806Y0057132D01*
X0034889Y0057079D01*
X0034969Y0057023D01*
X0035048Y0056963D01*
X0035124Y0056901D01*
X0035197Y0056836D01*
X0035268Y0056768D01*
X0035336Y0056697D01*
X0035401Y0056624D01*
X0035463Y0056548D01*
X0035523Y0056469D01*
X0035579Y0056389D01*
X0035632Y0056306D01*
X0035681Y0056222D01*
X0035728Y0056135D01*
X0035770Y0056047D01*
X0035810Y0055957D01*
X0035845Y0055865D01*
X0035878Y0055773D01*
X0035906Y0055679D01*
X0035931Y0055584D01*
X0035952Y0055488D01*
X0035969Y0055391D01*
X0035983Y0055294D01*
X0035992Y0055196D01*
X0035998Y0055098D01*
X0036000Y0055000D01*
X0036000Y0023000D01*
X0036005Y0022589D01*
X0036020Y0022179D01*
X0036045Y0021769D01*
X0036079Y0021359D01*
X0036124Y0020951D01*
X0036178Y0020544D01*
X0036243Y0020138D01*
X0036317Y0019734D01*
X0036401Y0019332D01*
X0036494Y0018932D01*
X0036597Y0018534D01*
X0036710Y0018139D01*
X0036832Y0017747D01*
X0036964Y0017358D01*
X0037105Y0016972D01*
X0037255Y0016589D01*
X0037415Y0016211D01*
X0037583Y0015836D01*
X0037761Y0015466D01*
X0037947Y0015100D01*
X0038143Y0014738D01*
X0038347Y0014382D01*
X0038559Y0014030D01*
X0038780Y0013684D01*
X0039009Y0013343D01*
X0039247Y0013008D01*
X0039492Y0012678D01*
X0039746Y0012355D01*
X0040007Y0012038D01*
X0040275Y0011727D01*
X0040551Y0011423D01*
X0040835Y0011125D01*
X0041125Y0010835D01*
X0041423Y0010551D01*
X0041727Y0010275D01*
X0042038Y0010007D01*
X0042355Y0009746D01*
X0042678Y0009492D01*
X0043008Y0009247D01*
X0043343Y0009009D01*
X0043684Y0008780D01*
X0044030Y0008559D01*
X0044382Y0008347D01*
X0044738Y0008143D01*
X0045100Y0007947D01*
X0045466Y0007761D01*
X0045836Y0007583D01*
X0046211Y0007415D01*
X0046589Y0007255D01*
X0046972Y0007105D01*
X0047358Y0006964D01*
X0047747Y0006832D01*
X0048139Y0006710D01*
X0048534Y0006597D01*
X0048932Y0006494D01*
X0049332Y0006401D01*
X0049734Y0006317D01*
X0050138Y0006243D01*
X0050544Y0006178D01*
X0050951Y0006124D01*
X0051359Y0006079D01*
X0051769Y0006045D01*
X0052179Y0006020D01*
X0052589Y0006005D01*
X0053000Y0006000D01*
X0099000Y0006000D01*
X0099000Y0027000D01*
X0099002Y0027087D01*
X0099008Y0027174D01*
X0099017Y0027261D01*
X0099030Y0027347D01*
X0099047Y0027433D01*
X0099068Y0027518D01*
X0099093Y0027601D01*
X0099121Y0027684D01*
X0099152Y0027765D01*
X0099187Y0027845D01*
X0099226Y0027923D01*
X0099268Y0028000D01*
X0099313Y0028075D01*
X0099362Y0028147D01*
X0099413Y0028218D01*
X0099468Y0028286D01*
X0099525Y0028351D01*
X0099586Y0028414D01*
X0099649Y0028475D01*
X0099714Y0028532D01*
X0099782Y0028587D01*
X0099853Y0028638D01*
X0099925Y0028687D01*
X0100000Y0028732D01*
X0100077Y0028774D01*
X0100155Y0028813D01*
X0100235Y0028848D01*
X0100316Y0028879D01*
X0100399Y0028907D01*
X0100482Y0028932D01*
X0100567Y0028953D01*
X0100653Y0028970D01*
X0100739Y0028983D01*
X0100826Y0028992D01*
X0100913Y0028998D01*
X0101000Y0029000D01*
X0110000Y0029000D01*
X0110087Y0028998D01*
X0110174Y0028992D01*
X0110261Y0028983D01*
X0110347Y0028970D01*
X0110433Y0028953D01*
X0110518Y0028932D01*
X0110601Y0028907D01*
X0110684Y0028879D01*
X0110765Y0028848D01*
X0110845Y0028813D01*
X0110923Y0028774D01*
X0111000Y0028732D01*
X0111075Y0028687D01*
X0111147Y0028638D01*
X0111218Y0028587D01*
X0111286Y0028532D01*
X0111351Y0028475D01*
X0111414Y0028414D01*
X0111475Y0028351D01*
X0111532Y0028286D01*
X0111587Y0028218D01*
X0111638Y0028147D01*
X0111687Y0028075D01*
X0111732Y0028000D01*
X0111774Y0027923D01*
X0111813Y0027845D01*
X0111848Y0027765D01*
X0111879Y0027684D01*
X0111907Y0027601D01*
X0111932Y0027518D01*
X0111953Y0027433D01*
X0111970Y0027347D01*
X0111983Y0027261D01*
X0111992Y0027174D01*
X0111998Y0027087D01*
X0112000Y0027000D01*
X0112000Y0026000D01*
X0111998Y0025913D01*
X0111992Y0025826D01*
X0111983Y0025739D01*
X0111970Y0025653D01*
X0111953Y0025567D01*
X0111932Y0025482D01*
X0111907Y0025399D01*
X0111879Y0025316D01*
X0111848Y0025235D01*
X0111813Y0025155D01*
X0111774Y0025077D01*
X0111732Y0025000D01*
X0111687Y0024925D01*
X0111638Y0024853D01*
X0111587Y0024782D01*
X0111532Y0024714D01*
X0111475Y0024649D01*
X0111414Y0024586D01*
X0111351Y0024525D01*
X0111286Y0024468D01*
X0111218Y0024413D01*
X0111147Y0024362D01*
X0111075Y0024313D01*
X0111000Y0024268D01*
X0110923Y0024226D01*
X0110845Y0024187D01*
X0110765Y0024152D01*
X0110684Y0024121D01*
X0110601Y0024093D01*
X0110518Y0024068D01*
X0110433Y0024047D01*
X0110347Y0024030D01*
X0110261Y0024017D01*
X0110174Y0024008D01*
X0110087Y0024002D01*
X0110000Y0024000D01*
X0106000Y0024000D01*
X0105913Y0023998D01*
X0105826Y0023992D01*
X0105739Y0023983D01*
X0105653Y0023970D01*
X0105567Y0023953D01*
X0105482Y0023932D01*
X0105399Y0023907D01*
X0105316Y0023879D01*
X0105235Y0023848D01*
X0105155Y0023813D01*
X0105077Y0023774D01*
X0105000Y0023732D01*
X0104925Y0023687D01*
X0104853Y0023638D01*
X0104782Y0023587D01*
X0104714Y0023532D01*
X0104649Y0023475D01*
X0104586Y0023414D01*
X0104525Y0023351D01*
X0104468Y0023286D01*
X0104413Y0023218D01*
X0104362Y0023147D01*
X0104313Y0023075D01*
X0104268Y0023000D01*
X0104226Y0022923D01*
X0104187Y0022845D01*
X0104152Y0022765D01*
X0104121Y0022684D01*
X0104093Y0022601D01*
X0104068Y0022518D01*
X0104047Y0022433D01*
X0104030Y0022347D01*
X0104017Y0022261D01*
X0104008Y0022174D01*
X0104002Y0022087D01*
X0104000Y0022000D01*
X0104000Y0008000D01*
X0104002Y0007913D01*
X0104008Y0007826D01*
X0104017Y0007739D01*
X0104030Y0007653D01*
X0104047Y0007567D01*
X0104068Y0007482D01*
X0104093Y0007399D01*
X0104121Y0007316D01*
X0104152Y0007235D01*
X0104187Y0007155D01*
X0104226Y0007077D01*
X0104268Y0007000D01*
X0104313Y0006925D01*
X0104362Y0006853D01*
X0104413Y0006782D01*
X0104468Y0006714D01*
X0104525Y0006649D01*
X0104586Y0006586D01*
X0104649Y0006525D01*
X0104714Y0006468D01*
X0104782Y0006413D01*
X0104853Y0006362D01*
X0104925Y0006313D01*
X0105000Y0006268D01*
X0105077Y0006226D01*
X0105155Y0006187D01*
X0105235Y0006152D01*
X0105316Y0006121D01*
X0105399Y0006093D01*
X0105482Y0006068D01*
X0105567Y0006047D01*
X0105653Y0006030D01*
X0105739Y0006017D01*
X0105826Y0006008D01*
X0105913Y0006002D01*
X0106000Y0006000D01*
X0127000Y0006000D01*
X0127087Y0006002D01*
X0127174Y0006008D01*
X0127261Y0006017D01*
X0127347Y0006030D01*
X0127433Y0006047D01*
X0127518Y0006068D01*
X0127601Y0006093D01*
X0127684Y0006121D01*
X0127765Y0006152D01*
X0127845Y0006187D01*
X0127923Y0006226D01*
X0128000Y0006268D01*
X0128075Y0006313D01*
X0128147Y0006362D01*
X0128218Y0006413D01*
X0128286Y0006468D01*
X0128351Y0006525D01*
X0128414Y0006586D01*
X0128475Y0006649D01*
X0128532Y0006714D01*
X0128587Y0006782D01*
X0128638Y0006853D01*
X0128687Y0006925D01*
X0128732Y0007000D01*
X0128774Y0007077D01*
X0128813Y0007155D01*
X0128848Y0007235D01*
X0128879Y0007316D01*
X0128907Y0007399D01*
X0128932Y0007482D01*
X0128953Y0007567D01*
X0128970Y0007653D01*
X0128983Y0007739D01*
X0128992Y0007826D01*
X0128998Y0007913D01*
X0129000Y0008000D01*
X0129000Y0022000D01*
X0128998Y0022087D01*
X0128992Y0022174D01*
X0128983Y0022261D01*
X0128970Y0022347D01*
X0128953Y0022433D01*
X0128932Y0022518D01*
X0128907Y0022601D01*
X0128879Y0022684D01*
X0128848Y0022765D01*
X0128813Y0022845D01*
X0128774Y0022923D01*
X0128732Y0023000D01*
X0128687Y0023075D01*
X0128638Y0023147D01*
X0128587Y0023218D01*
X0128532Y0023286D01*
X0128475Y0023351D01*
X0128414Y0023414D01*
X0128351Y0023475D01*
X0128286Y0023532D01*
X0128218Y0023587D01*
X0128147Y0023638D01*
X0128075Y0023687D01*
X0128000Y0023732D01*
X0127923Y0023774D01*
X0127845Y0023813D01*
X0127765Y0023848D01*
X0127684Y0023879D01*
X0127601Y0023907D01*
X0127518Y0023932D01*
X0127433Y0023953D01*
X0127347Y0023970D01*
X0127261Y0023983D01*
X0127174Y0023992D01*
X0127087Y0023998D01*
X0127000Y0024000D01*
X0123000Y0024000D01*
X0122913Y0024002D01*
X0122826Y0024008D01*
X0122739Y0024017D01*
X0122653Y0024030D01*
X0122567Y0024047D01*
X0122482Y0024068D01*
X0122399Y0024093D01*
X0122316Y0024121D01*
X0122235Y0024152D01*
X0122155Y0024187D01*
X0122077Y0024226D01*
X0122000Y0024268D01*
X0121925Y0024313D01*
X0121853Y0024362D01*
X0121782Y0024413D01*
X0121714Y0024468D01*
X0121649Y0024525D01*
X0121586Y0024586D01*
X0121525Y0024649D01*
X0121468Y0024714D01*
X0121413Y0024782D01*
X0121362Y0024853D01*
X0121313Y0024925D01*
X0121268Y0025000D01*
X0121226Y0025077D01*
X0121187Y0025155D01*
X0121152Y0025235D01*
X0121121Y0025316D01*
X0121093Y0025399D01*
X0121068Y0025482D01*
X0121047Y0025567D01*
X0121030Y0025653D01*
X0121017Y0025739D01*
X0121008Y0025826D01*
X0121002Y0025913D01*
X0121000Y0026000D01*
X0121000Y0027000D01*
X0121002Y0027087D01*
X0121008Y0027174D01*
X0121017Y0027261D01*
X0121030Y0027347D01*
X0121047Y0027433D01*
X0121068Y0027518D01*
X0121093Y0027601D01*
X0121121Y0027684D01*
X0121152Y0027765D01*
X0121187Y0027845D01*
X0121226Y0027923D01*
X0121268Y0028000D01*
X0121313Y0028075D01*
X0121362Y0028147D01*
X0121413Y0028218D01*
X0121468Y0028286D01*
X0121525Y0028351D01*
X0121586Y0028414D01*
X0121649Y0028475D01*
X0121714Y0028532D01*
X0121782Y0028587D01*
X0121853Y0028638D01*
X0121925Y0028687D01*
X0122000Y0028732D01*
X0122077Y0028774D01*
X0122155Y0028813D01*
X0122235Y0028848D01*
X0122316Y0028879D01*
X0122399Y0028907D01*
X0122482Y0028932D01*
X0122567Y0028953D01*
X0122653Y0028970D01*
X0122739Y0028983D01*
X0122826Y0028992D01*
X0122913Y0028998D01*
X0123000Y0029000D01*
X0132000Y0029000D01*
X0132087Y0028998D01*
X0132174Y0028992D01*
X0132261Y0028983D01*
X0132347Y0028970D01*
X0132433Y0028953D01*
X0132518Y0028932D01*
X0132601Y0028907D01*
X0132684Y0028879D01*
X0132765Y0028848D01*
X0132845Y0028813D01*
X0132923Y0028774D01*
X0133000Y0028732D01*
X0133075Y0028687D01*
X0133147Y0028638D01*
X0133218Y0028587D01*
X0133286Y0028532D01*
X0133351Y0028475D01*
X0133414Y0028414D01*
X0133475Y0028351D01*
X0133532Y0028286D01*
X0133587Y0028218D01*
X0133638Y0028147D01*
X0133687Y0028075D01*
X0133732Y0028000D01*
X0133774Y0027923D01*
X0133813Y0027845D01*
X0133848Y0027765D01*
X0133879Y0027684D01*
X0133907Y0027601D01*
X0133932Y0027518D01*
X0133953Y0027433D01*
X0133970Y0027347D01*
X0133983Y0027261D01*
X0133992Y0027174D01*
X0133998Y0027087D01*
X0134000Y0027000D01*
X0134000Y0006000D01*
X0180000Y0006000D01*
X0180411Y0006005D01*
X0180821Y0006020D01*
X0181231Y0006045D01*
X0181641Y0006079D01*
X0182049Y0006124D01*
X0182456Y0006178D01*
X0182862Y0006243D01*
X0183266Y0006317D01*
X0183668Y0006401D01*
X0184068Y0006494D01*
X0184466Y0006597D01*
X0184861Y0006710D01*
X0185253Y0006832D01*
X0185642Y0006964D01*
X0186028Y0007105D01*
X0186411Y0007255D01*
X0186789Y0007415D01*
X0187164Y0007583D01*
X0187534Y0007761D01*
X0187900Y0007947D01*
X0188262Y0008143D01*
X0188618Y0008347D01*
X0188970Y0008559D01*
X0189316Y0008780D01*
X0189657Y0009009D01*
X0189992Y0009247D01*
X0190322Y0009492D01*
X0190645Y0009746D01*
X0190962Y0010007D01*
X0191273Y0010275D01*
X0191577Y0010551D01*
X0191875Y0010835D01*
X0192165Y0011125D01*
X0192449Y0011423D01*
X0192725Y0011727D01*
X0192993Y0012038D01*
X0193254Y0012355D01*
X0193508Y0012678D01*
X0193753Y0013008D01*
X0193991Y0013343D01*
X0194220Y0013684D01*
X0194441Y0014030D01*
X0194653Y0014382D01*
X0194857Y0014738D01*
X0195053Y0015100D01*
X0195239Y0015466D01*
X0195417Y0015836D01*
X0195585Y0016211D01*
X0195745Y0016589D01*
X0195895Y0016972D01*
X0196036Y0017358D01*
X0196168Y0017747D01*
X0196290Y0018139D01*
X0196403Y0018534D01*
X0196506Y0018932D01*
X0196599Y0019332D01*
X0196683Y0019734D01*
X0196757Y0020138D01*
X0196822Y0020544D01*
X0196876Y0020951D01*
X0196921Y0021359D01*
X0196955Y0021769D01*
X0196980Y0022179D01*
X0196995Y0022589D01*
X0197000Y0023000D01*
X0197000Y0150000D01*
X0196995Y0150411D01*
X0196980Y0150821D01*
X0196955Y0151231D01*
X0196921Y0151641D01*
X0196876Y0152049D01*
X0196822Y0152456D01*
X0196757Y0152862D01*
X0196683Y0153266D01*
X0196599Y0153668D01*
X0196506Y0154068D01*
X0196403Y0154466D01*
X0196290Y0154861D01*
X0196168Y0155253D01*
X0196036Y0155642D01*
X0195895Y0156028D01*
X0195745Y0156411D01*
X0195585Y0156789D01*
X0195417Y0157164D01*
X0195239Y0157534D01*
X0195053Y0157900D01*
X0194857Y0158262D01*
X0194653Y0158618D01*
X0194441Y0158970D01*
X0194220Y0159316D01*
X0193991Y0159657D01*
X0193753Y0159992D01*
X0193508Y0160322D01*
X0193254Y0160645D01*
X0192993Y0160962D01*
X0192725Y0161273D01*
X0192449Y0161577D01*
X0192165Y0161875D01*
X0191875Y0162165D01*
X0191577Y0162449D01*
X0191273Y0162725D01*
X0190962Y0162993D01*
X0190645Y0163254D01*
X0190322Y0163508D01*
X0189992Y0163753D01*
X0189657Y0163991D01*
X0189316Y0164220D01*
X0188970Y0164441D01*
X0188618Y0164653D01*
X0188262Y0164857D01*
X0187900Y0165053D01*
X0187534Y0165239D01*
X0187164Y0165417D01*
X0186789Y0165585D01*
X0186411Y0165745D01*
X0186028Y0165895D01*
X0185642Y0166036D01*
X0185253Y0166168D01*
X0184861Y0166290D01*
X0184466Y0166403D01*
X0184068Y0166506D01*
X0183668Y0166599D01*
X0183266Y0166683D01*
X0182862Y0166757D01*
X0182456Y0166822D01*
X0182049Y0166876D01*
X0181641Y0166921D01*
X0181231Y0166955D01*
X0180821Y0166980D01*
X0180411Y0166995D01*
X0180000Y0167000D01*
X0053000Y0167000D01*
X0051000Y0172000D02*
X0112000Y0172000D01*
X0112000Y0239000D01*
X0002000Y0239000D01*
X0002000Y0002000D01*
X0032750Y0059250D02*
X0032752Y0059304D01*
X0032758Y0059358D01*
X0032768Y0059411D01*
X0032781Y0059464D01*
X0032798Y0059515D01*
X0032819Y0059565D01*
X0032844Y0059613D01*
X0032872Y0059660D01*
X0032903Y0059704D01*
X0032937Y0059746D01*
X0032974Y0059785D01*
X0033014Y0059822D01*
X0033057Y0059855D01*
X0033102Y0059886D01*
X0033149Y0059913D01*
X0033197Y0059936D01*
X0033248Y0059956D01*
X0033299Y0059973D01*
X0033352Y0059985D01*
X0033405Y0059994D01*
X0033459Y0059999D01*
X0033514Y0060000D01*
X0033568Y0059997D01*
X0033621Y0059990D01*
X0033674Y0059979D01*
X0033727Y0059965D01*
X0033778Y0059947D01*
X0033827Y0059925D01*
X0033875Y0059900D01*
X0033921Y0059871D01*
X0033965Y0059839D01*
X0034006Y0059804D01*
X0034044Y0059766D01*
X0034080Y0059725D01*
X0034113Y0059682D01*
X0034143Y0059637D01*
X0034169Y0059589D01*
X0034192Y0059540D01*
X0034211Y0059489D01*
X0034226Y0059438D01*
X0034238Y0059385D01*
X0034246Y0059331D01*
X0034250Y0059277D01*
X0034250Y0059223D01*
X0034246Y0059169D01*
X0034238Y0059115D01*
X0034226Y0059062D01*
X0034211Y0059011D01*
X0034192Y0058960D01*
X0034169Y0058911D01*
X0034143Y0058863D01*
X0034113Y0058818D01*
X0034080Y0058775D01*
X0034044Y0058734D01*
X0034006Y0058696D01*
X0033965Y0058661D01*
X0033921Y0058629D01*
X0033875Y0058600D01*
X0033827Y0058575D01*
X0033778Y0058553D01*
X0033727Y0058535D01*
X0033674Y0058521D01*
X0033621Y0058510D01*
X0033568Y0058503D01*
X0033514Y0058500D01*
X0033459Y0058501D01*
X0033405Y0058506D01*
X0033352Y0058515D01*
X0033299Y0058527D01*
X0033248Y0058544D01*
X0033197Y0058564D01*
X0033149Y0058587D01*
X0033102Y0058614D01*
X0033057Y0058645D01*
X0033014Y0058678D01*
X0032974Y0058715D01*
X0032937Y0058754D01*
X0032903Y0058796D01*
X0032872Y0058840D01*
X0032844Y0058887D01*
X0032819Y0058935D01*
X0032798Y0058985D01*
X0032781Y0059036D01*
X0032768Y0059089D01*
X0032758Y0059142D01*
X0032752Y0059196D01*
X0032750Y0059250D01*
X0032750Y0062750D02*
X0032752Y0062804D01*
X0032758Y0062858D01*
X0032768Y0062911D01*
X0032781Y0062964D01*
X0032798Y0063015D01*
X0032819Y0063065D01*
X0032844Y0063113D01*
X0032872Y0063160D01*
X0032903Y0063204D01*
X0032937Y0063246D01*
X0032974Y0063285D01*
X0033014Y0063322D01*
X0033057Y0063355D01*
X0033102Y0063386D01*
X0033149Y0063413D01*
X0033197Y0063436D01*
X0033248Y0063456D01*
X0033299Y0063473D01*
X0033352Y0063485D01*
X0033405Y0063494D01*
X0033459Y0063499D01*
X0033514Y0063500D01*
X0033568Y0063497D01*
X0033621Y0063490D01*
X0033674Y0063479D01*
X0033727Y0063465D01*
X0033778Y0063447D01*
X0033827Y0063425D01*
X0033875Y0063400D01*
X0033921Y0063371D01*
X0033965Y0063339D01*
X0034006Y0063304D01*
X0034044Y0063266D01*
X0034080Y0063225D01*
X0034113Y0063182D01*
X0034143Y0063137D01*
X0034169Y0063089D01*
X0034192Y0063040D01*
X0034211Y0062989D01*
X0034226Y0062938D01*
X0034238Y0062885D01*
X0034246Y0062831D01*
X0034250Y0062777D01*
X0034250Y0062723D01*
X0034246Y0062669D01*
X0034238Y0062615D01*
X0034226Y0062562D01*
X0034211Y0062511D01*
X0034192Y0062460D01*
X0034169Y0062411D01*
X0034143Y0062363D01*
X0034113Y0062318D01*
X0034080Y0062275D01*
X0034044Y0062234D01*
X0034006Y0062196D01*
X0033965Y0062161D01*
X0033921Y0062129D01*
X0033875Y0062100D01*
X0033827Y0062075D01*
X0033778Y0062053D01*
X0033727Y0062035D01*
X0033674Y0062021D01*
X0033621Y0062010D01*
X0033568Y0062003D01*
X0033514Y0062000D01*
X0033459Y0062001D01*
X0033405Y0062006D01*
X0033352Y0062015D01*
X0033299Y0062027D01*
X0033248Y0062044D01*
X0033197Y0062064D01*
X0033149Y0062087D01*
X0033102Y0062114D01*
X0033057Y0062145D01*
X0033014Y0062178D01*
X0032974Y0062215D01*
X0032937Y0062254D01*
X0032903Y0062296D01*
X0032872Y0062340D01*
X0032844Y0062387D01*
X0032819Y0062435D01*
X0032798Y0062485D01*
X0032781Y0062536D01*
X0032768Y0062589D01*
X0032758Y0062642D01*
X0032752Y0062696D01*
X0032750Y0062750D01*
X0032750Y0066250D02*
X0032752Y0066304D01*
X0032758Y0066358D01*
X0032768Y0066411D01*
X0032781Y0066464D01*
X0032798Y0066515D01*
X0032819Y0066565D01*
X0032844Y0066613D01*
X0032872Y0066660D01*
X0032903Y0066704D01*
X0032937Y0066746D01*
X0032974Y0066785D01*
X0033014Y0066822D01*
X0033057Y0066855D01*
X0033102Y0066886D01*
X0033149Y0066913D01*
X0033197Y0066936D01*
X0033248Y0066956D01*
X0033299Y0066973D01*
X0033352Y0066985D01*
X0033405Y0066994D01*
X0033459Y0066999D01*
X0033514Y0067000D01*
X0033568Y0066997D01*
X0033621Y0066990D01*
X0033674Y0066979D01*
X0033727Y0066965D01*
X0033778Y0066947D01*
X0033827Y0066925D01*
X0033875Y0066900D01*
X0033921Y0066871D01*
X0033965Y0066839D01*
X0034006Y0066804D01*
X0034044Y0066766D01*
X0034080Y0066725D01*
X0034113Y0066682D01*
X0034143Y0066637D01*
X0034169Y0066589D01*
X0034192Y0066540D01*
X0034211Y0066489D01*
X0034226Y0066438D01*
X0034238Y0066385D01*
X0034246Y0066331D01*
X0034250Y0066277D01*
X0034250Y0066223D01*
X0034246Y0066169D01*
X0034238Y0066115D01*
X0034226Y0066062D01*
X0034211Y0066011D01*
X0034192Y0065960D01*
X0034169Y0065911D01*
X0034143Y0065863D01*
X0034113Y0065818D01*
X0034080Y0065775D01*
X0034044Y0065734D01*
X0034006Y0065696D01*
X0033965Y0065661D01*
X0033921Y0065629D01*
X0033875Y0065600D01*
X0033827Y0065575D01*
X0033778Y0065553D01*
X0033727Y0065535D01*
X0033674Y0065521D01*
X0033621Y0065510D01*
X0033568Y0065503D01*
X0033514Y0065500D01*
X0033459Y0065501D01*
X0033405Y0065506D01*
X0033352Y0065515D01*
X0033299Y0065527D01*
X0033248Y0065544D01*
X0033197Y0065564D01*
X0033149Y0065587D01*
X0033102Y0065614D01*
X0033057Y0065645D01*
X0033014Y0065678D01*
X0032974Y0065715D01*
X0032937Y0065754D01*
X0032903Y0065796D01*
X0032872Y0065840D01*
X0032844Y0065887D01*
X0032819Y0065935D01*
X0032798Y0065985D01*
X0032781Y0066036D01*
X0032768Y0066089D01*
X0032758Y0066142D01*
X0032752Y0066196D01*
X0032750Y0066250D01*
X0032750Y0069750D02*
X0032752Y0069804D01*
X0032758Y0069858D01*
X0032768Y0069911D01*
X0032781Y0069964D01*
X0032798Y0070015D01*
X0032819Y0070065D01*
X0032844Y0070113D01*
X0032872Y0070160D01*
X0032903Y0070204D01*
X0032937Y0070246D01*
X0032974Y0070285D01*
X0033014Y0070322D01*
X0033057Y0070355D01*
X0033102Y0070386D01*
X0033149Y0070413D01*
X0033197Y0070436D01*
X0033248Y0070456D01*
X0033299Y0070473D01*
X0033352Y0070485D01*
X0033405Y0070494D01*
X0033459Y0070499D01*
X0033514Y0070500D01*
X0033568Y0070497D01*
X0033621Y0070490D01*
X0033674Y0070479D01*
X0033727Y0070465D01*
X0033778Y0070447D01*
X0033827Y0070425D01*
X0033875Y0070400D01*
X0033921Y0070371D01*
X0033965Y0070339D01*
X0034006Y0070304D01*
X0034044Y0070266D01*
X0034080Y0070225D01*
X0034113Y0070182D01*
X0034143Y0070137D01*
X0034169Y0070089D01*
X0034192Y0070040D01*
X0034211Y0069989D01*
X0034226Y0069938D01*
X0034238Y0069885D01*
X0034246Y0069831D01*
X0034250Y0069777D01*
X0034250Y0069723D01*
X0034246Y0069669D01*
X0034238Y0069615D01*
X0034226Y0069562D01*
X0034211Y0069511D01*
X0034192Y0069460D01*
X0034169Y0069411D01*
X0034143Y0069363D01*
X0034113Y0069318D01*
X0034080Y0069275D01*
X0034044Y0069234D01*
X0034006Y0069196D01*
X0033965Y0069161D01*
X0033921Y0069129D01*
X0033875Y0069100D01*
X0033827Y0069075D01*
X0033778Y0069053D01*
X0033727Y0069035D01*
X0033674Y0069021D01*
X0033621Y0069010D01*
X0033568Y0069003D01*
X0033514Y0069000D01*
X0033459Y0069001D01*
X0033405Y0069006D01*
X0033352Y0069015D01*
X0033299Y0069027D01*
X0033248Y0069044D01*
X0033197Y0069064D01*
X0033149Y0069087D01*
X0033102Y0069114D01*
X0033057Y0069145D01*
X0033014Y0069178D01*
X0032974Y0069215D01*
X0032937Y0069254D01*
X0032903Y0069296D01*
X0032872Y0069340D01*
X0032844Y0069387D01*
X0032819Y0069435D01*
X0032798Y0069485D01*
X0032781Y0069536D01*
X0032768Y0069589D01*
X0032758Y0069642D01*
X0032752Y0069696D01*
X0032750Y0069750D01*
X0032750Y0073250D02*
X0032752Y0073304D01*
X0032758Y0073358D01*
X0032768Y0073411D01*
X0032781Y0073464D01*
X0032798Y0073515D01*
X0032819Y0073565D01*
X0032844Y0073613D01*
X0032872Y0073660D01*
X0032903Y0073704D01*
X0032937Y0073746D01*
X0032974Y0073785D01*
X0033014Y0073822D01*
X0033057Y0073855D01*
X0033102Y0073886D01*
X0033149Y0073913D01*
X0033197Y0073936D01*
X0033248Y0073956D01*
X0033299Y0073973D01*
X0033352Y0073985D01*
X0033405Y0073994D01*
X0033459Y0073999D01*
X0033514Y0074000D01*
X0033568Y0073997D01*
X0033621Y0073990D01*
X0033674Y0073979D01*
X0033727Y0073965D01*
X0033778Y0073947D01*
X0033827Y0073925D01*
X0033875Y0073900D01*
X0033921Y0073871D01*
X0033965Y0073839D01*
X0034006Y0073804D01*
X0034044Y0073766D01*
X0034080Y0073725D01*
X0034113Y0073682D01*
X0034143Y0073637D01*
X0034169Y0073589D01*
X0034192Y0073540D01*
X0034211Y0073489D01*
X0034226Y0073438D01*
X0034238Y0073385D01*
X0034246Y0073331D01*
X0034250Y0073277D01*
X0034250Y0073223D01*
X0034246Y0073169D01*
X0034238Y0073115D01*
X0034226Y0073062D01*
X0034211Y0073011D01*
X0034192Y0072960D01*
X0034169Y0072911D01*
X0034143Y0072863D01*
X0034113Y0072818D01*
X0034080Y0072775D01*
X0034044Y0072734D01*
X0034006Y0072696D01*
X0033965Y0072661D01*
X0033921Y0072629D01*
X0033875Y0072600D01*
X0033827Y0072575D01*
X0033778Y0072553D01*
X0033727Y0072535D01*
X0033674Y0072521D01*
X0033621Y0072510D01*
X0033568Y0072503D01*
X0033514Y0072500D01*
X0033459Y0072501D01*
X0033405Y0072506D01*
X0033352Y0072515D01*
X0033299Y0072527D01*
X0033248Y0072544D01*
X0033197Y0072564D01*
X0033149Y0072587D01*
X0033102Y0072614D01*
X0033057Y0072645D01*
X0033014Y0072678D01*
X0032974Y0072715D01*
X0032937Y0072754D01*
X0032903Y0072796D01*
X0032872Y0072840D01*
X0032844Y0072887D01*
X0032819Y0072935D01*
X0032798Y0072985D01*
X0032781Y0073036D01*
X0032768Y0073089D01*
X0032758Y0073142D01*
X0032752Y0073196D01*
X0032750Y0073250D01*
X0032750Y0076750D02*
X0032752Y0076804D01*
X0032758Y0076858D01*
X0032768Y0076911D01*
X0032781Y0076964D01*
X0032798Y0077015D01*
X0032819Y0077065D01*
X0032844Y0077113D01*
X0032872Y0077160D01*
X0032903Y0077204D01*
X0032937Y0077246D01*
X0032974Y0077285D01*
X0033014Y0077322D01*
X0033057Y0077355D01*
X0033102Y0077386D01*
X0033149Y0077413D01*
X0033197Y0077436D01*
X0033248Y0077456D01*
X0033299Y0077473D01*
X0033352Y0077485D01*
X0033405Y0077494D01*
X0033459Y0077499D01*
X0033514Y0077500D01*
X0033568Y0077497D01*
X0033621Y0077490D01*
X0033674Y0077479D01*
X0033727Y0077465D01*
X0033778Y0077447D01*
X0033827Y0077425D01*
X0033875Y0077400D01*
X0033921Y0077371D01*
X0033965Y0077339D01*
X0034006Y0077304D01*
X0034044Y0077266D01*
X0034080Y0077225D01*
X0034113Y0077182D01*
X0034143Y0077137D01*
X0034169Y0077089D01*
X0034192Y0077040D01*
X0034211Y0076989D01*
X0034226Y0076938D01*
X0034238Y0076885D01*
X0034246Y0076831D01*
X0034250Y0076777D01*
X0034250Y0076723D01*
X0034246Y0076669D01*
X0034238Y0076615D01*
X0034226Y0076562D01*
X0034211Y0076511D01*
X0034192Y0076460D01*
X0034169Y0076411D01*
X0034143Y0076363D01*
X0034113Y0076318D01*
X0034080Y0076275D01*
X0034044Y0076234D01*
X0034006Y0076196D01*
X0033965Y0076161D01*
X0033921Y0076129D01*
X0033875Y0076100D01*
X0033827Y0076075D01*
X0033778Y0076053D01*
X0033727Y0076035D01*
X0033674Y0076021D01*
X0033621Y0076010D01*
X0033568Y0076003D01*
X0033514Y0076000D01*
X0033459Y0076001D01*
X0033405Y0076006D01*
X0033352Y0076015D01*
X0033299Y0076027D01*
X0033248Y0076044D01*
X0033197Y0076064D01*
X0033149Y0076087D01*
X0033102Y0076114D01*
X0033057Y0076145D01*
X0033014Y0076178D01*
X0032974Y0076215D01*
X0032937Y0076254D01*
X0032903Y0076296D01*
X0032872Y0076340D01*
X0032844Y0076387D01*
X0032819Y0076435D01*
X0032798Y0076485D01*
X0032781Y0076536D01*
X0032768Y0076589D01*
X0032758Y0076642D01*
X0032752Y0076696D01*
X0032750Y0076750D01*
X0032750Y0080250D02*
X0032752Y0080304D01*
X0032758Y0080358D01*
X0032768Y0080411D01*
X0032781Y0080464D01*
X0032798Y0080515D01*
X0032819Y0080565D01*
X0032844Y0080613D01*
X0032872Y0080660D01*
X0032903Y0080704D01*
X0032937Y0080746D01*
X0032974Y0080785D01*
X0033014Y0080822D01*
X0033057Y0080855D01*
X0033102Y0080886D01*
X0033149Y0080913D01*
X0033197Y0080936D01*
X0033248Y0080956D01*
X0033299Y0080973D01*
X0033352Y0080985D01*
X0033405Y0080994D01*
X0033459Y0080999D01*
X0033514Y0081000D01*
X0033568Y0080997D01*
X0033621Y0080990D01*
X0033674Y0080979D01*
X0033727Y0080965D01*
X0033778Y0080947D01*
X0033827Y0080925D01*
X0033875Y0080900D01*
X0033921Y0080871D01*
X0033965Y0080839D01*
X0034006Y0080804D01*
X0034044Y0080766D01*
X0034080Y0080725D01*
X0034113Y0080682D01*
X0034143Y0080637D01*
X0034169Y0080589D01*
X0034192Y0080540D01*
X0034211Y0080489D01*
X0034226Y0080438D01*
X0034238Y0080385D01*
X0034246Y0080331D01*
X0034250Y0080277D01*
X0034250Y0080223D01*
X0034246Y0080169D01*
X0034238Y0080115D01*
X0034226Y0080062D01*
X0034211Y0080011D01*
X0034192Y0079960D01*
X0034169Y0079911D01*
X0034143Y0079863D01*
X0034113Y0079818D01*
X0034080Y0079775D01*
X0034044Y0079734D01*
X0034006Y0079696D01*
X0033965Y0079661D01*
X0033921Y0079629D01*
X0033875Y0079600D01*
X0033827Y0079575D01*
X0033778Y0079553D01*
X0033727Y0079535D01*
X0033674Y0079521D01*
X0033621Y0079510D01*
X0033568Y0079503D01*
X0033514Y0079500D01*
X0033459Y0079501D01*
X0033405Y0079506D01*
X0033352Y0079515D01*
X0033299Y0079527D01*
X0033248Y0079544D01*
X0033197Y0079564D01*
X0033149Y0079587D01*
X0033102Y0079614D01*
X0033057Y0079645D01*
X0033014Y0079678D01*
X0032974Y0079715D01*
X0032937Y0079754D01*
X0032903Y0079796D01*
X0032872Y0079840D01*
X0032844Y0079887D01*
X0032819Y0079935D01*
X0032798Y0079985D01*
X0032781Y0080036D01*
X0032768Y0080089D01*
X0032758Y0080142D01*
X0032752Y0080196D01*
X0032750Y0080250D01*
X0032750Y0083750D02*
X0032752Y0083804D01*
X0032758Y0083858D01*
X0032768Y0083911D01*
X0032781Y0083964D01*
X0032798Y0084015D01*
X0032819Y0084065D01*
X0032844Y0084113D01*
X0032872Y0084160D01*
X0032903Y0084204D01*
X0032937Y0084246D01*
X0032974Y0084285D01*
X0033014Y0084322D01*
X0033057Y0084355D01*
X0033102Y0084386D01*
X0033149Y0084413D01*
X0033197Y0084436D01*
X0033248Y0084456D01*
X0033299Y0084473D01*
X0033352Y0084485D01*
X0033405Y0084494D01*
X0033459Y0084499D01*
X0033514Y0084500D01*
X0033568Y0084497D01*
X0033621Y0084490D01*
X0033674Y0084479D01*
X0033727Y0084465D01*
X0033778Y0084447D01*
X0033827Y0084425D01*
X0033875Y0084400D01*
X0033921Y0084371D01*
X0033965Y0084339D01*
X0034006Y0084304D01*
X0034044Y0084266D01*
X0034080Y0084225D01*
X0034113Y0084182D01*
X0034143Y0084137D01*
X0034169Y0084089D01*
X0034192Y0084040D01*
X0034211Y0083989D01*
X0034226Y0083938D01*
X0034238Y0083885D01*
X0034246Y0083831D01*
X0034250Y0083777D01*
X0034250Y0083723D01*
X0034246Y0083669D01*
X0034238Y0083615D01*
X0034226Y0083562D01*
X0034211Y0083511D01*
X0034192Y0083460D01*
X0034169Y0083411D01*
X0034143Y0083363D01*
X0034113Y0083318D01*
X0034080Y0083275D01*
X0034044Y0083234D01*
X0034006Y0083196D01*
X0033965Y0083161D01*
X0033921Y0083129D01*
X0033875Y0083100D01*
X0033827Y0083075D01*
X0033778Y0083053D01*
X0033727Y0083035D01*
X0033674Y0083021D01*
X0033621Y0083010D01*
X0033568Y0083003D01*
X0033514Y0083000D01*
X0033459Y0083001D01*
X0033405Y0083006D01*
X0033352Y0083015D01*
X0033299Y0083027D01*
X0033248Y0083044D01*
X0033197Y0083064D01*
X0033149Y0083087D01*
X0033102Y0083114D01*
X0033057Y0083145D01*
X0033014Y0083178D01*
X0032974Y0083215D01*
X0032937Y0083254D01*
X0032903Y0083296D01*
X0032872Y0083340D01*
X0032844Y0083387D01*
X0032819Y0083435D01*
X0032798Y0083485D01*
X0032781Y0083536D01*
X0032768Y0083589D01*
X0032758Y0083642D01*
X0032752Y0083696D01*
X0032750Y0083750D01*
X0032750Y0087250D02*
X0032752Y0087304D01*
X0032758Y0087358D01*
X0032768Y0087411D01*
X0032781Y0087464D01*
X0032798Y0087515D01*
X0032819Y0087565D01*
X0032844Y0087613D01*
X0032872Y0087660D01*
X0032903Y0087704D01*
X0032937Y0087746D01*
X0032974Y0087785D01*
X0033014Y0087822D01*
X0033057Y0087855D01*
X0033102Y0087886D01*
X0033149Y0087913D01*
X0033197Y0087936D01*
X0033248Y0087956D01*
X0033299Y0087973D01*
X0033352Y0087985D01*
X0033405Y0087994D01*
X0033459Y0087999D01*
X0033514Y0088000D01*
X0033568Y0087997D01*
X0033621Y0087990D01*
X0033674Y0087979D01*
X0033727Y0087965D01*
X0033778Y0087947D01*
X0033827Y0087925D01*
X0033875Y0087900D01*
X0033921Y0087871D01*
X0033965Y0087839D01*
X0034006Y0087804D01*
X0034044Y0087766D01*
X0034080Y0087725D01*
X0034113Y0087682D01*
X0034143Y0087637D01*
X0034169Y0087589D01*
X0034192Y0087540D01*
X0034211Y0087489D01*
X0034226Y0087438D01*
X0034238Y0087385D01*
X0034246Y0087331D01*
X0034250Y0087277D01*
X0034250Y0087223D01*
X0034246Y0087169D01*
X0034238Y0087115D01*
X0034226Y0087062D01*
X0034211Y0087011D01*
X0034192Y0086960D01*
X0034169Y0086911D01*
X0034143Y0086863D01*
X0034113Y0086818D01*
X0034080Y0086775D01*
X0034044Y0086734D01*
X0034006Y0086696D01*
X0033965Y0086661D01*
X0033921Y0086629D01*
X0033875Y0086600D01*
X0033827Y0086575D01*
X0033778Y0086553D01*
X0033727Y0086535D01*
X0033674Y0086521D01*
X0033621Y0086510D01*
X0033568Y0086503D01*
X0033514Y0086500D01*
X0033459Y0086501D01*
X0033405Y0086506D01*
X0033352Y0086515D01*
X0033299Y0086527D01*
X0033248Y0086544D01*
X0033197Y0086564D01*
X0033149Y0086587D01*
X0033102Y0086614D01*
X0033057Y0086645D01*
X0033014Y0086678D01*
X0032974Y0086715D01*
X0032937Y0086754D01*
X0032903Y0086796D01*
X0032872Y0086840D01*
X0032844Y0086887D01*
X0032819Y0086935D01*
X0032798Y0086985D01*
X0032781Y0087036D01*
X0032768Y0087089D01*
X0032758Y0087142D01*
X0032752Y0087196D01*
X0032750Y0087250D01*
X0032750Y0090750D02*
X0032752Y0090804D01*
X0032758Y0090858D01*
X0032768Y0090911D01*
X0032781Y0090964D01*
X0032798Y0091015D01*
X0032819Y0091065D01*
X0032844Y0091113D01*
X0032872Y0091160D01*
X0032903Y0091204D01*
X0032937Y0091246D01*
X0032974Y0091285D01*
X0033014Y0091322D01*
X0033057Y0091355D01*
X0033102Y0091386D01*
X0033149Y0091413D01*
X0033197Y0091436D01*
X0033248Y0091456D01*
X0033299Y0091473D01*
X0033352Y0091485D01*
X0033405Y0091494D01*
X0033459Y0091499D01*
X0033514Y0091500D01*
X0033568Y0091497D01*
X0033621Y0091490D01*
X0033674Y0091479D01*
X0033727Y0091465D01*
X0033778Y0091447D01*
X0033827Y0091425D01*
X0033875Y0091400D01*
X0033921Y0091371D01*
X0033965Y0091339D01*
X0034006Y0091304D01*
X0034044Y0091266D01*
X0034080Y0091225D01*
X0034113Y0091182D01*
X0034143Y0091137D01*
X0034169Y0091089D01*
X0034192Y0091040D01*
X0034211Y0090989D01*
X0034226Y0090938D01*
X0034238Y0090885D01*
X0034246Y0090831D01*
X0034250Y0090777D01*
X0034250Y0090723D01*
X0034246Y0090669D01*
X0034238Y0090615D01*
X0034226Y0090562D01*
X0034211Y0090511D01*
X0034192Y0090460D01*
X0034169Y0090411D01*
X0034143Y0090363D01*
X0034113Y0090318D01*
X0034080Y0090275D01*
X0034044Y0090234D01*
X0034006Y0090196D01*
X0033965Y0090161D01*
X0033921Y0090129D01*
X0033875Y0090100D01*
X0033827Y0090075D01*
X0033778Y0090053D01*
X0033727Y0090035D01*
X0033674Y0090021D01*
X0033621Y0090010D01*
X0033568Y0090003D01*
X0033514Y0090000D01*
X0033459Y0090001D01*
X0033405Y0090006D01*
X0033352Y0090015D01*
X0033299Y0090027D01*
X0033248Y0090044D01*
X0033197Y0090064D01*
X0033149Y0090087D01*
X0033102Y0090114D01*
X0033057Y0090145D01*
X0033014Y0090178D01*
X0032974Y0090215D01*
X0032937Y0090254D01*
X0032903Y0090296D01*
X0032872Y0090340D01*
X0032844Y0090387D01*
X0032819Y0090435D01*
X0032798Y0090485D01*
X0032781Y0090536D01*
X0032768Y0090589D01*
X0032758Y0090642D01*
X0032752Y0090696D01*
X0032750Y0090750D01*
X0032750Y0094250D02*
X0032752Y0094304D01*
X0032758Y0094358D01*
X0032768Y0094411D01*
X0032781Y0094464D01*
X0032798Y0094515D01*
X0032819Y0094565D01*
X0032844Y0094613D01*
X0032872Y0094660D01*
X0032903Y0094704D01*
X0032937Y0094746D01*
X0032974Y0094785D01*
X0033014Y0094822D01*
X0033057Y0094855D01*
X0033102Y0094886D01*
X0033149Y0094913D01*
X0033197Y0094936D01*
X0033248Y0094956D01*
X0033299Y0094973D01*
X0033352Y0094985D01*
X0033405Y0094994D01*
X0033459Y0094999D01*
X0033514Y0095000D01*
X0033568Y0094997D01*
X0033621Y0094990D01*
X0033674Y0094979D01*
X0033727Y0094965D01*
X0033778Y0094947D01*
X0033827Y0094925D01*
X0033875Y0094900D01*
X0033921Y0094871D01*
X0033965Y0094839D01*
X0034006Y0094804D01*
X0034044Y0094766D01*
X0034080Y0094725D01*
X0034113Y0094682D01*
X0034143Y0094637D01*
X0034169Y0094589D01*
X0034192Y0094540D01*
X0034211Y0094489D01*
X0034226Y0094438D01*
X0034238Y0094385D01*
X0034246Y0094331D01*
X0034250Y0094277D01*
X0034250Y0094223D01*
X0034246Y0094169D01*
X0034238Y0094115D01*
X0034226Y0094062D01*
X0034211Y0094011D01*
X0034192Y0093960D01*
X0034169Y0093911D01*
X0034143Y0093863D01*
X0034113Y0093818D01*
X0034080Y0093775D01*
X0034044Y0093734D01*
X0034006Y0093696D01*
X0033965Y0093661D01*
X0033921Y0093629D01*
X0033875Y0093600D01*
X0033827Y0093575D01*
X0033778Y0093553D01*
X0033727Y0093535D01*
X0033674Y0093521D01*
X0033621Y0093510D01*
X0033568Y0093503D01*
X0033514Y0093500D01*
X0033459Y0093501D01*
X0033405Y0093506D01*
X0033352Y0093515D01*
X0033299Y0093527D01*
X0033248Y0093544D01*
X0033197Y0093564D01*
X0033149Y0093587D01*
X0033102Y0093614D01*
X0033057Y0093645D01*
X0033014Y0093678D01*
X0032974Y0093715D01*
X0032937Y0093754D01*
X0032903Y0093796D01*
X0032872Y0093840D01*
X0032844Y0093887D01*
X0032819Y0093935D01*
X0032798Y0093985D01*
X0032781Y0094036D01*
X0032768Y0094089D01*
X0032758Y0094142D01*
X0032752Y0094196D01*
X0032750Y0094250D01*
X0032750Y0097750D02*
X0032752Y0097804D01*
X0032758Y0097858D01*
X0032768Y0097911D01*
X0032781Y0097964D01*
X0032798Y0098015D01*
X0032819Y0098065D01*
X0032844Y0098113D01*
X0032872Y0098160D01*
X0032903Y0098204D01*
X0032937Y0098246D01*
X0032974Y0098285D01*
X0033014Y0098322D01*
X0033057Y0098355D01*
X0033102Y0098386D01*
X0033149Y0098413D01*
X0033197Y0098436D01*
X0033248Y0098456D01*
X0033299Y0098473D01*
X0033352Y0098485D01*
X0033405Y0098494D01*
X0033459Y0098499D01*
X0033514Y0098500D01*
X0033568Y0098497D01*
X0033621Y0098490D01*
X0033674Y0098479D01*
X0033727Y0098465D01*
X0033778Y0098447D01*
X0033827Y0098425D01*
X0033875Y0098400D01*
X0033921Y0098371D01*
X0033965Y0098339D01*
X0034006Y0098304D01*
X0034044Y0098266D01*
X0034080Y0098225D01*
X0034113Y0098182D01*
X0034143Y0098137D01*
X0034169Y0098089D01*
X0034192Y0098040D01*
X0034211Y0097989D01*
X0034226Y0097938D01*
X0034238Y0097885D01*
X0034246Y0097831D01*
X0034250Y0097777D01*
X0034250Y0097723D01*
X0034246Y0097669D01*
X0034238Y0097615D01*
X0034226Y0097562D01*
X0034211Y0097511D01*
X0034192Y0097460D01*
X0034169Y0097411D01*
X0034143Y0097363D01*
X0034113Y0097318D01*
X0034080Y0097275D01*
X0034044Y0097234D01*
X0034006Y0097196D01*
X0033965Y0097161D01*
X0033921Y0097129D01*
X0033875Y0097100D01*
X0033827Y0097075D01*
X0033778Y0097053D01*
X0033727Y0097035D01*
X0033674Y0097021D01*
X0033621Y0097010D01*
X0033568Y0097003D01*
X0033514Y0097000D01*
X0033459Y0097001D01*
X0033405Y0097006D01*
X0033352Y0097015D01*
X0033299Y0097027D01*
X0033248Y0097044D01*
X0033197Y0097064D01*
X0033149Y0097087D01*
X0033102Y0097114D01*
X0033057Y0097145D01*
X0033014Y0097178D01*
X0032974Y0097215D01*
X0032937Y0097254D01*
X0032903Y0097296D01*
X0032872Y0097340D01*
X0032844Y0097387D01*
X0032819Y0097435D01*
X0032798Y0097485D01*
X0032781Y0097536D01*
X0032768Y0097589D01*
X0032758Y0097642D01*
X0032752Y0097696D01*
X0032750Y0097750D01*
X0032750Y0101250D02*
X0032752Y0101304D01*
X0032758Y0101358D01*
X0032768Y0101411D01*
X0032781Y0101464D01*
X0032798Y0101515D01*
X0032819Y0101565D01*
X0032844Y0101613D01*
X0032872Y0101660D01*
X0032903Y0101704D01*
X0032937Y0101746D01*
X0032974Y0101785D01*
X0033014Y0101822D01*
X0033057Y0101855D01*
X0033102Y0101886D01*
X0033149Y0101913D01*
X0033197Y0101936D01*
X0033248Y0101956D01*
X0033299Y0101973D01*
X0033352Y0101985D01*
X0033405Y0101994D01*
X0033459Y0101999D01*
X0033514Y0102000D01*
X0033568Y0101997D01*
X0033621Y0101990D01*
X0033674Y0101979D01*
X0033727Y0101965D01*
X0033778Y0101947D01*
X0033827Y0101925D01*
X0033875Y0101900D01*
X0033921Y0101871D01*
X0033965Y0101839D01*
X0034006Y0101804D01*
X0034044Y0101766D01*
X0034080Y0101725D01*
X0034113Y0101682D01*
X0034143Y0101637D01*
X0034169Y0101589D01*
X0034192Y0101540D01*
X0034211Y0101489D01*
X0034226Y0101438D01*
X0034238Y0101385D01*
X0034246Y0101331D01*
X0034250Y0101277D01*
X0034250Y0101223D01*
X0034246Y0101169D01*
X0034238Y0101115D01*
X0034226Y0101062D01*
X0034211Y0101011D01*
X0034192Y0100960D01*
X0034169Y0100911D01*
X0034143Y0100863D01*
X0034113Y0100818D01*
X0034080Y0100775D01*
X0034044Y0100734D01*
X0034006Y0100696D01*
X0033965Y0100661D01*
X0033921Y0100629D01*
X0033875Y0100600D01*
X0033827Y0100575D01*
X0033778Y0100553D01*
X0033727Y0100535D01*
X0033674Y0100521D01*
X0033621Y0100510D01*
X0033568Y0100503D01*
X0033514Y0100500D01*
X0033459Y0100501D01*
X0033405Y0100506D01*
X0033352Y0100515D01*
X0033299Y0100527D01*
X0033248Y0100544D01*
X0033197Y0100564D01*
X0033149Y0100587D01*
X0033102Y0100614D01*
X0033057Y0100645D01*
X0033014Y0100678D01*
X0032974Y0100715D01*
X0032937Y0100754D01*
X0032903Y0100796D01*
X0032872Y0100840D01*
X0032844Y0100887D01*
X0032819Y0100935D01*
X0032798Y0100985D01*
X0032781Y0101036D01*
X0032768Y0101089D01*
X0032758Y0101142D01*
X0032752Y0101196D01*
X0032750Y0101250D01*
X0032750Y0104750D02*
X0032752Y0104804D01*
X0032758Y0104858D01*
X0032768Y0104911D01*
X0032781Y0104964D01*
X0032798Y0105015D01*
X0032819Y0105065D01*
X0032844Y0105113D01*
X0032872Y0105160D01*
X0032903Y0105204D01*
X0032937Y0105246D01*
X0032974Y0105285D01*
X0033014Y0105322D01*
X0033057Y0105355D01*
X0033102Y0105386D01*
X0033149Y0105413D01*
X0033197Y0105436D01*
X0033248Y0105456D01*
X0033299Y0105473D01*
X0033352Y0105485D01*
X0033405Y0105494D01*
X0033459Y0105499D01*
X0033514Y0105500D01*
X0033568Y0105497D01*
X0033621Y0105490D01*
X0033674Y0105479D01*
X0033727Y0105465D01*
X0033778Y0105447D01*
X0033827Y0105425D01*
X0033875Y0105400D01*
X0033921Y0105371D01*
X0033965Y0105339D01*
X0034006Y0105304D01*
X0034044Y0105266D01*
X0034080Y0105225D01*
X0034113Y0105182D01*
X0034143Y0105137D01*
X0034169Y0105089D01*
X0034192Y0105040D01*
X0034211Y0104989D01*
X0034226Y0104938D01*
X0034238Y0104885D01*
X0034246Y0104831D01*
X0034250Y0104777D01*
X0034250Y0104723D01*
X0034246Y0104669D01*
X0034238Y0104615D01*
X0034226Y0104562D01*
X0034211Y0104511D01*
X0034192Y0104460D01*
X0034169Y0104411D01*
X0034143Y0104363D01*
X0034113Y0104318D01*
X0034080Y0104275D01*
X0034044Y0104234D01*
X0034006Y0104196D01*
X0033965Y0104161D01*
X0033921Y0104129D01*
X0033875Y0104100D01*
X0033827Y0104075D01*
X0033778Y0104053D01*
X0033727Y0104035D01*
X0033674Y0104021D01*
X0033621Y0104010D01*
X0033568Y0104003D01*
X0033514Y0104000D01*
X0033459Y0104001D01*
X0033405Y0104006D01*
X0033352Y0104015D01*
X0033299Y0104027D01*
X0033248Y0104044D01*
X0033197Y0104064D01*
X0033149Y0104087D01*
X0033102Y0104114D01*
X0033057Y0104145D01*
X0033014Y0104178D01*
X0032974Y0104215D01*
X0032937Y0104254D01*
X0032903Y0104296D01*
X0032872Y0104340D01*
X0032844Y0104387D01*
X0032819Y0104435D01*
X0032798Y0104485D01*
X0032781Y0104536D01*
X0032768Y0104589D01*
X0032758Y0104642D01*
X0032752Y0104696D01*
X0032750Y0104750D01*
X0032750Y0108250D02*
X0032752Y0108304D01*
X0032758Y0108358D01*
X0032768Y0108411D01*
X0032781Y0108464D01*
X0032798Y0108515D01*
X0032819Y0108565D01*
X0032844Y0108613D01*
X0032872Y0108660D01*
X0032903Y0108704D01*
X0032937Y0108746D01*
X0032974Y0108785D01*
X0033014Y0108822D01*
X0033057Y0108855D01*
X0033102Y0108886D01*
X0033149Y0108913D01*
X0033197Y0108936D01*
X0033248Y0108956D01*
X0033299Y0108973D01*
X0033352Y0108985D01*
X0033405Y0108994D01*
X0033459Y0108999D01*
X0033514Y0109000D01*
X0033568Y0108997D01*
X0033621Y0108990D01*
X0033674Y0108979D01*
X0033727Y0108965D01*
X0033778Y0108947D01*
X0033827Y0108925D01*
X0033875Y0108900D01*
X0033921Y0108871D01*
X0033965Y0108839D01*
X0034006Y0108804D01*
X0034044Y0108766D01*
X0034080Y0108725D01*
X0034113Y0108682D01*
X0034143Y0108637D01*
X0034169Y0108589D01*
X0034192Y0108540D01*
X0034211Y0108489D01*
X0034226Y0108438D01*
X0034238Y0108385D01*
X0034246Y0108331D01*
X0034250Y0108277D01*
X0034250Y0108223D01*
X0034246Y0108169D01*
X0034238Y0108115D01*
X0034226Y0108062D01*
X0034211Y0108011D01*
X0034192Y0107960D01*
X0034169Y0107911D01*
X0034143Y0107863D01*
X0034113Y0107818D01*
X0034080Y0107775D01*
X0034044Y0107734D01*
X0034006Y0107696D01*
X0033965Y0107661D01*
X0033921Y0107629D01*
X0033875Y0107600D01*
X0033827Y0107575D01*
X0033778Y0107553D01*
X0033727Y0107535D01*
X0033674Y0107521D01*
X0033621Y0107510D01*
X0033568Y0107503D01*
X0033514Y0107500D01*
X0033459Y0107501D01*
X0033405Y0107506D01*
X0033352Y0107515D01*
X0033299Y0107527D01*
X0033248Y0107544D01*
X0033197Y0107564D01*
X0033149Y0107587D01*
X0033102Y0107614D01*
X0033057Y0107645D01*
X0033014Y0107678D01*
X0032974Y0107715D01*
X0032937Y0107754D01*
X0032903Y0107796D01*
X0032872Y0107840D01*
X0032844Y0107887D01*
X0032819Y0107935D01*
X0032798Y0107985D01*
X0032781Y0108036D01*
X0032768Y0108089D01*
X0032758Y0108142D01*
X0032752Y0108196D01*
X0032750Y0108250D01*
X0032750Y0112000D02*
X0032752Y0112054D01*
X0032758Y0112108D01*
X0032768Y0112161D01*
X0032781Y0112214D01*
X0032798Y0112265D01*
X0032819Y0112315D01*
X0032844Y0112363D01*
X0032872Y0112410D01*
X0032903Y0112454D01*
X0032937Y0112496D01*
X0032974Y0112535D01*
X0033014Y0112572D01*
X0033057Y0112605D01*
X0033102Y0112636D01*
X0033149Y0112663D01*
X0033197Y0112686D01*
X0033248Y0112706D01*
X0033299Y0112723D01*
X0033352Y0112735D01*
X0033405Y0112744D01*
X0033459Y0112749D01*
X0033514Y0112750D01*
X0033568Y0112747D01*
X0033621Y0112740D01*
X0033674Y0112729D01*
X0033727Y0112715D01*
X0033778Y0112697D01*
X0033827Y0112675D01*
X0033875Y0112650D01*
X0033921Y0112621D01*
X0033965Y0112589D01*
X0034006Y0112554D01*
X0034044Y0112516D01*
X0034080Y0112475D01*
X0034113Y0112432D01*
X0034143Y0112387D01*
X0034169Y0112339D01*
X0034192Y0112290D01*
X0034211Y0112239D01*
X0034226Y0112188D01*
X0034238Y0112135D01*
X0034246Y0112081D01*
X0034250Y0112027D01*
X0034250Y0111973D01*
X0034246Y0111919D01*
X0034238Y0111865D01*
X0034226Y0111812D01*
X0034211Y0111761D01*
X0034192Y0111710D01*
X0034169Y0111661D01*
X0034143Y0111613D01*
X0034113Y0111568D01*
X0034080Y0111525D01*
X0034044Y0111484D01*
X0034006Y0111446D01*
X0033965Y0111411D01*
X0033921Y0111379D01*
X0033875Y0111350D01*
X0033827Y0111325D01*
X0033778Y0111303D01*
X0033727Y0111285D01*
X0033674Y0111271D01*
X0033621Y0111260D01*
X0033568Y0111253D01*
X0033514Y0111250D01*
X0033459Y0111251D01*
X0033405Y0111256D01*
X0033352Y0111265D01*
X0033299Y0111277D01*
X0033248Y0111294D01*
X0033197Y0111314D01*
X0033149Y0111337D01*
X0033102Y0111364D01*
X0033057Y0111395D01*
X0033014Y0111428D01*
X0032974Y0111465D01*
X0032937Y0111504D01*
X0032903Y0111546D01*
X0032872Y0111590D01*
X0032844Y0111637D01*
X0032819Y0111685D01*
X0032798Y0111735D01*
X0032781Y0111786D01*
X0032768Y0111839D01*
X0032758Y0111892D01*
X0032752Y0111946D01*
X0032750Y0112000D01*
X0031000Y0116000D02*
X0031002Y0115902D01*
X0031008Y0115804D01*
X0031017Y0115706D01*
X0031031Y0115609D01*
X0031048Y0115512D01*
X0031069Y0115416D01*
X0031094Y0115321D01*
X0031122Y0115227D01*
X0031155Y0115135D01*
X0031190Y0115043D01*
X0031230Y0114953D01*
X0031272Y0114865D01*
X0031319Y0114778D01*
X0031368Y0114694D01*
X0031421Y0114611D01*
X0031477Y0114531D01*
X0031537Y0114452D01*
X0031599Y0114376D01*
X0031664Y0114303D01*
X0031732Y0114232D01*
X0031803Y0114164D01*
X0031876Y0114099D01*
X0031952Y0114037D01*
X0032031Y0113977D01*
X0032111Y0113921D01*
X0032194Y0113868D01*
X0032278Y0113819D01*
X0032365Y0113772D01*
X0032453Y0113730D01*
X0032543Y0113690D01*
X0032635Y0113655D01*
X0032727Y0113622D01*
X0032821Y0113594D01*
X0032916Y0113569D01*
X0033012Y0113548D01*
X0033109Y0113531D01*
X0033206Y0113517D01*
X0033304Y0113508D01*
X0033402Y0113502D01*
X0033500Y0113500D01*
X0033598Y0113502D01*
X0033696Y0113508D01*
X0033794Y0113517D01*
X0033891Y0113531D01*
X0033988Y0113548D01*
X0034084Y0113569D01*
X0034179Y0113594D01*
X0034273Y0113622D01*
X0034365Y0113655D01*
X0034457Y0113690D01*
X0034547Y0113730D01*
X0034635Y0113772D01*
X0034722Y0113819D01*
X0034806Y0113868D01*
X0034889Y0113921D01*
X0034969Y0113977D01*
X0035048Y0114037D01*
X0035124Y0114099D01*
X0035197Y0114164D01*
X0035268Y0114232D01*
X0035336Y0114303D01*
X0035401Y0114376D01*
X0035463Y0114452D01*
X0035523Y0114531D01*
X0035579Y0114611D01*
X0035632Y0114694D01*
X0035681Y0114778D01*
X0035728Y0114865D01*
X0035770Y0114953D01*
X0035810Y0115043D01*
X0035845Y0115135D01*
X0035878Y0115227D01*
X0035906Y0115321D01*
X0035931Y0115416D01*
X0035952Y0115512D01*
X0035969Y0115609D01*
X0035983Y0115706D01*
X0035992Y0115804D01*
X0035998Y0115902D01*
X0036000Y0116000D01*
X0036000Y0150000D01*
X0031000Y0153000D02*
X0031000Y0116000D01*
X0036000Y0150000D02*
X0036005Y0150411D01*
X0036020Y0150821D01*
X0036045Y0151231D01*
X0036079Y0151641D01*
X0036124Y0152049D01*
X0036178Y0152456D01*
X0036243Y0152862D01*
X0036317Y0153266D01*
X0036401Y0153668D01*
X0036494Y0154068D01*
X0036597Y0154466D01*
X0036710Y0154861D01*
X0036832Y0155253D01*
X0036964Y0155642D01*
X0037105Y0156028D01*
X0037255Y0156411D01*
X0037415Y0156789D01*
X0037583Y0157164D01*
X0037761Y0157534D01*
X0037947Y0157900D01*
X0038143Y0158262D01*
X0038347Y0158618D01*
X0038559Y0158970D01*
X0038780Y0159316D01*
X0039009Y0159657D01*
X0039247Y0159992D01*
X0039492Y0160322D01*
X0039746Y0160645D01*
X0040007Y0160962D01*
X0040275Y0161273D01*
X0040551Y0161577D01*
X0040835Y0161875D01*
X0041125Y0162165D01*
X0041423Y0162449D01*
X0041727Y0162725D01*
X0042038Y0162993D01*
X0042355Y0163254D01*
X0042678Y0163508D01*
X0043008Y0163753D01*
X0043343Y0163991D01*
X0043684Y0164220D01*
X0044030Y0164441D01*
X0044382Y0164653D01*
X0044738Y0164857D01*
X0045100Y0165053D01*
X0045466Y0165239D01*
X0045836Y0165417D01*
X0046211Y0165585D01*
X0046589Y0165745D01*
X0046972Y0165895D01*
X0047358Y0166036D01*
X0047747Y0166168D01*
X0048139Y0166290D01*
X0048534Y0166403D01*
X0048932Y0166506D01*
X0049332Y0166599D01*
X0049734Y0166683D01*
X0050138Y0166757D01*
X0050544Y0166822D01*
X0050951Y0166876D01*
X0051359Y0166921D01*
X0051769Y0166955D01*
X0052179Y0166980D01*
X0052589Y0166995D01*
X0053000Y0167000D01*
X0051000Y0172000D02*
X0050521Y0172006D01*
X0050043Y0172001D01*
X0049564Y0171984D01*
X0049086Y0171955D01*
X0048609Y0171914D01*
X0048133Y0171862D01*
X0047659Y0171798D01*
X0047186Y0171722D01*
X0046715Y0171635D01*
X0046247Y0171537D01*
X0045781Y0171427D01*
X0045318Y0171305D01*
X0044858Y0171172D01*
X0044402Y0171028D01*
X0043949Y0170873D01*
X0043500Y0170707D01*
X0043055Y0170529D01*
X0042615Y0170341D01*
X0042179Y0170142D01*
X0041749Y0169933D01*
X0041324Y0169713D01*
X0040904Y0169482D01*
X0040490Y0169242D01*
X0040082Y0168991D01*
X0039681Y0168730D01*
X0039286Y0168460D01*
X0038897Y0168180D01*
X0038516Y0167891D01*
X0038142Y0167592D01*
X0037775Y0167284D01*
X0037416Y0166967D01*
X0037065Y0166642D01*
X0036722Y0166308D01*
X0036388Y0165966D01*
X0036061Y0165615D01*
X0035744Y0165257D01*
X0035435Y0164891D01*
X0035136Y0164517D01*
X0034845Y0164137D01*
X0034564Y0163749D01*
X0034293Y0163355D01*
X0034032Y0162954D01*
X0033780Y0162546D01*
X0033539Y0162133D01*
X0033307Y0161714D01*
X0033086Y0161289D01*
X0032876Y0160859D01*
X0032676Y0160424D01*
X0032487Y0159984D01*
X0032309Y0159540D01*
X0032141Y0159091D01*
X0031985Y0158639D01*
X0031840Y0158183D01*
X0031706Y0157723D01*
X0031584Y0157260D01*
X0031473Y0156795D01*
X0031373Y0156326D01*
X0031285Y0155856D01*
X0031208Y0155383D01*
X0031143Y0154909D01*
X0031090Y0154433D01*
X0031048Y0153956D01*
X0031019Y0153478D01*
X0031000Y0153000D01*
X0072000Y0161000D02*
X0072002Y0161089D01*
X0072008Y0161178D01*
X0072018Y0161267D01*
X0072032Y0161355D01*
X0072049Y0161442D01*
X0072071Y0161528D01*
X0072097Y0161614D01*
X0072126Y0161698D01*
X0072159Y0161781D01*
X0072195Y0161862D01*
X0072236Y0161942D01*
X0072279Y0162019D01*
X0072326Y0162095D01*
X0072377Y0162168D01*
X0072430Y0162239D01*
X0072487Y0162308D01*
X0072547Y0162374D01*
X0072610Y0162438D01*
X0072675Y0162498D01*
X0072743Y0162556D01*
X0072814Y0162610D01*
X0072887Y0162661D01*
X0072962Y0162709D01*
X0073039Y0162754D01*
X0073118Y0162795D01*
X0073199Y0162832D01*
X0073281Y0162866D01*
X0073365Y0162897D01*
X0073450Y0162923D01*
X0073536Y0162946D01*
X0073623Y0162964D01*
X0073711Y0162979D01*
X0073800Y0162990D01*
X0073889Y0162997D01*
X0073978Y0163000D01*
X0074067Y0162999D01*
X0074156Y0162994D01*
X0074244Y0162985D01*
X0074333Y0162972D01*
X0074420Y0162955D01*
X0074507Y0162935D01*
X0074593Y0162910D01*
X0074677Y0162882D01*
X0074760Y0162850D01*
X0074842Y0162814D01*
X0074922Y0162775D01*
X0075000Y0162732D01*
X0075076Y0162686D01*
X0075150Y0162636D01*
X0075222Y0162583D01*
X0075291Y0162527D01*
X0075358Y0162468D01*
X0075422Y0162406D01*
X0075483Y0162342D01*
X0075542Y0162274D01*
X0075597Y0162204D01*
X0075649Y0162132D01*
X0075698Y0162057D01*
X0075743Y0161981D01*
X0075785Y0161902D01*
X0075823Y0161822D01*
X0075858Y0161740D01*
X0075889Y0161656D01*
X0075917Y0161571D01*
X0075940Y0161485D01*
X0075960Y0161398D01*
X0075976Y0161311D01*
X0075988Y0161222D01*
X0075996Y0161134D01*
X0076000Y0161045D01*
X0076000Y0160955D01*
X0075996Y0160866D01*
X0075988Y0160778D01*
X0075976Y0160689D01*
X0075960Y0160602D01*
X0075940Y0160515D01*
X0075917Y0160429D01*
X0075889Y0160344D01*
X0075858Y0160260D01*
X0075823Y0160178D01*
X0075785Y0160098D01*
X0075743Y0160019D01*
X0075698Y0159943D01*
X0075649Y0159868D01*
X0075597Y0159796D01*
X0075542Y0159726D01*
X0075483Y0159658D01*
X0075422Y0159594D01*
X0075358Y0159532D01*
X0075291Y0159473D01*
X0075222Y0159417D01*
X0075150Y0159364D01*
X0075076Y0159314D01*
X0075000Y0159268D01*
X0074922Y0159225D01*
X0074842Y0159186D01*
X0074760Y0159150D01*
X0074677Y0159118D01*
X0074593Y0159090D01*
X0074507Y0159065D01*
X0074420Y0159045D01*
X0074333Y0159028D01*
X0074244Y0159015D01*
X0074156Y0159006D01*
X0074067Y0159001D01*
X0073978Y0159000D01*
X0073889Y0159003D01*
X0073800Y0159010D01*
X0073711Y0159021D01*
X0073623Y0159036D01*
X0073536Y0159054D01*
X0073450Y0159077D01*
X0073365Y0159103D01*
X0073281Y0159134D01*
X0073199Y0159168D01*
X0073118Y0159205D01*
X0073039Y0159246D01*
X0072962Y0159291D01*
X0072887Y0159339D01*
X0072814Y0159390D01*
X0072743Y0159444D01*
X0072675Y0159502D01*
X0072610Y0159562D01*
X0072547Y0159626D01*
X0072487Y0159692D01*
X0072430Y0159761D01*
X0072377Y0159832D01*
X0072326Y0159905D01*
X0072279Y0159981D01*
X0072236Y0160058D01*
X0072195Y0160138D01*
X0072159Y0160219D01*
X0072126Y0160302D01*
X0072097Y0160386D01*
X0072071Y0160472D01*
X0072049Y0160558D01*
X0072032Y0160645D01*
X0072018Y0160733D01*
X0072008Y0160822D01*
X0072002Y0160911D01*
X0072000Y0161000D01*
X0080000Y0161000D02*
X0080002Y0161089D01*
X0080008Y0161178D01*
X0080018Y0161267D01*
X0080032Y0161355D01*
X0080049Y0161442D01*
X0080071Y0161528D01*
X0080097Y0161614D01*
X0080126Y0161698D01*
X0080159Y0161781D01*
X0080195Y0161862D01*
X0080236Y0161942D01*
X0080279Y0162019D01*
X0080326Y0162095D01*
X0080377Y0162168D01*
X0080430Y0162239D01*
X0080487Y0162308D01*
X0080547Y0162374D01*
X0080610Y0162438D01*
X0080675Y0162498D01*
X0080743Y0162556D01*
X0080814Y0162610D01*
X0080887Y0162661D01*
X0080962Y0162709D01*
X0081039Y0162754D01*
X0081118Y0162795D01*
X0081199Y0162832D01*
X0081281Y0162866D01*
X0081365Y0162897D01*
X0081450Y0162923D01*
X0081536Y0162946D01*
X0081623Y0162964D01*
X0081711Y0162979D01*
X0081800Y0162990D01*
X0081889Y0162997D01*
X0081978Y0163000D01*
X0082067Y0162999D01*
X0082156Y0162994D01*
X0082244Y0162985D01*
X0082333Y0162972D01*
X0082420Y0162955D01*
X0082507Y0162935D01*
X0082593Y0162910D01*
X0082677Y0162882D01*
X0082760Y0162850D01*
X0082842Y0162814D01*
X0082922Y0162775D01*
X0083000Y0162732D01*
X0083076Y0162686D01*
X0083150Y0162636D01*
X0083222Y0162583D01*
X0083291Y0162527D01*
X0083358Y0162468D01*
X0083422Y0162406D01*
X0083483Y0162342D01*
X0083542Y0162274D01*
X0083597Y0162204D01*
X0083649Y0162132D01*
X0083698Y0162057D01*
X0083743Y0161981D01*
X0083785Y0161902D01*
X0083823Y0161822D01*
X0083858Y0161740D01*
X0083889Y0161656D01*
X0083917Y0161571D01*
X0083940Y0161485D01*
X0083960Y0161398D01*
X0083976Y0161311D01*
X0083988Y0161222D01*
X0083996Y0161134D01*
X0084000Y0161045D01*
X0084000Y0160955D01*
X0083996Y0160866D01*
X0083988Y0160778D01*
X0083976Y0160689D01*
X0083960Y0160602D01*
X0083940Y0160515D01*
X0083917Y0160429D01*
X0083889Y0160344D01*
X0083858Y0160260D01*
X0083823Y0160178D01*
X0083785Y0160098D01*
X0083743Y0160019D01*
X0083698Y0159943D01*
X0083649Y0159868D01*
X0083597Y0159796D01*
X0083542Y0159726D01*
X0083483Y0159658D01*
X0083422Y0159594D01*
X0083358Y0159532D01*
X0083291Y0159473D01*
X0083222Y0159417D01*
X0083150Y0159364D01*
X0083076Y0159314D01*
X0083000Y0159268D01*
X0082922Y0159225D01*
X0082842Y0159186D01*
X0082760Y0159150D01*
X0082677Y0159118D01*
X0082593Y0159090D01*
X0082507Y0159065D01*
X0082420Y0159045D01*
X0082333Y0159028D01*
X0082244Y0159015D01*
X0082156Y0159006D01*
X0082067Y0159001D01*
X0081978Y0159000D01*
X0081889Y0159003D01*
X0081800Y0159010D01*
X0081711Y0159021D01*
X0081623Y0159036D01*
X0081536Y0159054D01*
X0081450Y0159077D01*
X0081365Y0159103D01*
X0081281Y0159134D01*
X0081199Y0159168D01*
X0081118Y0159205D01*
X0081039Y0159246D01*
X0080962Y0159291D01*
X0080887Y0159339D01*
X0080814Y0159390D01*
X0080743Y0159444D01*
X0080675Y0159502D01*
X0080610Y0159562D01*
X0080547Y0159626D01*
X0080487Y0159692D01*
X0080430Y0159761D01*
X0080377Y0159832D01*
X0080326Y0159905D01*
X0080279Y0159981D01*
X0080236Y0160058D01*
X0080195Y0160138D01*
X0080159Y0160219D01*
X0080126Y0160302D01*
X0080097Y0160386D01*
X0080071Y0160472D01*
X0080049Y0160558D01*
X0080032Y0160645D01*
X0080018Y0160733D01*
X0080008Y0160822D01*
X0080002Y0160911D01*
X0080000Y0161000D01*
X0076000Y0141000D02*
X0076002Y0141089D01*
X0076008Y0141178D01*
X0076018Y0141267D01*
X0076032Y0141355D01*
X0076049Y0141442D01*
X0076071Y0141528D01*
X0076097Y0141614D01*
X0076126Y0141698D01*
X0076159Y0141781D01*
X0076195Y0141862D01*
X0076236Y0141942D01*
X0076279Y0142019D01*
X0076326Y0142095D01*
X0076377Y0142168D01*
X0076430Y0142239D01*
X0076487Y0142308D01*
X0076547Y0142374D01*
X0076610Y0142438D01*
X0076675Y0142498D01*
X0076743Y0142556D01*
X0076814Y0142610D01*
X0076887Y0142661D01*
X0076962Y0142709D01*
X0077039Y0142754D01*
X0077118Y0142795D01*
X0077199Y0142832D01*
X0077281Y0142866D01*
X0077365Y0142897D01*
X0077450Y0142923D01*
X0077536Y0142946D01*
X0077623Y0142964D01*
X0077711Y0142979D01*
X0077800Y0142990D01*
X0077889Y0142997D01*
X0077978Y0143000D01*
X0078067Y0142999D01*
X0078156Y0142994D01*
X0078244Y0142985D01*
X0078333Y0142972D01*
X0078420Y0142955D01*
X0078507Y0142935D01*
X0078593Y0142910D01*
X0078677Y0142882D01*
X0078760Y0142850D01*
X0078842Y0142814D01*
X0078922Y0142775D01*
X0079000Y0142732D01*
X0079076Y0142686D01*
X0079150Y0142636D01*
X0079222Y0142583D01*
X0079291Y0142527D01*
X0079358Y0142468D01*
X0079422Y0142406D01*
X0079483Y0142342D01*
X0079542Y0142274D01*
X0079597Y0142204D01*
X0079649Y0142132D01*
X0079698Y0142057D01*
X0079743Y0141981D01*
X0079785Y0141902D01*
X0079823Y0141822D01*
X0079858Y0141740D01*
X0079889Y0141656D01*
X0079917Y0141571D01*
X0079940Y0141485D01*
X0079960Y0141398D01*
X0079976Y0141311D01*
X0079988Y0141222D01*
X0079996Y0141134D01*
X0080000Y0141045D01*
X0080000Y0140955D01*
X0079996Y0140866D01*
X0079988Y0140778D01*
X0079976Y0140689D01*
X0079960Y0140602D01*
X0079940Y0140515D01*
X0079917Y0140429D01*
X0079889Y0140344D01*
X0079858Y0140260D01*
X0079823Y0140178D01*
X0079785Y0140098D01*
X0079743Y0140019D01*
X0079698Y0139943D01*
X0079649Y0139868D01*
X0079597Y0139796D01*
X0079542Y0139726D01*
X0079483Y0139658D01*
X0079422Y0139594D01*
X0079358Y0139532D01*
X0079291Y0139473D01*
X0079222Y0139417D01*
X0079150Y0139364D01*
X0079076Y0139314D01*
X0079000Y0139268D01*
X0078922Y0139225D01*
X0078842Y0139186D01*
X0078760Y0139150D01*
X0078677Y0139118D01*
X0078593Y0139090D01*
X0078507Y0139065D01*
X0078420Y0139045D01*
X0078333Y0139028D01*
X0078244Y0139015D01*
X0078156Y0139006D01*
X0078067Y0139001D01*
X0077978Y0139000D01*
X0077889Y0139003D01*
X0077800Y0139010D01*
X0077711Y0139021D01*
X0077623Y0139036D01*
X0077536Y0139054D01*
X0077450Y0139077D01*
X0077365Y0139103D01*
X0077281Y0139134D01*
X0077199Y0139168D01*
X0077118Y0139205D01*
X0077039Y0139246D01*
X0076962Y0139291D01*
X0076887Y0139339D01*
X0076814Y0139390D01*
X0076743Y0139444D01*
X0076675Y0139502D01*
X0076610Y0139562D01*
X0076547Y0139626D01*
X0076487Y0139692D01*
X0076430Y0139761D01*
X0076377Y0139832D01*
X0076326Y0139905D01*
X0076279Y0139981D01*
X0076236Y0140058D01*
X0076195Y0140138D01*
X0076159Y0140219D01*
X0076126Y0140302D01*
X0076097Y0140386D01*
X0076071Y0140472D01*
X0076049Y0140558D01*
X0076032Y0140645D01*
X0076018Y0140733D01*
X0076008Y0140822D01*
X0076002Y0140911D01*
X0076000Y0141000D01*
M02*
