G75*
%MOIN*%
%OFA0B0*%
%FSLAX25Y25*%
%IPPOS*%
%LPD*%
%AMOC8*
5,1,8,0,0,1.08239X$1,22.5*
%
%ADD10R,0.02969X0.05906*%
%ADD11R,0.05906X0.02969*%
%ADD12C,0.03100*%
%ADD13C,0.23000*%
%ADD14R,0.14764X0.04016*%
%ADD15C,0.04159*%
%ADD16OC8,0.06000*%
%ADD17C,0.07000*%
%ADD18R,0.06000X0.06000*%
%ADD19R,0.18110X0.03937*%
%ADD20R,0.13386X0.06299*%
%ADD21C,0.02600*%
%ADD22C,0.01000*%
%ADD23C,0.02400*%
%ADD24C,0.01600*%
%ADD25C,0.00800*%
%ADD26C,0.02400*%
D10*
X0094472Y0094819D03*
X0098409Y0094819D03*
X0102346Y0094819D03*
X0106283Y0094819D03*
X0110220Y0094819D03*
X0114157Y0094819D03*
X0118094Y0094819D03*
X0129906Y0094819D03*
X0133843Y0094819D03*
X0137780Y0094819D03*
X0141717Y0094819D03*
X0145654Y0094819D03*
X0149591Y0094819D03*
X0153528Y0094819D03*
D11*
X0160531Y0101822D03*
X0160531Y0105759D03*
X0160531Y0109696D03*
X0160531Y0113633D03*
X0160531Y0117570D03*
X0160531Y0121507D03*
X0160531Y0125444D03*
X0160531Y0129381D03*
X0160531Y0133319D03*
X0087469Y0133319D03*
X0087469Y0129381D03*
X0087469Y0125444D03*
X0087469Y0121507D03*
X0087469Y0117570D03*
X0087469Y0113633D03*
X0087469Y0109696D03*
X0087469Y0105759D03*
X0087469Y0101822D03*
D12*
X0080500Y0146000D03*
X0080500Y0151000D03*
X0080500Y0156000D03*
X0075500Y0156000D03*
X0075500Y0151000D03*
X0075500Y0146000D03*
D13*
X0053000Y0150000D03*
X0053000Y0023000D03*
X0180000Y0023000D03*
X0180000Y0150000D03*
D14*
X0070234Y0113000D03*
X0070234Y0103000D03*
X0070234Y0093000D03*
X0070234Y0083000D03*
X0070234Y0073000D03*
X0045766Y0073000D03*
X0045766Y0083000D03*
X0045766Y0093000D03*
X0045766Y0103000D03*
X0045766Y0113000D03*
D15*
X0175000Y0103500D03*
X0185000Y0113500D03*
X0175000Y0123500D03*
D16*
X0090000Y0184000D03*
X0090000Y0194000D03*
X0080000Y0194000D03*
X0080000Y0184000D03*
X0070000Y0184000D03*
X0070000Y0194000D03*
X0060000Y0194000D03*
X0060000Y0184000D03*
X0050000Y0194000D03*
X0070000Y0213000D03*
X0020000Y0210000D03*
X0020000Y0200000D03*
X0020000Y0190000D03*
X0020000Y0180000D03*
X0020000Y0170000D03*
X0020000Y0160000D03*
X0020000Y0150000D03*
X0020000Y0140000D03*
X0020000Y0130000D03*
X0020000Y0120000D03*
X0020000Y0110000D03*
X0020000Y0100000D03*
X0020000Y0090000D03*
X0020000Y0080000D03*
X0020000Y0070000D03*
X0020000Y0060000D03*
X0020000Y0050000D03*
X0020000Y0040000D03*
X0020000Y0030000D03*
X0020000Y0020000D03*
X0020000Y0010000D03*
X0010000Y0010000D03*
X0010000Y0020000D03*
X0010000Y0030000D03*
X0010000Y0040000D03*
X0010000Y0050000D03*
X0010000Y0060000D03*
X0010000Y0070000D03*
X0010000Y0080000D03*
X0010000Y0090000D03*
X0010000Y0100000D03*
X0010000Y0110000D03*
X0010000Y0120000D03*
X0010000Y0130000D03*
X0010000Y0140000D03*
X0010000Y0150000D03*
X0010000Y0160000D03*
X0010000Y0170000D03*
X0010000Y0180000D03*
X0010000Y0190000D03*
X0010000Y0200000D03*
X0010000Y0210000D03*
X0010000Y0220000D03*
X0010000Y0230000D03*
X0020000Y0230000D03*
X0020000Y0220000D03*
D17*
X0070000Y0223000D03*
X0070000Y0233000D03*
X0089126Y0079118D03*
X0089126Y0068882D03*
D18*
X0050000Y0184000D03*
D19*
X0165933Y0057937D03*
X0165933Y0050063D03*
D20*
X0186406Y0040614D03*
X0186406Y0067386D03*
D21*
X0179000Y0061500D03*
X0175500Y0066000D03*
X0166000Y0066000D03*
X0166000Y0070000D03*
X0166000Y0075000D03*
X0158000Y0073500D03*
X0158000Y0070000D03*
X0153000Y0066000D03*
X0143500Y0062000D03*
X0136500Y0070500D03*
X0138000Y0075000D03*
X0141000Y0078000D03*
X0136000Y0085000D03*
X0134000Y0089500D03*
X0122500Y0098500D03*
X0125000Y0105000D03*
X0117000Y0112000D03*
X0120000Y0115500D03*
X0109500Y0107000D03*
X0112000Y0100000D03*
X0115500Y0100500D03*
X0116000Y0088000D03*
X0116000Y0082000D03*
X0123000Y0074000D03*
X0130000Y0061000D03*
X0127000Y0050000D03*
X0123000Y0050000D03*
X0129000Y0038000D03*
X0126000Y0034000D03*
X0118250Y0031000D03*
X0137000Y0050000D03*
X0141500Y0036000D03*
X0151500Y0042000D03*
X0166500Y0042000D03*
X0193000Y0055000D03*
X0186205Y0088955D03*
X0189500Y0093000D03*
X0189500Y0100000D03*
X0183750Y0107250D03*
X0169000Y0120000D03*
X0167000Y0110000D03*
X0154000Y0118000D03*
X0149000Y0120000D03*
X0150000Y0126000D03*
X0142000Y0127000D03*
X0151000Y0143000D03*
X0158000Y0154000D03*
X0138000Y0154000D03*
X0129000Y0143000D03*
X0128000Y0154000D03*
X0118000Y0154000D03*
X0108000Y0154000D03*
X0106000Y0145000D03*
X0104500Y0140000D03*
X0112000Y0140000D03*
X0119500Y0141000D03*
X0099000Y0127000D03*
X0096500Y0124000D03*
X0106000Y0114000D03*
X0086000Y0098000D03*
X0086000Y0092000D03*
X0090000Y0089000D03*
X0102000Y0088000D03*
X0102000Y0071000D03*
X0082000Y0048000D03*
X0069000Y0029000D03*
X0083000Y0025000D03*
X0089000Y0025000D03*
X0094000Y0012000D03*
X0061000Y0053000D03*
X0057500Y0049500D03*
X0058000Y0061000D03*
X0058000Y0073000D03*
X0058000Y0083000D03*
X0058000Y0089000D03*
X0058000Y0097000D03*
X0058000Y0103000D03*
X0050000Y0107000D03*
X0058000Y0113000D03*
X0058000Y0117000D03*
X0064000Y0124000D03*
X0050000Y0124000D03*
X0072000Y0143000D03*
X0072000Y0154000D03*
X0086000Y0141000D03*
X0082000Y0134000D03*
X0095500Y0141000D03*
X0098000Y0154000D03*
X0088000Y0154000D03*
X0101000Y0189000D03*
X0083000Y0235000D03*
X0031000Y0234000D03*
X0029000Y0198000D03*
X0033000Y0169000D03*
X0028000Y0106500D03*
X0026000Y0087000D03*
X0014000Y0085000D03*
X0022000Y0065000D03*
X0025000Y0055000D03*
X0042000Y0055000D03*
X0042000Y0048000D03*
X0042000Y0044000D03*
X0072500Y0078500D03*
X0134500Y0110500D03*
X0138000Y0106500D03*
X0148500Y0109750D03*
X0162000Y0093000D03*
X0153000Y0080000D03*
X0139000Y0010000D03*
D22*
X0004500Y0004500D02*
X0004500Y0136379D01*
X0007379Y0133500D01*
X0007702Y0133500D01*
X0005900Y0131698D01*
X0005900Y0128302D01*
X0008302Y0125900D01*
X0011698Y0125900D01*
X0014100Y0128302D01*
X0014100Y0128979D01*
X0015900Y0130779D01*
X0015900Y0128302D01*
X0018302Y0125900D01*
X0021698Y0125900D01*
X0024100Y0128302D01*
X0024100Y0131698D01*
X0022298Y0133500D01*
X0022621Y0133500D01*
X0024500Y0135379D01*
X0024500Y0108621D01*
X0023500Y0107621D01*
X0023500Y0105379D01*
X0024379Y0104500D01*
X0024500Y0104379D01*
X0024500Y0088894D01*
X0024100Y0088494D01*
X0024100Y0091698D01*
X0021698Y0094100D01*
X0019300Y0094100D01*
X0019300Y0095900D01*
X0021698Y0095900D01*
X0024100Y0098302D01*
X0024100Y0101698D01*
X0021698Y0104100D01*
X0018302Y0104100D01*
X0015900Y0101698D01*
X0015900Y0098302D01*
X0016902Y0097300D01*
X0016047Y0097300D01*
X0015000Y0096253D01*
X0013953Y0097300D01*
X0013098Y0097300D01*
X0014100Y0098302D01*
X0014100Y0101698D01*
X0011698Y0104100D01*
X0008302Y0104100D01*
X0005900Y0101698D01*
X0005900Y0098302D01*
X0008302Y0095900D01*
X0010700Y0095900D01*
X0010700Y0094100D01*
X0008302Y0094100D01*
X0005900Y0091698D01*
X0005900Y0088302D01*
X0008302Y0085900D01*
X0011698Y0085900D01*
X0011829Y0086031D01*
X0011600Y0085477D01*
X0011600Y0084523D01*
X0011829Y0083969D01*
X0011698Y0084100D01*
X0008302Y0084100D01*
X0005900Y0081698D01*
X0005900Y0078302D01*
X0008302Y0075900D01*
X0011698Y0075900D01*
X0014100Y0078302D01*
X0014100Y0081698D01*
X0012969Y0082829D01*
X0013523Y0082600D01*
X0014477Y0082600D01*
X0015359Y0082965D01*
X0016035Y0083641D01*
X0016400Y0084523D01*
X0016400Y0085477D01*
X0016399Y0085480D01*
X0018040Y0083838D01*
X0015900Y0081698D01*
X0015900Y0078302D01*
X0018302Y0075900D01*
X0021698Y0075900D01*
X0024100Y0078302D01*
X0024100Y0081698D01*
X0022298Y0083500D01*
X0023379Y0083500D01*
X0025500Y0081379D01*
X0026379Y0080500D01*
X0030250Y0080500D01*
X0030250Y0079604D01*
X0030707Y0078500D01*
X0030250Y0077396D01*
X0030250Y0076104D01*
X0030707Y0075000D01*
X0030250Y0073896D01*
X0030250Y0072604D01*
X0030707Y0071500D01*
X0030250Y0070396D01*
X0030250Y0069500D01*
X0024379Y0069500D01*
X0024100Y0069221D01*
X0024100Y0071698D01*
X0021698Y0074100D01*
X0018302Y0074100D01*
X0015900Y0071698D01*
X0015900Y0068302D01*
X0018302Y0065900D01*
X0019775Y0065900D01*
X0019600Y0065477D01*
X0019600Y0064523D01*
X0019775Y0064100D01*
X0018302Y0064100D01*
X0015900Y0061698D01*
X0015900Y0058302D01*
X0018302Y0055900D01*
X0021698Y0055900D01*
X0024100Y0058302D01*
X0024100Y0061698D01*
X0022987Y0062811D01*
X0023359Y0062965D01*
X0024035Y0063641D01*
X0024400Y0064523D01*
X0024400Y0065279D01*
X0025621Y0066500D01*
X0030250Y0066500D01*
X0030250Y0065604D01*
X0030707Y0064500D01*
X0030250Y0063396D01*
X0030250Y0062104D01*
X0030707Y0061000D01*
X0030250Y0059896D01*
X0030250Y0058803D01*
X0029490Y0058198D01*
X0029490Y0058198D01*
X0029490Y0058198D01*
X0028500Y0056141D01*
X0028500Y0004500D01*
X0004500Y0004500D01*
X0004500Y0004996D02*
X0028500Y0004996D01*
X0028500Y0005994D02*
X0022358Y0005994D01*
X0021864Y0005500D02*
X0024500Y0008136D01*
X0024500Y0009500D01*
X0020500Y0009500D01*
X0020500Y0010500D01*
X0019500Y0010500D01*
X0019500Y0014500D01*
X0018136Y0014500D01*
X0015500Y0011864D01*
X0015500Y0010500D01*
X0019500Y0010500D01*
X0019500Y0009500D01*
X0015500Y0009500D01*
X0015500Y0008136D01*
X0018136Y0005500D01*
X0019500Y0005500D01*
X0019500Y0009500D01*
X0020500Y0009500D01*
X0020500Y0005500D01*
X0021864Y0005500D01*
X0020500Y0005994D02*
X0019500Y0005994D01*
X0019500Y0006993D02*
X0020500Y0006993D01*
X0020500Y0007991D02*
X0019500Y0007991D01*
X0019500Y0008990D02*
X0020500Y0008990D01*
X0020500Y0009988D02*
X0028500Y0009988D01*
X0028500Y0008990D02*
X0024500Y0008990D01*
X0024355Y0007991D02*
X0028500Y0007991D01*
X0028500Y0006993D02*
X0023357Y0006993D01*
X0024500Y0010500D02*
X0020500Y0010500D01*
X0020500Y0014500D01*
X0021864Y0014500D01*
X0024500Y0011864D01*
X0024500Y0010500D01*
X0024500Y0010987D02*
X0028500Y0010987D01*
X0028500Y0011985D02*
X0024379Y0011985D01*
X0023380Y0012984D02*
X0028500Y0012984D01*
X0028500Y0013982D02*
X0022382Y0013982D01*
X0021864Y0015500D02*
X0020500Y0015500D01*
X0020500Y0019500D01*
X0020500Y0020500D01*
X0019500Y0020500D01*
X0019500Y0024500D01*
X0018136Y0024500D01*
X0015500Y0021864D01*
X0015500Y0020500D01*
X0019500Y0020500D01*
X0019500Y0019500D01*
X0015500Y0019500D01*
X0015500Y0018136D01*
X0018136Y0015500D01*
X0019500Y0015500D01*
X0019500Y0019500D01*
X0020500Y0019500D01*
X0024500Y0019500D01*
X0024500Y0018136D01*
X0021864Y0015500D01*
X0022343Y0015979D02*
X0028500Y0015979D01*
X0028500Y0014981D02*
X0004500Y0014981D01*
X0004500Y0015979D02*
X0007657Y0015979D01*
X0008136Y0015500D02*
X0005500Y0018136D01*
X0005500Y0019500D01*
X0009500Y0019500D01*
X0009500Y0020500D01*
X0009500Y0024500D01*
X0008136Y0024500D01*
X0005500Y0021864D01*
X0005500Y0020500D01*
X0009500Y0020500D01*
X0010500Y0020500D01*
X0010500Y0024500D01*
X0011864Y0024500D01*
X0014500Y0021864D01*
X0014500Y0020500D01*
X0010500Y0020500D01*
X0010500Y0019500D01*
X0014500Y0019500D01*
X0014500Y0018136D01*
X0011864Y0015500D01*
X0010500Y0015500D01*
X0010500Y0019500D01*
X0009500Y0019500D01*
X0009500Y0015500D01*
X0008136Y0015500D01*
X0008136Y0014500D02*
X0005500Y0011864D01*
X0005500Y0010500D01*
X0009500Y0010500D01*
X0009500Y0014500D01*
X0008136Y0014500D01*
X0007618Y0013982D02*
X0004500Y0013982D01*
X0004500Y0012984D02*
X0006620Y0012984D01*
X0005621Y0011985D02*
X0004500Y0011985D01*
X0004500Y0010987D02*
X0005500Y0010987D01*
X0004500Y0009988D02*
X0009500Y0009988D01*
X0009500Y0009500D02*
X0009500Y0010500D01*
X0010500Y0010500D01*
X0010500Y0014500D01*
X0011864Y0014500D01*
X0014500Y0011864D01*
X0014500Y0010500D01*
X0010500Y0010500D01*
X0010500Y0009500D01*
X0014500Y0009500D01*
X0014500Y0008136D01*
X0011864Y0005500D01*
X0010500Y0005500D01*
X0010500Y0009500D01*
X0009500Y0009500D01*
X0005500Y0009500D01*
X0005500Y0008136D01*
X0008136Y0005500D01*
X0009500Y0005500D01*
X0009500Y0009500D01*
X0009500Y0008990D02*
X0010500Y0008990D01*
X0010500Y0009988D02*
X0019500Y0009988D01*
X0019500Y0010987D02*
X0020500Y0010987D01*
X0020500Y0011985D02*
X0019500Y0011985D01*
X0019500Y0012984D02*
X0020500Y0012984D01*
X0020500Y0013982D02*
X0019500Y0013982D01*
X0017618Y0013982D02*
X0012382Y0013982D01*
X0013380Y0012984D02*
X0016620Y0012984D01*
X0015621Y0011985D02*
X0014379Y0011985D01*
X0014500Y0010987D02*
X0015500Y0010987D01*
X0015500Y0008990D02*
X0014500Y0008990D01*
X0014355Y0007991D02*
X0015645Y0007991D01*
X0016643Y0006993D02*
X0013357Y0006993D01*
X0012358Y0005994D02*
X0017642Y0005994D01*
X0010500Y0005994D02*
X0009500Y0005994D01*
X0009500Y0006993D02*
X0010500Y0006993D01*
X0010500Y0007991D02*
X0009500Y0007991D01*
X0007642Y0005994D02*
X0004500Y0005994D01*
X0004500Y0006993D02*
X0006643Y0006993D01*
X0005645Y0007991D02*
X0004500Y0007991D01*
X0004500Y0008990D02*
X0005500Y0008990D01*
X0009500Y0010987D02*
X0010500Y0010987D01*
X0010500Y0011985D02*
X0009500Y0011985D01*
X0009500Y0012984D02*
X0010500Y0012984D01*
X0010500Y0013982D02*
X0009500Y0013982D01*
X0009500Y0015979D02*
X0010500Y0015979D01*
X0010500Y0016978D02*
X0009500Y0016978D01*
X0009500Y0017976D02*
X0010500Y0017976D01*
X0010500Y0018975D02*
X0009500Y0018975D01*
X0009500Y0019973D02*
X0004500Y0019973D01*
X0004500Y0018975D02*
X0005500Y0018975D01*
X0005660Y0017976D02*
X0004500Y0017976D01*
X0004500Y0016978D02*
X0006658Y0016978D01*
X0005500Y0020972D02*
X0004500Y0020972D01*
X0004500Y0021970D02*
X0005606Y0021970D01*
X0006605Y0022969D02*
X0004500Y0022969D01*
X0004500Y0023967D02*
X0007603Y0023967D01*
X0009500Y0023967D02*
X0010500Y0023967D01*
X0010500Y0022969D02*
X0009500Y0022969D01*
X0009500Y0021970D02*
X0010500Y0021970D01*
X0010500Y0020972D02*
X0009500Y0020972D01*
X0010500Y0019973D02*
X0019500Y0019973D01*
X0019500Y0018975D02*
X0020500Y0018975D01*
X0020500Y0019973D02*
X0028500Y0019973D01*
X0028500Y0018975D02*
X0024500Y0018975D01*
X0024340Y0017976D02*
X0028500Y0017976D01*
X0028500Y0016978D02*
X0023342Y0016978D01*
X0020500Y0016978D02*
X0019500Y0016978D01*
X0019500Y0017976D02*
X0020500Y0017976D01*
X0020500Y0015979D02*
X0019500Y0015979D01*
X0017657Y0015979D02*
X0012343Y0015979D01*
X0013342Y0016978D02*
X0016658Y0016978D01*
X0015660Y0017976D02*
X0014340Y0017976D01*
X0014500Y0018975D02*
X0015500Y0018975D01*
X0015500Y0020972D02*
X0014500Y0020972D01*
X0014394Y0021970D02*
X0015606Y0021970D01*
X0016605Y0022969D02*
X0013395Y0022969D01*
X0012397Y0023967D02*
X0017603Y0023967D01*
X0019500Y0023967D02*
X0020500Y0023967D01*
X0020500Y0024500D02*
X0020500Y0020500D01*
X0024500Y0020500D01*
X0024500Y0021864D01*
X0021864Y0024500D01*
X0020500Y0024500D01*
X0020500Y0022969D02*
X0019500Y0022969D01*
X0019500Y0021970D02*
X0020500Y0021970D01*
X0020500Y0020972D02*
X0019500Y0020972D01*
X0022397Y0023967D02*
X0028500Y0023967D01*
X0028500Y0022969D02*
X0023395Y0022969D01*
X0024394Y0021970D02*
X0028500Y0021970D01*
X0028500Y0020972D02*
X0024500Y0020972D01*
X0028500Y0024966D02*
X0004500Y0024966D01*
X0004500Y0025964D02*
X0008237Y0025964D01*
X0008302Y0025900D02*
X0005900Y0028302D01*
X0005900Y0031698D01*
X0008302Y0034100D01*
X0011698Y0034100D01*
X0014100Y0031698D01*
X0014100Y0028302D01*
X0011698Y0025900D01*
X0008302Y0025900D01*
X0007239Y0026963D02*
X0004500Y0026963D01*
X0004500Y0027961D02*
X0006240Y0027961D01*
X0005900Y0028960D02*
X0004500Y0028960D01*
X0004500Y0029958D02*
X0005900Y0029958D01*
X0005900Y0030957D02*
X0004500Y0030957D01*
X0004500Y0031955D02*
X0006157Y0031955D01*
X0007156Y0032954D02*
X0004500Y0032954D01*
X0004500Y0033952D02*
X0008154Y0033952D01*
X0008302Y0035900D02*
X0011698Y0035900D01*
X0014100Y0038302D01*
X0014100Y0041698D01*
X0011698Y0044100D01*
X0008302Y0044100D01*
X0005900Y0041698D01*
X0005900Y0038302D01*
X0008302Y0035900D01*
X0008252Y0035949D02*
X0004500Y0035949D01*
X0004500Y0034951D02*
X0028500Y0034951D01*
X0028500Y0035949D02*
X0021748Y0035949D01*
X0021698Y0035900D02*
X0024100Y0038302D01*
X0024100Y0041698D01*
X0021698Y0044100D01*
X0018302Y0044100D01*
X0015900Y0041698D01*
X0015900Y0038302D01*
X0018302Y0035900D01*
X0021698Y0035900D01*
X0022746Y0036948D02*
X0028500Y0036948D01*
X0028500Y0037946D02*
X0023745Y0037946D01*
X0024100Y0038945D02*
X0028500Y0038945D01*
X0028500Y0039943D02*
X0024100Y0039943D01*
X0024100Y0040942D02*
X0028500Y0040942D01*
X0028500Y0041940D02*
X0023858Y0041940D01*
X0022859Y0042939D02*
X0028500Y0042939D01*
X0028500Y0043937D02*
X0021861Y0043937D01*
X0021698Y0045900D02*
X0024100Y0048302D01*
X0024100Y0051698D01*
X0021698Y0054100D01*
X0018302Y0054100D01*
X0015900Y0051698D01*
X0015900Y0048302D01*
X0018302Y0045900D01*
X0021698Y0045900D01*
X0021733Y0045934D02*
X0028500Y0045934D01*
X0028500Y0044936D02*
X0004500Y0044936D01*
X0004500Y0045934D02*
X0008267Y0045934D01*
X0008302Y0045900D02*
X0005900Y0048302D01*
X0005900Y0051698D01*
X0008302Y0054100D01*
X0011698Y0054100D01*
X0014100Y0051698D01*
X0014100Y0048302D01*
X0011698Y0045900D01*
X0008302Y0045900D01*
X0007269Y0046933D02*
X0004500Y0046933D01*
X0004500Y0047932D02*
X0006270Y0047932D01*
X0005900Y0048930D02*
X0004500Y0048930D01*
X0004500Y0049929D02*
X0005900Y0049929D01*
X0005900Y0050927D02*
X0004500Y0050927D01*
X0004500Y0051926D02*
X0006127Y0051926D01*
X0007126Y0052924D02*
X0004500Y0052924D01*
X0004500Y0053923D02*
X0008124Y0053923D01*
X0008302Y0055900D02*
X0011698Y0055900D01*
X0014100Y0058302D01*
X0014100Y0061698D01*
X0011698Y0064100D01*
X0008302Y0064100D01*
X0005900Y0061698D01*
X0005900Y0058302D01*
X0008302Y0055900D01*
X0008282Y0055920D02*
X0004500Y0055920D01*
X0004500Y0056918D02*
X0007284Y0056918D01*
X0006285Y0057917D02*
X0004500Y0057917D01*
X0004500Y0058915D02*
X0005900Y0058915D01*
X0005900Y0059914D02*
X0004500Y0059914D01*
X0004500Y0060912D02*
X0005900Y0060912D01*
X0006112Y0061911D02*
X0004500Y0061911D01*
X0004500Y0062909D02*
X0007111Y0062909D01*
X0008109Y0063908D02*
X0004500Y0063908D01*
X0004500Y0064906D02*
X0019600Y0064906D01*
X0018297Y0065905D02*
X0011703Y0065905D01*
X0011698Y0065900D02*
X0014100Y0068302D01*
X0014100Y0071698D01*
X0011698Y0074100D01*
X0008302Y0074100D01*
X0005900Y0071698D01*
X0005900Y0068302D01*
X0008302Y0065900D01*
X0011698Y0065900D01*
X0012702Y0066903D02*
X0017298Y0066903D01*
X0016300Y0067902D02*
X0013700Y0067902D01*
X0014100Y0068900D02*
X0015900Y0068900D01*
X0015900Y0069899D02*
X0014100Y0069899D01*
X0014100Y0070897D02*
X0015900Y0070897D01*
X0016098Y0071896D02*
X0013902Y0071896D01*
X0012904Y0072894D02*
X0017096Y0072894D01*
X0018095Y0073893D02*
X0011905Y0073893D01*
X0012687Y0076888D02*
X0017313Y0076888D01*
X0016315Y0077887D02*
X0013685Y0077887D01*
X0014100Y0078885D02*
X0015900Y0078885D01*
X0015900Y0079884D02*
X0014100Y0079884D01*
X0014100Y0080882D02*
X0015900Y0080882D01*
X0016083Y0081881D02*
X0013917Y0081881D01*
X0015152Y0082879D02*
X0017081Y0082879D01*
X0018001Y0083878D02*
X0016133Y0083878D01*
X0016400Y0084876D02*
X0017002Y0084876D01*
X0011765Y0085875D02*
X0004500Y0085875D01*
X0004500Y0086873D02*
X0007328Y0086873D01*
X0006330Y0087872D02*
X0004500Y0087872D01*
X0004500Y0088870D02*
X0005900Y0088870D01*
X0005900Y0089869D02*
X0004500Y0089869D01*
X0004500Y0090868D02*
X0005900Y0090868D01*
X0006068Y0091866D02*
X0004500Y0091866D01*
X0004500Y0092865D02*
X0007066Y0092865D01*
X0008065Y0093863D02*
X0004500Y0093863D01*
X0004500Y0094862D02*
X0010700Y0094862D01*
X0010700Y0095860D02*
X0004500Y0095860D01*
X0004500Y0096859D02*
X0007343Y0096859D01*
X0006345Y0097857D02*
X0004500Y0097857D01*
X0004500Y0098856D02*
X0005900Y0098856D01*
X0005900Y0099854D02*
X0004500Y0099854D01*
X0004500Y0100853D02*
X0005900Y0100853D01*
X0006053Y0101851D02*
X0004500Y0101851D01*
X0004500Y0102850D02*
X0007051Y0102850D01*
X0008050Y0103848D02*
X0004500Y0103848D01*
X0004500Y0104847D02*
X0024032Y0104847D01*
X0024500Y0103848D02*
X0021950Y0103848D01*
X0022949Y0102850D02*
X0024500Y0102850D01*
X0024500Y0101851D02*
X0023947Y0101851D01*
X0024100Y0100853D02*
X0024500Y0100853D01*
X0024500Y0099854D02*
X0024100Y0099854D01*
X0024100Y0098856D02*
X0024500Y0098856D01*
X0024500Y0097857D02*
X0023655Y0097857D01*
X0024500Y0096859D02*
X0022657Y0096859D01*
X0024500Y0095860D02*
X0019300Y0095860D01*
X0019300Y0094862D02*
X0024500Y0094862D01*
X0024500Y0093863D02*
X0021935Y0093863D01*
X0022934Y0092865D02*
X0024500Y0092865D01*
X0024500Y0091866D02*
X0023932Y0091866D01*
X0024100Y0090868D02*
X0024500Y0090868D01*
X0024500Y0089869D02*
X0024100Y0089869D01*
X0024100Y0088870D02*
X0024476Y0088870D01*
X0023999Y0082879D02*
X0022919Y0082879D01*
X0023917Y0081881D02*
X0024998Y0081881D01*
X0024100Y0080882D02*
X0025996Y0080882D01*
X0024100Y0079884D02*
X0030250Y0079884D01*
X0030547Y0078885D02*
X0024100Y0078885D01*
X0023685Y0077887D02*
X0030453Y0077887D01*
X0030250Y0076888D02*
X0022687Y0076888D01*
X0021905Y0073893D02*
X0030250Y0073893D01*
X0030250Y0072894D02*
X0022904Y0072894D01*
X0023902Y0071896D02*
X0030543Y0071896D01*
X0030457Y0070897D02*
X0024100Y0070897D01*
X0024100Y0069899D02*
X0030250Y0069899D01*
X0030250Y0065905D02*
X0025026Y0065905D01*
X0024400Y0064906D02*
X0030539Y0064906D01*
X0030462Y0063908D02*
X0024145Y0063908D01*
X0023224Y0062909D02*
X0030250Y0062909D01*
X0030330Y0061911D02*
X0023888Y0061911D01*
X0024100Y0060912D02*
X0030671Y0060912D01*
X0030257Y0059914D02*
X0024100Y0059914D01*
X0024100Y0058915D02*
X0030250Y0058915D01*
X0029355Y0057917D02*
X0023715Y0057917D01*
X0022716Y0056918D02*
X0028874Y0056918D01*
X0028500Y0055920D02*
X0021718Y0055920D01*
X0021876Y0053923D02*
X0028500Y0053923D01*
X0028500Y0054921D02*
X0004500Y0054921D01*
X0011718Y0055920D02*
X0018282Y0055920D01*
X0017284Y0056918D02*
X0012716Y0056918D01*
X0013715Y0057917D02*
X0016285Y0057917D01*
X0015900Y0058915D02*
X0014100Y0058915D01*
X0014100Y0059914D02*
X0015900Y0059914D01*
X0015900Y0060912D02*
X0014100Y0060912D01*
X0013888Y0061911D02*
X0016112Y0061911D01*
X0017111Y0062909D02*
X0012889Y0062909D01*
X0011891Y0063908D02*
X0018109Y0063908D01*
X0018124Y0053923D02*
X0011876Y0053923D01*
X0012874Y0052924D02*
X0017126Y0052924D01*
X0016127Y0051926D02*
X0013873Y0051926D01*
X0014100Y0050927D02*
X0015900Y0050927D01*
X0015900Y0049929D02*
X0014100Y0049929D01*
X0014100Y0048930D02*
X0015900Y0048930D01*
X0016270Y0047932D02*
X0013730Y0047932D01*
X0012731Y0046933D02*
X0017269Y0046933D01*
X0018267Y0045934D02*
X0011733Y0045934D01*
X0011861Y0043937D02*
X0018139Y0043937D01*
X0017141Y0042939D02*
X0012859Y0042939D01*
X0013858Y0041940D02*
X0016142Y0041940D01*
X0015900Y0040942D02*
X0014100Y0040942D01*
X0014100Y0039943D02*
X0015900Y0039943D01*
X0015900Y0038945D02*
X0014100Y0038945D01*
X0013745Y0037946D02*
X0016255Y0037946D01*
X0017254Y0036948D02*
X0012746Y0036948D01*
X0011748Y0035949D02*
X0018252Y0035949D01*
X0018302Y0034100D02*
X0015900Y0031698D01*
X0015900Y0028302D01*
X0018302Y0025900D01*
X0021698Y0025900D01*
X0024100Y0028302D01*
X0024100Y0031698D01*
X0021698Y0034100D01*
X0018302Y0034100D01*
X0018154Y0033952D02*
X0011846Y0033952D01*
X0012844Y0032954D02*
X0017156Y0032954D01*
X0016157Y0031955D02*
X0013843Y0031955D01*
X0014100Y0030957D02*
X0015900Y0030957D01*
X0015900Y0029958D02*
X0014100Y0029958D01*
X0014100Y0028960D02*
X0015900Y0028960D01*
X0016240Y0027961D02*
X0013760Y0027961D01*
X0012761Y0026963D02*
X0017239Y0026963D01*
X0018237Y0025964D02*
X0011763Y0025964D01*
X0007254Y0036948D02*
X0004500Y0036948D01*
X0004500Y0037946D02*
X0006255Y0037946D01*
X0005900Y0038945D02*
X0004500Y0038945D01*
X0004500Y0039943D02*
X0005900Y0039943D01*
X0005900Y0040942D02*
X0004500Y0040942D01*
X0004500Y0041940D02*
X0006142Y0041940D01*
X0007141Y0042939D02*
X0004500Y0042939D01*
X0004500Y0043937D02*
X0008139Y0043937D01*
X0022731Y0046933D02*
X0028500Y0046933D01*
X0028500Y0047932D02*
X0023730Y0047932D01*
X0024100Y0048930D02*
X0028500Y0048930D01*
X0028500Y0049929D02*
X0024100Y0049929D01*
X0024100Y0050927D02*
X0028500Y0050927D01*
X0028500Y0051926D02*
X0023873Y0051926D01*
X0022874Y0052924D02*
X0028500Y0052924D01*
X0036750Y0058803D02*
X0036750Y0059896D01*
X0036293Y0061000D01*
X0036750Y0062104D01*
X0036750Y0063396D01*
X0036293Y0064500D01*
X0036750Y0065604D01*
X0036750Y0066500D01*
X0041893Y0066500D01*
X0042403Y0066427D01*
X0042500Y0066500D01*
X0042621Y0066500D01*
X0042985Y0066864D01*
X0044400Y0067925D01*
X0044400Y0059663D01*
X0042137Y0057400D01*
X0041523Y0057400D01*
X0040641Y0057035D01*
X0039965Y0056359D01*
X0039600Y0055477D01*
X0039600Y0054523D01*
X0039965Y0053641D01*
X0040641Y0052965D01*
X0041523Y0052600D01*
X0042477Y0052600D01*
X0043359Y0052965D01*
X0044035Y0053641D01*
X0044400Y0054523D01*
X0044400Y0055137D01*
X0046663Y0057400D01*
X0047600Y0058337D01*
X0047600Y0069892D01*
X0053603Y0069892D01*
X0054248Y0070536D01*
X0054248Y0071400D01*
X0056206Y0071400D01*
X0056641Y0070965D01*
X0057523Y0070600D01*
X0058477Y0070600D01*
X0059359Y0070965D01*
X0060035Y0071641D01*
X0060400Y0072523D01*
X0060400Y0073477D01*
X0060035Y0074359D01*
X0059359Y0075035D01*
X0058477Y0075400D01*
X0057523Y0075400D01*
X0056641Y0075035D01*
X0056206Y0074600D01*
X0054248Y0074600D01*
X0054248Y0075464D01*
X0053603Y0076108D01*
X0037928Y0076108D01*
X0037284Y0075464D01*
X0037284Y0070536D01*
X0037928Y0069892D01*
X0042023Y0069892D01*
X0041500Y0069500D01*
X0036750Y0069500D01*
X0036750Y0070396D01*
X0036293Y0071500D01*
X0036750Y0072604D01*
X0036750Y0073896D01*
X0036293Y0075000D01*
X0036750Y0076104D01*
X0036750Y0077396D01*
X0036293Y0078500D01*
X0036750Y0079604D01*
X0036750Y0080500D01*
X0037320Y0080500D01*
X0037928Y0079892D01*
X0053603Y0079892D01*
X0054248Y0080536D01*
X0054248Y0081400D01*
X0056206Y0081400D01*
X0056641Y0080965D01*
X0057523Y0080600D01*
X0058477Y0080600D01*
X0059359Y0080965D01*
X0060035Y0081641D01*
X0060400Y0082523D01*
X0060400Y0083477D01*
X0060035Y0084359D01*
X0059359Y0085035D01*
X0058477Y0085400D01*
X0057523Y0085400D01*
X0056641Y0085035D01*
X0056206Y0084600D01*
X0054248Y0084600D01*
X0054248Y0085464D01*
X0053603Y0086108D01*
X0037928Y0086108D01*
X0037284Y0085464D01*
X0037284Y0083500D01*
X0036750Y0083500D01*
X0036750Y0084396D01*
X0036293Y0085500D01*
X0036750Y0086604D01*
X0036750Y0087896D01*
X0036293Y0089000D01*
X0036750Y0090104D01*
X0036750Y0091396D01*
X0036293Y0092500D01*
X0036750Y0093604D01*
X0036750Y0094896D01*
X0036293Y0096000D01*
X0036750Y0097104D01*
X0036750Y0098396D01*
X0036293Y0099500D01*
X0036750Y0100604D01*
X0036750Y0101896D01*
X0036293Y0103000D01*
X0036750Y0104104D01*
X0036750Y0105000D01*
X0037284Y0105000D01*
X0037284Y0100536D01*
X0037928Y0099892D01*
X0053603Y0099892D01*
X0054248Y0100536D01*
X0054248Y0101400D01*
X0056206Y0101400D01*
X0056641Y0100965D01*
X0057523Y0100600D01*
X0058477Y0100600D01*
X0059359Y0100965D01*
X0060035Y0101641D01*
X0060400Y0102523D01*
X0060400Y0103477D01*
X0060035Y0104359D01*
X0059359Y0105035D01*
X0058477Y0105400D01*
X0057523Y0105400D01*
X0056641Y0105035D01*
X0056206Y0104600D01*
X0054248Y0104600D01*
X0054248Y0105400D01*
X0061752Y0105400D01*
X0061752Y0100536D01*
X0062397Y0099892D01*
X0077400Y0099892D01*
X0077400Y0099163D01*
X0074345Y0096108D01*
X0069389Y0096108D01*
X0066897Y0098600D01*
X0059794Y0098600D01*
X0059359Y0099035D01*
X0058477Y0099400D01*
X0057523Y0099400D01*
X0056641Y0099035D01*
X0055965Y0098359D01*
X0055600Y0097477D01*
X0055600Y0096523D01*
X0055965Y0095641D01*
X0056641Y0094965D01*
X0057523Y0094600D01*
X0058477Y0094600D01*
X0059359Y0094965D01*
X0059794Y0095400D01*
X0061752Y0095400D01*
X0061752Y0090536D01*
X0062397Y0089892D01*
X0078072Y0089892D01*
X0078716Y0090536D01*
X0078716Y0095464D01*
X0078471Y0095708D01*
X0079400Y0096637D01*
X0079400Y0088163D01*
X0077345Y0086108D01*
X0062397Y0086108D01*
X0061752Y0085464D01*
X0061752Y0080536D01*
X0062397Y0079892D01*
X0064864Y0079892D01*
X0064572Y0079600D01*
X0059653Y0079600D01*
X0058953Y0080300D01*
X0057047Y0080300D01*
X0055700Y0078953D01*
X0055700Y0077047D01*
X0057047Y0075700D01*
X0058953Y0075700D01*
X0059653Y0076400D01*
X0065897Y0076400D01*
X0069389Y0079892D01*
X0078072Y0079892D01*
X0078716Y0080536D01*
X0078716Y0082953D01*
X0081400Y0085637D01*
X0081400Y0082663D01*
X0074845Y0076108D01*
X0062397Y0076108D01*
X0061752Y0075464D01*
X0061752Y0070536D01*
X0062397Y0069892D01*
X0064864Y0069892D01*
X0064572Y0069600D01*
X0059653Y0069600D01*
X0058953Y0070300D01*
X0057047Y0070300D01*
X0055700Y0068953D01*
X0055700Y0067047D01*
X0057047Y0065700D01*
X0058953Y0065700D01*
X0059653Y0066400D01*
X0065897Y0066400D01*
X0069389Y0069892D01*
X0078072Y0069892D01*
X0078716Y0070536D01*
X0078716Y0075453D01*
X0084600Y0081337D01*
X0084600Y0096006D01*
X0084641Y0095965D01*
X0085523Y0095600D01*
X0086477Y0095600D01*
X0087359Y0095965D01*
X0088035Y0096641D01*
X0088400Y0097523D01*
X0088400Y0098477D01*
X0088085Y0099238D01*
X0090499Y0099238D01*
X0091337Y0098400D01*
X0091888Y0097849D01*
X0091888Y0091410D01*
X0092533Y0090766D01*
X0096412Y0090766D01*
X0096441Y0090795D01*
X0096470Y0090766D01*
X0100349Y0090766D01*
X0100378Y0090795D01*
X0100407Y0090766D01*
X0104286Y0090766D01*
X0104315Y0090795D01*
X0104344Y0090766D01*
X0108223Y0090766D01*
X0108252Y0090795D01*
X0108281Y0090766D01*
X0108620Y0090766D01*
X0108620Y0088117D01*
X0112400Y0084337D01*
X0112437Y0084300D01*
X0097953Y0084300D01*
X0092135Y0090118D01*
X0092035Y0090359D01*
X0091359Y0091035D01*
X0091118Y0091135D01*
X0090953Y0091300D01*
X0090719Y0091300D01*
X0090477Y0091400D01*
X0089523Y0091400D01*
X0089281Y0091300D01*
X0089047Y0091300D01*
X0088882Y0091135D01*
X0088641Y0091035D01*
X0087965Y0090359D01*
X0087865Y0090118D01*
X0087700Y0089953D01*
X0087700Y0089719D01*
X0087600Y0089477D01*
X0087600Y0088523D01*
X0087700Y0088281D01*
X0087700Y0088047D01*
X0087865Y0087882D01*
X0087965Y0087641D01*
X0088641Y0086965D01*
X0088882Y0086865D01*
X0094729Y0081018D01*
X0093318Y0081018D01*
X0093026Y0081724D01*
X0091732Y0083018D01*
X0090041Y0083718D01*
X0088211Y0083718D01*
X0086520Y0083018D01*
X0085226Y0081724D01*
X0084526Y0080033D01*
X0084526Y0078203D01*
X0085226Y0076512D01*
X0086520Y0075218D01*
X0088211Y0074518D01*
X0090041Y0074518D01*
X0091732Y0075218D01*
X0093026Y0076512D01*
X0093318Y0077218D01*
X0112983Y0077218D01*
X0121100Y0067321D01*
X0121100Y0051494D01*
X0120965Y0051359D01*
X0120600Y0050477D01*
X0120600Y0049523D01*
X0120965Y0048641D01*
X0121641Y0047965D01*
X0122523Y0047600D01*
X0123477Y0047600D01*
X0124359Y0047965D01*
X0125000Y0048606D01*
X0125641Y0047965D01*
X0126523Y0047600D01*
X0127137Y0047600D01*
X0130337Y0044400D01*
X0138663Y0044400D01*
X0139600Y0045337D01*
X0154163Y0059900D01*
X0155778Y0059900D01*
X0155778Y0059478D01*
X0155573Y0059260D01*
X0155037Y0058724D01*
X0155037Y0058690D01*
X0140179Y0042900D01*
X0089787Y0042900D01*
X0084400Y0048287D01*
X0084400Y0048477D01*
X0084035Y0049359D01*
X0083359Y0050035D01*
X0082477Y0050400D01*
X0082287Y0050400D01*
X0077787Y0054900D01*
X0062494Y0054900D01*
X0062359Y0055035D01*
X0061477Y0055400D01*
X0060523Y0055400D01*
X0059641Y0055035D01*
X0058965Y0054359D01*
X0058600Y0053477D01*
X0058600Y0052523D01*
X0058965Y0051641D01*
X0059641Y0050965D01*
X0060523Y0050600D01*
X0061477Y0050600D01*
X0062359Y0050965D01*
X0062494Y0051100D01*
X0076213Y0051100D01*
X0079600Y0047713D01*
X0079600Y0047523D01*
X0079965Y0046641D01*
X0080641Y0045965D01*
X0081523Y0045600D01*
X0081713Y0045600D01*
X0088213Y0039100D01*
X0094413Y0039100D01*
X0082713Y0027400D01*
X0082523Y0027400D01*
X0081641Y0027035D01*
X0080965Y0026359D01*
X0080600Y0025477D01*
X0080600Y0024523D01*
X0080965Y0023641D01*
X0081641Y0022965D01*
X0082523Y0022600D01*
X0083477Y0022600D01*
X0084359Y0022965D01*
X0085035Y0023641D01*
X0085400Y0024523D01*
X0085400Y0024713D01*
X0086908Y0026221D01*
X0086600Y0025477D01*
X0086600Y0024523D01*
X0086965Y0023641D01*
X0087641Y0022965D01*
X0088523Y0022600D01*
X0089477Y0022600D01*
X0090359Y0022965D01*
X0091035Y0023641D01*
X0091400Y0024523D01*
X0091400Y0024713D01*
X0098787Y0032100D01*
X0124506Y0032100D01*
X0124641Y0031965D01*
X0125523Y0031600D01*
X0126477Y0031600D01*
X0127359Y0031965D01*
X0128035Y0032641D01*
X0128400Y0033523D01*
X0128400Y0034477D01*
X0128035Y0035359D01*
X0127359Y0036035D01*
X0127202Y0036100D01*
X0127506Y0036100D01*
X0127641Y0035965D01*
X0128523Y0035600D01*
X0129477Y0035600D01*
X0130359Y0035965D01*
X0131035Y0036641D01*
X0131400Y0037523D01*
X0131400Y0038477D01*
X0131142Y0039100D01*
X0140247Y0039100D01*
X0140271Y0039077D01*
X0141029Y0039100D01*
X0141787Y0039100D01*
X0141811Y0039124D01*
X0141844Y0039125D01*
X0142364Y0039677D01*
X0142900Y0040213D01*
X0142900Y0040247D01*
X0156659Y0054869D01*
X0175444Y0054869D01*
X0176088Y0055513D01*
X0176088Y0059900D01*
X0177206Y0059900D01*
X0177641Y0059465D01*
X0178523Y0059100D01*
X0179477Y0059100D01*
X0180359Y0059465D01*
X0181035Y0060141D01*
X0181400Y0061023D01*
X0181400Y0061977D01*
X0181035Y0062859D01*
X0180758Y0063136D01*
X0192900Y0063136D01*
X0192900Y0057533D01*
X0192800Y0057400D01*
X0192523Y0057400D01*
X0191641Y0057035D01*
X0190965Y0056359D01*
X0190600Y0055477D01*
X0190600Y0054523D01*
X0190965Y0053641D01*
X0191641Y0052965D01*
X0192523Y0052600D01*
X0193477Y0052600D01*
X0194359Y0052965D01*
X0194500Y0053106D01*
X0194500Y0023000D01*
X0194376Y0021107D01*
X0193396Y0017451D01*
X0191504Y0014173D01*
X0188827Y0011496D01*
X0185549Y0009604D01*
X0181893Y0008624D01*
X0180000Y0008500D01*
X0136500Y0008500D01*
X0136500Y0028206D01*
X0135294Y0030294D01*
X0133206Y0031500D01*
X0121794Y0031500D01*
X0119706Y0030294D01*
X0118959Y0029000D01*
X0114041Y0029000D01*
X0113294Y0030294D01*
X0111206Y0031500D01*
X0099794Y0031500D01*
X0097706Y0030294D01*
X0096500Y0028206D01*
X0096500Y0008500D01*
X0053000Y0008500D01*
X0051107Y0008624D01*
X0047451Y0009604D01*
X0044173Y0011496D01*
X0041496Y0014173D01*
X0039604Y0017451D01*
X0038624Y0021107D01*
X0038500Y0023000D01*
X0038500Y0056141D01*
X0037510Y0058198D01*
X0036750Y0058803D01*
X0036750Y0058915D02*
X0043652Y0058915D01*
X0044400Y0059914D02*
X0036743Y0059914D01*
X0036329Y0060912D02*
X0044400Y0060912D01*
X0044400Y0061911D02*
X0036670Y0061911D01*
X0036750Y0062909D02*
X0044400Y0062909D01*
X0044400Y0063908D02*
X0036538Y0063908D01*
X0036461Y0064906D02*
X0044400Y0064906D01*
X0044400Y0065905D02*
X0036750Y0065905D01*
X0036750Y0069899D02*
X0037922Y0069899D01*
X0037284Y0070897D02*
X0036543Y0070897D01*
X0036457Y0071896D02*
X0037284Y0071896D01*
X0037284Y0072894D02*
X0036750Y0072894D01*
X0036750Y0073893D02*
X0037284Y0073893D01*
X0037284Y0074891D02*
X0036338Y0074891D01*
X0036661Y0075890D02*
X0037710Y0075890D01*
X0036750Y0076888D02*
X0055859Y0076888D01*
X0055700Y0077887D02*
X0036547Y0077887D01*
X0036452Y0078885D02*
X0055700Y0078885D01*
X0056631Y0079884D02*
X0036750Y0079884D01*
X0036750Y0083878D02*
X0037284Y0083878D01*
X0037284Y0084876D02*
X0036551Y0084876D01*
X0036448Y0085875D02*
X0037695Y0085875D01*
X0036750Y0086873D02*
X0078111Y0086873D01*
X0079109Y0087872D02*
X0036750Y0087872D01*
X0036347Y0088870D02*
X0079400Y0088870D01*
X0079400Y0089869D02*
X0036653Y0089869D01*
X0037284Y0090536D02*
X0037928Y0089892D01*
X0053603Y0089892D01*
X0054248Y0090536D01*
X0054248Y0095464D01*
X0053603Y0096108D01*
X0037928Y0096108D01*
X0037284Y0095464D01*
X0037284Y0090536D01*
X0037284Y0090868D02*
X0036750Y0090868D01*
X0036555Y0091866D02*
X0037284Y0091866D01*
X0037284Y0092865D02*
X0036444Y0092865D01*
X0036750Y0093863D02*
X0037284Y0093863D01*
X0037284Y0094862D02*
X0036750Y0094862D01*
X0036351Y0095860D02*
X0037680Y0095860D01*
X0036649Y0096859D02*
X0055600Y0096859D01*
X0055757Y0097857D02*
X0036750Y0097857D01*
X0036560Y0098856D02*
X0056461Y0098856D01*
X0056913Y0100853D02*
X0054248Y0100853D01*
X0054248Y0104847D02*
X0056453Y0104847D01*
X0058000Y0103000D02*
X0045766Y0103000D01*
X0047772Y0106108D02*
X0047600Y0106523D01*
X0047600Y0107477D01*
X0047965Y0108359D01*
X0048641Y0109035D01*
X0049523Y0109400D01*
X0050477Y0109400D01*
X0051359Y0109035D01*
X0051794Y0108600D01*
X0066897Y0108600D01*
X0069389Y0106108D01*
X0072345Y0106108D01*
X0076129Y0109892D01*
X0062397Y0109892D01*
X0061752Y0110536D01*
X0061752Y0115400D01*
X0059794Y0115400D01*
X0059359Y0114965D01*
X0058477Y0114600D01*
X0057523Y0114600D01*
X0056641Y0114965D01*
X0055965Y0115641D01*
X0055600Y0116523D01*
X0055600Y0117477D01*
X0055965Y0118359D01*
X0056641Y0119035D01*
X0057523Y0119400D01*
X0058477Y0119400D01*
X0059359Y0119035D01*
X0059794Y0118600D01*
X0066897Y0118600D01*
X0069389Y0116108D01*
X0076845Y0116108D01*
X0083416Y0122679D01*
X0083416Y0123447D01*
X0083445Y0123476D01*
X0083416Y0123505D01*
X0083416Y0123844D01*
X0080893Y0123844D01*
X0079956Y0124782D01*
X0065400Y0139337D01*
X0065400Y0146094D01*
X0065255Y0145615D01*
X0064766Y0144435D01*
X0064164Y0143309D01*
X0063454Y0142247D01*
X0062644Y0141259D01*
X0061741Y0140356D01*
X0060753Y0139546D01*
X0059691Y0138836D01*
X0058565Y0138234D01*
X0057385Y0137745D01*
X0056163Y0137374D01*
X0054910Y0137125D01*
X0053639Y0137000D01*
X0053500Y0137000D01*
X0053500Y0149500D01*
X0053500Y0150500D01*
X0052500Y0150500D01*
X0052500Y0163000D01*
X0052361Y0163000D01*
X0051090Y0162875D01*
X0049837Y0162626D01*
X0048615Y0162255D01*
X0047435Y0161766D01*
X0046309Y0161164D01*
X0045247Y0160454D01*
X0044259Y0159644D01*
X0043356Y0158741D01*
X0042546Y0157753D01*
X0041836Y0156691D01*
X0041234Y0155565D01*
X0040745Y0154385D01*
X0040374Y0153163D01*
X0040125Y0151910D01*
X0040000Y0150639D01*
X0040000Y0150500D01*
X0052500Y0150500D01*
X0052500Y0149500D01*
X0053500Y0149500D01*
X0066000Y0149500D01*
X0066000Y0149361D01*
X0065875Y0148090D01*
X0065638Y0146901D01*
X0066337Y0147600D01*
X0066337Y0147600D01*
X0066400Y0147663D01*
X0066400Y0162663D01*
X0068237Y0164500D01*
X0053000Y0164500D01*
X0051107Y0164376D01*
X0047451Y0163396D01*
X0044173Y0161504D01*
X0041496Y0158827D01*
X0039604Y0155549D01*
X0038624Y0151893D01*
X0038500Y0150000D01*
X0038500Y0116508D01*
X0045266Y0116508D01*
X0045266Y0113500D01*
X0046266Y0113500D01*
X0054648Y0113500D01*
X0054648Y0115205D01*
X0054545Y0115587D01*
X0054348Y0115929D01*
X0054069Y0116208D01*
X0053727Y0116406D01*
X0053345Y0116508D01*
X0046266Y0116508D01*
X0046266Y0113500D01*
X0046266Y0112500D01*
X0054648Y0112500D01*
X0054648Y0110795D01*
X0054545Y0110413D01*
X0054348Y0110071D01*
X0054069Y0109792D01*
X0053727Y0109594D01*
X0053345Y0109492D01*
X0046266Y0109492D01*
X0046266Y0112500D01*
X0045266Y0112500D01*
X0045266Y0109492D01*
X0038186Y0109492D01*
X0037805Y0109594D01*
X0037463Y0109792D01*
X0037184Y0110071D01*
X0036986Y0110413D01*
X0036884Y0110795D01*
X0036884Y0112303D01*
X0036750Y0112197D01*
X0036750Y0111354D01*
X0036255Y0110159D01*
X0036221Y0110125D01*
X0036255Y0110091D01*
X0036750Y0108896D01*
X0036750Y0108000D01*
X0040121Y0108000D01*
X0042013Y0106108D01*
X0047772Y0106108D01*
X0047600Y0106844D02*
X0041278Y0106844D01*
X0040279Y0107842D02*
X0047751Y0107842D01*
X0048447Y0108841D02*
X0036750Y0108841D01*
X0036359Y0109839D02*
X0037415Y0109839D01*
X0036884Y0110838D02*
X0036536Y0110838D01*
X0036750Y0111836D02*
X0036884Y0111836D01*
X0038500Y0116829D02*
X0055600Y0116829D01*
X0055745Y0117827D02*
X0038500Y0117827D01*
X0038500Y0118826D02*
X0056432Y0118826D01*
X0058000Y0117000D02*
X0066234Y0117000D01*
X0070234Y0113000D01*
X0076000Y0113000D01*
X0084507Y0121507D01*
X0087469Y0121507D01*
X0087469Y0117570D02*
X0084570Y0117570D01*
X0082500Y0115500D01*
X0082500Y0114000D01*
X0071500Y0103000D01*
X0070234Y0103000D01*
X0066234Y0107000D01*
X0050000Y0107000D01*
X0051553Y0108841D02*
X0075078Y0108841D01*
X0076077Y0109839D02*
X0054116Y0109839D01*
X0054648Y0110838D02*
X0061752Y0110838D01*
X0061752Y0111836D02*
X0054648Y0111836D01*
X0054648Y0113833D02*
X0061752Y0113833D01*
X0061752Y0112835D02*
X0046266Y0112835D01*
X0045766Y0113000D02*
X0058000Y0113000D01*
X0059037Y0114832D02*
X0061752Y0114832D01*
X0059568Y0118826D02*
X0079563Y0118826D01*
X0080562Y0119824D02*
X0038500Y0119824D01*
X0038500Y0120823D02*
X0081560Y0120823D01*
X0082559Y0121821D02*
X0038500Y0121821D01*
X0038500Y0122820D02*
X0083416Y0122820D01*
X0083416Y0123818D02*
X0038500Y0123818D01*
X0038500Y0124817D02*
X0079920Y0124817D01*
X0078922Y0125815D02*
X0038500Y0125815D01*
X0038500Y0126814D02*
X0077923Y0126814D01*
X0076925Y0127812D02*
X0038500Y0127812D01*
X0038500Y0128811D02*
X0075926Y0128811D01*
X0074928Y0129809D02*
X0038500Y0129809D01*
X0038500Y0130808D02*
X0073929Y0130808D01*
X0072931Y0131806D02*
X0038500Y0131806D01*
X0038500Y0132805D02*
X0071932Y0132805D01*
X0070934Y0133803D02*
X0038500Y0133803D01*
X0038500Y0134802D02*
X0069935Y0134802D01*
X0068937Y0135801D02*
X0038500Y0135801D01*
X0038500Y0136799D02*
X0067938Y0136799D01*
X0066940Y0137798D02*
X0057511Y0137798D01*
X0059616Y0138796D02*
X0065941Y0138796D01*
X0065400Y0139795D02*
X0061057Y0139795D01*
X0062178Y0140793D02*
X0065400Y0140793D01*
X0065400Y0141792D02*
X0063081Y0141792D01*
X0063817Y0142790D02*
X0065400Y0142790D01*
X0065400Y0143789D02*
X0064420Y0143789D01*
X0064912Y0144787D02*
X0065400Y0144787D01*
X0065400Y0145786D02*
X0065307Y0145786D01*
X0067000Y0146000D02*
X0068000Y0147000D01*
X0068000Y0162000D01*
X0071000Y0165000D01*
X0075000Y0165000D01*
X0078000Y0162000D01*
X0078000Y0158500D01*
X0080500Y0156000D01*
X0081389Y0153500D02*
X0082001Y0153753D01*
X0082747Y0154499D01*
X0083150Y0155473D01*
X0083150Y0156527D01*
X0083122Y0156594D01*
X0084549Y0157185D01*
X0085815Y0158451D01*
X0086500Y0160105D01*
X0086500Y0161895D01*
X0085815Y0163549D01*
X0084864Y0164500D01*
X0180000Y0164500D01*
X0181893Y0164376D01*
X0185549Y0163396D01*
X0188827Y0161504D01*
X0191504Y0158827D01*
X0193396Y0155549D01*
X0194376Y0151893D01*
X0194500Y0150000D01*
X0194500Y0094561D01*
X0192100Y0097561D01*
X0192100Y0097663D01*
X0191694Y0098069D01*
X0191335Y0098517D01*
X0191234Y0098528D01*
X0191163Y0098600D01*
X0190589Y0098600D01*
X0190018Y0098663D01*
X0189939Y0098600D01*
X0175561Y0098600D01*
X0171600Y0101769D01*
X0171600Y0110815D01*
X0171709Y0111280D01*
X0171600Y0111456D01*
X0171600Y0111663D01*
X0171262Y0112001D01*
X0169967Y0114089D01*
X0169967Y0114296D01*
X0169629Y0114634D01*
X0169377Y0115040D01*
X0169176Y0115087D01*
X0169029Y0115233D01*
X0168552Y0115233D01*
X0168086Y0115342D01*
X0167911Y0115233D01*
X0164584Y0115233D01*
X0164584Y0115573D01*
X0164555Y0115602D01*
X0164584Y0115631D01*
X0164584Y0119510D01*
X0164555Y0119539D01*
X0164584Y0119568D01*
X0164584Y0123447D01*
X0164555Y0123476D01*
X0164584Y0123505D01*
X0164584Y0127384D01*
X0164555Y0127413D01*
X0164584Y0127442D01*
X0164584Y0131321D01*
X0164555Y0131350D01*
X0164584Y0131379D01*
X0164584Y0131419D01*
X0175894Y0131419D01*
X0188100Y0119213D01*
X0188100Y0114324D01*
X0187695Y0115301D01*
X0186801Y0116195D01*
X0185632Y0116680D01*
X0184367Y0116680D01*
X0183199Y0116195D01*
X0182304Y0115301D01*
X0181820Y0114132D01*
X0181820Y0112868D01*
X0182304Y0111699D01*
X0183199Y0110805D01*
X0184367Y0110320D01*
X0185632Y0110320D01*
X0186801Y0110805D01*
X0187695Y0111699D01*
X0188100Y0112676D01*
X0188100Y0108787D01*
X0184713Y0105400D01*
X0177597Y0105400D01*
X0176801Y0106196D01*
X0175632Y0106680D01*
X0174368Y0106680D01*
X0173199Y0106196D01*
X0172305Y0105301D01*
X0171820Y0104133D01*
X0171820Y0102868D01*
X0172305Y0101699D01*
X0173199Y0100805D01*
X0174368Y0100321D01*
X0175632Y0100321D01*
X0176801Y0100805D01*
X0177597Y0101600D01*
X0186287Y0101600D01*
X0187400Y0102713D01*
X0191900Y0107213D01*
X0191900Y0120787D01*
X0190787Y0121900D01*
X0177468Y0135218D01*
X0164584Y0135218D01*
X0164584Y0135258D01*
X0163939Y0135903D01*
X0162831Y0135903D01*
X0162831Y0152422D01*
X0160135Y0155118D01*
X0160035Y0155359D01*
X0159359Y0156035D01*
X0159118Y0156135D01*
X0158953Y0156300D01*
X0158719Y0156300D01*
X0158477Y0156400D01*
X0157523Y0156400D01*
X0157281Y0156300D01*
X0157047Y0156300D01*
X0156882Y0156135D01*
X0156641Y0156035D01*
X0155965Y0155359D01*
X0155865Y0155118D01*
X0155700Y0154953D01*
X0155700Y0154719D01*
X0155600Y0154477D01*
X0155600Y0153523D01*
X0155700Y0153281D01*
X0155700Y0153047D01*
X0155865Y0152882D01*
X0155965Y0152641D01*
X0156641Y0151965D01*
X0156882Y0151865D01*
X0158231Y0150516D01*
X0158231Y0135903D01*
X0157123Y0135903D01*
X0156478Y0135258D01*
X0156478Y0134918D01*
X0154656Y0134918D01*
X0153337Y0133600D01*
X0152400Y0132663D01*
X0152400Y0125663D01*
X0149137Y0122400D01*
X0148523Y0122400D01*
X0147641Y0122035D01*
X0147600Y0121994D01*
X0147600Y0146663D01*
X0140400Y0153863D01*
X0140400Y0154477D01*
X0140035Y0155359D01*
X0139359Y0156035D01*
X0138477Y0156400D01*
X0137523Y0156400D01*
X0136641Y0156035D01*
X0135965Y0155359D01*
X0135600Y0154477D01*
X0135600Y0153523D01*
X0135965Y0152641D01*
X0136641Y0151965D01*
X0137523Y0151600D01*
X0138137Y0151600D01*
X0144400Y0145337D01*
X0144400Y0116337D01*
X0145337Y0115400D01*
X0152641Y0108096D01*
X0156478Y0108096D01*
X0156478Y0107757D01*
X0156507Y0107728D01*
X0156478Y0107699D01*
X0156478Y0107600D01*
X0147663Y0107600D01*
X0143600Y0111663D01*
X0143600Y0125206D01*
X0144035Y0125641D01*
X0144400Y0126523D01*
X0144400Y0127477D01*
X0144035Y0128359D01*
X0143359Y0129035D01*
X0142477Y0129400D01*
X0141523Y0129400D01*
X0140641Y0129035D01*
X0140100Y0128494D01*
X0140100Y0144163D01*
X0130400Y0153863D01*
X0130400Y0154477D01*
X0130035Y0155359D01*
X0129359Y0156035D01*
X0128477Y0156400D01*
X0127523Y0156400D01*
X0126641Y0156035D01*
X0125965Y0155359D01*
X0125600Y0154477D01*
X0125600Y0153523D01*
X0125965Y0152641D01*
X0126641Y0151965D01*
X0127523Y0151600D01*
X0128137Y0151600D01*
X0136900Y0142837D01*
X0136900Y0108642D01*
X0136641Y0108535D01*
X0136100Y0107994D01*
X0136100Y0108706D01*
X0136535Y0109141D01*
X0136900Y0110023D01*
X0136900Y0110977D01*
X0136535Y0111859D01*
X0136100Y0112294D01*
X0136100Y0126663D01*
X0121900Y0140863D01*
X0121900Y0141477D01*
X0121535Y0142359D01*
X0120859Y0143035D01*
X0119977Y0143400D01*
X0119023Y0143400D01*
X0118141Y0143035D01*
X0117600Y0142494D01*
X0117600Y0151337D01*
X0117863Y0151600D01*
X0118477Y0151600D01*
X0119359Y0151965D01*
X0120035Y0152641D01*
X0120400Y0153523D01*
X0120400Y0154477D01*
X0120035Y0155359D01*
X0119359Y0156035D01*
X0118477Y0156400D01*
X0117523Y0156400D01*
X0116641Y0156035D01*
X0115965Y0155359D01*
X0115600Y0154477D01*
X0115600Y0153863D01*
X0114400Y0152663D01*
X0114400Y0139863D01*
X0114400Y0140477D01*
X0114035Y0141359D01*
X0113359Y0142035D01*
X0112477Y0142400D01*
X0111523Y0142400D01*
X0111100Y0142225D01*
X0111100Y0153163D01*
X0110400Y0153863D01*
X0110400Y0154477D01*
X0110035Y0155359D01*
X0109359Y0156035D01*
X0108477Y0156400D01*
X0107523Y0156400D01*
X0106641Y0156035D01*
X0105965Y0155359D01*
X0105600Y0154477D01*
X0105600Y0153523D01*
X0105965Y0152641D01*
X0106641Y0151965D01*
X0107523Y0151600D01*
X0107900Y0151600D01*
X0107900Y0138337D01*
X0111400Y0134837D01*
X0111400Y0102863D01*
X0105100Y0109163D01*
X0105100Y0137651D01*
X0105859Y0137965D01*
X0106535Y0138641D01*
X0106900Y0139523D01*
X0106900Y0140477D01*
X0106535Y0141359D01*
X0105859Y0142035D01*
X0104977Y0142400D01*
X0104023Y0142400D01*
X0103141Y0142035D01*
X0103100Y0141994D01*
X0103100Y0151163D01*
X0100400Y0153863D01*
X0100400Y0154477D01*
X0100035Y0155359D01*
X0099359Y0156035D01*
X0098477Y0156400D01*
X0097523Y0156400D01*
X0096641Y0156035D01*
X0095965Y0155359D01*
X0095600Y0154477D01*
X0095600Y0153523D01*
X0095965Y0152641D01*
X0096641Y0151965D01*
X0097523Y0151600D01*
X0098137Y0151600D01*
X0099900Y0149837D01*
X0099900Y0144363D01*
X0090400Y0153863D01*
X0090400Y0154477D01*
X0090035Y0155359D01*
X0089359Y0156035D01*
X0088477Y0156400D01*
X0087523Y0156400D01*
X0086641Y0156035D01*
X0085965Y0155359D01*
X0085600Y0154477D01*
X0085600Y0153523D01*
X0085965Y0152641D01*
X0086641Y0151965D01*
X0087523Y0151600D01*
X0088137Y0151600D01*
X0096592Y0143145D01*
X0095977Y0143400D01*
X0095023Y0143400D01*
X0094141Y0143035D01*
X0093465Y0142359D01*
X0093100Y0141477D01*
X0093100Y0140663D01*
X0083150Y0150613D01*
X0083150Y0151527D01*
X0082747Y0152501D01*
X0082001Y0153247D01*
X0081389Y0153500D01*
X0082021Y0153774D02*
X0085600Y0153774D01*
X0085722Y0154772D02*
X0082860Y0154772D01*
X0083150Y0155771D02*
X0086377Y0155771D01*
X0085132Y0157768D02*
X0169557Y0157768D01*
X0169546Y0157753D02*
X0168836Y0156691D01*
X0168234Y0155565D01*
X0167745Y0154385D01*
X0167374Y0153163D01*
X0167125Y0151910D01*
X0167000Y0150639D01*
X0167000Y0150500D01*
X0179500Y0150500D01*
X0179500Y0163000D01*
X0179361Y0163000D01*
X0178090Y0162875D01*
X0176837Y0162626D01*
X0175615Y0162255D01*
X0174435Y0161766D01*
X0173309Y0161164D01*
X0172247Y0160454D01*
X0171259Y0159644D01*
X0170356Y0158741D01*
X0169546Y0157753D01*
X0168888Y0156769D02*
X0083545Y0156769D01*
X0085946Y0158766D02*
X0170382Y0158766D01*
X0171406Y0159765D02*
X0086359Y0159765D01*
X0086500Y0160763D02*
X0172709Y0160763D01*
X0174427Y0161762D02*
X0086500Y0161762D01*
X0086142Y0162760D02*
X0177515Y0162760D01*
X0179500Y0162760D02*
X0180500Y0162760D01*
X0180500Y0163000D02*
X0180639Y0163000D01*
X0181910Y0162875D01*
X0183163Y0162626D01*
X0184385Y0162255D01*
X0185565Y0161766D01*
X0186691Y0161164D01*
X0187753Y0160454D01*
X0188741Y0159644D01*
X0189644Y0158741D01*
X0190454Y0157753D01*
X0191164Y0156691D01*
X0191766Y0155565D01*
X0192255Y0154385D01*
X0192626Y0153163D01*
X0192875Y0151910D01*
X0193000Y0150639D01*
X0193000Y0150500D01*
X0180500Y0150500D01*
X0180500Y0149500D01*
X0193000Y0149500D01*
X0193000Y0149361D01*
X0192875Y0148090D01*
X0192626Y0146837D01*
X0192255Y0145615D01*
X0191766Y0144435D01*
X0191164Y0143309D01*
X0190454Y0142247D01*
X0189644Y0141259D01*
X0188741Y0140356D01*
X0187753Y0139546D01*
X0186691Y0138836D01*
X0185565Y0138234D01*
X0184385Y0137745D01*
X0183163Y0137374D01*
X0181910Y0137125D01*
X0180639Y0137000D01*
X0180500Y0137000D01*
X0180500Y0149500D01*
X0179500Y0149500D01*
X0179500Y0137000D01*
X0179361Y0137000D01*
X0178090Y0137125D01*
X0176837Y0137374D01*
X0175615Y0137745D01*
X0174435Y0138234D01*
X0173309Y0138836D01*
X0172247Y0139546D01*
X0171259Y0140356D01*
X0170356Y0141259D01*
X0169546Y0142247D01*
X0168836Y0143309D01*
X0168234Y0144435D01*
X0167745Y0145615D01*
X0167374Y0146837D01*
X0167125Y0148090D01*
X0167000Y0149361D01*
X0167000Y0149500D01*
X0179500Y0149500D01*
X0179500Y0150500D01*
X0180500Y0150500D01*
X0180500Y0163000D01*
X0180500Y0161762D02*
X0179500Y0161762D01*
X0179500Y0160763D02*
X0180500Y0160763D01*
X0180500Y0159765D02*
X0179500Y0159765D01*
X0179500Y0158766D02*
X0180500Y0158766D01*
X0180500Y0157768D02*
X0179500Y0157768D01*
X0179500Y0156769D02*
X0180500Y0156769D01*
X0180500Y0155771D02*
X0179500Y0155771D01*
X0179500Y0154772D02*
X0180500Y0154772D01*
X0180500Y0153774D02*
X0179500Y0153774D01*
X0179500Y0152775D02*
X0180500Y0152775D01*
X0180500Y0151777D02*
X0179500Y0151777D01*
X0179500Y0150778D02*
X0180500Y0150778D01*
X0180500Y0149780D02*
X0194500Y0149780D01*
X0194500Y0148781D02*
X0192943Y0148781D01*
X0192814Y0147783D02*
X0194500Y0147783D01*
X0194500Y0146784D02*
X0192609Y0146784D01*
X0192307Y0145786D02*
X0194500Y0145786D01*
X0194500Y0144787D02*
X0191912Y0144787D01*
X0191420Y0143789D02*
X0194500Y0143789D01*
X0194500Y0142790D02*
X0190817Y0142790D01*
X0190081Y0141792D02*
X0194500Y0141792D01*
X0194500Y0140793D02*
X0189178Y0140793D01*
X0188057Y0139795D02*
X0194500Y0139795D01*
X0194500Y0138796D02*
X0186616Y0138796D01*
X0184511Y0137798D02*
X0194500Y0137798D01*
X0194500Y0136799D02*
X0162831Y0136799D01*
X0162831Y0137798D02*
X0175489Y0137798D01*
X0173383Y0138796D02*
X0162831Y0138796D01*
X0162831Y0139795D02*
X0171943Y0139795D01*
X0170822Y0140793D02*
X0162831Y0140793D01*
X0162831Y0141792D02*
X0169919Y0141792D01*
X0169183Y0142790D02*
X0162831Y0142790D01*
X0162831Y0143789D02*
X0168580Y0143789D01*
X0168088Y0144787D02*
X0162831Y0144787D01*
X0162831Y0145786D02*
X0167693Y0145786D01*
X0167391Y0146784D02*
X0162831Y0146784D01*
X0162831Y0147783D02*
X0167186Y0147783D01*
X0167057Y0148781D02*
X0162831Y0148781D01*
X0162831Y0149780D02*
X0179500Y0149780D01*
X0179500Y0148781D02*
X0180500Y0148781D01*
X0180500Y0147783D02*
X0179500Y0147783D01*
X0179500Y0146784D02*
X0180500Y0146784D01*
X0180500Y0145786D02*
X0179500Y0145786D01*
X0179500Y0144787D02*
X0180500Y0144787D01*
X0180500Y0143789D02*
X0179500Y0143789D01*
X0179500Y0142790D02*
X0180500Y0142790D01*
X0180500Y0141792D02*
X0179500Y0141792D01*
X0179500Y0140793D02*
X0180500Y0140793D01*
X0180500Y0139795D02*
X0179500Y0139795D01*
X0179500Y0138796D02*
X0180500Y0138796D01*
X0180500Y0137798D02*
X0179500Y0137798D01*
X0177885Y0134802D02*
X0194500Y0134802D01*
X0194500Y0135801D02*
X0164042Y0135801D01*
X0160531Y0133319D02*
X0155319Y0133319D01*
X0154000Y0132000D01*
X0154000Y0125000D01*
X0149000Y0120000D01*
X0149557Y0122820D02*
X0147600Y0122820D01*
X0147600Y0123818D02*
X0150556Y0123818D01*
X0151554Y0124817D02*
X0147600Y0124817D01*
X0147600Y0125815D02*
X0152400Y0125815D01*
X0152400Y0126814D02*
X0147600Y0126814D01*
X0147600Y0127812D02*
X0152400Y0127812D01*
X0152400Y0128811D02*
X0147600Y0128811D01*
X0147600Y0129809D02*
X0152400Y0129809D01*
X0152400Y0130808D02*
X0147600Y0130808D01*
X0147600Y0131806D02*
X0152400Y0131806D01*
X0152542Y0132805D02*
X0147600Y0132805D01*
X0147600Y0133803D02*
X0153541Y0133803D01*
X0154539Y0134802D02*
X0147600Y0134802D01*
X0147600Y0135801D02*
X0157020Y0135801D01*
X0158231Y0136799D02*
X0147600Y0136799D01*
X0147600Y0137798D02*
X0158231Y0137798D01*
X0158231Y0138796D02*
X0147600Y0138796D01*
X0147600Y0139795D02*
X0158231Y0139795D01*
X0158231Y0140793D02*
X0147600Y0140793D01*
X0147600Y0141792D02*
X0158231Y0141792D01*
X0158231Y0142790D02*
X0147600Y0142790D01*
X0147600Y0143789D02*
X0158231Y0143789D01*
X0158231Y0144787D02*
X0147600Y0144787D01*
X0147600Y0145786D02*
X0158231Y0145786D01*
X0158231Y0146784D02*
X0147479Y0146784D01*
X0146480Y0147783D02*
X0158231Y0147783D01*
X0158231Y0148781D02*
X0145482Y0148781D01*
X0144483Y0149780D02*
X0158231Y0149780D01*
X0157969Y0150778D02*
X0143485Y0150778D01*
X0142486Y0151777D02*
X0156971Y0151777D01*
X0155910Y0152775D02*
X0141488Y0152775D01*
X0140489Y0153774D02*
X0155600Y0153774D01*
X0155700Y0154772D02*
X0140278Y0154772D01*
X0139623Y0155771D02*
X0156377Y0155771D01*
X0159623Y0155771D02*
X0168344Y0155771D01*
X0167906Y0154772D02*
X0160480Y0154772D01*
X0161479Y0153774D02*
X0167560Y0153774D01*
X0167297Y0152775D02*
X0162477Y0152775D01*
X0162831Y0151777D02*
X0167112Y0151777D01*
X0167014Y0150778D02*
X0162831Y0150778D01*
X0146000Y0146000D02*
X0138000Y0154000D01*
X0137096Y0151777D02*
X0132486Y0151777D01*
X0131488Y0152775D02*
X0135910Y0152775D01*
X0135600Y0153774D02*
X0130489Y0153774D01*
X0130278Y0154772D02*
X0135722Y0154772D01*
X0136377Y0155771D02*
X0129623Y0155771D01*
X0128000Y0154000D02*
X0138500Y0143500D01*
X0138500Y0106500D01*
X0138000Y0106500D01*
X0138500Y0106500D02*
X0143178Y0101822D01*
X0160531Y0101822D01*
X0160531Y0105759D02*
X0160291Y0106000D01*
X0147000Y0106000D01*
X0142000Y0111000D01*
X0142000Y0127000D01*
X0144261Y0127812D02*
X0144400Y0127812D01*
X0144400Y0126814D02*
X0144400Y0126814D01*
X0144400Y0125815D02*
X0144107Y0125815D01*
X0144400Y0124817D02*
X0143600Y0124817D01*
X0143600Y0123818D02*
X0144400Y0123818D01*
X0144400Y0122820D02*
X0143600Y0122820D01*
X0143600Y0121821D02*
X0144400Y0121821D01*
X0144400Y0120823D02*
X0143600Y0120823D01*
X0143600Y0119824D02*
X0144400Y0119824D01*
X0144400Y0118826D02*
X0143600Y0118826D01*
X0143600Y0117827D02*
X0144400Y0117827D01*
X0144400Y0116829D02*
X0143600Y0116829D01*
X0143600Y0115830D02*
X0144907Y0115830D01*
X0145905Y0114832D02*
X0143600Y0114832D01*
X0143600Y0113833D02*
X0146904Y0113833D01*
X0147902Y0112835D02*
X0143600Y0112835D01*
X0143600Y0111836D02*
X0148901Y0111836D01*
X0149900Y0110838D02*
X0144425Y0110838D01*
X0145423Y0109839D02*
X0150898Y0109839D01*
X0151897Y0108841D02*
X0146422Y0108841D01*
X0147421Y0107842D02*
X0156478Y0107842D01*
X0153304Y0109696D02*
X0146000Y0117000D01*
X0146000Y0146000D01*
X0144400Y0144787D02*
X0139476Y0144787D01*
X0140100Y0143789D02*
X0144400Y0143789D01*
X0144400Y0142790D02*
X0140100Y0142790D01*
X0140100Y0141792D02*
X0144400Y0141792D01*
X0144400Y0140793D02*
X0140100Y0140793D01*
X0140100Y0139795D02*
X0144400Y0139795D01*
X0144400Y0138796D02*
X0140100Y0138796D01*
X0140100Y0137798D02*
X0144400Y0137798D01*
X0144400Y0136799D02*
X0140100Y0136799D01*
X0140100Y0135801D02*
X0144400Y0135801D01*
X0144400Y0134802D02*
X0140100Y0134802D01*
X0140100Y0133803D02*
X0144400Y0133803D01*
X0144400Y0132805D02*
X0140100Y0132805D01*
X0140100Y0131806D02*
X0144400Y0131806D01*
X0144400Y0130808D02*
X0140100Y0130808D01*
X0140100Y0129809D02*
X0144400Y0129809D01*
X0144400Y0128811D02*
X0143583Y0128811D01*
X0140417Y0128811D02*
X0140100Y0128811D01*
X0136900Y0128811D02*
X0133952Y0128811D01*
X0134950Y0127812D02*
X0136900Y0127812D01*
X0136900Y0126814D02*
X0135949Y0126814D01*
X0136100Y0125815D02*
X0136900Y0125815D01*
X0136900Y0124817D02*
X0136100Y0124817D01*
X0136100Y0123818D02*
X0136900Y0123818D01*
X0136900Y0122820D02*
X0136100Y0122820D01*
X0136100Y0121821D02*
X0136900Y0121821D01*
X0136900Y0120823D02*
X0136100Y0120823D01*
X0136100Y0119824D02*
X0136900Y0119824D01*
X0136900Y0118826D02*
X0136100Y0118826D01*
X0136100Y0117827D02*
X0136900Y0117827D01*
X0136900Y0116829D02*
X0136100Y0116829D01*
X0136100Y0115830D02*
X0136900Y0115830D01*
X0136900Y0114832D02*
X0136100Y0114832D01*
X0136100Y0113833D02*
X0136900Y0113833D01*
X0136900Y0112835D02*
X0136100Y0112835D01*
X0136544Y0111836D02*
X0136900Y0111836D01*
X0136900Y0110838D02*
X0136900Y0110838D01*
X0136900Y0109839D02*
X0136824Y0109839D01*
X0136900Y0108841D02*
X0136235Y0108841D01*
X0134500Y0110500D02*
X0134500Y0126000D01*
X0119500Y0141000D01*
X0117896Y0142790D02*
X0117600Y0142790D01*
X0117600Y0143789D02*
X0135949Y0143789D01*
X0136900Y0142790D02*
X0121104Y0142790D01*
X0121770Y0141792D02*
X0136900Y0141792D01*
X0136900Y0140793D02*
X0121970Y0140793D01*
X0122968Y0139795D02*
X0136900Y0139795D01*
X0136900Y0138796D02*
X0123967Y0138796D01*
X0124965Y0137798D02*
X0136900Y0137798D01*
X0136900Y0136799D02*
X0125964Y0136799D01*
X0126962Y0135801D02*
X0136900Y0135801D01*
X0136900Y0134802D02*
X0127961Y0134802D01*
X0128959Y0133803D02*
X0136900Y0133803D01*
X0136900Y0132805D02*
X0129958Y0132805D01*
X0130956Y0131806D02*
X0136900Y0131806D01*
X0136900Y0130808D02*
X0131955Y0130808D01*
X0132953Y0129809D02*
X0136900Y0129809D01*
X0132900Y0125337D02*
X0132900Y0112294D01*
X0132465Y0111859D01*
X0132100Y0110977D01*
X0132100Y0110023D01*
X0132465Y0109141D01*
X0132900Y0108706D01*
X0132900Y0100837D01*
X0133837Y0099900D01*
X0134866Y0098872D01*
X0134391Y0098872D01*
X0132600Y0100663D01*
X0131663Y0101600D01*
X0126663Y0101600D01*
X0121600Y0106663D01*
X0121600Y0113706D01*
X0122035Y0114141D01*
X0122400Y0115023D01*
X0122400Y0115977D01*
X0122035Y0116859D01*
X0121600Y0117294D01*
X0121600Y0136637D01*
X0132900Y0125337D01*
X0132900Y0124817D02*
X0121600Y0124817D01*
X0121600Y0125815D02*
X0132422Y0125815D01*
X0131423Y0126814D02*
X0121600Y0126814D01*
X0121600Y0127812D02*
X0130425Y0127812D01*
X0129426Y0128811D02*
X0121600Y0128811D01*
X0121600Y0129809D02*
X0128428Y0129809D01*
X0127429Y0130808D02*
X0121600Y0130808D01*
X0121600Y0131806D02*
X0126431Y0131806D01*
X0125432Y0132805D02*
X0121600Y0132805D01*
X0121600Y0133803D02*
X0124434Y0133803D01*
X0123435Y0134802D02*
X0121600Y0134802D01*
X0121600Y0135801D02*
X0122437Y0135801D01*
X0120000Y0136000D02*
X0116000Y0140000D01*
X0116000Y0152000D01*
X0118000Y0154000D01*
X0118904Y0151777D02*
X0127096Y0151777D01*
X0125910Y0152775D02*
X0120090Y0152775D01*
X0120400Y0153774D02*
X0125600Y0153774D01*
X0125722Y0154772D02*
X0120278Y0154772D01*
X0119623Y0155771D02*
X0126377Y0155771D01*
X0128959Y0150778D02*
X0117600Y0150778D01*
X0117600Y0149780D02*
X0129958Y0149780D01*
X0130956Y0148781D02*
X0117600Y0148781D01*
X0117600Y0147783D02*
X0131955Y0147783D01*
X0132953Y0146784D02*
X0117600Y0146784D01*
X0117600Y0145786D02*
X0133952Y0145786D01*
X0134950Y0144787D02*
X0117600Y0144787D01*
X0114400Y0144787D02*
X0111100Y0144787D01*
X0111100Y0143789D02*
X0114400Y0143789D01*
X0114400Y0142790D02*
X0111100Y0142790D01*
X0113603Y0141792D02*
X0114400Y0141792D01*
X0114400Y0140793D02*
X0114269Y0140793D01*
X0114400Y0139863D02*
X0114400Y0139863D01*
X0112000Y0140000D02*
X0117000Y0135000D01*
X0117000Y0112000D01*
X0117000Y0104000D01*
X0122500Y0098500D01*
X0126181Y0094819D01*
X0129906Y0094819D01*
X0127321Y0093219D02*
X0127321Y0091410D01*
X0127966Y0090766D01*
X0131845Y0090766D01*
X0131874Y0090795D01*
X0131903Y0090766D01*
X0131927Y0090766D01*
X0131600Y0089977D01*
X0131600Y0089023D01*
X0131965Y0088141D01*
X0132641Y0087465D01*
X0133523Y0087100D01*
X0134477Y0087100D01*
X0135359Y0087465D01*
X0136035Y0088141D01*
X0136400Y0089023D01*
X0136400Y0089977D01*
X0136073Y0090766D01*
X0139719Y0090766D01*
X0139748Y0090795D01*
X0139777Y0090766D01*
X0143656Y0090766D01*
X0143685Y0090795D01*
X0143714Y0090766D01*
X0147593Y0090766D01*
X0147622Y0090795D01*
X0147651Y0090766D01*
X0151530Y0090766D01*
X0151559Y0090795D01*
X0151588Y0090766D01*
X0155467Y0090766D01*
X0156112Y0091410D01*
X0156112Y0098227D01*
X0155467Y0098872D01*
X0151588Y0098872D01*
X0151559Y0098843D01*
X0151530Y0098872D01*
X0147651Y0098872D01*
X0147622Y0098843D01*
X0147593Y0098872D01*
X0143714Y0098872D01*
X0143685Y0098843D01*
X0143656Y0098872D01*
X0139777Y0098872D01*
X0139748Y0098843D01*
X0139719Y0098872D01*
X0139380Y0098872D01*
X0139380Y0098883D01*
X0136100Y0102163D01*
X0136100Y0105006D01*
X0136641Y0104465D01*
X0137523Y0104100D01*
X0138477Y0104100D01*
X0138590Y0104147D01*
X0142515Y0100222D01*
X0156478Y0100222D01*
X0156478Y0099883D01*
X0157123Y0099238D01*
X0163939Y0099238D01*
X0164584Y0099883D01*
X0164584Y0103762D01*
X0164555Y0103791D01*
X0164584Y0103820D01*
X0164584Y0107699D01*
X0164555Y0107728D01*
X0164584Y0107757D01*
X0164584Y0108096D01*
X0165509Y0108096D01*
X0165641Y0107965D01*
X0166523Y0107600D01*
X0167477Y0107600D01*
X0168359Y0107965D01*
X0168400Y0108006D01*
X0168400Y0101561D01*
X0168337Y0101482D01*
X0168400Y0100911D01*
X0168400Y0100337D01*
X0168472Y0100265D01*
X0168483Y0100165D01*
X0168931Y0099806D01*
X0169337Y0099400D01*
X0169439Y0099400D01*
X0173931Y0095806D01*
X0174337Y0095400D01*
X0174439Y0095400D01*
X0174518Y0095337D01*
X0175089Y0095400D01*
X0189731Y0095400D01*
X0192900Y0091439D01*
X0192900Y0071635D01*
X0179257Y0071635D01*
X0178613Y0070991D01*
X0178613Y0063900D01*
X0178523Y0063900D01*
X0177641Y0063535D01*
X0177206Y0063100D01*
X0169556Y0063100D01*
X0172649Y0066386D01*
X0173100Y0066837D01*
X0173100Y0066865D01*
X0173119Y0066886D01*
X0173100Y0067524D01*
X0173100Y0078389D01*
X0176868Y0082605D01*
X0181618Y0087355D01*
X0184411Y0087355D01*
X0184845Y0086920D01*
X0185728Y0086555D01*
X0186682Y0086555D01*
X0187564Y0086920D01*
X0188240Y0087595D01*
X0188605Y0088478D01*
X0188605Y0089432D01*
X0188240Y0090314D01*
X0187564Y0090990D01*
X0186682Y0091355D01*
X0185728Y0091355D01*
X0184845Y0090990D01*
X0184411Y0090555D01*
X0180292Y0090555D01*
X0175006Y0085268D01*
X0174954Y0085265D01*
X0174542Y0084805D01*
X0174105Y0084368D01*
X0174105Y0084316D01*
X0170337Y0080100D01*
X0169900Y0079663D01*
X0169900Y0079611D01*
X0169865Y0079572D01*
X0169900Y0078955D01*
X0169900Y0068135D01*
X0168382Y0066521D01*
X0168035Y0067359D01*
X0167394Y0068000D01*
X0168035Y0068641D01*
X0168400Y0069523D01*
X0168400Y0070477D01*
X0168035Y0071359D01*
X0167359Y0072035D01*
X0166477Y0072400D01*
X0165663Y0072400D01*
X0165863Y0072600D01*
X0166477Y0072600D01*
X0167359Y0072965D01*
X0168035Y0073641D01*
X0168400Y0074523D01*
X0168400Y0075477D01*
X0168035Y0076359D01*
X0167359Y0077035D01*
X0166477Y0077400D01*
X0165523Y0077400D01*
X0164641Y0077035D01*
X0163965Y0076359D01*
X0163600Y0075477D01*
X0163600Y0075100D01*
X0159794Y0075100D01*
X0159359Y0075535D01*
X0158477Y0075900D01*
X0157523Y0075900D01*
X0156641Y0075535D01*
X0155965Y0074859D01*
X0155600Y0073977D01*
X0155600Y0073023D01*
X0155965Y0072141D01*
X0156356Y0071750D01*
X0156206Y0071600D01*
X0149663Y0071600D01*
X0143400Y0077863D01*
X0143400Y0078477D01*
X0143035Y0079359D01*
X0142359Y0080035D01*
X0141477Y0080400D01*
X0140523Y0080400D01*
X0139641Y0080035D01*
X0138965Y0079359D01*
X0138600Y0078477D01*
X0138600Y0077523D01*
X0138687Y0077313D01*
X0138477Y0077400D01*
X0137523Y0077400D01*
X0136641Y0077035D01*
X0135965Y0076359D01*
X0135600Y0075477D01*
X0135600Y0074523D01*
X0135965Y0073641D01*
X0136641Y0072965D01*
X0137523Y0072600D01*
X0138137Y0072600D01*
X0145400Y0065337D01*
X0146337Y0064400D01*
X0149137Y0064400D01*
X0148650Y0063913D01*
X0137137Y0052400D01*
X0136523Y0052400D01*
X0135641Y0052035D01*
X0134965Y0051359D01*
X0134600Y0050477D01*
X0134600Y0049523D01*
X0134965Y0048641D01*
X0135641Y0047965D01*
X0136523Y0047600D01*
X0137337Y0047600D01*
X0131663Y0047600D01*
X0129400Y0049863D01*
X0129400Y0050477D01*
X0129035Y0051359D01*
X0128359Y0052035D01*
X0127477Y0052400D01*
X0126523Y0052400D01*
X0125641Y0052035D01*
X0125000Y0051394D01*
X0124900Y0051494D01*
X0124900Y0067906D01*
X0124968Y0068596D01*
X0124900Y0068679D01*
X0124900Y0068787D01*
X0124410Y0069277D01*
X0122496Y0071611D01*
X0122523Y0071600D01*
X0123477Y0071600D01*
X0124359Y0071965D01*
X0125035Y0072641D01*
X0125400Y0073523D01*
X0125400Y0074477D01*
X0125035Y0075359D01*
X0124600Y0075794D01*
X0124600Y0078663D01*
X0121100Y0082163D01*
X0120163Y0083100D01*
X0118153Y0083100D01*
X0118135Y0083118D01*
X0118035Y0083359D01*
X0117994Y0083400D01*
X0134206Y0083400D01*
X0134641Y0082965D01*
X0135523Y0082600D01*
X0136477Y0082600D01*
X0137359Y0082965D01*
X0137794Y0083400D01*
X0147337Y0083400D01*
X0150600Y0080137D01*
X0150600Y0079523D01*
X0150965Y0078641D01*
X0151641Y0077965D01*
X0152523Y0077600D01*
X0153477Y0077600D01*
X0154359Y0077965D01*
X0155035Y0078641D01*
X0155400Y0079523D01*
X0155400Y0080477D01*
X0155035Y0081359D01*
X0154359Y0082035D01*
X0153477Y0082400D01*
X0152863Y0082400D01*
X0148663Y0086600D01*
X0137794Y0086600D01*
X0137359Y0087035D01*
X0136477Y0087400D01*
X0135523Y0087400D01*
X0134641Y0087035D01*
X0134206Y0086600D01*
X0117994Y0086600D01*
X0118035Y0086641D01*
X0118400Y0087523D01*
X0118400Y0088477D01*
X0118035Y0089359D01*
X0117359Y0090035D01*
X0116477Y0090400D01*
X0115863Y0090400D01*
X0115757Y0090505D01*
X0115757Y0090766D01*
X0116097Y0090766D01*
X0116126Y0090795D01*
X0116155Y0090766D01*
X0120034Y0090766D01*
X0120679Y0091410D01*
X0120679Y0096927D01*
X0121141Y0096465D01*
X0122023Y0096100D01*
X0122637Y0096100D01*
X0125518Y0093219D01*
X0127321Y0093219D01*
X0127321Y0092865D02*
X0120679Y0092865D01*
X0120679Y0093863D02*
X0124874Y0093863D01*
X0123876Y0094862D02*
X0120679Y0094862D01*
X0120679Y0095860D02*
X0122877Y0095860D01*
X0120747Y0096859D02*
X0120679Y0096859D01*
X0118094Y0097906D02*
X0115500Y0100500D01*
X0113000Y0103000D01*
X0113000Y0135500D01*
X0109500Y0139000D01*
X0109500Y0152500D01*
X0108000Y0154000D01*
X0107096Y0151777D02*
X0102486Y0151777D01*
X0103100Y0150778D02*
X0107900Y0150778D01*
X0107900Y0149780D02*
X0103100Y0149780D01*
X0103100Y0148781D02*
X0107900Y0148781D01*
X0107900Y0147783D02*
X0103100Y0147783D01*
X0103100Y0146784D02*
X0107900Y0146784D01*
X0107900Y0145786D02*
X0103100Y0145786D01*
X0103100Y0144787D02*
X0107900Y0144787D01*
X0107900Y0143789D02*
X0103100Y0143789D01*
X0103100Y0142790D02*
X0107900Y0142790D01*
X0107900Y0141792D02*
X0106103Y0141792D01*
X0106769Y0140793D02*
X0107900Y0140793D01*
X0107900Y0139795D02*
X0106900Y0139795D01*
X0106599Y0138796D02*
X0107900Y0138796D01*
X0108440Y0137798D02*
X0105454Y0137798D01*
X0105100Y0136799D02*
X0109438Y0136799D01*
X0110437Y0135801D02*
X0105100Y0135801D01*
X0105100Y0134802D02*
X0111400Y0134802D01*
X0111400Y0133803D02*
X0105100Y0133803D01*
X0105100Y0132805D02*
X0111400Y0132805D01*
X0111400Y0131806D02*
X0105100Y0131806D01*
X0105100Y0130808D02*
X0111400Y0130808D01*
X0111400Y0129809D02*
X0105100Y0129809D01*
X0105100Y0128811D02*
X0111400Y0128811D01*
X0111400Y0127812D02*
X0105100Y0127812D01*
X0105100Y0126814D02*
X0111400Y0126814D01*
X0111400Y0125815D02*
X0105100Y0125815D01*
X0105100Y0124817D02*
X0111400Y0124817D01*
X0111400Y0123818D02*
X0105100Y0123818D01*
X0105100Y0122820D02*
X0111400Y0122820D01*
X0111400Y0121821D02*
X0105100Y0121821D01*
X0105100Y0120823D02*
X0111400Y0120823D01*
X0111400Y0119824D02*
X0105100Y0119824D01*
X0105100Y0118826D02*
X0111400Y0118826D01*
X0111400Y0117827D02*
X0105100Y0117827D01*
X0105100Y0116829D02*
X0111400Y0116829D01*
X0111400Y0115830D02*
X0105100Y0115830D01*
X0105100Y0114832D02*
X0111400Y0114832D01*
X0111400Y0113833D02*
X0105100Y0113833D01*
X0105100Y0112835D02*
X0111400Y0112835D01*
X0111400Y0111836D02*
X0105100Y0111836D01*
X0105100Y0110838D02*
X0111400Y0110838D01*
X0111400Y0109839D02*
X0105100Y0109839D01*
X0105422Y0108841D02*
X0111400Y0108841D01*
X0111400Y0107842D02*
X0106421Y0107842D01*
X0107419Y0106844D02*
X0111400Y0106844D01*
X0111400Y0105845D02*
X0108418Y0105845D01*
X0109416Y0104847D02*
X0111400Y0104847D01*
X0111400Y0103848D02*
X0110415Y0103848D01*
X0112000Y0100000D02*
X0103500Y0108500D01*
X0103500Y0139000D01*
X0104500Y0140000D01*
X0099900Y0144787D02*
X0099476Y0144787D01*
X0099900Y0145786D02*
X0098477Y0145786D01*
X0097479Y0146784D02*
X0099900Y0146784D01*
X0099900Y0147783D02*
X0096480Y0147783D01*
X0095482Y0148781D02*
X0099900Y0148781D01*
X0099900Y0149780D02*
X0094483Y0149780D01*
X0093485Y0150778D02*
X0098959Y0150778D01*
X0097096Y0151777D02*
X0092486Y0151777D01*
X0091488Y0152775D02*
X0095910Y0152775D01*
X0095600Y0153774D02*
X0090489Y0153774D01*
X0090278Y0154772D02*
X0095722Y0154772D01*
X0096377Y0155771D02*
X0089623Y0155771D01*
X0088000Y0154000D02*
X0099000Y0143000D01*
X0099000Y0127000D01*
X0099000Y0105000D01*
X0106283Y0097717D01*
X0106283Y0094819D01*
X0102346Y0094819D02*
X0102346Y0097654D01*
X0096500Y0103500D01*
X0096500Y0124000D01*
X0096500Y0140000D01*
X0095500Y0141000D01*
X0093896Y0142790D02*
X0090973Y0142790D01*
X0091971Y0141792D02*
X0093230Y0141792D01*
X0093100Y0140793D02*
X0092970Y0140793D01*
X0090637Y0138600D02*
X0081877Y0138600D01*
X0082500Y0140105D01*
X0082500Y0141895D01*
X0081923Y0143288D01*
X0081945Y0143297D01*
X0082444Y0143631D01*
X0082869Y0144056D01*
X0083203Y0144555D01*
X0083433Y0145110D01*
X0083548Y0145689D01*
X0090637Y0138600D01*
X0090441Y0138796D02*
X0081958Y0138796D01*
X0082371Y0139795D02*
X0089443Y0139795D01*
X0088444Y0140793D02*
X0082500Y0140793D01*
X0082500Y0141792D02*
X0087446Y0141792D01*
X0086447Y0142790D02*
X0082129Y0142790D01*
X0082602Y0143789D02*
X0085449Y0143789D01*
X0084450Y0144787D02*
X0083299Y0144787D01*
X0083512Y0145725D02*
X0080775Y0145725D01*
X0080775Y0146275D01*
X0082962Y0146275D01*
X0083512Y0145725D01*
X0083452Y0145786D02*
X0080775Y0145786D01*
X0081000Y0146000D02*
X0084000Y0143000D01*
X0081000Y0146000D02*
X0080500Y0146000D01*
X0080500Y0151000D02*
X0094000Y0137500D01*
X0094000Y0102000D01*
X0098409Y0097591D01*
X0098409Y0094819D01*
X0094472Y0094819D02*
X0094472Y0097528D01*
X0092000Y0100000D01*
X0092000Y0135000D01*
X0090000Y0137000D01*
X0073000Y0137000D01*
X0069000Y0141000D01*
X0069000Y0144500D01*
X0075500Y0151000D01*
X0072000Y0154000D02*
X0074000Y0156000D01*
X0075500Y0156000D01*
X0082472Y0152775D02*
X0085910Y0152775D01*
X0087096Y0151777D02*
X0083047Y0151777D01*
X0083150Y0150778D02*
X0088959Y0150778D01*
X0089958Y0149780D02*
X0083983Y0149780D01*
X0084982Y0148781D02*
X0090956Y0148781D01*
X0091955Y0147783D02*
X0085980Y0147783D01*
X0086979Y0146784D02*
X0092953Y0146784D01*
X0093952Y0145786D02*
X0087977Y0145786D01*
X0088976Y0144787D02*
X0094950Y0144787D01*
X0095949Y0143789D02*
X0089974Y0143789D01*
X0083129Y0135400D02*
X0083118Y0135382D01*
X0083016Y0135000D01*
X0083016Y0133561D01*
X0087227Y0133561D01*
X0087227Y0133076D01*
X0083016Y0133076D01*
X0083016Y0131637D01*
X0083118Y0131255D01*
X0083316Y0130913D01*
X0083416Y0130813D01*
X0083416Y0127442D01*
X0083445Y0127413D01*
X0083416Y0127384D01*
X0083416Y0127044D01*
X0082218Y0127044D01*
X0073863Y0135400D01*
X0083129Y0135400D01*
X0083016Y0134802D02*
X0074461Y0134802D01*
X0075459Y0133803D02*
X0083016Y0133803D01*
X0083016Y0132805D02*
X0076458Y0132805D01*
X0077456Y0131806D02*
X0083016Y0131806D01*
X0083416Y0130808D02*
X0078455Y0130808D01*
X0079453Y0129809D02*
X0083416Y0129809D01*
X0083416Y0128811D02*
X0080452Y0128811D01*
X0081450Y0127812D02*
X0083416Y0127812D01*
X0081556Y0125444D02*
X0087469Y0125444D01*
X0081556Y0125444D02*
X0067000Y0140000D01*
X0067000Y0146000D01*
X0066400Y0147783D02*
X0065814Y0147783D01*
X0065943Y0148781D02*
X0066400Y0148781D01*
X0066400Y0149780D02*
X0053500Y0149780D01*
X0053500Y0150500D02*
X0066000Y0150500D01*
X0066000Y0150639D01*
X0065875Y0151910D01*
X0065626Y0153163D01*
X0065255Y0154385D01*
X0064766Y0155565D01*
X0064164Y0156691D01*
X0063454Y0157753D01*
X0062644Y0158741D01*
X0061741Y0159644D01*
X0060753Y0160454D01*
X0059691Y0161164D01*
X0058565Y0161766D01*
X0057385Y0162255D01*
X0056163Y0162626D01*
X0054910Y0162875D01*
X0053639Y0163000D01*
X0053500Y0163000D01*
X0053500Y0150500D01*
X0053500Y0150778D02*
X0052500Y0150778D01*
X0052500Y0149780D02*
X0038500Y0149780D01*
X0038500Y0148781D02*
X0040057Y0148781D01*
X0040000Y0149361D02*
X0040125Y0148090D01*
X0040374Y0146837D01*
X0040745Y0145615D01*
X0041234Y0144435D01*
X0041836Y0143309D01*
X0042546Y0142247D01*
X0043356Y0141259D01*
X0044259Y0140356D01*
X0045247Y0139546D01*
X0046309Y0138836D01*
X0047435Y0138234D01*
X0048615Y0137745D01*
X0049837Y0137374D01*
X0051090Y0137125D01*
X0052361Y0137000D01*
X0052500Y0137000D01*
X0052500Y0149500D01*
X0040000Y0149500D01*
X0040000Y0149361D01*
X0040014Y0150778D02*
X0038551Y0150778D01*
X0038616Y0151777D02*
X0040112Y0151777D01*
X0040297Y0152775D02*
X0038861Y0152775D01*
X0039128Y0153774D02*
X0040560Y0153774D01*
X0040906Y0154772D02*
X0039396Y0154772D01*
X0039732Y0155771D02*
X0041344Y0155771D01*
X0041888Y0156769D02*
X0040308Y0156769D01*
X0040885Y0157768D02*
X0042557Y0157768D01*
X0043382Y0158766D02*
X0041461Y0158766D01*
X0042434Y0159765D02*
X0044406Y0159765D01*
X0043433Y0160763D02*
X0045709Y0160763D01*
X0044620Y0161762D02*
X0047427Y0161762D01*
X0046350Y0162760D02*
X0050515Y0162760D01*
X0048804Y0163759D02*
X0067496Y0163759D01*
X0066498Y0162760D02*
X0055485Y0162760D01*
X0053500Y0162760D02*
X0052500Y0162760D01*
X0052500Y0161762D02*
X0053500Y0161762D01*
X0053500Y0160763D02*
X0052500Y0160763D01*
X0052500Y0159765D02*
X0053500Y0159765D01*
X0053500Y0158766D02*
X0052500Y0158766D01*
X0052500Y0157768D02*
X0053500Y0157768D01*
X0053500Y0156769D02*
X0052500Y0156769D01*
X0052500Y0155771D02*
X0053500Y0155771D01*
X0053500Y0154772D02*
X0052500Y0154772D01*
X0052500Y0153774D02*
X0053500Y0153774D01*
X0053500Y0152775D02*
X0052500Y0152775D01*
X0052500Y0151777D02*
X0053500Y0151777D01*
X0053500Y0148781D02*
X0052500Y0148781D01*
X0052500Y0147783D02*
X0053500Y0147783D01*
X0053500Y0146784D02*
X0052500Y0146784D01*
X0052500Y0145786D02*
X0053500Y0145786D01*
X0053500Y0144787D02*
X0052500Y0144787D01*
X0052500Y0143789D02*
X0053500Y0143789D01*
X0053500Y0142790D02*
X0052500Y0142790D01*
X0052500Y0141792D02*
X0053500Y0141792D01*
X0053500Y0140793D02*
X0052500Y0140793D01*
X0052500Y0139795D02*
X0053500Y0139795D01*
X0053500Y0138796D02*
X0052500Y0138796D01*
X0052500Y0137798D02*
X0053500Y0137798D01*
X0048489Y0137798D02*
X0038500Y0137798D01*
X0038500Y0138796D02*
X0046383Y0138796D01*
X0044943Y0139795D02*
X0038500Y0139795D01*
X0038500Y0140793D02*
X0043822Y0140793D01*
X0042919Y0141792D02*
X0038500Y0141792D01*
X0038500Y0142790D02*
X0042183Y0142790D01*
X0041580Y0143789D02*
X0038500Y0143789D01*
X0038500Y0144787D02*
X0041088Y0144787D01*
X0040693Y0145786D02*
X0038500Y0145786D01*
X0038500Y0146784D02*
X0040391Y0146784D01*
X0040186Y0147783D02*
X0038500Y0147783D01*
X0029109Y0157768D02*
X0027500Y0157768D01*
X0027500Y0158766D02*
X0029405Y0158766D01*
X0029700Y0159765D02*
X0027500Y0159765D01*
X0027500Y0160763D02*
X0029995Y0160763D01*
X0030218Y0161517D02*
X0028575Y0155960D01*
X0028513Y0153528D01*
X0028500Y0153497D01*
X0028500Y0153032D01*
X0028488Y0152567D01*
X0028500Y0152536D01*
X0028500Y0114859D01*
X0029490Y0112802D01*
X0030250Y0112197D01*
X0030250Y0111354D01*
X0030745Y0110159D01*
X0030779Y0110125D01*
X0030745Y0110091D01*
X0030250Y0108896D01*
X0030250Y0108000D01*
X0029894Y0108000D01*
X0029359Y0108535D01*
X0028477Y0108900D01*
X0027523Y0108900D01*
X0027500Y0108891D01*
X0027500Y0169379D01*
X0034621Y0176500D01*
X0060621Y0176500D01*
X0061500Y0177379D01*
X0065500Y0181379D01*
X0065500Y0186621D01*
X0064621Y0187500D01*
X0061960Y0190162D01*
X0064100Y0192302D01*
X0064100Y0195698D01*
X0061698Y0198100D01*
X0058302Y0198100D01*
X0055900Y0195698D01*
X0055900Y0192302D01*
X0058302Y0189900D01*
X0058500Y0189900D01*
X0058500Y0189379D01*
X0059779Y0188100D01*
X0058302Y0188100D01*
X0055900Y0185698D01*
X0055900Y0182302D01*
X0056040Y0182162D01*
X0055379Y0181500D01*
X0054100Y0181500D01*
X0054100Y0187456D01*
X0053456Y0188100D01*
X0048587Y0188100D01*
X0030900Y0205787D01*
X0030900Y0207647D01*
X0031300Y0208047D01*
X0031300Y0209953D01*
X0029953Y0211300D01*
X0028047Y0211300D01*
X0027647Y0210900D01*
X0026900Y0210900D01*
X0026900Y0218100D01*
X0040647Y0218100D01*
X0041047Y0217700D01*
X0042953Y0217700D01*
X0044300Y0219047D01*
X0044300Y0220953D01*
X0042953Y0222300D01*
X0041047Y0222300D01*
X0040647Y0221900D01*
X0023898Y0221900D01*
X0021698Y0224100D01*
X0018302Y0224100D01*
X0015900Y0221698D01*
X0015900Y0218302D01*
X0018302Y0215900D01*
X0021698Y0215900D01*
X0023100Y0217302D01*
X0023100Y0212698D01*
X0021698Y0214100D01*
X0018302Y0214100D01*
X0015900Y0211698D01*
X0015900Y0208302D01*
X0018040Y0206162D01*
X0017500Y0205621D01*
X0013838Y0201960D01*
X0011698Y0204100D01*
X0008302Y0204100D01*
X0006500Y0202298D01*
X0006500Y0207702D01*
X0008302Y0205900D01*
X0011698Y0205900D01*
X0014100Y0208302D01*
X0014100Y0211698D01*
X0012298Y0213500D01*
X0013247Y0213500D01*
X0014047Y0212700D01*
X0015953Y0212700D01*
X0017300Y0214047D01*
X0017300Y0215953D01*
X0015953Y0217300D01*
X0014047Y0217300D01*
X0013247Y0216500D01*
X0012298Y0216500D01*
X0014100Y0218302D01*
X0014100Y0221698D01*
X0011698Y0224100D01*
X0008302Y0224100D01*
X0005900Y0221698D01*
X0005900Y0218302D01*
X0007702Y0216500D01*
X0007379Y0216500D01*
X0006500Y0215621D01*
X0004500Y0213621D01*
X0004500Y0236500D01*
X0066429Y0236500D01*
X0066186Y0236257D01*
X0065724Y0235621D01*
X0065366Y0234919D01*
X0065123Y0234171D01*
X0065017Y0233500D01*
X0069500Y0233500D01*
X0069500Y0232500D01*
X0070500Y0232500D01*
X0070500Y0233500D01*
X0074983Y0233500D01*
X0074877Y0234171D01*
X0074634Y0234919D01*
X0074276Y0235621D01*
X0073814Y0236257D01*
X0073571Y0236500D01*
X0109500Y0236500D01*
X0109500Y0174500D01*
X0051032Y0174500D01*
X0048168Y0174573D01*
X0042534Y0173218D01*
X0037444Y0170450D01*
X0037444Y0170450D01*
X0033243Y0166459D01*
X0030218Y0161517D01*
X0030218Y0161517D01*
X0030368Y0161762D02*
X0027500Y0161762D01*
X0027500Y0162760D02*
X0030979Y0162760D01*
X0031590Y0163759D02*
X0027500Y0163759D01*
X0027500Y0164757D02*
X0032201Y0164757D01*
X0032812Y0165756D02*
X0027500Y0165756D01*
X0027500Y0166754D02*
X0033553Y0166754D01*
X0033243Y0166459D02*
X0033243Y0166459D01*
X0034604Y0167753D02*
X0027500Y0167753D01*
X0027500Y0168751D02*
X0035655Y0168751D01*
X0036707Y0169750D02*
X0027871Y0169750D01*
X0028870Y0170748D02*
X0037992Y0170748D01*
X0039829Y0171747D02*
X0029868Y0171747D01*
X0030867Y0172745D02*
X0041666Y0172745D01*
X0042534Y0173218D02*
X0042534Y0173218D01*
X0044721Y0173744D02*
X0031865Y0173744D01*
X0032864Y0174742D02*
X0109500Y0174742D01*
X0109500Y0175741D02*
X0033862Y0175741D01*
X0040389Y0181732D02*
X0045900Y0181732D01*
X0045900Y0181500D02*
X0040621Y0181500D01*
X0023960Y0198162D01*
X0024100Y0198302D01*
X0024100Y0201698D01*
X0023098Y0202700D01*
X0023953Y0202700D01*
X0025300Y0204047D01*
X0025300Y0205953D01*
X0023953Y0207300D01*
X0023098Y0207300D01*
X0024056Y0208257D01*
X0024213Y0208100D01*
X0025213Y0207100D01*
X0027100Y0207100D01*
X0027100Y0204213D01*
X0045900Y0185413D01*
X0045900Y0181500D01*
X0045900Y0182731D02*
X0039391Y0182731D01*
X0038392Y0183729D02*
X0045900Y0183729D01*
X0045900Y0184728D02*
X0037394Y0184728D01*
X0036395Y0185726D02*
X0045587Y0185726D01*
X0044588Y0186725D02*
X0035397Y0186725D01*
X0034398Y0187723D02*
X0043590Y0187723D01*
X0042591Y0188722D02*
X0033400Y0188722D01*
X0032401Y0189720D02*
X0041593Y0189720D01*
X0040594Y0190719D02*
X0031403Y0190719D01*
X0030404Y0191717D02*
X0039596Y0191717D01*
X0038597Y0192716D02*
X0029406Y0192716D01*
X0028407Y0193714D02*
X0037599Y0193714D01*
X0036600Y0194713D02*
X0027409Y0194713D01*
X0026410Y0195711D02*
X0035602Y0195711D01*
X0034603Y0196710D02*
X0025412Y0196710D01*
X0024413Y0197708D02*
X0033605Y0197708D01*
X0032606Y0198707D02*
X0024100Y0198707D01*
X0024100Y0199705D02*
X0031608Y0199705D01*
X0030609Y0200704D02*
X0024100Y0200704D01*
X0024096Y0201702D02*
X0029611Y0201702D01*
X0028612Y0202701D02*
X0023953Y0202701D01*
X0024952Y0203699D02*
X0027614Y0203699D01*
X0027100Y0204698D02*
X0025300Y0204698D01*
X0025300Y0205696D02*
X0027100Y0205696D01*
X0027100Y0206695D02*
X0024558Y0206695D01*
X0024620Y0207693D02*
X0023492Y0207693D01*
X0026900Y0211687D02*
X0065900Y0211687D01*
X0065900Y0211302D02*
X0068302Y0208900D01*
X0071413Y0208900D01*
X0078100Y0202213D01*
X0078100Y0197898D01*
X0075900Y0195698D01*
X0075900Y0192302D01*
X0078302Y0189900D01*
X0081698Y0189900D01*
X0084100Y0192302D01*
X0084100Y0195698D01*
X0081900Y0197898D01*
X0081900Y0203787D01*
X0074100Y0211587D01*
X0074100Y0214698D01*
X0071698Y0217100D01*
X0068302Y0217100D01*
X0065900Y0214698D01*
X0065900Y0211302D01*
X0066513Y0210689D02*
X0030564Y0210689D01*
X0031300Y0209690D02*
X0067511Y0209690D01*
X0065900Y0212686D02*
X0026900Y0212686D01*
X0026900Y0213684D02*
X0065900Y0213684D01*
X0065900Y0214683D02*
X0026900Y0214683D01*
X0026900Y0215681D02*
X0066883Y0215681D01*
X0067882Y0216680D02*
X0026900Y0216680D01*
X0026900Y0217678D02*
X0109500Y0217678D01*
X0109500Y0216680D02*
X0072118Y0216680D01*
X0073117Y0215681D02*
X0109500Y0215681D01*
X0109500Y0214683D02*
X0074100Y0214683D01*
X0074100Y0213684D02*
X0109500Y0213684D01*
X0109500Y0212686D02*
X0074100Y0212686D01*
X0074100Y0211687D02*
X0109500Y0211687D01*
X0109500Y0210689D02*
X0074998Y0210689D01*
X0075997Y0209690D02*
X0109500Y0209690D01*
X0109500Y0208692D02*
X0076995Y0208692D01*
X0077994Y0207693D02*
X0109500Y0207693D01*
X0109500Y0206695D02*
X0078992Y0206695D01*
X0079991Y0205696D02*
X0109500Y0205696D01*
X0109500Y0204698D02*
X0080989Y0204698D01*
X0081900Y0203699D02*
X0109500Y0203699D01*
X0109500Y0202701D02*
X0081900Y0202701D01*
X0081900Y0201702D02*
X0109500Y0201702D01*
X0109500Y0200704D02*
X0081900Y0200704D01*
X0081900Y0199705D02*
X0109500Y0199705D01*
X0109500Y0198707D02*
X0081900Y0198707D01*
X0082090Y0197708D02*
X0087910Y0197708D01*
X0088302Y0198100D02*
X0085900Y0195698D01*
X0085900Y0192302D01*
X0088302Y0189900D01*
X0091698Y0189900D01*
X0094100Y0192302D01*
X0094100Y0195698D01*
X0091698Y0198100D01*
X0088302Y0198100D01*
X0086911Y0196710D02*
X0083089Y0196710D01*
X0084087Y0195711D02*
X0085913Y0195711D01*
X0085900Y0194713D02*
X0084100Y0194713D01*
X0084100Y0193714D02*
X0085900Y0193714D01*
X0085900Y0192716D02*
X0084100Y0192716D01*
X0083515Y0191717D02*
X0086485Y0191717D01*
X0087483Y0190719D02*
X0082517Y0190719D01*
X0081698Y0188100D02*
X0078302Y0188100D01*
X0075900Y0185698D01*
X0075900Y0182302D01*
X0078302Y0179900D01*
X0081698Y0179900D01*
X0084100Y0182302D01*
X0084100Y0185698D01*
X0081698Y0188100D01*
X0082075Y0187723D02*
X0087359Y0187723D01*
X0088136Y0188500D02*
X0085500Y0185864D01*
X0085500Y0184500D01*
X0089500Y0184500D01*
X0089500Y0188500D01*
X0088136Y0188500D01*
X0089500Y0187723D02*
X0090500Y0187723D01*
X0090500Y0188500D02*
X0091864Y0188500D01*
X0094500Y0185864D01*
X0094500Y0184500D01*
X0090500Y0184500D01*
X0090500Y0183500D01*
X0094500Y0183500D01*
X0094500Y0182136D01*
X0091864Y0179500D01*
X0090500Y0179500D01*
X0090500Y0183500D01*
X0089500Y0183500D01*
X0089500Y0179500D01*
X0088136Y0179500D01*
X0085500Y0182136D01*
X0085500Y0183500D01*
X0089500Y0183500D01*
X0089500Y0184500D01*
X0090500Y0184500D01*
X0090500Y0188500D01*
X0090500Y0186725D02*
X0089500Y0186725D01*
X0089500Y0185726D02*
X0090500Y0185726D01*
X0090500Y0184728D02*
X0089500Y0184728D01*
X0089500Y0183729D02*
X0084100Y0183729D01*
X0084100Y0182731D02*
X0085500Y0182731D01*
X0085904Y0181732D02*
X0083530Y0181732D01*
X0082532Y0180734D02*
X0086903Y0180734D01*
X0087901Y0179735D02*
X0063856Y0179735D01*
X0062858Y0178737D02*
X0109500Y0178737D01*
X0109500Y0179735D02*
X0092099Y0179735D01*
X0093097Y0180734D02*
X0109500Y0180734D01*
X0109500Y0181732D02*
X0094096Y0181732D01*
X0094500Y0182731D02*
X0109500Y0182731D01*
X0109500Y0183729D02*
X0090500Y0183729D01*
X0090500Y0182731D02*
X0089500Y0182731D01*
X0089500Y0181732D02*
X0090500Y0181732D01*
X0090500Y0180734D02*
X0089500Y0180734D01*
X0089500Y0179735D02*
X0090500Y0179735D01*
X0094500Y0184728D02*
X0109500Y0184728D01*
X0109500Y0185726D02*
X0094500Y0185726D01*
X0093639Y0186725D02*
X0109500Y0186725D01*
X0109500Y0187723D02*
X0092641Y0187723D01*
X0092517Y0190719D02*
X0109500Y0190719D01*
X0109500Y0191717D02*
X0093515Y0191717D01*
X0094100Y0192716D02*
X0109500Y0192716D01*
X0109500Y0193714D02*
X0094100Y0193714D01*
X0094100Y0194713D02*
X0109500Y0194713D01*
X0109500Y0195711D02*
X0094087Y0195711D01*
X0093089Y0196710D02*
X0109500Y0196710D01*
X0109500Y0197708D02*
X0092090Y0197708D01*
X0086361Y0186725D02*
X0083074Y0186725D01*
X0084072Y0185726D02*
X0085500Y0185726D01*
X0085500Y0184728D02*
X0084100Y0184728D01*
X0077925Y0187723D02*
X0072075Y0187723D01*
X0071698Y0188100D02*
X0068302Y0188100D01*
X0065900Y0185698D01*
X0065900Y0182302D01*
X0068302Y0179900D01*
X0071698Y0179900D01*
X0074100Y0182302D01*
X0074100Y0185698D01*
X0071698Y0188100D01*
X0071698Y0189900D02*
X0074100Y0192302D01*
X0074100Y0195698D01*
X0071698Y0198100D01*
X0068302Y0198100D01*
X0065900Y0195698D01*
X0065900Y0192302D01*
X0068302Y0189900D01*
X0071698Y0189900D01*
X0072517Y0190719D02*
X0077483Y0190719D01*
X0076485Y0191717D02*
X0073515Y0191717D01*
X0074100Y0192716D02*
X0075900Y0192716D01*
X0075900Y0193714D02*
X0074100Y0193714D01*
X0074100Y0194713D02*
X0075900Y0194713D01*
X0075913Y0195711D02*
X0074087Y0195711D01*
X0073089Y0196710D02*
X0076911Y0196710D01*
X0077910Y0197708D02*
X0072090Y0197708D01*
X0067910Y0197708D02*
X0062090Y0197708D01*
X0063089Y0196710D02*
X0066911Y0196710D01*
X0065913Y0195711D02*
X0064087Y0195711D01*
X0064100Y0194713D02*
X0065900Y0194713D01*
X0065900Y0193714D02*
X0064100Y0193714D01*
X0064100Y0192716D02*
X0065900Y0192716D01*
X0066485Y0191717D02*
X0063515Y0191717D01*
X0062517Y0190719D02*
X0067483Y0190719D01*
X0067925Y0187723D02*
X0064398Y0187723D01*
X0063400Y0188722D02*
X0109500Y0188722D01*
X0109500Y0189720D02*
X0062401Y0189720D01*
X0059157Y0188722D02*
X0047965Y0188722D01*
X0048302Y0189900D02*
X0051698Y0189900D01*
X0054100Y0192302D01*
X0054100Y0195698D01*
X0051698Y0198100D01*
X0048302Y0198100D01*
X0045900Y0195698D01*
X0045900Y0192302D01*
X0048302Y0189900D01*
X0047483Y0190719D02*
X0045968Y0190719D01*
X0046485Y0191717D02*
X0044970Y0191717D01*
X0045900Y0192716D02*
X0043971Y0192716D01*
X0042973Y0193714D02*
X0045900Y0193714D01*
X0045900Y0194713D02*
X0041974Y0194713D01*
X0040976Y0195711D02*
X0045913Y0195711D01*
X0046911Y0196710D02*
X0039977Y0196710D01*
X0038979Y0197708D02*
X0047910Y0197708D01*
X0052090Y0197708D02*
X0057910Y0197708D01*
X0056911Y0196710D02*
X0053089Y0196710D01*
X0054087Y0195711D02*
X0055913Y0195711D01*
X0055900Y0194713D02*
X0054100Y0194713D01*
X0054100Y0193714D02*
X0055900Y0193714D01*
X0055900Y0192716D02*
X0054100Y0192716D01*
X0053515Y0191717D02*
X0056485Y0191717D01*
X0057483Y0190719D02*
X0052517Y0190719D01*
X0053833Y0187723D02*
X0057925Y0187723D01*
X0056926Y0186725D02*
X0054100Y0186725D01*
X0054100Y0185726D02*
X0055928Y0185726D01*
X0055900Y0184728D02*
X0054100Y0184728D01*
X0054100Y0183729D02*
X0055900Y0183729D01*
X0055900Y0182731D02*
X0054100Y0182731D01*
X0054100Y0181732D02*
X0055611Y0181732D01*
X0060861Y0176739D02*
X0109500Y0176739D01*
X0109500Y0177738D02*
X0061859Y0177738D01*
X0064855Y0180734D02*
X0067468Y0180734D01*
X0066470Y0181732D02*
X0065500Y0181732D01*
X0065500Y0182731D02*
X0065900Y0182731D01*
X0065900Y0183729D02*
X0065500Y0183729D01*
X0065500Y0184728D02*
X0065900Y0184728D01*
X0065928Y0185726D02*
X0065500Y0185726D01*
X0065397Y0186725D02*
X0066926Y0186725D01*
X0073074Y0186725D02*
X0076926Y0186725D01*
X0075928Y0185726D02*
X0074072Y0185726D01*
X0074100Y0184728D02*
X0075900Y0184728D01*
X0075900Y0183729D02*
X0074100Y0183729D01*
X0074100Y0182731D02*
X0075900Y0182731D01*
X0076470Y0181732D02*
X0073530Y0181732D01*
X0072532Y0180734D02*
X0077468Y0180734D01*
X0078100Y0198707D02*
X0037980Y0198707D01*
X0036982Y0199705D02*
X0078100Y0199705D01*
X0078100Y0200704D02*
X0035983Y0200704D01*
X0034985Y0201702D02*
X0078100Y0201702D01*
X0077612Y0202701D02*
X0033986Y0202701D01*
X0032988Y0203699D02*
X0076614Y0203699D01*
X0075615Y0204698D02*
X0031989Y0204698D01*
X0030991Y0205696D02*
X0074617Y0205696D01*
X0073618Y0206695D02*
X0030900Y0206695D01*
X0030946Y0207693D02*
X0072620Y0207693D01*
X0071621Y0208692D02*
X0031300Y0208692D01*
X0023100Y0213684D02*
X0022114Y0213684D01*
X0023100Y0214683D02*
X0017300Y0214683D01*
X0017300Y0215681D02*
X0023100Y0215681D01*
X0023100Y0216680D02*
X0022478Y0216680D01*
X0017522Y0216680D02*
X0016573Y0216680D01*
X0016523Y0217678D02*
X0013477Y0217678D01*
X0013427Y0216680D02*
X0012478Y0216680D01*
X0014100Y0218677D02*
X0015900Y0218677D01*
X0015900Y0219675D02*
X0014100Y0219675D01*
X0014100Y0220674D02*
X0015900Y0220674D01*
X0015900Y0221672D02*
X0014100Y0221672D01*
X0013127Y0222671D02*
X0016873Y0222671D01*
X0017871Y0223670D02*
X0012129Y0223670D01*
X0011864Y0225500D02*
X0014500Y0228136D01*
X0014500Y0229500D01*
X0010500Y0229500D01*
X0010500Y0230500D01*
X0009500Y0230500D01*
X0009500Y0234500D01*
X0008136Y0234500D01*
X0005500Y0231864D01*
X0005500Y0230500D01*
X0009500Y0230500D01*
X0009500Y0229500D01*
X0005500Y0229500D01*
X0005500Y0228136D01*
X0008136Y0225500D01*
X0009500Y0225500D01*
X0009500Y0229500D01*
X0010500Y0229500D01*
X0010500Y0225500D01*
X0011864Y0225500D01*
X0012030Y0225667D02*
X0017970Y0225667D01*
X0018136Y0225500D02*
X0015500Y0228136D01*
X0015500Y0229500D01*
X0019500Y0229500D01*
X0019500Y0230500D01*
X0019500Y0234500D01*
X0018136Y0234500D01*
X0015500Y0231864D01*
X0015500Y0230500D01*
X0019500Y0230500D01*
X0020500Y0230500D01*
X0020500Y0234500D01*
X0021864Y0234500D01*
X0024500Y0231864D01*
X0024500Y0230500D01*
X0020500Y0230500D01*
X0020500Y0229500D01*
X0024500Y0229500D01*
X0024500Y0228136D01*
X0021864Y0225500D01*
X0020500Y0225500D01*
X0020500Y0229500D01*
X0019500Y0229500D01*
X0019500Y0225500D01*
X0018136Y0225500D01*
X0019500Y0225667D02*
X0020500Y0225667D01*
X0020500Y0226665D02*
X0019500Y0226665D01*
X0019500Y0227664D02*
X0020500Y0227664D01*
X0020500Y0228662D02*
X0019500Y0228662D01*
X0019500Y0229661D02*
X0010500Y0229661D01*
X0010500Y0230500D02*
X0014500Y0230500D01*
X0014500Y0231864D01*
X0011864Y0234500D01*
X0010500Y0234500D01*
X0010500Y0230500D01*
X0010500Y0230659D02*
X0009500Y0230659D01*
X0009500Y0229661D02*
X0004500Y0229661D01*
X0004500Y0230659D02*
X0005500Y0230659D01*
X0005500Y0231658D02*
X0004500Y0231658D01*
X0004500Y0232656D02*
X0006292Y0232656D01*
X0007291Y0233655D02*
X0004500Y0233655D01*
X0004500Y0234653D02*
X0065280Y0234653D01*
X0065041Y0233655D02*
X0022709Y0233655D01*
X0023708Y0232656D02*
X0069500Y0232656D01*
X0069500Y0232500D02*
X0065017Y0232500D01*
X0065123Y0231829D01*
X0065366Y0231081D01*
X0065724Y0230379D01*
X0066186Y0229743D01*
X0066743Y0229186D01*
X0067379Y0228724D01*
X0068081Y0228366D01*
X0068829Y0228123D01*
X0069500Y0228017D01*
X0069500Y0232500D01*
X0069500Y0231658D02*
X0070500Y0231658D01*
X0070500Y0232500D02*
X0070500Y0228017D01*
X0071171Y0228123D01*
X0071919Y0228366D01*
X0072621Y0228724D01*
X0073257Y0229186D01*
X0073814Y0229743D01*
X0074276Y0230379D01*
X0074634Y0231081D01*
X0074877Y0231829D01*
X0074983Y0232500D01*
X0070500Y0232500D01*
X0070500Y0232656D02*
X0109500Y0232656D01*
X0109500Y0231658D02*
X0074821Y0231658D01*
X0074419Y0230659D02*
X0109500Y0230659D01*
X0109500Y0229661D02*
X0073732Y0229661D01*
X0072500Y0228662D02*
X0109500Y0228662D01*
X0109500Y0227664D02*
X0024028Y0227664D01*
X0024500Y0228662D02*
X0067500Y0228662D01*
X0066268Y0229661D02*
X0020500Y0229661D01*
X0020500Y0230659D02*
X0019500Y0230659D01*
X0019500Y0231658D02*
X0020500Y0231658D01*
X0020500Y0232656D02*
X0019500Y0232656D01*
X0019500Y0233655D02*
X0020500Y0233655D01*
X0017291Y0233655D02*
X0012709Y0233655D01*
X0013708Y0232656D02*
X0016292Y0232656D01*
X0015500Y0231658D02*
X0014500Y0231658D01*
X0014500Y0230659D02*
X0015500Y0230659D01*
X0015500Y0228662D02*
X0014500Y0228662D01*
X0014028Y0227664D02*
X0015972Y0227664D01*
X0016971Y0226665D02*
X0013029Y0226665D01*
X0010500Y0226665D02*
X0009500Y0226665D01*
X0009500Y0225667D02*
X0010500Y0225667D01*
X0010500Y0227664D02*
X0009500Y0227664D01*
X0009500Y0228662D02*
X0010500Y0228662D01*
X0010500Y0231658D02*
X0009500Y0231658D01*
X0009500Y0232656D02*
X0010500Y0232656D01*
X0010500Y0233655D02*
X0009500Y0233655D01*
X0004500Y0235652D02*
X0065746Y0235652D01*
X0065179Y0231658D02*
X0024500Y0231658D01*
X0024500Y0230659D02*
X0065581Y0230659D01*
X0067394Y0226900D02*
X0066100Y0225606D01*
X0065400Y0223915D01*
X0065400Y0222085D01*
X0066100Y0220394D01*
X0067394Y0219100D01*
X0069085Y0218400D01*
X0070915Y0218400D01*
X0072606Y0219100D01*
X0073900Y0220394D01*
X0074600Y0222085D01*
X0074600Y0223915D01*
X0073900Y0225606D01*
X0072606Y0226900D01*
X0070915Y0227600D01*
X0069085Y0227600D01*
X0067394Y0226900D01*
X0067160Y0226665D02*
X0023029Y0226665D01*
X0022030Y0225667D02*
X0066161Y0225667D01*
X0065712Y0224668D02*
X0004500Y0224668D01*
X0004500Y0223670D02*
X0007871Y0223670D01*
X0006873Y0222671D02*
X0004500Y0222671D01*
X0004500Y0221672D02*
X0005900Y0221672D01*
X0005900Y0220674D02*
X0004500Y0220674D01*
X0004500Y0219675D02*
X0005900Y0219675D01*
X0005900Y0218677D02*
X0004500Y0218677D01*
X0004500Y0217678D02*
X0006523Y0217678D01*
X0007522Y0216680D02*
X0004500Y0216680D01*
X0004500Y0215681D02*
X0006560Y0215681D01*
X0005562Y0214683D02*
X0004500Y0214683D01*
X0004500Y0213684D02*
X0004563Y0213684D01*
X0006500Y0207693D02*
X0006508Y0207693D01*
X0006500Y0206695D02*
X0007507Y0206695D01*
X0006500Y0205696D02*
X0017575Y0205696D01*
X0017507Y0206695D02*
X0012493Y0206695D01*
X0013492Y0207693D02*
X0016508Y0207693D01*
X0015900Y0208692D02*
X0014100Y0208692D01*
X0014100Y0209690D02*
X0015900Y0209690D01*
X0015900Y0210689D02*
X0014100Y0210689D01*
X0014100Y0211687D02*
X0015900Y0211687D01*
X0016888Y0212686D02*
X0013112Y0212686D01*
X0016937Y0213684D02*
X0017886Y0213684D01*
X0016576Y0204698D02*
X0006500Y0204698D01*
X0006500Y0203699D02*
X0007901Y0203699D01*
X0006903Y0202701D02*
X0006500Y0202701D01*
X0012099Y0203699D02*
X0015578Y0203699D01*
X0014579Y0202701D02*
X0013097Y0202701D01*
X0023127Y0222671D02*
X0065400Y0222671D01*
X0065400Y0223670D02*
X0022129Y0223670D01*
X0007970Y0225667D02*
X0004500Y0225667D01*
X0004500Y0226665D02*
X0006971Y0226665D01*
X0005972Y0227664D02*
X0004500Y0227664D01*
X0004500Y0228662D02*
X0005500Y0228662D01*
X0043580Y0221672D02*
X0065571Y0221672D01*
X0065984Y0220674D02*
X0044300Y0220674D01*
X0044300Y0219675D02*
X0066819Y0219675D01*
X0068416Y0218677D02*
X0043930Y0218677D01*
X0046967Y0189720D02*
X0058500Y0189720D01*
X0048168Y0174573D02*
X0048168Y0174573D01*
X0058573Y0161762D02*
X0066400Y0161762D01*
X0066400Y0160763D02*
X0060291Y0160763D01*
X0061594Y0159765D02*
X0066400Y0159765D01*
X0066400Y0158766D02*
X0062618Y0158766D01*
X0063443Y0157768D02*
X0066400Y0157768D01*
X0066400Y0156769D02*
X0064112Y0156769D01*
X0064656Y0155771D02*
X0066400Y0155771D01*
X0066400Y0154772D02*
X0065094Y0154772D01*
X0065440Y0153774D02*
X0066400Y0153774D01*
X0066400Y0152775D02*
X0065703Y0152775D01*
X0065888Y0151777D02*
X0066400Y0151777D01*
X0066400Y0150778D02*
X0065986Y0150778D01*
X0085605Y0163759D02*
X0184196Y0163759D01*
X0182485Y0162760D02*
X0186650Y0162760D01*
X0185573Y0161762D02*
X0188380Y0161762D01*
X0187291Y0160763D02*
X0189567Y0160763D01*
X0188594Y0159765D02*
X0190566Y0159765D01*
X0189618Y0158766D02*
X0191539Y0158766D01*
X0192115Y0157768D02*
X0190443Y0157768D01*
X0191112Y0156769D02*
X0192692Y0156769D01*
X0193268Y0155771D02*
X0191656Y0155771D01*
X0192094Y0154772D02*
X0193604Y0154772D01*
X0193872Y0153774D02*
X0192440Y0153774D01*
X0192703Y0152775D02*
X0194139Y0152775D01*
X0194384Y0151777D02*
X0192888Y0151777D01*
X0192986Y0150778D02*
X0194449Y0150778D01*
X0194500Y0133803D02*
X0178883Y0133803D01*
X0179882Y0132805D02*
X0194500Y0132805D01*
X0194500Y0131806D02*
X0180881Y0131806D01*
X0181879Y0130808D02*
X0194500Y0130808D01*
X0194500Y0129809D02*
X0182878Y0129809D01*
X0183876Y0128811D02*
X0194500Y0128811D01*
X0194500Y0127812D02*
X0184875Y0127812D01*
X0185873Y0126814D02*
X0194500Y0126814D01*
X0194500Y0125815D02*
X0186872Y0125815D01*
X0187870Y0124817D02*
X0194500Y0124817D01*
X0194500Y0123818D02*
X0188869Y0123818D01*
X0189867Y0122820D02*
X0194500Y0122820D01*
X0194500Y0121821D02*
X0190866Y0121821D01*
X0191864Y0120823D02*
X0194500Y0120823D01*
X0194500Y0119824D02*
X0191900Y0119824D01*
X0191900Y0118826D02*
X0194500Y0118826D01*
X0194500Y0117827D02*
X0191900Y0117827D01*
X0191900Y0116829D02*
X0194500Y0116829D01*
X0194500Y0115830D02*
X0191900Y0115830D01*
X0191900Y0114832D02*
X0194500Y0114832D01*
X0194500Y0113833D02*
X0191900Y0113833D01*
X0191900Y0112835D02*
X0194500Y0112835D01*
X0194500Y0111836D02*
X0191900Y0111836D01*
X0191900Y0110838D02*
X0194500Y0110838D01*
X0194500Y0109839D02*
X0191900Y0109839D01*
X0191900Y0108841D02*
X0194500Y0108841D01*
X0194500Y0107842D02*
X0191900Y0107842D01*
X0191531Y0106844D02*
X0194500Y0106844D01*
X0194500Y0105845D02*
X0190532Y0105845D01*
X0189534Y0104847D02*
X0194500Y0104847D01*
X0194500Y0103848D02*
X0188535Y0103848D01*
X0187537Y0102850D02*
X0194500Y0102850D01*
X0194500Y0101851D02*
X0186538Y0101851D01*
X0185158Y0105845D02*
X0177152Y0105845D01*
X0172848Y0105845D02*
X0171600Y0105845D01*
X0171600Y0104847D02*
X0172116Y0104847D01*
X0171820Y0103848D02*
X0171600Y0103848D01*
X0171600Y0102850D02*
X0171828Y0102850D01*
X0171600Y0101851D02*
X0172242Y0101851D01*
X0172745Y0100853D02*
X0173151Y0100853D01*
X0173994Y0099854D02*
X0194500Y0099854D01*
X0194500Y0098856D02*
X0175242Y0098856D01*
X0175000Y0097000D02*
X0170000Y0101000D01*
X0170000Y0111000D01*
X0168367Y0113633D01*
X0160531Y0113633D01*
X0157367Y0113633D01*
X0154000Y0118000D01*
X0153304Y0109696D02*
X0160531Y0109696D01*
X0166696Y0109696D01*
X0167000Y0110000D01*
X0168062Y0107842D02*
X0168400Y0107842D01*
X0168400Y0106844D02*
X0164584Y0106844D01*
X0164584Y0107842D02*
X0165938Y0107842D01*
X0164584Y0105845D02*
X0168400Y0105845D01*
X0168400Y0104847D02*
X0164584Y0104847D01*
X0164584Y0103848D02*
X0168400Y0103848D01*
X0168400Y0102850D02*
X0164584Y0102850D01*
X0164584Y0101851D02*
X0168400Y0101851D01*
X0168400Y0100853D02*
X0164584Y0100853D01*
X0164555Y0099854D02*
X0168871Y0099854D01*
X0170119Y0098856D02*
X0155483Y0098856D01*
X0156112Y0097857D02*
X0171367Y0097857D01*
X0172616Y0096859D02*
X0156112Y0096859D01*
X0156112Y0095860D02*
X0173864Y0095860D01*
X0175000Y0097000D02*
X0190500Y0097000D01*
X0194500Y0092000D01*
X0194500Y0057000D01*
X0193000Y0055000D01*
X0190783Y0055920D02*
X0176088Y0055920D01*
X0176088Y0056918D02*
X0191524Y0056918D01*
X0192900Y0057917D02*
X0176088Y0057917D01*
X0176088Y0058915D02*
X0192900Y0058915D01*
X0192900Y0059914D02*
X0180808Y0059914D01*
X0181354Y0060912D02*
X0192900Y0060912D01*
X0192900Y0061911D02*
X0181400Y0061911D01*
X0180985Y0062909D02*
X0192900Y0062909D01*
X0190600Y0054921D02*
X0175496Y0054921D01*
X0175186Y0053531D02*
X0166417Y0053531D01*
X0166417Y0050547D01*
X0165449Y0050547D01*
X0165449Y0049579D01*
X0155378Y0049579D01*
X0155378Y0047897D01*
X0155480Y0047516D01*
X0155678Y0047173D01*
X0155957Y0046894D01*
X0156299Y0046697D01*
X0156680Y0046594D01*
X0165449Y0046594D01*
X0165449Y0049579D01*
X0166417Y0049579D01*
X0166417Y0046594D01*
X0175186Y0046594D01*
X0175567Y0046697D01*
X0175909Y0046894D01*
X0176188Y0047173D01*
X0176386Y0047516D01*
X0176488Y0047897D01*
X0176488Y0049579D01*
X0166417Y0049579D01*
X0166417Y0050547D01*
X0176488Y0050547D01*
X0176488Y0052229D01*
X0176386Y0052610D01*
X0176188Y0052953D01*
X0175909Y0053232D01*
X0175567Y0053429D01*
X0175186Y0053531D01*
X0176205Y0052924D02*
X0191740Y0052924D01*
X0190849Y0053923D02*
X0155768Y0053923D01*
X0155957Y0053232D02*
X0155678Y0052953D01*
X0155480Y0052610D01*
X0155378Y0052229D01*
X0155378Y0050547D01*
X0165449Y0050547D01*
X0165449Y0053531D01*
X0156680Y0053531D01*
X0156299Y0053429D01*
X0155957Y0053232D01*
X0155661Y0052924D02*
X0154829Y0052924D01*
X0155378Y0051926D02*
X0153889Y0051926D01*
X0152950Y0050927D02*
X0155378Y0050927D01*
X0155378Y0048930D02*
X0151071Y0048930D01*
X0152010Y0049929D02*
X0165449Y0049929D01*
X0166417Y0049929D02*
X0194500Y0049929D01*
X0194500Y0050927D02*
X0176488Y0050927D01*
X0176488Y0051926D02*
X0194500Y0051926D01*
X0194500Y0052924D02*
X0194260Y0052924D01*
X0194500Y0048930D02*
X0176488Y0048930D01*
X0176488Y0047932D02*
X0194500Y0047932D01*
X0194500Y0046933D02*
X0175948Y0046933D01*
X0178613Y0044219D02*
X0178613Y0037009D01*
X0179257Y0036365D01*
X0193554Y0036365D01*
X0194198Y0037009D01*
X0194198Y0044219D01*
X0193554Y0044864D01*
X0179257Y0044864D01*
X0178613Y0044219D01*
X0178613Y0043937D02*
X0146373Y0043937D01*
X0145433Y0042939D02*
X0178613Y0042939D01*
X0178613Y0041940D02*
X0144494Y0041940D01*
X0143554Y0040942D02*
X0178613Y0040942D01*
X0178613Y0039943D02*
X0142630Y0039943D01*
X0140216Y0042939D02*
X0089748Y0042939D01*
X0088750Y0043937D02*
X0141155Y0043937D01*
X0142095Y0044936D02*
X0139199Y0044936D01*
X0140197Y0045934D02*
X0143034Y0045934D01*
X0143974Y0046933D02*
X0141196Y0046933D01*
X0142194Y0047932D02*
X0144913Y0047932D01*
X0145853Y0048930D02*
X0143193Y0048930D01*
X0144191Y0049929D02*
X0146793Y0049929D01*
X0147732Y0050927D02*
X0145190Y0050927D01*
X0146188Y0051926D02*
X0148672Y0051926D01*
X0149611Y0052924D02*
X0147187Y0052924D01*
X0148185Y0053923D02*
X0150551Y0053923D01*
X0151490Y0054921D02*
X0149184Y0054921D01*
X0150182Y0055920D02*
X0152430Y0055920D01*
X0153369Y0056918D02*
X0151181Y0056918D01*
X0152179Y0057917D02*
X0154309Y0057917D01*
X0155228Y0058915D02*
X0153178Y0058915D01*
X0153500Y0061500D02*
X0138000Y0046000D01*
X0131000Y0046000D01*
X0127000Y0050000D01*
X0129214Y0050927D02*
X0134786Y0050927D01*
X0134600Y0049929D02*
X0129400Y0049929D01*
X0130333Y0048930D02*
X0134845Y0048930D01*
X0135722Y0047932D02*
X0131331Y0047932D01*
X0128803Y0045934D02*
X0086752Y0045934D01*
X0087751Y0044936D02*
X0129801Y0044936D01*
X0127804Y0046933D02*
X0085754Y0046933D01*
X0084755Y0047932D02*
X0121722Y0047932D01*
X0120845Y0048930D02*
X0084213Y0048930D01*
X0083466Y0049929D02*
X0120600Y0049929D01*
X0120786Y0050927D02*
X0081760Y0050927D01*
X0080761Y0051926D02*
X0121100Y0051926D01*
X0121100Y0052924D02*
X0079763Y0052924D01*
X0078764Y0053923D02*
X0121100Y0053923D01*
X0121100Y0054921D02*
X0062473Y0054921D01*
X0059527Y0054921D02*
X0044400Y0054921D01*
X0044151Y0053923D02*
X0058784Y0053923D01*
X0058600Y0052924D02*
X0043260Y0052924D01*
X0042000Y0055000D02*
X0046000Y0059000D01*
X0046000Y0071000D01*
X0045766Y0073000D02*
X0058000Y0073000D01*
X0060228Y0073893D02*
X0061752Y0073893D01*
X0061752Y0074891D02*
X0059503Y0074891D01*
X0059143Y0075890D02*
X0062179Y0075890D01*
X0061752Y0072894D02*
X0060400Y0072894D01*
X0060140Y0071896D02*
X0061752Y0071896D01*
X0061752Y0070897D02*
X0059195Y0070897D01*
X0059354Y0069899D02*
X0062390Y0069899D01*
X0065234Y0068000D02*
X0070234Y0073000D01*
X0074000Y0073000D01*
X0083000Y0082000D01*
X0083000Y0104500D01*
X0084259Y0105759D01*
X0087469Y0105759D01*
X0087469Y0101822D02*
X0086000Y0100354D01*
X0086000Y0098000D01*
X0088243Y0098856D02*
X0090882Y0098856D01*
X0091880Y0097857D02*
X0088400Y0097857D01*
X0088125Y0096859D02*
X0091888Y0096859D01*
X0091888Y0095860D02*
X0087105Y0095860D01*
X0084895Y0095860D02*
X0084600Y0095860D01*
X0084600Y0094862D02*
X0091888Y0094862D01*
X0091888Y0093863D02*
X0084600Y0093863D01*
X0084600Y0092865D02*
X0091888Y0092865D01*
X0091888Y0091866D02*
X0084600Y0091866D01*
X0084600Y0090868D02*
X0088473Y0090868D01*
X0087700Y0089869D02*
X0084600Y0089869D01*
X0084600Y0088870D02*
X0087600Y0088870D01*
X0087870Y0087872D02*
X0084600Y0087872D01*
X0084600Y0086873D02*
X0088862Y0086873D01*
X0089872Y0085875D02*
X0084600Y0085875D01*
X0084600Y0084876D02*
X0090871Y0084876D01*
X0091869Y0083878D02*
X0084600Y0083878D01*
X0084600Y0082879D02*
X0086382Y0082879D01*
X0085383Y0081881D02*
X0084600Y0081881D01*
X0084878Y0080882D02*
X0084145Y0080882D01*
X0084526Y0079884D02*
X0083147Y0079884D01*
X0082148Y0078885D02*
X0084526Y0078885D01*
X0084657Y0077887D02*
X0081150Y0077887D01*
X0080151Y0076888D02*
X0085071Y0076888D01*
X0085849Y0075890D02*
X0079153Y0075890D01*
X0078716Y0074891D02*
X0087310Y0074891D01*
X0087955Y0073759D02*
X0087207Y0073516D01*
X0086505Y0073158D01*
X0085869Y0072696D01*
X0085312Y0072139D01*
X0084850Y0071502D01*
X0084492Y0070801D01*
X0084249Y0070053D01*
X0084126Y0069275D01*
X0084126Y0068972D01*
X0089035Y0068972D01*
X0089035Y0068791D01*
X0084126Y0068791D01*
X0084126Y0068488D01*
X0084249Y0067711D01*
X0084492Y0066963D01*
X0084850Y0066261D01*
X0085312Y0065625D01*
X0085869Y0065068D01*
X0086505Y0064605D01*
X0087207Y0064248D01*
X0087955Y0064005D01*
X0088732Y0063882D01*
X0089035Y0063882D01*
X0089035Y0068791D01*
X0089217Y0068791D01*
X0089217Y0068972D01*
X0094126Y0068972D01*
X0094126Y0069275D01*
X0094003Y0070053D01*
X0093760Y0070801D01*
X0093402Y0071502D01*
X0092940Y0072139D01*
X0092383Y0072696D01*
X0091747Y0073158D01*
X0091045Y0073516D01*
X0090297Y0073759D01*
X0089519Y0073882D01*
X0089217Y0073882D01*
X0089217Y0068973D01*
X0089035Y0068973D01*
X0089035Y0073882D01*
X0088732Y0073882D01*
X0087955Y0073759D01*
X0089035Y0072894D02*
X0089217Y0072894D01*
X0089217Y0071896D02*
X0089035Y0071896D01*
X0089035Y0070897D02*
X0089217Y0070897D01*
X0089217Y0069899D02*
X0089035Y0069899D01*
X0089035Y0068900D02*
X0068397Y0068900D01*
X0067399Y0067902D02*
X0084219Y0067902D01*
X0084523Y0066903D02*
X0066400Y0066903D01*
X0065234Y0068000D02*
X0058000Y0068000D01*
X0056646Y0069899D02*
X0053610Y0069899D01*
X0054248Y0070897D02*
X0056805Y0070897D01*
X0055700Y0068900D02*
X0047600Y0068900D01*
X0047600Y0067902D02*
X0055700Y0067902D01*
X0055844Y0066903D02*
X0047600Y0066903D01*
X0047600Y0065905D02*
X0056843Y0065905D01*
X0059157Y0065905D02*
X0085109Y0065905D01*
X0086092Y0064906D02*
X0047600Y0064906D01*
X0047600Y0063908D02*
X0088569Y0063908D01*
X0089035Y0063908D02*
X0089217Y0063908D01*
X0089217Y0063882D02*
X0089519Y0063882D01*
X0090297Y0064005D01*
X0091045Y0064248D01*
X0091747Y0064605D01*
X0092383Y0065068D01*
X0092940Y0065625D01*
X0093402Y0066261D01*
X0093760Y0066963D01*
X0094003Y0067711D01*
X0094126Y0068488D01*
X0094126Y0068791D01*
X0089217Y0068791D01*
X0089217Y0063882D01*
X0089682Y0063908D02*
X0121100Y0063908D01*
X0121100Y0064906D02*
X0092160Y0064906D01*
X0093143Y0065905D02*
X0121100Y0065905D01*
X0121100Y0066903D02*
X0093729Y0066903D01*
X0094033Y0067902D02*
X0120623Y0067902D01*
X0119804Y0068900D02*
X0089217Y0068900D01*
X0089217Y0067902D02*
X0089035Y0067902D01*
X0089035Y0066903D02*
X0089217Y0066903D01*
X0089217Y0065905D02*
X0089035Y0065905D01*
X0089035Y0064906D02*
X0089217Y0064906D01*
X0094027Y0069899D02*
X0118986Y0069899D01*
X0118167Y0070897D02*
X0093711Y0070897D01*
X0093117Y0071896D02*
X0117348Y0071896D01*
X0116529Y0072894D02*
X0092110Y0072894D01*
X0090942Y0074891D02*
X0114891Y0074891D01*
X0115710Y0073893D02*
X0078716Y0073893D01*
X0078716Y0072894D02*
X0086142Y0072894D01*
X0085135Y0071896D02*
X0078716Y0071896D01*
X0078716Y0070897D02*
X0084541Y0070897D01*
X0084225Y0069899D02*
X0078078Y0069899D01*
X0075626Y0076888D02*
X0066385Y0076888D01*
X0067384Y0077887D02*
X0076624Y0077887D01*
X0077623Y0078885D02*
X0068382Y0078885D01*
X0069381Y0079884D02*
X0078621Y0079884D01*
X0078716Y0080882D02*
X0079620Y0080882D01*
X0078716Y0081881D02*
X0080618Y0081881D01*
X0081400Y0082879D02*
X0078716Y0082879D01*
X0079641Y0083878D02*
X0081400Y0083878D01*
X0081400Y0084876D02*
X0080639Y0084876D01*
X0081000Y0087500D02*
X0076500Y0083000D01*
X0070234Y0083000D01*
X0065234Y0078000D01*
X0058000Y0078000D01*
X0059369Y0079884D02*
X0064855Y0079884D01*
X0061752Y0080882D02*
X0059159Y0080882D01*
X0060134Y0081881D02*
X0061752Y0081881D01*
X0061752Y0082879D02*
X0060400Y0082879D01*
X0060234Y0083878D02*
X0061752Y0083878D01*
X0061752Y0084876D02*
X0059518Y0084876D01*
X0058000Y0083000D02*
X0045766Y0083000D01*
X0053836Y0085875D02*
X0062164Y0085875D01*
X0061752Y0090868D02*
X0054248Y0090868D01*
X0054248Y0091866D02*
X0061752Y0091866D01*
X0061752Y0092865D02*
X0054248Y0092865D01*
X0054248Y0093863D02*
X0061752Y0093863D01*
X0061752Y0094862D02*
X0059109Y0094862D01*
X0056891Y0094862D02*
X0054248Y0094862D01*
X0053851Y0095860D02*
X0055874Y0095860D01*
X0058000Y0097000D02*
X0066234Y0097000D01*
X0070234Y0093000D01*
X0074000Y0093000D01*
X0074000Y0093500D01*
X0079000Y0098500D01*
X0079000Y0107500D01*
X0085133Y0113633D01*
X0087469Y0113633D01*
X0087469Y0109696D02*
X0085196Y0109696D01*
X0081000Y0105500D01*
X0081000Y0087500D01*
X0079400Y0090868D02*
X0078716Y0090868D01*
X0078716Y0091866D02*
X0079400Y0091866D01*
X0079400Y0092865D02*
X0078716Y0092865D01*
X0078716Y0093863D02*
X0079400Y0093863D01*
X0079400Y0094862D02*
X0078716Y0094862D01*
X0078623Y0095860D02*
X0079400Y0095860D01*
X0077093Y0098856D02*
X0059538Y0098856D01*
X0059087Y0100853D02*
X0061752Y0100853D01*
X0061752Y0101851D02*
X0060122Y0101851D01*
X0060400Y0102850D02*
X0061752Y0102850D01*
X0061752Y0103848D02*
X0060246Y0103848D01*
X0059547Y0104847D02*
X0061752Y0104847D01*
X0067655Y0107842D02*
X0074079Y0107842D01*
X0073081Y0106844D02*
X0068653Y0106844D01*
X0067640Y0097857D02*
X0076094Y0097857D01*
X0075096Y0096859D02*
X0068638Y0096859D01*
X0077400Y0099854D02*
X0036440Y0099854D01*
X0036750Y0100853D02*
X0037284Y0100853D01*
X0037284Y0101851D02*
X0036750Y0101851D01*
X0036355Y0102850D02*
X0037284Y0102850D01*
X0037284Y0103848D02*
X0036644Y0103848D01*
X0036750Y0104847D02*
X0037284Y0104847D01*
X0045266Y0109839D02*
X0046266Y0109839D01*
X0046266Y0110838D02*
X0045266Y0110838D01*
X0045266Y0111836D02*
X0046266Y0111836D01*
X0046266Y0113833D02*
X0045266Y0113833D01*
X0045266Y0114832D02*
X0046266Y0114832D01*
X0046266Y0115830D02*
X0045266Y0115830D01*
X0054405Y0115830D02*
X0055887Y0115830D01*
X0056963Y0114832D02*
X0054648Y0114832D01*
X0067670Y0117827D02*
X0078565Y0117827D01*
X0077566Y0116829D02*
X0068668Y0116829D01*
X0091527Y0090868D02*
X0092431Y0090868D01*
X0092384Y0089869D02*
X0108620Y0089869D01*
X0108620Y0088870D02*
X0093382Y0088870D01*
X0094381Y0087872D02*
X0108865Y0087872D01*
X0109864Y0086873D02*
X0095379Y0086873D01*
X0096378Y0085875D02*
X0110862Y0085875D01*
X0111861Y0084876D02*
X0097376Y0084876D01*
X0093866Y0081881D02*
X0092869Y0081881D01*
X0092868Y0082879D02*
X0091870Y0082879D01*
X0093181Y0076888D02*
X0113253Y0076888D01*
X0114072Y0075890D02*
X0092403Y0075890D01*
X0110220Y0088780D02*
X0114000Y0085000D01*
X0136000Y0085000D01*
X0148000Y0085000D01*
X0153000Y0080000D01*
X0150600Y0079884D02*
X0142510Y0079884D01*
X0143231Y0078885D02*
X0150864Y0078885D01*
X0151830Y0077887D02*
X0143400Y0077887D01*
X0144374Y0076888D02*
X0164494Y0076888D01*
X0163771Y0075890D02*
X0158502Y0075890D01*
X0157498Y0075890D02*
X0145373Y0075890D01*
X0146371Y0074891D02*
X0155997Y0074891D01*
X0155600Y0073893D02*
X0147370Y0073893D01*
X0148368Y0072894D02*
X0155653Y0072894D01*
X0156210Y0071896D02*
X0149367Y0071896D01*
X0149000Y0070000D02*
X0158000Y0070000D01*
X0166000Y0070000D01*
X0168226Y0070897D02*
X0169900Y0070897D01*
X0169900Y0069899D02*
X0168400Y0069899D01*
X0168142Y0068900D02*
X0169900Y0068900D01*
X0169681Y0067902D02*
X0167492Y0067902D01*
X0168224Y0066903D02*
X0168741Y0066903D01*
X0171500Y0067500D02*
X0167500Y0063250D01*
X0150250Y0063250D01*
X0137000Y0050000D01*
X0135531Y0051926D02*
X0128469Y0051926D01*
X0125531Y0051926D02*
X0124900Y0051926D01*
X0124900Y0052924D02*
X0137661Y0052924D01*
X0138660Y0053923D02*
X0124900Y0053923D01*
X0124900Y0054921D02*
X0139658Y0054921D01*
X0140657Y0055920D02*
X0124900Y0055920D01*
X0124900Y0056918D02*
X0141655Y0056918D01*
X0142654Y0057917D02*
X0124900Y0057917D01*
X0124900Y0058915D02*
X0143652Y0058915D01*
X0144651Y0059914D02*
X0124900Y0059914D01*
X0124900Y0060912D02*
X0145649Y0060912D01*
X0146648Y0061911D02*
X0124900Y0061911D01*
X0124900Y0062909D02*
X0147646Y0062909D01*
X0148645Y0063908D02*
X0124900Y0063908D01*
X0124900Y0064906D02*
X0145831Y0064906D01*
X0144833Y0065905D02*
X0124900Y0065905D01*
X0124900Y0066903D02*
X0143834Y0066903D01*
X0142836Y0067902D02*
X0124900Y0067902D01*
X0124787Y0068900D02*
X0141837Y0068900D01*
X0140838Y0069899D02*
X0123900Y0069899D01*
X0123081Y0070897D02*
X0139840Y0070897D01*
X0138841Y0071896D02*
X0124191Y0071896D01*
X0125140Y0072894D02*
X0136812Y0072894D01*
X0135861Y0073893D02*
X0125400Y0073893D01*
X0125229Y0074891D02*
X0135600Y0074891D01*
X0135771Y0075890D02*
X0124600Y0075890D01*
X0124600Y0076888D02*
X0136494Y0076888D01*
X0138600Y0077887D02*
X0124600Y0077887D01*
X0124377Y0078885D02*
X0138769Y0078885D01*
X0139490Y0079884D02*
X0123379Y0079884D01*
X0122380Y0080882D02*
X0149855Y0080882D01*
X0148856Y0081881D02*
X0121382Y0081881D01*
X0120383Y0082879D02*
X0134848Y0082879D01*
X0137152Y0082879D02*
X0147858Y0082879D01*
X0150386Y0084876D02*
X0174606Y0084876D01*
X0173714Y0083878D02*
X0151385Y0083878D01*
X0152383Y0082879D02*
X0172821Y0082879D01*
X0171929Y0081881D02*
X0154513Y0081881D01*
X0155232Y0080882D02*
X0171036Y0080882D01*
X0170121Y0079884D02*
X0155400Y0079884D01*
X0155136Y0078885D02*
X0169900Y0078885D01*
X0169900Y0077887D02*
X0154170Y0077887D01*
X0158000Y0073500D02*
X0164500Y0073500D01*
X0166000Y0075000D01*
X0168229Y0075890D02*
X0169900Y0075890D01*
X0169900Y0076888D02*
X0167506Y0076888D01*
X0168400Y0074891D02*
X0169900Y0074891D01*
X0169900Y0073893D02*
X0168139Y0073893D01*
X0167188Y0072894D02*
X0169900Y0072894D01*
X0169900Y0071896D02*
X0167498Y0071896D01*
X0171500Y0067500D02*
X0171500Y0079000D01*
X0175705Y0083705D01*
X0180955Y0088955D01*
X0186205Y0088955D01*
X0187687Y0090868D02*
X0192900Y0090868D01*
X0192900Y0089869D02*
X0188424Y0089869D01*
X0188605Y0088870D02*
X0192900Y0088870D01*
X0192900Y0087872D02*
X0188354Y0087872D01*
X0187451Y0086873D02*
X0192900Y0086873D01*
X0192900Y0085875D02*
X0180138Y0085875D01*
X0181136Y0086873D02*
X0184959Y0086873D01*
X0184723Y0090868D02*
X0155569Y0090868D01*
X0156112Y0091866D02*
X0192558Y0091866D01*
X0191759Y0092865D02*
X0156112Y0092865D01*
X0156112Y0093863D02*
X0190961Y0093863D01*
X0190162Y0094862D02*
X0156112Y0094862D01*
X0156507Y0099854D02*
X0138409Y0099854D01*
X0137410Y0100853D02*
X0141885Y0100853D01*
X0140886Y0101851D02*
X0136412Y0101851D01*
X0136100Y0102850D02*
X0139888Y0102850D01*
X0138889Y0103848D02*
X0136100Y0103848D01*
X0136100Y0104847D02*
X0136259Y0104847D01*
X0132900Y0104847D02*
X0123416Y0104847D01*
X0122418Y0105845D02*
X0132900Y0105845D01*
X0132900Y0106844D02*
X0121600Y0106844D01*
X0121600Y0107842D02*
X0132900Y0107842D01*
X0132765Y0108841D02*
X0121600Y0108841D01*
X0121600Y0109839D02*
X0132176Y0109839D01*
X0132100Y0110838D02*
X0121600Y0110838D01*
X0121600Y0111836D02*
X0132456Y0111836D01*
X0132900Y0112835D02*
X0121600Y0112835D01*
X0121727Y0113833D02*
X0132900Y0113833D01*
X0132900Y0114832D02*
X0122321Y0114832D01*
X0122400Y0115830D02*
X0132900Y0115830D01*
X0132900Y0116829D02*
X0122047Y0116829D01*
X0121600Y0117827D02*
X0132900Y0117827D01*
X0132900Y0118826D02*
X0121600Y0118826D01*
X0121600Y0119824D02*
X0132900Y0119824D01*
X0132900Y0120823D02*
X0121600Y0120823D01*
X0121600Y0121821D02*
X0132900Y0121821D01*
X0132900Y0122820D02*
X0121600Y0122820D01*
X0121600Y0123818D02*
X0132900Y0123818D01*
X0134500Y0110500D02*
X0134500Y0101500D01*
X0137780Y0098220D01*
X0137780Y0094819D01*
X0139735Y0098856D02*
X0139761Y0098856D01*
X0143672Y0098856D02*
X0143698Y0098856D01*
X0147609Y0098856D02*
X0147635Y0098856D01*
X0151546Y0098856D02*
X0151572Y0098856D01*
X0149388Y0085875D02*
X0175612Y0085875D01*
X0176611Y0086873D02*
X0137521Y0086873D01*
X0135766Y0087872D02*
X0177609Y0087872D01*
X0178608Y0088870D02*
X0136337Y0088870D01*
X0136400Y0089869D02*
X0179606Y0089869D01*
X0179139Y0084876D02*
X0192900Y0084876D01*
X0192900Y0083878D02*
X0178141Y0083878D01*
X0177142Y0082879D02*
X0192900Y0082879D01*
X0192900Y0081881D02*
X0176221Y0081881D01*
X0175328Y0080882D02*
X0192900Y0080882D01*
X0192900Y0079884D02*
X0174436Y0079884D01*
X0173543Y0078885D02*
X0192900Y0078885D01*
X0192900Y0077887D02*
X0173100Y0077887D01*
X0173100Y0076888D02*
X0192900Y0076888D01*
X0192900Y0075890D02*
X0173100Y0075890D01*
X0173100Y0074891D02*
X0192900Y0074891D01*
X0192900Y0073893D02*
X0173100Y0073893D01*
X0173100Y0072894D02*
X0192900Y0072894D01*
X0192900Y0071896D02*
X0173100Y0071896D01*
X0173100Y0070897D02*
X0178613Y0070897D01*
X0178613Y0069899D02*
X0173100Y0069899D01*
X0173100Y0068900D02*
X0178613Y0068900D01*
X0178613Y0067902D02*
X0173100Y0067902D01*
X0173119Y0066903D02*
X0178613Y0066903D01*
X0178613Y0065905D02*
X0172196Y0065905D01*
X0171256Y0064906D02*
X0178613Y0064906D01*
X0178613Y0063908D02*
X0170316Y0063908D01*
X0166000Y0066000D02*
X0153000Y0066000D01*
X0147000Y0066000D01*
X0138000Y0075000D01*
X0141000Y0078000D02*
X0149000Y0070000D01*
X0153500Y0061500D02*
X0179000Y0061500D01*
X0166417Y0052924D02*
X0165449Y0052924D01*
X0165449Y0051926D02*
X0166417Y0051926D01*
X0166417Y0050927D02*
X0165449Y0050927D01*
X0165449Y0048930D02*
X0166417Y0048930D01*
X0166417Y0047932D02*
X0165449Y0047932D01*
X0165449Y0046933D02*
X0166417Y0046933D01*
X0174435Y0034766D02*
X0175615Y0035255D01*
X0176837Y0035626D01*
X0178090Y0035875D01*
X0179361Y0036000D01*
X0179500Y0036000D01*
X0179500Y0023500D01*
X0180500Y0023500D01*
X0193000Y0023500D01*
X0193000Y0023639D01*
X0192875Y0024910D01*
X0192626Y0026163D01*
X0192255Y0027385D01*
X0191766Y0028565D01*
X0191164Y0029691D01*
X0190454Y0030753D01*
X0189644Y0031741D01*
X0188741Y0032644D01*
X0187753Y0033454D01*
X0186691Y0034164D01*
X0185565Y0034766D01*
X0184385Y0035255D01*
X0183163Y0035626D01*
X0181910Y0035875D01*
X0180639Y0036000D01*
X0180500Y0036000D01*
X0180500Y0023500D01*
X0180500Y0022500D01*
X0193000Y0022500D01*
X0193000Y0022361D01*
X0192875Y0021090D01*
X0192626Y0019837D01*
X0192255Y0018615D01*
X0191766Y0017435D01*
X0191164Y0016309D01*
X0190454Y0015247D01*
X0189644Y0014259D01*
X0188741Y0013356D01*
X0187753Y0012546D01*
X0186691Y0011836D01*
X0185565Y0011234D01*
X0184385Y0010745D01*
X0183163Y0010374D01*
X0181910Y0010125D01*
X0180639Y0010000D01*
X0180500Y0010000D01*
X0180500Y0022500D01*
X0179500Y0022500D01*
X0179500Y0010000D01*
X0179361Y0010000D01*
X0178090Y0010125D01*
X0176837Y0010374D01*
X0175615Y0010745D01*
X0174435Y0011234D01*
X0173309Y0011836D01*
X0172247Y0012546D01*
X0171259Y0013356D01*
X0170356Y0014259D01*
X0169546Y0015247D01*
X0168836Y0016309D01*
X0168234Y0017435D01*
X0167745Y0018615D01*
X0167374Y0019837D01*
X0167125Y0021090D01*
X0167000Y0022361D01*
X0167000Y0022500D01*
X0179500Y0022500D01*
X0179500Y0023500D01*
X0167000Y0023500D01*
X0167000Y0023639D01*
X0167125Y0024910D01*
X0167374Y0026163D01*
X0167745Y0027385D01*
X0168234Y0028565D01*
X0168836Y0029691D01*
X0169546Y0030753D01*
X0170356Y0031741D01*
X0171259Y0032644D01*
X0172247Y0033454D01*
X0173309Y0034164D01*
X0174435Y0034766D01*
X0174881Y0034951D02*
X0128204Y0034951D01*
X0128400Y0033952D02*
X0172992Y0033952D01*
X0171637Y0032954D02*
X0128164Y0032954D01*
X0127335Y0031955D02*
X0170571Y0031955D01*
X0169713Y0030957D02*
X0134147Y0030957D01*
X0135294Y0030294D02*
X0135294Y0030294D01*
X0135294Y0030294D01*
X0135488Y0029958D02*
X0169014Y0029958D01*
X0168445Y0028960D02*
X0136065Y0028960D01*
X0136500Y0027961D02*
X0167984Y0027961D01*
X0167617Y0026963D02*
X0136500Y0026963D01*
X0136500Y0025964D02*
X0167335Y0025964D01*
X0167136Y0024966D02*
X0136500Y0024966D01*
X0136500Y0023967D02*
X0167032Y0023967D01*
X0167039Y0021970D02*
X0136500Y0021970D01*
X0136500Y0020972D02*
X0167149Y0020972D01*
X0167347Y0019973D02*
X0136500Y0019973D01*
X0136500Y0018975D02*
X0167636Y0018975D01*
X0168010Y0017976D02*
X0136500Y0017976D01*
X0136500Y0016978D02*
X0168478Y0016978D01*
X0169056Y0015979D02*
X0136500Y0015979D01*
X0136500Y0014981D02*
X0169764Y0014981D01*
X0170633Y0013982D02*
X0136500Y0013982D01*
X0136500Y0012984D02*
X0171713Y0012984D01*
X0173086Y0011985D02*
X0136500Y0011985D01*
X0136500Y0010987D02*
X0175032Y0010987D01*
X0179500Y0010987D02*
X0180500Y0010987D01*
X0180500Y0011985D02*
X0179500Y0011985D01*
X0179500Y0012984D02*
X0180500Y0012984D01*
X0180500Y0013982D02*
X0179500Y0013982D01*
X0179500Y0014981D02*
X0180500Y0014981D01*
X0180500Y0015979D02*
X0179500Y0015979D01*
X0179500Y0016978D02*
X0180500Y0016978D01*
X0180500Y0017976D02*
X0179500Y0017976D01*
X0179500Y0018975D02*
X0180500Y0018975D01*
X0180500Y0019973D02*
X0179500Y0019973D01*
X0179500Y0020972D02*
X0180500Y0020972D01*
X0180500Y0021970D02*
X0179500Y0021970D01*
X0179500Y0022969D02*
X0136500Y0022969D01*
X0136500Y0009988D02*
X0186215Y0009988D01*
X0184968Y0010987D02*
X0187944Y0010987D01*
X0186914Y0011985D02*
X0189316Y0011985D01*
X0190314Y0012984D02*
X0188287Y0012984D01*
X0189367Y0013982D02*
X0191313Y0013982D01*
X0191970Y0014981D02*
X0190236Y0014981D01*
X0190944Y0015979D02*
X0192546Y0015979D01*
X0193123Y0016978D02*
X0191522Y0016978D01*
X0191990Y0017976D02*
X0193537Y0017976D01*
X0193396Y0017451D02*
X0193396Y0017451D01*
X0193805Y0018975D02*
X0192364Y0018975D01*
X0192653Y0019973D02*
X0194072Y0019973D01*
X0194340Y0020972D02*
X0192851Y0020972D01*
X0192961Y0021970D02*
X0194433Y0021970D01*
X0194498Y0022969D02*
X0180500Y0022969D01*
X0180500Y0023967D02*
X0179500Y0023967D01*
X0179500Y0024966D02*
X0180500Y0024966D01*
X0180500Y0025964D02*
X0179500Y0025964D01*
X0179500Y0026963D02*
X0180500Y0026963D01*
X0180500Y0027961D02*
X0179500Y0027961D01*
X0179500Y0028960D02*
X0180500Y0028960D01*
X0180500Y0029958D02*
X0179500Y0029958D01*
X0179500Y0030957D02*
X0180500Y0030957D01*
X0180500Y0031955D02*
X0179500Y0031955D01*
X0179500Y0032954D02*
X0180500Y0032954D01*
X0180500Y0033952D02*
X0179500Y0033952D01*
X0179500Y0034951D02*
X0180500Y0034951D01*
X0180500Y0035949D02*
X0179500Y0035949D01*
X0178848Y0035949D02*
X0130321Y0035949D01*
X0131162Y0036948D02*
X0178674Y0036948D01*
X0178613Y0037946D02*
X0131400Y0037946D01*
X0131206Y0038945D02*
X0178613Y0038945D01*
X0181152Y0035949D02*
X0194500Y0035949D01*
X0194500Y0034951D02*
X0185119Y0034951D01*
X0187008Y0033952D02*
X0194500Y0033952D01*
X0194500Y0032954D02*
X0188363Y0032954D01*
X0189429Y0031955D02*
X0194500Y0031955D01*
X0194500Y0030957D02*
X0190287Y0030957D01*
X0190986Y0029958D02*
X0194500Y0029958D01*
X0194500Y0028960D02*
X0191555Y0028960D01*
X0192016Y0027961D02*
X0194500Y0027961D01*
X0194500Y0026963D02*
X0192383Y0026963D01*
X0192665Y0025964D02*
X0194500Y0025964D01*
X0194500Y0024966D02*
X0192864Y0024966D01*
X0192968Y0023967D02*
X0194500Y0023967D01*
X0194500Y0036948D02*
X0194137Y0036948D01*
X0194198Y0037946D02*
X0194500Y0037946D01*
X0194500Y0038945D02*
X0194198Y0038945D01*
X0194198Y0039943D02*
X0194500Y0039943D01*
X0194500Y0040942D02*
X0194198Y0040942D01*
X0194198Y0041940D02*
X0194500Y0041940D01*
X0194500Y0042939D02*
X0194198Y0042939D01*
X0194198Y0043937D02*
X0194500Y0043937D01*
X0194500Y0044936D02*
X0147312Y0044936D01*
X0148252Y0045934D02*
X0194500Y0045934D01*
X0183257Y0008990D02*
X0136500Y0008990D01*
X0124665Y0031955D02*
X0098642Y0031955D01*
X0098853Y0030957D02*
X0097644Y0030957D01*
X0097706Y0030294D02*
X0097706Y0030294D01*
X0097706Y0030294D01*
X0097512Y0029958D02*
X0096645Y0029958D01*
X0096935Y0028960D02*
X0095647Y0028960D01*
X0096500Y0027961D02*
X0094648Y0027961D01*
X0093650Y0026963D02*
X0096500Y0026963D01*
X0096500Y0025964D02*
X0092651Y0025964D01*
X0091653Y0024966D02*
X0096500Y0024966D01*
X0096500Y0023967D02*
X0091170Y0023967D01*
X0090363Y0022969D02*
X0096500Y0022969D01*
X0096500Y0021970D02*
X0065961Y0021970D01*
X0066000Y0022361D02*
X0066000Y0022500D01*
X0053500Y0022500D01*
X0053500Y0023500D01*
X0066000Y0023500D01*
X0066000Y0023639D01*
X0065875Y0024910D01*
X0065626Y0026163D01*
X0065255Y0027385D01*
X0064766Y0028565D01*
X0064164Y0029691D01*
X0063454Y0030753D01*
X0062644Y0031741D01*
X0061741Y0032644D01*
X0060753Y0033454D01*
X0059691Y0034164D01*
X0058565Y0034766D01*
X0057385Y0035255D01*
X0056163Y0035626D01*
X0054910Y0035875D01*
X0053639Y0036000D01*
X0053500Y0036000D01*
X0053500Y0023500D01*
X0052500Y0023500D01*
X0052500Y0036000D01*
X0052361Y0036000D01*
X0051090Y0035875D01*
X0049837Y0035626D01*
X0048615Y0035255D01*
X0047435Y0034766D01*
X0046309Y0034164D01*
X0045247Y0033454D01*
X0044259Y0032644D01*
X0043356Y0031741D01*
X0042546Y0030753D01*
X0041836Y0029691D01*
X0041234Y0028565D01*
X0040745Y0027385D01*
X0040374Y0026163D01*
X0040125Y0024910D01*
X0040000Y0023639D01*
X0040000Y0023500D01*
X0052500Y0023500D01*
X0052500Y0022500D01*
X0053500Y0022500D01*
X0053500Y0010000D01*
X0053639Y0010000D01*
X0054910Y0010125D01*
X0056163Y0010374D01*
X0057385Y0010745D01*
X0058565Y0011234D01*
X0059691Y0011836D01*
X0060753Y0012546D01*
X0061741Y0013356D01*
X0062644Y0014259D01*
X0063454Y0015247D01*
X0064164Y0016309D01*
X0064766Y0017435D01*
X0065255Y0018615D01*
X0065626Y0019837D01*
X0065875Y0021090D01*
X0066000Y0022361D01*
X0065851Y0020972D02*
X0096500Y0020972D01*
X0096500Y0019973D02*
X0065653Y0019973D01*
X0065364Y0018975D02*
X0096500Y0018975D01*
X0096500Y0017976D02*
X0064990Y0017976D01*
X0064522Y0016978D02*
X0096500Y0016978D01*
X0096500Y0015979D02*
X0063944Y0015979D01*
X0063236Y0014981D02*
X0096500Y0014981D01*
X0096500Y0013982D02*
X0062367Y0013982D01*
X0061287Y0012984D02*
X0096500Y0012984D01*
X0096500Y0011985D02*
X0059914Y0011985D01*
X0057968Y0010987D02*
X0096500Y0010987D01*
X0096500Y0009988D02*
X0046785Y0009988D01*
X0047435Y0011234D02*
X0048615Y0010745D01*
X0049837Y0010374D01*
X0051090Y0010125D01*
X0052361Y0010000D01*
X0052500Y0010000D01*
X0052500Y0022500D01*
X0040000Y0022500D01*
X0040000Y0022361D01*
X0040125Y0021090D01*
X0040374Y0019837D01*
X0040745Y0018615D01*
X0041234Y0017435D01*
X0041836Y0016309D01*
X0042546Y0015247D01*
X0043356Y0014259D01*
X0044259Y0013356D01*
X0045247Y0012546D01*
X0046309Y0011836D01*
X0047435Y0011234D01*
X0048032Y0010987D02*
X0045056Y0010987D01*
X0046086Y0011985D02*
X0043684Y0011985D01*
X0042686Y0012984D02*
X0044713Y0012984D01*
X0043633Y0013982D02*
X0041687Y0013982D01*
X0041030Y0014981D02*
X0042764Y0014981D01*
X0042056Y0015979D02*
X0040454Y0015979D01*
X0039877Y0016978D02*
X0041478Y0016978D01*
X0041010Y0017976D02*
X0039463Y0017976D01*
X0039195Y0018975D02*
X0040636Y0018975D01*
X0040347Y0019973D02*
X0038928Y0019973D01*
X0038660Y0020972D02*
X0040149Y0020972D01*
X0040039Y0021970D02*
X0038567Y0021970D01*
X0038502Y0022969D02*
X0052500Y0022969D01*
X0052500Y0023967D02*
X0053500Y0023967D01*
X0053500Y0022969D02*
X0081637Y0022969D01*
X0080830Y0023967D02*
X0065968Y0023967D01*
X0065864Y0024966D02*
X0080600Y0024966D01*
X0080802Y0025964D02*
X0065665Y0025964D01*
X0065383Y0026963D02*
X0067647Y0026963D01*
X0067641Y0026965D02*
X0068523Y0026600D01*
X0069477Y0026600D01*
X0070359Y0026965D01*
X0071035Y0027641D01*
X0071400Y0028523D01*
X0071400Y0029477D01*
X0071035Y0030359D01*
X0070359Y0031035D01*
X0069477Y0031400D01*
X0068863Y0031400D01*
X0050663Y0049600D01*
X0043794Y0049600D01*
X0043359Y0050035D01*
X0042477Y0050400D01*
X0041523Y0050400D01*
X0040641Y0050035D01*
X0039965Y0049359D01*
X0039600Y0048477D01*
X0039600Y0047523D01*
X0039965Y0046641D01*
X0040641Y0045965D01*
X0041523Y0045600D01*
X0042477Y0045600D01*
X0043359Y0045965D01*
X0043794Y0046400D01*
X0049337Y0046400D01*
X0066600Y0029137D01*
X0066600Y0028523D01*
X0066965Y0027641D01*
X0067641Y0026965D01*
X0066832Y0027961D02*
X0065016Y0027961D01*
X0064555Y0028960D02*
X0066600Y0028960D01*
X0065779Y0029958D02*
X0063986Y0029958D01*
X0063287Y0030957D02*
X0064780Y0030957D01*
X0063782Y0031955D02*
X0062429Y0031955D01*
X0062783Y0032954D02*
X0061363Y0032954D01*
X0061785Y0033952D02*
X0060008Y0033952D01*
X0060786Y0034951D02*
X0058119Y0034951D01*
X0059788Y0035949D02*
X0054152Y0035949D01*
X0053500Y0035949D02*
X0052500Y0035949D01*
X0051848Y0035949D02*
X0038500Y0035949D01*
X0038500Y0034951D02*
X0047881Y0034951D01*
X0045992Y0033952D02*
X0038500Y0033952D01*
X0038500Y0032954D02*
X0044637Y0032954D01*
X0043571Y0031955D02*
X0038500Y0031955D01*
X0038500Y0030957D02*
X0042713Y0030957D01*
X0042014Y0029958D02*
X0038500Y0029958D01*
X0038500Y0028960D02*
X0041445Y0028960D01*
X0040984Y0027961D02*
X0038500Y0027961D01*
X0038500Y0026963D02*
X0040617Y0026963D01*
X0040335Y0025964D02*
X0038500Y0025964D01*
X0038500Y0024966D02*
X0040136Y0024966D01*
X0040032Y0023967D02*
X0038500Y0023967D01*
X0028500Y0025964D02*
X0021763Y0025964D01*
X0022761Y0026963D02*
X0028500Y0026963D01*
X0028500Y0027961D02*
X0023760Y0027961D01*
X0024100Y0028960D02*
X0028500Y0028960D01*
X0028500Y0029958D02*
X0024100Y0029958D01*
X0024100Y0030957D02*
X0028500Y0030957D01*
X0028500Y0031955D02*
X0023843Y0031955D01*
X0022844Y0032954D02*
X0028500Y0032954D01*
X0028500Y0033952D02*
X0021846Y0033952D01*
X0038500Y0036948D02*
X0058789Y0036948D01*
X0057791Y0037946D02*
X0038500Y0037946D01*
X0038500Y0038945D02*
X0056792Y0038945D01*
X0055794Y0039943D02*
X0038500Y0039943D01*
X0038500Y0040942D02*
X0054795Y0040942D01*
X0053797Y0041940D02*
X0038500Y0041940D01*
X0038500Y0042939D02*
X0052798Y0042939D01*
X0051800Y0043937D02*
X0038500Y0043937D01*
X0038500Y0044936D02*
X0050801Y0044936D01*
X0049803Y0045934D02*
X0043285Y0045934D01*
X0042000Y0048000D02*
X0050000Y0048000D01*
X0069000Y0029000D01*
X0071400Y0028960D02*
X0084273Y0028960D01*
X0085271Y0029958D02*
X0071201Y0029958D01*
X0070437Y0030957D02*
X0086270Y0030957D01*
X0087268Y0031955D02*
X0068307Y0031955D01*
X0067309Y0032954D02*
X0088267Y0032954D01*
X0089265Y0033952D02*
X0066310Y0033952D01*
X0065312Y0034951D02*
X0090264Y0034951D01*
X0091262Y0035949D02*
X0064313Y0035949D01*
X0063315Y0036948D02*
X0092261Y0036948D01*
X0093259Y0037946D02*
X0062316Y0037946D01*
X0061318Y0038945D02*
X0094258Y0038945D01*
X0087370Y0039943D02*
X0060319Y0039943D01*
X0059321Y0040942D02*
X0086371Y0040942D01*
X0085373Y0041940D02*
X0058322Y0041940D01*
X0057324Y0042939D02*
X0084374Y0042939D01*
X0083376Y0043937D02*
X0056325Y0043937D01*
X0055327Y0044936D02*
X0082377Y0044936D01*
X0080715Y0045934D02*
X0054328Y0045934D01*
X0053330Y0046933D02*
X0079844Y0046933D01*
X0079381Y0047932D02*
X0052331Y0047932D01*
X0051333Y0048930D02*
X0078383Y0048930D01*
X0077384Y0049929D02*
X0043466Y0049929D01*
X0040534Y0049929D02*
X0038500Y0049929D01*
X0038500Y0050927D02*
X0059733Y0050927D01*
X0058847Y0051926D02*
X0038500Y0051926D01*
X0038500Y0052924D02*
X0040740Y0052924D01*
X0039849Y0053923D02*
X0038500Y0053923D01*
X0038500Y0054921D02*
X0039600Y0054921D01*
X0039783Y0055920D02*
X0038500Y0055920D01*
X0038126Y0056918D02*
X0040524Y0056918D01*
X0042654Y0057917D02*
X0037645Y0057917D01*
X0045182Y0055920D02*
X0121100Y0055920D01*
X0121100Y0056918D02*
X0046181Y0056918D01*
X0047179Y0057917D02*
X0121100Y0057917D01*
X0121100Y0058915D02*
X0047600Y0058915D01*
X0047600Y0059914D02*
X0121100Y0059914D01*
X0121100Y0060912D02*
X0047600Y0060912D01*
X0047600Y0061911D02*
X0121100Y0061911D01*
X0121100Y0062909D02*
X0047600Y0062909D01*
X0044400Y0066903D02*
X0043038Y0066903D01*
X0044369Y0067902D02*
X0044400Y0067902D01*
X0054248Y0074891D02*
X0056497Y0074891D01*
X0056857Y0075890D02*
X0053821Y0075890D01*
X0054248Y0080882D02*
X0056841Y0080882D01*
X0056482Y0084876D02*
X0054248Y0084876D01*
X0030339Y0075890D02*
X0004500Y0075890D01*
X0004500Y0076888D02*
X0007313Y0076888D01*
X0006315Y0077887D02*
X0004500Y0077887D01*
X0004500Y0078885D02*
X0005900Y0078885D01*
X0005900Y0079884D02*
X0004500Y0079884D01*
X0004500Y0080882D02*
X0005900Y0080882D01*
X0006083Y0081881D02*
X0004500Y0081881D01*
X0004500Y0082879D02*
X0007081Y0082879D01*
X0008080Y0083878D02*
X0004500Y0083878D01*
X0004500Y0084876D02*
X0011600Y0084876D01*
X0004500Y0074891D02*
X0030662Y0074891D01*
X0015606Y0096859D02*
X0014394Y0096859D01*
X0013655Y0097857D02*
X0016345Y0097857D01*
X0015900Y0098856D02*
X0014100Y0098856D01*
X0014100Y0099854D02*
X0015900Y0099854D01*
X0015900Y0100853D02*
X0014100Y0100853D01*
X0013947Y0101851D02*
X0016053Y0101851D01*
X0017051Y0102850D02*
X0012949Y0102850D01*
X0011950Y0103848D02*
X0018050Y0103848D01*
X0018302Y0105900D02*
X0021698Y0105900D01*
X0024100Y0108302D01*
X0024100Y0111698D01*
X0021698Y0114100D01*
X0018302Y0114100D01*
X0015900Y0111698D01*
X0015900Y0108302D01*
X0018302Y0105900D01*
X0017358Y0106844D02*
X0012642Y0106844D01*
X0011698Y0105900D02*
X0014100Y0108302D01*
X0014100Y0111698D01*
X0011698Y0114100D01*
X0008302Y0114100D01*
X0005900Y0111698D01*
X0005900Y0108302D01*
X0008302Y0105900D01*
X0011698Y0105900D01*
X0013640Y0107842D02*
X0016360Y0107842D01*
X0015900Y0108841D02*
X0014100Y0108841D01*
X0014100Y0109839D02*
X0015900Y0109839D01*
X0015900Y0110838D02*
X0014100Y0110838D01*
X0013962Y0111836D02*
X0016038Y0111836D01*
X0017036Y0112835D02*
X0012963Y0112835D01*
X0011965Y0113833D02*
X0018035Y0113833D01*
X0018302Y0115900D02*
X0021698Y0115900D01*
X0024100Y0118302D01*
X0024100Y0121698D01*
X0021698Y0124100D01*
X0018302Y0124100D01*
X0015900Y0121698D01*
X0015900Y0118302D01*
X0018302Y0115900D01*
X0017373Y0116829D02*
X0012627Y0116829D01*
X0011698Y0115900D02*
X0014100Y0118302D01*
X0014100Y0121698D01*
X0011698Y0124100D01*
X0008302Y0124100D01*
X0005900Y0121698D01*
X0005900Y0118302D01*
X0008302Y0115900D01*
X0011698Y0115900D01*
X0013626Y0117827D02*
X0016374Y0117827D01*
X0015900Y0118826D02*
X0014100Y0118826D01*
X0014100Y0119824D02*
X0015900Y0119824D01*
X0015900Y0120823D02*
X0014100Y0120823D01*
X0013977Y0121821D02*
X0016023Y0121821D01*
X0017022Y0122820D02*
X0012978Y0122820D01*
X0011980Y0123818D02*
X0018020Y0123818D01*
X0017388Y0126814D02*
X0012612Y0126814D01*
X0013611Y0127812D02*
X0016389Y0127812D01*
X0015900Y0128811D02*
X0014100Y0128811D01*
X0014931Y0129809D02*
X0015900Y0129809D01*
X0022612Y0126814D02*
X0024500Y0126814D01*
X0024500Y0127812D02*
X0023611Y0127812D01*
X0024100Y0128811D02*
X0024500Y0128811D01*
X0024500Y0129809D02*
X0024100Y0129809D01*
X0024100Y0130808D02*
X0024500Y0130808D01*
X0024500Y0131806D02*
X0023992Y0131806D01*
X0024500Y0132805D02*
X0022993Y0132805D01*
X0022925Y0133803D02*
X0024500Y0133803D01*
X0024500Y0134802D02*
X0023923Y0134802D01*
X0027500Y0134802D02*
X0028500Y0134802D01*
X0028500Y0135801D02*
X0027500Y0135801D01*
X0027500Y0136799D02*
X0028500Y0136799D01*
X0028500Y0137798D02*
X0027500Y0137798D01*
X0027500Y0138796D02*
X0028500Y0138796D01*
X0028500Y0139795D02*
X0027500Y0139795D01*
X0027500Y0140793D02*
X0028500Y0140793D01*
X0028500Y0141792D02*
X0027500Y0141792D01*
X0027500Y0142790D02*
X0028500Y0142790D01*
X0028500Y0143789D02*
X0027500Y0143789D01*
X0027500Y0144787D02*
X0028500Y0144787D01*
X0028500Y0145786D02*
X0027500Y0145786D01*
X0027500Y0146784D02*
X0028500Y0146784D01*
X0028500Y0147783D02*
X0027500Y0147783D01*
X0027500Y0148781D02*
X0028500Y0148781D01*
X0028500Y0149780D02*
X0027500Y0149780D01*
X0027500Y0150778D02*
X0028500Y0150778D01*
X0028500Y0151777D02*
X0027500Y0151777D01*
X0027500Y0152775D02*
X0028493Y0152775D01*
X0028519Y0153774D02*
X0027500Y0153774D01*
X0027500Y0154772D02*
X0028545Y0154772D01*
X0028570Y0155771D02*
X0027500Y0155771D01*
X0027500Y0156769D02*
X0028814Y0156769D01*
X0028575Y0155960D02*
X0028575Y0155960D01*
X0028500Y0133803D02*
X0027500Y0133803D01*
X0027500Y0132805D02*
X0028500Y0132805D01*
X0028500Y0131806D02*
X0027500Y0131806D01*
X0027500Y0130808D02*
X0028500Y0130808D01*
X0028500Y0129809D02*
X0027500Y0129809D01*
X0027500Y0128811D02*
X0028500Y0128811D01*
X0028500Y0127812D02*
X0027500Y0127812D01*
X0027500Y0126814D02*
X0028500Y0126814D01*
X0028500Y0125815D02*
X0027500Y0125815D01*
X0027500Y0124817D02*
X0028500Y0124817D01*
X0028500Y0123818D02*
X0027500Y0123818D01*
X0027500Y0122820D02*
X0028500Y0122820D01*
X0028500Y0121821D02*
X0027500Y0121821D01*
X0027500Y0120823D02*
X0028500Y0120823D01*
X0028500Y0119824D02*
X0027500Y0119824D01*
X0027500Y0118826D02*
X0028500Y0118826D01*
X0028500Y0117827D02*
X0027500Y0117827D01*
X0027500Y0116829D02*
X0028500Y0116829D01*
X0028500Y0115830D02*
X0027500Y0115830D01*
X0027500Y0114832D02*
X0028513Y0114832D01*
X0028994Y0113833D02*
X0027500Y0113833D01*
X0027500Y0112835D02*
X0029475Y0112835D01*
X0029490Y0112802D02*
X0029490Y0112802D01*
X0030250Y0111836D02*
X0027500Y0111836D01*
X0027500Y0110838D02*
X0030464Y0110838D01*
X0030641Y0109839D02*
X0027500Y0109839D01*
X0028620Y0108841D02*
X0030250Y0108841D01*
X0024500Y0108841D02*
X0024100Y0108841D01*
X0024100Y0109839D02*
X0024500Y0109839D01*
X0024500Y0110838D02*
X0024100Y0110838D01*
X0023962Y0111836D02*
X0024500Y0111836D01*
X0024500Y0112835D02*
X0022963Y0112835D01*
X0021965Y0113833D02*
X0024500Y0113833D01*
X0024500Y0114832D02*
X0004500Y0114832D01*
X0004500Y0115830D02*
X0024500Y0115830D01*
X0024500Y0116829D02*
X0022627Y0116829D01*
X0023626Y0117827D02*
X0024500Y0117827D01*
X0024500Y0118826D02*
X0024100Y0118826D01*
X0024100Y0119824D02*
X0024500Y0119824D01*
X0024500Y0120823D02*
X0024100Y0120823D01*
X0023977Y0121821D02*
X0024500Y0121821D01*
X0024500Y0122820D02*
X0022978Y0122820D01*
X0021980Y0123818D02*
X0024500Y0123818D01*
X0024500Y0124817D02*
X0004500Y0124817D01*
X0004500Y0125815D02*
X0024500Y0125815D01*
X0023721Y0107842D02*
X0023640Y0107842D01*
X0023500Y0106844D02*
X0022642Y0106844D01*
X0023500Y0105845D02*
X0004500Y0105845D01*
X0004500Y0106844D02*
X0007358Y0106844D01*
X0006360Y0107842D02*
X0004500Y0107842D01*
X0004500Y0108841D02*
X0005900Y0108841D01*
X0005900Y0109839D02*
X0004500Y0109839D01*
X0004500Y0110838D02*
X0005900Y0110838D01*
X0006038Y0111836D02*
X0004500Y0111836D01*
X0004500Y0112835D02*
X0007036Y0112835D01*
X0008035Y0113833D02*
X0004500Y0113833D01*
X0004500Y0116829D02*
X0007373Y0116829D01*
X0006374Y0117827D02*
X0004500Y0117827D01*
X0004500Y0118826D02*
X0005900Y0118826D01*
X0005900Y0119824D02*
X0004500Y0119824D01*
X0004500Y0120823D02*
X0005900Y0120823D01*
X0006023Y0121821D02*
X0004500Y0121821D01*
X0004500Y0122820D02*
X0007022Y0122820D01*
X0008020Y0123818D02*
X0004500Y0123818D01*
X0004500Y0126814D02*
X0007388Y0126814D01*
X0006389Y0127812D02*
X0004500Y0127812D01*
X0004500Y0128811D02*
X0005900Y0128811D01*
X0005900Y0129809D02*
X0004500Y0129809D01*
X0004500Y0130808D02*
X0005900Y0130808D01*
X0006008Y0131806D02*
X0004500Y0131806D01*
X0004500Y0132805D02*
X0007007Y0132805D01*
X0007075Y0133803D02*
X0004500Y0133803D01*
X0004500Y0134802D02*
X0006077Y0134802D01*
X0005078Y0135801D02*
X0004500Y0135801D01*
X0004500Y0073893D02*
X0008095Y0073893D01*
X0007096Y0072894D02*
X0004500Y0072894D01*
X0004500Y0071896D02*
X0006098Y0071896D01*
X0005900Y0070897D02*
X0004500Y0070897D01*
X0004500Y0069899D02*
X0005900Y0069899D01*
X0005900Y0068900D02*
X0004500Y0068900D01*
X0004500Y0067902D02*
X0006300Y0067902D01*
X0007298Y0066903D02*
X0004500Y0066903D01*
X0004500Y0065905D02*
X0008297Y0065905D01*
X0038500Y0048930D02*
X0039788Y0048930D01*
X0039600Y0047932D02*
X0038500Y0047932D01*
X0038500Y0046933D02*
X0039844Y0046933D01*
X0040715Y0045934D02*
X0038500Y0045934D01*
X0052500Y0034951D02*
X0053500Y0034951D01*
X0053500Y0033952D02*
X0052500Y0033952D01*
X0052500Y0032954D02*
X0053500Y0032954D01*
X0053500Y0031955D02*
X0052500Y0031955D01*
X0052500Y0030957D02*
X0053500Y0030957D01*
X0053500Y0029958D02*
X0052500Y0029958D01*
X0052500Y0028960D02*
X0053500Y0028960D01*
X0053500Y0027961D02*
X0052500Y0027961D01*
X0052500Y0026963D02*
X0053500Y0026963D01*
X0053500Y0025964D02*
X0052500Y0025964D01*
X0052500Y0024966D02*
X0053500Y0024966D01*
X0053500Y0021970D02*
X0052500Y0021970D01*
X0052500Y0020972D02*
X0053500Y0020972D01*
X0053500Y0019973D02*
X0052500Y0019973D01*
X0052500Y0018975D02*
X0053500Y0018975D01*
X0053500Y0017976D02*
X0052500Y0017976D01*
X0052500Y0016978D02*
X0053500Y0016978D01*
X0053500Y0015979D02*
X0052500Y0015979D01*
X0052500Y0014981D02*
X0053500Y0014981D01*
X0053500Y0013982D02*
X0052500Y0013982D01*
X0052500Y0012984D02*
X0053500Y0012984D01*
X0053500Y0011985D02*
X0052500Y0011985D01*
X0052500Y0010987D02*
X0053500Y0010987D01*
X0049743Y0008990D02*
X0096500Y0008990D01*
X0087637Y0022969D02*
X0084363Y0022969D01*
X0085170Y0023967D02*
X0086830Y0023967D01*
X0086600Y0024966D02*
X0085653Y0024966D01*
X0086651Y0025964D02*
X0086802Y0025964D01*
X0083274Y0027961D02*
X0071167Y0027961D01*
X0070353Y0026963D02*
X0081569Y0026963D01*
X0076386Y0050927D02*
X0062267Y0050927D01*
X0110220Y0097780D02*
X0101500Y0106500D01*
X0101500Y0150500D01*
X0098000Y0154000D01*
X0099623Y0155771D02*
X0106377Y0155771D01*
X0105722Y0154772D02*
X0100278Y0154772D01*
X0100489Y0153774D02*
X0105600Y0153774D01*
X0105910Y0152775D02*
X0101488Y0152775D01*
X0109623Y0155771D02*
X0116377Y0155771D01*
X0115722Y0154772D02*
X0110278Y0154772D01*
X0110489Y0153774D02*
X0115511Y0153774D01*
X0114512Y0152775D02*
X0111100Y0152775D01*
X0111100Y0151777D02*
X0114400Y0151777D01*
X0114400Y0150778D02*
X0111100Y0150778D01*
X0111100Y0149780D02*
X0114400Y0149780D01*
X0114400Y0148781D02*
X0111100Y0148781D01*
X0111100Y0147783D02*
X0114400Y0147783D01*
X0114400Y0146784D02*
X0111100Y0146784D01*
X0111100Y0145786D02*
X0114400Y0145786D01*
X0120000Y0136000D02*
X0120000Y0115500D01*
X0120000Y0106000D01*
X0126000Y0100000D01*
X0131000Y0100000D01*
X0133843Y0097157D01*
X0133843Y0094819D01*
X0134000Y0094661D01*
X0134000Y0089500D01*
X0132234Y0087872D02*
X0118400Y0087872D01*
X0118237Y0088870D02*
X0131663Y0088870D01*
X0131600Y0089869D02*
X0117525Y0089869D01*
X0116000Y0088000D02*
X0114157Y0089843D01*
X0114157Y0094819D01*
X0114157Y0097843D01*
X0112000Y0100000D01*
X0110220Y0097780D02*
X0110220Y0094819D01*
X0110220Y0088780D01*
X0116000Y0082000D02*
X0116500Y0081500D01*
X0119500Y0081500D01*
X0123000Y0078000D01*
X0123000Y0074000D01*
X0118131Y0086873D02*
X0134479Y0086873D01*
X0127864Y0090868D02*
X0120136Y0090868D01*
X0120679Y0091866D02*
X0127321Y0091866D01*
X0118094Y0094819D02*
X0118094Y0097906D01*
X0124415Y0103848D02*
X0132900Y0103848D01*
X0132900Y0102850D02*
X0125413Y0102850D01*
X0126412Y0101851D02*
X0132900Y0101851D01*
X0132900Y0100853D02*
X0132410Y0100853D01*
X0133409Y0099854D02*
X0133883Y0099854D01*
X0164584Y0115830D02*
X0182833Y0115830D01*
X0182110Y0114832D02*
X0169506Y0114832D01*
X0170125Y0113833D02*
X0181820Y0113833D01*
X0181834Y0112835D02*
X0170745Y0112835D01*
X0171426Y0111836D02*
X0182247Y0111836D01*
X0183165Y0110838D02*
X0171605Y0110838D01*
X0171600Y0109839D02*
X0188100Y0109839D01*
X0188100Y0108841D02*
X0171600Y0108841D01*
X0171600Y0107842D02*
X0187155Y0107842D01*
X0186157Y0106844D02*
X0171600Y0106844D01*
X0176849Y0100853D02*
X0194500Y0100853D01*
X0194500Y0097857D02*
X0191906Y0097857D01*
X0192662Y0096859D02*
X0194500Y0096859D01*
X0194500Y0095860D02*
X0193461Y0095860D01*
X0194260Y0094862D02*
X0194500Y0094862D01*
X0188100Y0110838D02*
X0186834Y0110838D01*
X0187752Y0111836D02*
X0188100Y0111836D01*
X0188100Y0114832D02*
X0187890Y0114832D01*
X0188100Y0115830D02*
X0187166Y0115830D01*
X0188100Y0116829D02*
X0164584Y0116829D01*
X0164584Y0117827D02*
X0188100Y0117827D01*
X0188100Y0118826D02*
X0164584Y0118826D01*
X0164584Y0119824D02*
X0187489Y0119824D01*
X0186490Y0120823D02*
X0177385Y0120823D01*
X0177432Y0120870D02*
X0175000Y0123302D01*
X0175198Y0123500D01*
X0175000Y0123697D01*
X0174802Y0123500D01*
X0172370Y0125932D01*
X0172220Y0125782D01*
X0171828Y0125195D01*
X0171558Y0124544D01*
X0171420Y0123852D01*
X0171420Y0123147D01*
X0171558Y0122456D01*
X0171828Y0121804D01*
X0172220Y0121218D01*
X0172370Y0121067D01*
X0174802Y0123500D01*
X0175000Y0123302D01*
X0172568Y0120870D01*
X0172718Y0120719D01*
X0173304Y0120328D01*
X0173956Y0120058D01*
X0174647Y0119920D01*
X0175353Y0119920D01*
X0176044Y0120058D01*
X0176696Y0120328D01*
X0177282Y0120719D01*
X0177432Y0120870D01*
X0177630Y0121067D02*
X0177780Y0121218D01*
X0178172Y0121804D01*
X0178442Y0122456D01*
X0178580Y0123147D01*
X0178580Y0123852D01*
X0178442Y0124544D01*
X0178172Y0125195D01*
X0177780Y0125782D01*
X0177630Y0125932D01*
X0175198Y0123500D01*
X0177630Y0121067D01*
X0178179Y0121821D02*
X0185492Y0121821D01*
X0184493Y0122820D02*
X0178514Y0122820D01*
X0178580Y0123818D02*
X0183495Y0123818D01*
X0182496Y0124817D02*
X0178329Y0124817D01*
X0177746Y0125815D02*
X0181498Y0125815D01*
X0180499Y0126814D02*
X0176353Y0126814D01*
X0176044Y0126942D02*
X0175353Y0127079D01*
X0174647Y0127079D01*
X0173956Y0126942D01*
X0173304Y0126672D01*
X0172718Y0126280D01*
X0172568Y0126130D01*
X0175000Y0123697D01*
X0177432Y0126130D01*
X0177282Y0126280D01*
X0176696Y0126672D01*
X0176044Y0126942D01*
X0177118Y0125815D02*
X0177513Y0125815D01*
X0176515Y0124817D02*
X0176120Y0124817D01*
X0175516Y0123818D02*
X0175121Y0123818D01*
X0174879Y0123818D02*
X0174484Y0123818D01*
X0174518Y0122820D02*
X0174122Y0122820D01*
X0173519Y0121821D02*
X0173124Y0121821D01*
X0172615Y0120823D02*
X0164584Y0120823D01*
X0164584Y0121821D02*
X0171821Y0121821D01*
X0171486Y0122820D02*
X0164584Y0122820D01*
X0164584Y0123818D02*
X0171420Y0123818D01*
X0171671Y0124817D02*
X0164584Y0124817D01*
X0164584Y0125815D02*
X0172254Y0125815D01*
X0172487Y0125815D02*
X0172882Y0125815D01*
X0173485Y0124817D02*
X0173880Y0124817D01*
X0173647Y0126814D02*
X0164584Y0126814D01*
X0164584Y0127812D02*
X0179501Y0127812D01*
X0178502Y0128811D02*
X0164584Y0128811D01*
X0164584Y0129809D02*
X0177504Y0129809D01*
X0176505Y0130808D02*
X0164584Y0130808D01*
X0175482Y0122820D02*
X0175877Y0122820D01*
X0176481Y0121821D02*
X0176876Y0121821D01*
X0143952Y0145786D02*
X0138477Y0145786D01*
X0137479Y0146784D02*
X0142953Y0146784D01*
X0141955Y0147783D02*
X0136480Y0147783D01*
X0135482Y0148781D02*
X0140956Y0148781D01*
X0139958Y0149780D02*
X0134483Y0149780D01*
X0133485Y0150778D02*
X0138959Y0150778D01*
X0109500Y0218677D02*
X0071584Y0218677D01*
X0073181Y0219675D02*
X0109500Y0219675D01*
X0109500Y0220674D02*
X0074016Y0220674D01*
X0074429Y0221672D02*
X0109500Y0221672D01*
X0109500Y0222671D02*
X0074600Y0222671D01*
X0074600Y0223670D02*
X0109500Y0223670D01*
X0109500Y0224668D02*
X0074288Y0224668D01*
X0073839Y0225667D02*
X0109500Y0225667D01*
X0109500Y0226665D02*
X0072840Y0226665D01*
X0070500Y0228662D02*
X0069500Y0228662D01*
X0069500Y0229661D02*
X0070500Y0229661D01*
X0070500Y0230659D02*
X0069500Y0230659D01*
X0074254Y0235652D02*
X0109500Y0235652D01*
X0109500Y0234653D02*
X0074720Y0234653D01*
X0074959Y0233655D02*
X0109500Y0233655D01*
X0124278Y0047932D02*
X0125722Y0047932D01*
X0127445Y0035949D02*
X0127679Y0035949D01*
X0120853Y0030957D02*
X0112147Y0030957D01*
X0113294Y0030294D02*
X0113294Y0030294D01*
X0113294Y0030294D01*
X0113488Y0029958D02*
X0119512Y0029958D01*
X0119706Y0030294D02*
X0119706Y0030294D01*
X0119706Y0030294D01*
X0137337Y0047600D02*
X0137337Y0047600D01*
X0149192Y0046933D02*
X0155918Y0046933D01*
X0155378Y0047932D02*
X0150131Y0047932D01*
D23*
X0116000Y0082000D02*
X0097000Y0082000D01*
X0090000Y0089000D01*
X0072000Y0143000D02*
X0075000Y0146000D01*
X0075500Y0146000D01*
X0158000Y0154000D02*
X0160531Y0151469D01*
X0160531Y0133319D01*
D24*
X0176681Y0133319D01*
X0190000Y0120000D01*
X0190000Y0108000D01*
X0185500Y0103500D01*
X0175000Y0103500D01*
X0165933Y0057937D02*
X0156937Y0057937D01*
X0141000Y0041000D01*
X0089000Y0041000D01*
X0082000Y0048000D01*
X0077000Y0053000D01*
X0061000Y0053000D01*
X0083000Y0025000D02*
X0096000Y0038000D01*
X0129000Y0038000D01*
X0126000Y0034000D02*
X0098000Y0034000D01*
X0089000Y0025000D01*
X0123000Y0050000D02*
X0123000Y0068000D01*
X0113882Y0079118D01*
X0089126Y0079118D01*
X0050000Y0184000D02*
X0029000Y0205000D01*
X0029000Y0209000D01*
X0026000Y0209000D01*
X0025000Y0210000D01*
X0025000Y0219000D01*
X0026000Y0220000D01*
X0042000Y0220000D01*
X0026000Y0220000D02*
X0020000Y0220000D01*
X0070000Y0213000D02*
X0080000Y0203000D01*
X0080000Y0194000D01*
D25*
X0064000Y0186000D02*
X0064000Y0182000D01*
X0060000Y0178000D01*
X0034000Y0178000D01*
X0026000Y0170000D01*
X0026000Y0139000D01*
X0026000Y0108000D01*
X0025000Y0107000D01*
X0025000Y0106000D01*
X0026000Y0105000D01*
X0026000Y0087000D01*
X0024000Y0085000D02*
X0027000Y0082000D01*
X0041500Y0082000D01*
X0043000Y0083500D01*
X0039500Y0083500D01*
X0039000Y0083000D01*
X0043000Y0083500D02*
X0045266Y0083500D01*
X0045766Y0083000D01*
X0039250Y0078500D02*
X0028750Y0078500D01*
X0024000Y0085000D02*
X0019000Y0085000D01*
X0016000Y0088000D01*
X0016000Y0093000D01*
X0017000Y0094000D01*
X0017000Y0095000D01*
X0013000Y0095000D02*
X0013000Y0093000D01*
X0014000Y0092000D01*
X0014000Y0085000D01*
X0025000Y0068000D02*
X0022000Y0065000D01*
X0025000Y0068000D02*
X0042000Y0068000D01*
X0046000Y0071000D01*
X0046000Y0072766D01*
X0045766Y0073000D01*
X0045766Y0103000D02*
X0044266Y0104500D01*
X0043766Y0104000D01*
X0042000Y0104000D01*
X0039500Y0106500D01*
X0028000Y0106500D01*
X0027500Y0110000D02*
X0038000Y0110000D01*
X0040000Y0108000D01*
X0040500Y0104500D02*
X0041000Y0104000D01*
X0042000Y0104000D01*
X0022000Y0135000D02*
X0018000Y0135000D01*
X0013000Y0130000D01*
X0010000Y0130000D01*
X0008000Y0135000D02*
X0005000Y0138000D01*
X0005000Y0212000D01*
X0008000Y0215000D01*
X0015000Y0215000D01*
X0019000Y0205000D02*
X0023000Y0205000D01*
X0019000Y0205000D02*
X0014000Y0200000D01*
X0014000Y0144000D01*
X0010000Y0140000D01*
X0008000Y0135000D02*
X0015000Y0135000D01*
X0020000Y0140000D01*
X0022000Y0135000D02*
X0026000Y0139000D01*
X0017000Y0145000D02*
X0017000Y0146000D01*
X0016000Y0147000D01*
X0016000Y0196000D01*
X0020000Y0200000D01*
X0040000Y0180000D01*
X0056000Y0180000D01*
X0060000Y0184000D01*
X0064000Y0186000D02*
X0060000Y0190000D01*
X0060000Y0194000D01*
D26*
X0042000Y0220000D03*
X0029000Y0209000D03*
X0023000Y0205000D03*
X0015000Y0215000D03*
X0027000Y0182000D03*
X0017000Y0145000D03*
X0017000Y0095000D03*
X0013000Y0095000D03*
X0058000Y0078000D03*
X0058000Y0068000D03*
M02*
